<svg id="svg" xmlns="http://www.w3.org/2000/svg" xmlns:xlink="http://www.w3.org/1999/xlink" width="400" height="108.92364305427783" viewBox="0, 0, 400,108.92364305427783"><g id="svgg"><path id="path0" d="M60.833 51.960 C 60.833 64.983,60.878 68.571,61.042 68.743 C 61.156 68.864,61.399 69.169,61.582 69.421 C 62.449 70.616,76.039 84.003,76.377 83.995 C 77.207 83.973,77.167 84.811,77.167 67.626 L 77.167 51.705 69.000 43.551 L 60.833 35.396 60.833 51.960 M216.583 35.992 C 214.834 36.230,212.621 36.921,211.360 37.622 C 210.933 37.859,210.434 38.135,210.253 38.235 C 208.801 39.032,206.757 40.940,205.413 42.750 C 205.141 43.117,204.871 43.454,204.814 43.500 C 204.756 43.546,204.446 44.108,204.125 44.750 C 203.590 45.817,203.238 46.783,202.637 48.833 C 202.345 49.826,202.337 54.813,202.625 55.792 C 202.740 56.181,202.921 56.819,203.028 57.208 C 203.313 58.242,204.767 61.207,205.265 61.768 C 205.501 62.033,205.978 62.628,206.326 63.091 C 207.190 64.236,209.808 66.485,210.292 66.495 C 210.406 66.498,210.500 66.559,210.500 66.631 C 210.500 66.838,212.756 67.832,213.917 68.137 C 221.142 70.035,227.985 67.692,232.329 61.833 C 236.463 56.257,236.121 47.125,231.587 42.015 C 229.446 39.602,228.721 38.992,226.628 37.844 C 223.761 36.270,219.843 35.548,216.583 35.992 M319.417 36.072 C 305.973 38.373,300.995 54.365,310.667 64.177 C 315.325 68.903,322.845 70.193,328.917 67.307 C 334.165 64.812,337.431 60.575,338.337 55.083 C 340.163 44.015,330.389 34.194,319.417 36.072 M165.083 36.100 C 162.427 36.449,161.006 37.155,159.127 39.059 C 157.471 40.738,157.523 40.758,157.461 38.417 L 157.417 36.750 153.462 36.705 L 149.508 36.661 149.416 37.039 C 149.366 37.247,149.346 44.279,149.371 52.667 L 149.417 67.917 153.667 67.917 L 157.917 67.917 158.002 58.333 C 158.085 48.991,158.096 48.728,158.448 47.865 C 159.548 45.168,161.906 44.068,165.115 44.755 C 166.180 44.982,167.235 46.184,167.600 47.583 C 167.671 47.858,167.772 52.546,167.823 58.000 L 167.917 67.917 172.333 67.917 L 176.750 67.917 176.842 58.333 C 176.944 47.748,176.926 47.919,178.074 46.415 C 179.749 44.218,183.491 43.835,185.345 45.671 C 186.587 46.900,186.558 46.629,186.660 57.917 L 186.750 67.917 191.167 67.917 L 195.583 67.917 195.626 57.577 C 195.671 46.910,195.527 44.124,194.844 42.417 C 193.168 38.228,189.859 36.157,184.800 36.130 C 181.367 36.112,178.976 37.159,176.144 39.921 C 174.809 41.224,175.020 41.223,174.044 39.927 C 172.006 37.220,168.372 35.668,165.083 36.100 M258.417 36.111 C 255.344 36.352,252.432 38.004,251.012 40.313 C 250.671 40.867,250.500 40.256,250.500 38.487 L 250.500 36.661 246.292 36.705 L 242.083 36.750 242.083 52.333 L 242.083 67.917 246.500 67.917 L 250.917 67.917 251.000 58.250 C 251.094 47.369,251.049 47.754,252.398 46.218 C 254.184 44.184,258.010 43.930,259.750 45.731 C 261.065 47.091,261.063 47.073,261.135 58.211 L 261.198 68.005 265.641 67.961 L 270.083 67.917 270.079 56.333 C 270.074 44.902,270.070 44.733,269.708 43.475 C 268.256 38.431,264.026 35.672,258.417 36.111 M277.575 36.878 C 277.530 36.995,277.514 38.777,277.538 40.837 L 277.583 44.583 283.875 44.627 C 290.746 44.675,290.574 44.646,289.779 45.612 C 289.566 45.871,288.650 47.058,287.745 48.250 C 286.840 49.442,285.646 50.991,285.091 51.693 C 284.537 52.395,283.314 53.970,282.375 55.193 C 281.435 56.416,279.954 58.342,279.083 59.474 L 277.500 61.531 277.500 64.767 L 277.500 68.002 289.208 67.959 L 300.917 67.917 300.917 64.000 L 300.917 60.083 295.167 60.000 C 291.450 59.946,289.434 59.858,289.466 59.750 C 289.511 59.597,292.084 55.915,292.552 55.333 C 292.744 55.094,294.236 53.020,296.750 49.497 C 297.392 48.598,298.537 46.993,299.295 45.931 L 300.673 44.001 300.628 40.375 L 300.583 36.750 289.120 36.707 C 279.931 36.673,277.641 36.707,277.575 36.878 M220.826 44.844 C 226.378 46.667,228.051 53.740,223.917 57.908 C 221.838 60.004,219.766 60.509,216.417 59.735 C 214.882 59.380,212.867 57.467,211.955 55.500 C 209.248 49.660,214.882 42.893,220.826 44.844 M323.534 44.649 C 323.744 44.731,324.226 44.890,324.604 45.002 C 325.994 45.414,328.059 47.361,328.731 48.892 C 329.324 50.243,329.404 50.652,329.410 52.328 C 329.416 54.120,329.348 54.421,328.557 56.114 C 327.889 57.543,325.472 59.667,324.512 59.667 C 324.359 59.667,324.150 59.750,324.048 59.852 C 323.744 60.156,320.717 60.099,319.771 59.772 C 312.835 57.367,312.877 47.317,319.833 44.897 C 320.974 44.500,322.832 44.376,323.534 44.649 " stroke="none" fill="#163148" fill-rule="evenodd"></path><path id="path1" d="M33.821 0.068 C 33.782 0.107,33.300 0.158,32.750 0.181 C 32.200 0.205,31.711 0.282,31.663 0.352 C 31.615 0.423,31.212 0.500,30.767 0.523 C 30.323 0.546,29.861 0.662,29.742 0.782 C 29.622 0.902,29.218 1.000,28.845 1.000 C 28.472 1.000,28.167 1.075,28.167 1.167 C 28.167 1.258,27.948 1.333,27.681 1.333 C 27.413 1.333,27.169 1.406,27.139 1.495 C 27.108 1.583,26.840 1.674,26.542 1.697 C 26.244 1.719,26.000 1.797,26.000 1.869 C 26.000 1.941,25.794 2.002,25.542 2.005 C 25.290 2.008,24.941 2.118,24.767 2.250 C 24.593 2.382,24.387 2.450,24.309 2.401 C 24.231 2.353,24.167 2.431,24.167 2.573 C 24.167 2.750,24.009 2.833,23.677 2.833 C 23.407 2.833,23.140 2.908,23.083 3.000 C 23.027 3.092,22.841 3.167,22.671 3.167 C 22.500 3.167,22.335 3.246,22.303 3.342 C 22.270 3.439,22.133 3.540,21.997 3.567 C 21.478 3.669,20.833 3.999,20.833 4.163 C 20.833 4.256,20.683 4.333,20.500 4.333 C 20.317 4.333,20.167 4.408,20.167 4.500 C 20.167 4.592,19.975 4.667,19.740 4.667 C 19.498 4.667,19.358 4.739,19.417 4.833 C 19.473 4.925,19.403 5.000,19.260 5.000 C 19.117 5.000,19.000 5.060,19.000 5.133 C 19.000 5.206,18.725 5.366,18.390 5.487 C 18.054 5.608,17.614 5.886,17.412 6.104 C 17.210 6.322,16.979 6.500,16.898 6.500 C 16.816 6.501,16.487 6.726,16.167 7.001 C 15.846 7.276,15.452 7.544,15.292 7.595 C 15.131 7.647,15.000 7.759,15.000 7.845 C 15.000 7.930,14.918 8.000,14.817 8.000 C 14.716 8.000,14.424 8.225,14.167 8.500 C 13.910 8.775,13.580 9.000,13.433 9.000 C 13.287 9.000,13.167 9.080,13.167 9.179 C 13.167 9.377,12.755 9.833,12.577 9.833 C 12.394 9.833,9.000 13.394,9.000 13.585 C 9.000 13.681,8.850 13.868,8.667 14.000 C 8.483 14.132,8.333 14.341,8.333 14.463 C 8.333 14.586,8.258 14.640,8.167 14.583 C 8.075 14.527,8.000 14.563,8.000 14.664 C 8.000 14.855,7.839 15.076,7.208 15.750 C 7.002 15.971,6.833 16.288,6.833 16.456 C 6.833 16.623,6.683 16.868,6.500 17.000 C 6.317 17.132,6.167 17.374,6.167 17.537 C 6.167 17.700,6.059 17.833,5.927 17.833 C 5.796 17.833,5.593 18.096,5.477 18.417 C 5.361 18.737,5.206 19.000,5.133 19.000 C 5.060 19.000,5.000 19.117,5.000 19.260 C 5.000 19.403,4.925 19.473,4.833 19.417 C 4.739 19.358,4.667 19.498,4.667 19.740 C 4.667 19.975,4.592 20.167,4.500 20.167 C 4.408 20.167,4.333 20.313,4.333 20.492 C 4.333 20.670,4.239 20.877,4.125 20.950 C 3.916 21.083,3.723 21.440,3.307 22.458 C 3.185 22.756,3.029 23.000,2.959 23.000 C 2.890 23.000,2.833 23.262,2.833 23.583 C 2.833 24.009,2.761 24.167,2.564 24.167 C 2.374 24.167,2.321 24.268,2.384 24.510 C 2.434 24.699,2.386 24.888,2.279 24.929 C 2.171 24.970,2.071 25.207,2.057 25.455 C 2.043 25.703,1.949 25.934,1.849 25.967 C 1.749 26.000,1.667 26.242,1.667 26.504 C 1.667 26.766,1.592 27.027,1.500 27.083 C 1.408 27.140,1.333 27.482,1.333 27.843 C 1.333 28.204,1.258 28.500,1.167 28.500 C 1.075 28.500,1.000 28.753,1.000 29.063 C 1.000 29.373,0.888 29.719,0.750 29.833 C 0.601 29.957,0.500 30.322,0.500 30.737 C 0.500 31.120,0.406 31.527,0.292 31.642 C -0.014 31.947,-0.014 76.690,0.292 76.792 C 0.415 76.833,0.500 77.150,0.500 77.565 C 0.500 77.953,0.610 78.415,0.745 78.593 C 0.879 78.771,0.992 79.160,0.995 79.458 C 0.998 79.756,1.075 80.000,1.167 80.000 C 1.258 80.000,1.333 80.285,1.333 80.633 C 1.333 80.982,1.402 81.338,1.486 81.425 C 1.569 81.512,1.663 81.771,1.694 82.000 C 1.725 82.229,1.801 82.456,1.864 82.503 C 1.927 82.551,2.009 82.776,2.046 83.003 C 2.151 83.639,2.473 84.333,2.663 84.333 C 2.756 84.333,2.833 84.596,2.833 84.917 C 2.833 85.237,2.908 85.500,3.000 85.500 C 3.092 85.500,3.167 85.650,3.167 85.833 C 3.167 86.017,3.242 86.167,3.333 86.167 C 3.425 86.167,3.500 86.268,3.500 86.391 C 3.500 86.725,4.001 87.667,4.179 87.667 C 4.264 87.667,4.333 87.817,4.333 88.000 C 4.333 88.183,4.408 88.333,4.500 88.333 C 4.592 88.333,4.667 88.446,4.667 88.583 C 4.667 88.721,4.742 88.833,4.833 88.833 C 4.925 88.833,5.000 88.951,5.000 89.095 C 5.000 89.239,5.113 89.470,5.252 89.609 C 5.390 89.747,5.460 89.929,5.408 90.013 C 5.356 90.098,5.393 90.167,5.490 90.167 C 5.587 90.167,5.667 90.279,5.667 90.417 C 5.667 90.554,5.779 90.667,5.917 90.667 C 6.054 90.667,6.167 90.800,6.167 90.963 C 6.167 91.126,6.317 91.368,6.500 91.500 C 6.683 91.632,6.833 91.877,6.833 92.044 C 6.833 92.370,7.537 93.167,7.826 93.167 C 7.922 93.167,8.000 93.359,8.000 93.593 C 8.000 93.835,8.072 93.975,8.167 93.917 C 8.258 93.860,8.333 93.896,8.333 93.996 C 8.333 94.096,8.596 94.440,8.917 94.761 C 9.237 95.082,9.500 95.410,9.500 95.489 C 9.500 95.679,12.822 99.000,13.012 99.000 C 13.092 99.000,13.495 99.338,13.908 99.750 C 14.320 100.162,14.810 100.500,14.996 100.500 C 15.181 100.500,15.333 100.579,15.333 100.675 C 15.333 100.924,16.202 101.655,16.505 101.661 C 16.645 101.664,16.868 101.817,17.000 102.000 C 17.132 102.183,17.374 102.333,17.537 102.333 C 17.700 102.333,17.833 102.419,17.833 102.523 C 17.833 102.779,18.348 103.155,18.708 103.161 C 18.869 103.164,19.000 103.242,19.000 103.333 C 19.000 103.425,19.150 103.500,19.333 103.500 C 19.517 103.500,19.667 103.575,19.667 103.667 C 19.667 103.758,19.779 103.833,19.917 103.833 C 20.054 103.833,20.167 103.908,20.167 104.000 C 20.167 104.092,20.309 104.167,20.482 104.167 C 20.656 104.167,20.843 104.284,20.898 104.427 C 20.953 104.571,21.065 104.646,21.147 104.596 C 21.229 104.545,21.388 104.615,21.502 104.752 C 21.615 104.888,21.923 105.000,22.187 105.000 C 22.451 105.000,22.667 105.075,22.667 105.167 C 22.667 105.258,22.817 105.333,23.000 105.333 C 23.183 105.333,23.333 105.408,23.333 105.500 C 23.333 105.592,23.521 105.667,23.750 105.667 C 23.979 105.667,24.167 105.742,24.167 105.833 C 24.167 105.925,24.434 106.000,24.760 106.000 C 25.116 106.000,25.311 106.067,25.249 106.168 C 25.192 106.260,25.282 106.378,25.448 106.430 C 25.614 106.482,25.880 106.594,26.039 106.679 C 26.199 106.764,26.475 106.833,26.655 106.833 C 26.834 106.833,27.027 106.908,27.083 107.000 C 27.140 107.092,27.482 107.167,27.843 107.167 C 28.204 107.167,28.500 107.242,28.500 107.333 C 28.500 107.425,28.837 107.500,29.250 107.500 C 29.662 107.500,30.000 107.575,30.000 107.667 C 30.000 107.758,30.337 107.833,30.750 107.833 C 31.265 107.833,31.500 107.903,31.500 108.056 C 31.500 108.214,31.802 108.290,32.537 108.316 C 33.107 108.337,33.681 108.443,33.812 108.552 C 34.171 108.849,366.192 108.839,366.292 108.542 C 366.338 108.402,366.741 108.333,367.519 108.333 C 368.395 108.333,368.701 108.272,368.773 108.083 C 368.835 107.921,369.094 107.833,369.508 107.833 C 369.859 107.833,370.193 107.758,370.250 107.667 C 370.307 107.575,370.686 107.500,371.093 107.500 C 371.500 107.500,371.833 107.425,371.833 107.333 C 371.833 107.242,372.096 107.167,372.417 107.167 C 372.738 107.167,373.000 107.092,373.000 107.000 C 373.000 106.908,373.225 106.833,373.500 106.833 C 373.775 106.833,374.000 106.758,374.000 106.667 C 374.000 106.575,374.217 106.500,374.482 106.500 C 374.757 106.500,375.006 106.393,375.060 106.250 C 375.116 106.104,375.366 106.000,375.661 106.000 C 375.939 106.000,376.167 105.925,376.167 105.833 C 376.167 105.742,376.367 105.667,376.611 105.667 C 376.856 105.667,377.004 105.615,376.942 105.553 C 376.805 105.416,377.742 105.000,378.186 105.000 C 378.359 105.000,378.500 104.925,378.500 104.833 C 378.500 104.742,378.615 104.667,378.755 104.667 C 378.896 104.667,379.054 104.554,379.106 104.417 C 379.159 104.279,379.386 104.167,379.611 104.167 C 379.841 104.167,379.975 104.094,379.917 104.000 C 379.859 103.907,379.986 103.833,380.203 103.833 C 380.418 103.833,380.701 103.683,380.833 103.500 C 380.965 103.317,381.172 103.167,381.293 103.167 C 381.557 103.167,382.322 102.695,382.667 102.320 C 382.804 102.170,383.067 101.999,383.250 101.939 C 383.433 101.879,383.846 101.607,384.167 101.334 C 384.488 101.060,384.841 100.761,384.951 100.668 C 385.062 100.576,385.214 100.500,385.290 100.500 C 385.365 100.500,385.535 100.350,385.667 100.167 C 385.799 99.983,386.040 99.833,386.203 99.833 C 386.367 99.833,386.500 99.734,386.500 99.611 C 386.500 99.489,386.686 99.290,386.914 99.168 C 387.142 99.046,387.372 98.809,387.425 98.640 C 387.479 98.471,387.613 98.333,387.724 98.333 C 387.836 98.333,388.035 98.183,388.167 98.000 C 388.299 97.817,388.503 97.667,388.620 97.667 C 388.737 97.667,388.833 97.589,388.833 97.494 C 388.833 97.400,389.077 97.076,389.375 96.776 C 389.673 96.475,390.066 96.028,390.248 95.781 C 390.430 95.535,390.674 95.333,390.790 95.333 C 390.905 95.333,391.000 95.215,391.000 95.069 C 391.000 94.924,391.257 94.556,391.571 94.251 C 391.885 93.946,392.097 93.653,392.043 93.599 C 391.989 93.544,392.034 93.500,392.143 93.500 C 392.252 93.500,392.414 93.311,392.502 93.079 C 392.590 92.848,392.775 92.615,392.914 92.561 C 393.053 92.508,393.167 92.360,393.167 92.232 C 393.167 92.104,393.242 92.000,393.333 92.000 C 393.425 92.000,393.500 91.850,393.500 91.667 C 393.500 91.476,393.611 91.333,393.760 91.333 C 393.903 91.333,393.973 91.258,393.917 91.167 C 393.860 91.075,393.874 91.000,393.948 90.999 C 394.112 90.998,394.667 90.052,394.667 89.773 C 394.667 89.663,394.817 89.465,395.000 89.333 C 395.183 89.201,395.333 88.930,395.333 88.731 C 395.333 88.532,395.446 88.326,395.583 88.273 C 395.721 88.220,395.833 88.062,395.833 87.922 C 395.833 87.782,395.908 87.667,396.000 87.667 C 396.092 87.667,396.167 87.517,396.167 87.333 C 396.167 87.150,396.242 87.000,396.333 87.000 C 396.425 87.000,396.500 86.813,396.500 86.583 C 396.500 86.354,396.575 86.167,396.667 86.167 C 396.758 86.167,396.833 86.017,396.833 85.833 C 396.833 85.650,396.908 85.500,397.000 85.500 C 397.092 85.500,397.167 85.237,397.167 84.917 C 397.167 84.596,397.223 84.333,397.292 84.332 C 397.504 84.330,398.000 83.329,398.000 82.903 C 398.000 82.681,398.075 82.500,398.167 82.500 C 398.258 82.500,398.333 82.233,398.333 81.907 C 398.333 81.554,398.401 81.355,398.500 81.417 C 398.599 81.478,398.667 81.283,398.667 80.936 C 398.667 80.616,398.742 80.307,398.833 80.250 C 398.925 80.193,399.000 79.851,399.000 79.490 C 399.000 79.057,399.075 78.833,399.220 78.833 C 399.370 78.833,399.453 78.553,399.480 77.962 C 399.502 77.483,399.609 77.036,399.718 76.968 C 400.015 76.785,400.005 31.938,399.708 31.642 C 399.594 31.527,399.500 31.081,399.500 30.651 C 399.500 30.110,399.423 29.839,399.250 29.773 C 399.093 29.713,399.000 29.458,399.000 29.089 C 399.000 28.765,398.925 28.500,398.833 28.500 C 398.742 28.500,398.667 28.158,398.667 27.740 C 398.667 27.276,398.602 27.020,398.500 27.083 C 398.401 27.145,398.333 26.946,398.333 26.593 C 398.333 26.267,398.258 26.000,398.167 26.000 C 398.075 26.000,398.000 25.846,398.000 25.658 C 398.000 25.471,397.890 25.105,397.757 24.846 C 397.623 24.587,397.560 24.329,397.618 24.271 C 397.675 24.214,397.597 24.167,397.444 24.167 C 397.259 24.167,397.167 24.028,397.167 23.750 C 397.167 23.521,397.092 23.333,397.000 23.333 C 396.908 23.333,396.833 23.108,396.833 22.833 C 396.833 22.558,396.758 22.333,396.667 22.333 C 396.575 22.333,396.500 22.146,396.500 21.917 C 396.500 21.688,396.444 21.499,396.375 21.498 C 396.306 21.497,396.107 21.197,395.932 20.831 C 395.756 20.466,395.550 20.167,395.473 20.167 C 395.396 20.167,395.333 20.054,395.333 19.917 C 395.333 19.779,395.258 19.667,395.167 19.667 C 395.075 19.667,395.000 19.517,395.000 19.333 C 395.000 19.150,394.925 19.000,394.833 19.000 C 394.742 19.000,394.667 18.864,394.667 18.698 C 394.667 18.532,394.517 18.235,394.333 18.038 C 394.150 17.842,394.000 17.613,394.000 17.530 C 394.000 17.448,393.813 17.239,393.583 17.067 C 393.354 16.895,393.167 16.615,393.167 16.444 C 393.167 16.273,392.942 15.924,392.667 15.667 C 392.392 15.410,392.167 15.131,392.167 15.046 C 392.167 14.962,391.829 14.541,391.417 14.110 C 391.004 13.680,390.667 13.254,390.667 13.164 C 390.667 13.074,390.554 13.000,390.417 13.000 C 390.279 13.000,390.167 12.891,390.167 12.758 C 390.167 12.476,387.624 9.833,387.352 9.833 C 387.250 9.833,386.757 9.421,386.257 8.917 C 385.746 8.401,385.199 8.000,385.007 8.000 C 384.820 8.000,384.667 7.915,384.667 7.811 C 384.667 7.571,383.818 6.834,383.542 6.834 C 383.427 6.833,383.333 6.758,383.333 6.667 C 383.333 6.575,383.221 6.500,383.083 6.500 C 382.946 6.500,382.833 6.425,382.833 6.333 C 382.833 6.242,382.724 6.167,382.591 6.167 C 382.458 6.167,382.161 5.979,381.932 5.750 C 381.703 5.521,381.399 5.333,381.258 5.333 C 381.116 5.333,381.000 5.258,381.000 5.167 C 381.000 5.075,380.850 5.000,380.667 5.000 C 380.483 5.000,380.333 4.925,380.333 4.833 C 380.333 4.742,380.178 4.667,379.988 4.667 C 379.614 4.667,379.167 4.305,379.167 4.002 C 379.167 3.898,379.103 3.853,379.025 3.901 C 378.946 3.950,378.740 3.882,378.566 3.750 C 378.392 3.618,378.044 3.508,377.792 3.505 C 377.540 3.502,377.333 3.425,377.333 3.333 C 377.333 3.242,377.183 3.167,377.000 3.167 C 376.817 3.167,376.667 3.092,376.667 3.000 C 376.667 2.908,376.479 2.833,376.250 2.833 C 375.991 2.833,375.833 2.739,375.833 2.583 C 375.833 2.417,375.667 2.333,375.333 2.333 C 375.058 2.333,374.833 2.258,374.833 2.167 C 374.833 2.075,374.646 2.000,374.417 2.000 C 374.188 2.000,374.000 1.925,374.000 1.833 C 374.000 1.742,373.779 1.667,373.510 1.667 C 373.240 1.667,372.973 1.592,372.917 1.500 C 372.860 1.408,372.518 1.333,372.157 1.333 C 371.796 1.333,371.500 1.258,371.500 1.167 C 371.500 1.075,371.162 1.000,370.750 1.000 C 370.244 1.000,370.000 0.929,370.000 0.783 C 370.000 0.645,369.743 0.550,369.298 0.524 C 368.912 0.501,368.488 0.393,368.356 0.283 C 368.125 0.091,34.012 -0.123,33.821 0.068 M83.750 33.683 C 89.526 39.449,94.329 44.167,94.425 44.167 C 94.520 44.167,99.207 39.506,104.841 33.809 C 115.172 23.362,115.740 22.846,116.565 23.160 C 116.793 23.246,119.536 25.879,122.660 29.010 L 128.341 34.704 128.295 51.644 C 128.252 67.769,128.235 68.611,127.941 69.167 C 127.771 69.487,124.357 73.031,120.354 77.042 C 112.365 85.045,112.560 84.892,111.477 84.015 L 111.083 83.696 111.000 67.834 L 110.917 51.971 102.699 60.248 C 95.426 67.572,94.448 68.500,94.199 68.309 C 94.044 68.191,90.316 64.467,85.915 60.035 C 81.514 55.602,77.858 52.031,77.790 52.099 C 77.722 52.167,77.667 59.292,77.667 67.932 L 77.667 83.642 77.228 83.988 C 76.187 84.806,76.406 84.979,68.535 77.125 C 64.561 73.160,61.187 69.692,61.036 69.417 C 60.325 68.119,60.338 68.471,60.336 51.249 L 60.333 34.748 66.125 28.971 C 71.760 23.350,72.217 22.957,72.917 23.121 C 73.100 23.163,77.975 27.916,83.750 33.683 M222.167 35.956 C 226.771 36.760,231.355 40.298,233.736 44.888 C 234.156 45.697,234.500 46.499,234.500 46.670 C 234.500 46.841,234.567 47.022,234.648 47.072 C 234.730 47.122,234.838 47.408,234.888 47.707 C 234.938 48.006,235.094 48.775,235.234 49.417 C 236.115 53.464,234.956 58.676,232.415 62.085 C 230.990 63.998,228.036 66.667,227.345 66.667 C 227.247 66.667,227.167 66.742,227.167 66.833 C 227.167 66.925,227.069 67.000,226.951 67.000 C 226.832 67.000,226.251 67.261,225.659 67.580 C 225.067 67.898,224.419 68.161,224.218 68.163 C 224.017 68.165,223.812 68.234,223.761 68.316 C 223.668 68.466,223.481 68.503,221.083 68.840 C 219.580 69.051,215.362 68.929,215.100 68.666 C 215.008 68.575,214.742 68.499,214.508 68.498 C 213.411 68.491,210.269 66.984,208.667 65.695 C 207.490 64.748,206.638 63.852,205.153 61.996 C 204.493 61.172,203.000 58.269,203.000 57.810 C 203.000 57.651,202.925 57.473,202.833 57.417 C 202.742 57.360,202.667 57.060,202.667 56.750 C 202.667 56.440,202.601 56.146,202.520 56.096 C 202.179 55.885,201.970 51.560,202.223 49.917 C 202.346 49.116,202.482 48.525,202.877 47.083 C 203.328 45.435,204.900 42.711,206.002 41.667 C 206.147 41.529,206.428 41.184,206.626 40.900 C 207.010 40.351,209.206 38.553,210.171 37.999 C 211.286 37.358,212.728 36.667,212.948 36.667 C 213.071 36.667,213.301 36.599,213.461 36.516 C 213.770 36.356,214.617 36.121,215.833 35.860 C 216.729 35.667,220.873 35.730,222.167 35.956 M324.862 35.847 C 326.161 36.110,327.044 36.346,327.373 36.516 C 327.532 36.599,327.783 36.667,327.932 36.667 C 328.645 36.667,331.861 38.624,333.185 39.864 C 334.742 41.321,336.833 44.025,336.833 44.580 C 336.833 44.719,336.908 44.833,337.000 44.833 C 337.092 44.833,337.167 44.983,337.167 45.167 C 337.167 45.350,337.242 45.500,337.333 45.500 C 337.425 45.500,337.500 45.638,337.500 45.808 C 337.500 45.977,337.621 46.358,337.769 46.655 C 338.592 48.304,339.062 53.938,338.525 55.706 C 338.434 56.005,338.232 56.700,338.076 57.250 C 337.804 58.211,337.342 59.381,336.957 60.083 C 336.856 60.267,336.694 60.567,336.595 60.750 C 335.259 63.238,331.978 66.242,329.250 67.474 C 328.230 67.935,326.574 68.500,326.242 68.500 C 326.054 68.500,325.806 68.594,325.692 68.708 C 325.414 68.986,318.977 69.003,318.250 68.728 C 317.975 68.624,317.412 68.445,317.000 68.331 C 316.587 68.217,315.854 67.946,315.370 67.729 C 314.887 67.511,314.418 67.333,314.329 67.333 C 314.240 67.333,314.167 67.258,314.167 67.167 C 314.167 67.075,314.082 67.000,313.979 67.000 C 312.394 67.000,306.500 60.102,306.500 58.246 C 306.500 58.030,306.438 57.815,306.362 57.768 C 306.210 57.674,305.791 56.242,305.513 54.862 C 304.767 51.173,306.130 45.550,308.469 42.668 C 308.804 42.255,309.155 41.814,309.248 41.687 C 310.637 39.804,315.012 36.667,316.248 36.667 C 316.389 36.667,316.635 36.601,316.794 36.520 C 317.329 36.250,318.270 36.000,318.762 35.997 C 319.030 35.996,319.362 35.922,319.500 35.833 C 319.840 35.614,323.762 35.623,324.862 35.847 M168.908 36.188 C 168.995 36.268,169.226 36.333,169.422 36.333 C 170.549 36.333,173.194 38.275,174.359 39.958 C 174.959 40.825,174.904 40.826,175.755 39.938 C 177.354 38.270,179.588 36.863,181.746 36.165 C 182.559 35.903,187.328 35.896,187.816 36.157 C 187.997 36.254,188.301 36.333,188.491 36.333 C 188.682 36.333,188.968 36.402,189.127 36.486 C 189.286 36.570,189.843 36.829,190.365 37.062 C 192.586 38.055,194.574 40.426,195.205 42.833 C 195.727 44.825,195.750 45.419,195.750 56.667 L 195.750 68.083 191.167 68.083 L 186.583 68.083 186.485 58.167 C 186.374 47.003,186.346 46.753,185.099 45.587 C 184.395 44.930,180.675 44.592,180.130 45.136 C 180.022 45.245,179.833 45.333,179.709 45.333 C 179.343 45.333,178.240 46.457,177.865 47.213 C 177.195 48.566,177.169 48.984,177.165 58.500 C 177.163 63.587,177.101 67.845,177.028 67.961 C 176.924 68.125,175.868 68.162,172.322 68.128 L 167.750 68.083 167.651 58.333 C 167.540 47.335,167.488 46.823,166.392 45.812 C 165.523 45.011,165.193 44.916,163.333 44.930 C 160.646 44.951,159.658 45.638,158.557 48.250 C 158.480 48.433,158.379 52.971,158.333 58.333 L 158.250 68.083 153.750 68.083 L 149.250 68.083 149.207 52.435 C 149.176 41.011,149.216 36.725,149.353 36.560 C 149.609 36.251,157.327 36.227,157.633 36.533 C 157.760 36.660,157.833 37.298,157.833 38.273 C 157.833 39.911,157.973 40.257,158.348 39.555 C 158.937 38.455,161.939 36.333,162.907 36.333 C 163.105 36.333,163.338 36.262,163.425 36.175 C 163.744 35.857,168.560 35.868,168.908 36.188 M262.531 36.189 C 262.685 36.268,262.967 36.333,263.158 36.333 C 263.349 36.333,263.635 36.401,263.794 36.485 C 263.953 36.568,264.523 36.849,265.060 37.110 C 267.080 38.089,269.846 41.602,269.836 43.175 C 269.835 43.409,269.902 43.671,269.986 43.758 C 270.287 44.071,270.361 46.244,270.435 57.037 L 270.511 67.991 270.131 68.084 C 269.921 68.135,267.762 68.156,265.333 68.130 L 260.917 68.083 260.819 58.167 C 260.766 52.712,260.661 47.987,260.586 47.667 C 260.361 46.696,259.412 45.333,258.962 45.333 C 258.836 45.333,258.639 45.240,258.525 45.125 C 257.678 44.279,253.717 45.101,252.581 46.358 C 251.176 47.913,251.126 48.324,251.047 58.961 L 250.980 68.172 246.365 68.128 L 241.750 68.083 241.707 52.435 C 241.676 41.011,241.716 36.725,241.853 36.560 C 242.002 36.380,242.909 36.333,246.265 36.333 C 251.239 36.333,250.858 36.140,250.712 38.585 L 250.614 40.236 251.653 39.125 C 252.664 38.043,254.578 36.667,255.069 36.667 C 255.204 36.667,255.360 36.592,255.417 36.500 C 255.473 36.408,255.725 36.333,255.977 36.333 C 256.228 36.333,256.505 36.262,256.592 36.175 C 256.901 35.866,261.926 35.878,262.531 36.189 M300.827 36.656 C 300.931 36.849,301.000 38.372,300.999 40.447 L 300.998 43.917 299.895 45.500 C 299.289 46.371,298.727 47.108,298.646 47.139 C 298.566 47.169,298.500 47.287,298.500 47.399 C 298.500 47.512,298.365 47.749,298.200 47.927 C 297.915 48.233,296.544 50.136,294.062 53.667 C 293.450 54.538,292.886 55.275,292.808 55.306 C 292.730 55.336,292.667 55.438,292.667 55.531 C 292.667 55.625,292.478 55.938,292.247 56.226 C 291.615 57.017,291.610 57.023,291.006 57.917 C 290.696 58.375,290.256 58.975,290.030 59.250 L 289.618 59.750 295.351 59.833 L 301.083 59.917 301.083 64.000 L 301.083 68.083 289.250 68.083 L 277.417 68.083 277.372 64.704 L 277.326 61.324 278.207 60.204 C 278.692 59.588,279.308 58.783,279.577 58.417 C 279.846 58.050,280.108 57.712,280.159 57.667 C 280.210 57.621,280.473 57.283,280.742 56.917 C 281.012 56.550,281.274 56.212,281.325 56.167 C 281.432 56.069,282.114 55.188,283.260 53.667 C 283.708 53.071,284.171 52.484,284.288 52.363 C 284.404 52.242,284.500 52.092,284.501 52.030 C 284.501 51.968,284.707 51.690,284.959 51.413 C 285.211 51.136,285.758 50.461,286.176 49.913 C 286.593 49.365,287.448 48.242,288.075 47.417 C 288.702 46.592,289.268 45.879,289.333 45.833 C 289.397 45.788,289.539 45.581,289.648 45.375 L 289.845 45.000 283.853 45.000 C 280.557 45.000,277.742 44.954,277.597 44.899 C 277.322 44.793,277.177 36.712,277.444 36.444 C 277.767 36.122,300.652 36.329,300.827 36.656 M217.417 44.901 C 211.647 46.064,209.548 53.583,213.812 57.810 C 216.497 60.470,220.691 60.591,223.477 58.087 C 224.371 57.284,225.500 55.569,225.500 55.014 C 225.500 54.860,225.585 54.648,225.689 54.544 C 226.000 54.233,225.944 50.899,225.612 49.950 C 224.578 46.997,222.695 45.399,219.594 44.844 C 219.050 44.746,218.563 44.674,218.511 44.683 C 218.459 44.692,217.967 44.790,217.417 44.901 M320.750 44.896 C 314.992 46.050,312.792 53.584,316.993 57.760 C 317.792 58.554,319.345 59.500,319.850 59.500 C 320.013 59.500,320.193 59.575,320.250 59.667 C 320.308 59.760,321.110 59.833,322.083 59.833 C 323.057 59.833,323.859 59.760,323.917 59.667 C 323.973 59.575,324.156 59.500,324.322 59.500 C 324.858 59.500,326.204 58.629,327.125 57.685 C 330.488 54.241,329.856 48.586,325.808 45.889 C 324.817 45.229,324.185 45.032,322.167 44.753 C 321.938 44.722,321.300 44.786,320.750 44.896 " stroke="none" fill="#dbdbdb" fill-rule="evenodd"></path><path id="path2" d="M119.537 43.379 L 111.167 51.751 111.167 67.520 C 111.167 85.292,111.084 84.167,112.388 84.167 C 112.924 84.167,126.595 70.761,127.685 69.167 L 128.083 68.583 128.130 51.930 C 128.155 42.770,128.116 35.216,128.042 35.142 C 127.968 35.068,124.141 38.775,119.537 43.379 " stroke="none" fill="#e44c64" fill-rule="evenodd"></path><path id="path3" d="M115.667 23.177 C 115.438 23.263,110.544 28.077,104.792 33.875 L 94.335 44.417 94.376 56.500 L 94.417 68.583 102.667 60.277 L 110.917 51.971 111.001 67.527 L 111.086 83.083 111.126 67.416 L 111.167 51.749 119.576 43.341 C 125.418 37.500,128.014 35.009,128.080 35.182 C 128.133 35.319,128.155 42.891,128.130 52.007 L 128.083 68.583 127.685 69.167 C 127.465 69.487,124.053 72.994,120.102 76.958 C 112.223 84.865,112.336 84.775,111.512 83.728 C 111.272 83.422,111.167 83.368,111.167 83.551 C 111.167 83.943,111.828 84.333,112.491 84.333 C 113.131 84.333,127.248 70.475,127.941 69.167 C 128.235 68.611,128.252 67.769,128.295 51.642 L 128.341 34.702 122.583 28.934 C 119.416 25.762,116.758 23.167,116.676 23.167 C 116.594 23.167,116.427 23.134,116.305 23.094 C 116.183 23.054,115.896 23.091,115.667 23.177 " stroke="none" fill="#e3bc7c" fill-rule="evenodd"></path><path id="path4" d="M72.250 23.118 C 72.067 23.160,69.310 25.794,66.125 28.971 L 60.333 34.748 60.336 51.249 C 60.338 68.471,60.325 68.119,61.036 69.417 C 61.187 69.692,64.561 73.160,68.535 77.125 C 76.406 84.979,76.187 84.806,77.228 83.988 L 77.667 83.642 77.667 67.932 C 77.667 59.292,77.722 52.167,77.790 52.099 C 77.857 52.032,81.588 55.675,86.081 60.197 L 94.250 68.417 94.293 56.335 L 94.336 44.253 83.793 33.725 C 77.994 27.936,73.100 23.163,72.917 23.120 C 72.733 23.078,72.433 23.077,72.250 23.118 M77.167 67.626 C 77.167 84.811,77.207 83.973,76.377 83.995 C 76.039 84.003,62.449 70.616,61.582 69.421 C 61.399 69.169,61.156 68.864,61.042 68.743 C 60.878 68.571,60.833 64.983,60.833 51.960 L 60.833 35.396 69.000 43.551 L 77.167 51.705 77.167 67.626 M215.833 35.864 C 214.656 36.110,213.776 36.353,213.461 36.516 C 213.301 36.599,213.071 36.667,212.948 36.667 C 212.728 36.667,211.286 37.358,210.171 37.999 C 209.206 38.553,207.010 40.351,206.626 40.900 C 206.428 41.184,206.147 41.529,206.002 41.667 C 204.900 42.711,203.328 45.435,202.877 47.083 C 202.482 48.525,202.346 49.116,202.223 49.917 C 201.970 51.560,202.179 55.885,202.520 56.096 C 202.601 56.146,202.667 56.440,202.667 56.750 C 202.667 57.060,202.742 57.360,202.833 57.417 C 202.925 57.473,203.000 57.651,203.000 57.810 C 203.000 58.269,204.493 61.172,205.153 61.996 C 206.638 63.852,207.490 64.748,208.667 65.695 C 210.269 66.984,213.411 68.491,214.508 68.498 C 214.742 68.499,215.008 68.575,215.100 68.666 C 215.362 68.929,219.580 69.051,221.083 68.840 C 223.481 68.503,223.668 68.466,223.761 68.316 C 223.812 68.234,224.017 68.165,224.218 68.163 C 224.419 68.161,225.067 67.898,225.659 67.580 C 226.251 67.261,226.832 67.000,226.951 67.000 C 227.069 67.000,227.167 66.925,227.167 66.833 C 227.167 66.742,227.247 66.667,227.345 66.667 C 228.036 66.667,230.990 63.998,232.415 62.085 C 234.956 58.676,236.115 53.464,235.234 49.417 C 235.094 48.775,234.938 48.006,234.888 47.707 C 234.838 47.408,234.730 47.122,234.648 47.072 C 234.567 47.022,234.500 46.841,234.500 46.670 C 234.500 45.594,232.397 42.435,230.216 40.233 C 228.161 38.159,223.981 35.971,222.156 36.013 C 221.701 36.024,221.823 36.088,222.750 36.327 C 226.683 37.338,230.057 39.690,232.443 43.083 C 236.190 48.414,236.139 56.694,232.329 61.833 C 228.752 66.658,223.561 69.089,217.583 68.739 C 216.159 68.655,215.439 68.537,213.917 68.137 C 212.756 67.832,210.500 66.838,210.500 66.631 C 210.500 66.559,210.406 66.498,210.292 66.495 C 209.808 66.485,207.190 64.236,206.326 63.091 C 205.978 62.628,205.501 62.033,205.265 61.768 C 204.767 61.207,203.313 58.242,203.028 57.208 C 202.921 56.819,202.740 56.181,202.625 55.792 C 202.337 54.813,202.345 49.826,202.637 48.833 C 203.238 46.783,203.590 45.817,204.125 44.750 C 204.446 44.108,204.756 43.546,204.814 43.500 C 204.871 43.454,205.141 43.117,205.413 42.750 C 206.757 40.940,208.801 39.032,210.253 38.235 C 210.434 38.135,210.933 37.859,211.360 37.622 C 213.431 36.471,215.744 35.949,218.859 35.932 C 220.294 35.923,221.382 35.862,221.276 35.794 C 221.003 35.621,216.733 35.675,215.833 35.864 M319.500 35.833 C 319.362 35.922,319.030 35.996,318.762 35.997 C 318.270 36.000,317.329 36.250,316.794 36.520 C 316.635 36.601,316.389 36.667,316.248 36.667 C 315.012 36.667,310.637 39.804,309.248 41.687 C 309.155 41.814,308.804 42.255,308.469 42.668 C 306.130 45.550,304.767 51.173,305.513 54.862 C 305.791 56.242,306.210 57.674,306.362 57.768 C 306.438 57.815,306.500 58.030,306.500 58.246 C 306.500 60.102,312.394 67.000,313.979 67.000 C 314.082 67.000,314.167 67.075,314.167 67.167 C 314.167 67.258,314.240 67.333,314.329 67.333 C 314.418 67.333,314.887 67.511,315.370 67.729 C 315.854 67.946,316.587 68.217,317.000 68.331 C 317.412 68.445,317.975 68.624,318.250 68.728 C 318.977 69.003,325.414 68.986,325.692 68.708 C 325.806 68.594,326.054 68.500,326.242 68.500 C 326.574 68.500,328.230 67.935,329.250 67.474 C 331.978 66.242,335.259 63.238,336.595 60.750 C 336.694 60.567,336.856 60.267,336.957 60.083 C 337.342 59.381,337.804 58.211,338.076 57.250 C 338.232 56.700,338.434 56.005,338.525 55.706 C 339.062 53.938,338.592 48.304,337.769 46.655 C 337.621 46.358,337.500 45.977,337.500 45.808 C 337.500 45.638,337.425 45.500,337.333 45.500 C 337.242 45.500,337.167 45.350,337.167 45.167 C 337.167 44.983,337.092 44.833,337.000 44.833 C 336.908 44.833,336.833 44.719,336.833 44.580 C 336.833 44.025,334.742 41.321,333.185 39.864 C 331.861 38.624,328.645 36.667,327.932 36.667 C 327.783 36.667,327.532 36.599,327.373 36.516 C 327.044 36.346,326.161 36.110,324.862 35.847 C 323.762 35.623,319.840 35.614,319.500 35.833 M165.875 35.948 C 166.035 35.990,166.298 35.990,166.458 35.948 C 166.619 35.906,166.487 35.872,166.167 35.872 C 165.846 35.872,165.715 35.906,165.875 35.948 M184.583 36.013 C 184.950 36.087,185.616 36.152,186.064 36.157 C 189.868 36.202,193.351 38.686,194.844 42.417 C 195.527 44.124,195.671 46.910,195.626 57.577 L 195.583 67.917 191.167 67.917 L 186.750 67.917 186.660 57.917 C 186.558 46.629,186.587 46.900,185.345 45.671 C 183.465 43.810,179.602 44.251,177.994 46.508 C 176.926 48.008,176.943 47.833,176.842 58.333 L 176.750 67.917 172.333 67.917 L 167.917 67.917 167.823 58.000 C 167.731 48.208,167.700 47.598,167.232 46.552 C 166.070 43.956,161.187 43.863,159.251 46.400 C 158.073 47.945,158.096 47.719,158.002 58.333 L 157.917 67.917 153.667 67.917 L 149.417 67.917 149.371 52.667 C 149.346 44.279,149.366 37.247,149.416 37.039 L 149.508 36.661 153.462 36.705 L 157.417 36.750 157.461 38.417 C 157.523 40.758,157.471 40.738,159.127 39.059 C 161.005 37.156,162.520 36.405,165.083 36.108 C 165.358 36.076,165.119 36.039,164.552 36.025 C 163.984 36.011,163.473 36.075,163.417 36.167 C 163.360 36.258,163.141 36.333,162.930 36.333 C 161.942 36.333,158.945 38.441,158.348 39.555 C 157.973 40.257,157.833 39.911,157.833 38.273 C 157.833 37.298,157.760 36.660,157.633 36.533 C 157.327 36.227,149.609 36.251,149.353 36.560 C 149.216 36.725,149.176 41.011,149.207 52.435 L 149.250 68.083 153.750 68.083 L 158.250 68.083 158.333 58.333 C 158.379 52.971,158.480 48.433,158.557 48.250 C 159.658 45.638,160.646 44.951,163.333 44.930 C 165.193 44.916,165.523 45.011,166.392 45.812 C 167.488 46.823,167.540 47.335,167.651 58.333 L 167.750 68.083 172.322 68.128 C 175.868 68.162,176.924 68.125,177.028 67.961 C 177.101 67.845,177.163 63.587,177.165 58.500 C 177.169 48.984,177.195 48.566,177.865 47.213 C 178.240 46.457,179.343 45.333,179.709 45.333 C 179.833 45.333,180.022 45.245,180.130 45.136 C 180.675 44.592,184.395 44.930,185.099 45.587 C 186.346 46.753,186.374 47.003,186.485 58.167 L 186.583 68.083 191.167 68.083 L 195.750 68.083 195.750 56.667 C 195.750 45.419,195.727 44.825,195.205 42.833 C 194.574 40.426,192.586 38.055,190.365 37.062 C 189.843 36.829,189.286 36.570,189.127 36.486 C 188.968 36.402,188.682 36.333,188.491 36.333 C 188.301 36.333,188.018 36.269,187.864 36.189 C 187.710 36.110,186.758 36.008,185.750 35.962 C 184.606 35.910,184.167 35.929,184.583 36.013 M257.917 35.966 C 257.275 35.994,256.679 36.088,256.592 36.175 C 256.505 36.262,256.228 36.333,255.977 36.333 C 255.725 36.333,255.473 36.408,255.417 36.500 C 255.360 36.592,255.204 36.667,255.069 36.667 C 254.578 36.667,252.664 38.043,251.653 39.125 L 250.614 40.236 250.712 38.585 C 250.858 36.140,251.239 36.333,246.265 36.333 C 242.909 36.333,242.002 36.380,241.853 36.560 C 241.716 36.725,241.676 41.011,241.707 52.435 L 241.750 68.083 246.375 68.128 C 248.919 68.152,251.000 68.115,251.000 68.044 C 251.000 67.974,248.994 67.917,246.542 67.917 L 242.083 67.917 242.083 52.333 L 242.083 36.750 246.292 36.705 L 250.500 36.661 250.500 38.487 C 250.500 40.256,250.671 40.867,251.012 40.313 C 254.230 35.082,263.874 34.608,267.689 39.494 C 270.066 42.538,270.074 42.590,270.079 56.333 L 270.083 67.917 265.641 67.961 L 261.198 68.005 261.135 58.211 C 261.076 49.021,261.052 48.355,260.744 47.419 C 259.033 42.203,250.876 44.407,251.023 50.045 C 251.035 50.524,251.073 50.729,251.108 50.500 C 251.580 47.349,252.345 46.011,254.121 45.232 C 254.918 44.882,258.202 44.802,258.525 45.125 C 258.639 45.240,258.836 45.333,258.962 45.333 C 259.412 45.333,260.361 46.696,260.586 47.667 C 260.661 47.987,260.766 52.712,260.819 58.167 L 260.917 68.083 265.333 68.130 C 267.762 68.156,269.921 68.135,270.131 68.084 L 270.511 67.991 270.435 57.037 C 270.361 46.244,270.287 44.071,269.986 43.758 C 269.902 43.671,269.835 43.409,269.836 43.175 C 269.846 41.602,267.080 38.089,265.060 37.110 C 264.523 36.849,263.953 36.568,263.794 36.485 C 263.635 36.401,263.349 36.333,263.158 36.333 C 262.967 36.333,262.685 36.268,262.531 36.189 C 262.201 36.019,259.582 35.893,257.917 35.966 M326.238 36.408 C 344.828 41.367,341.238 68.737,322.000 68.718 C 308.201 68.705,300.587 52.925,309.181 42.149 C 313.333 36.942,319.924 34.724,326.238 36.408 M167.587 36.165 C 170.361 36.572,172.423 37.774,174.044 39.927 C 175.020 41.223,174.809 41.224,176.144 39.921 C 178.493 37.630,180.614 36.530,183.500 36.107 C 183.729 36.073,183.547 36.035,183.095 36.023 C 181.138 35.969,177.907 37.692,175.755 39.938 C 174.904 40.826,174.959 40.825,174.359 39.958 C 173.182 38.258,170.549 36.333,169.398 36.333 C 169.190 36.333,168.973 36.258,168.917 36.167 C 168.860 36.075,168.349 36.009,167.782 36.021 L 166.750 36.042 167.587 36.165 M277.444 36.444 C 277.177 36.712,277.322 44.793,277.597 44.899 C 277.742 44.954,280.557 45.000,283.853 45.000 L 289.845 45.000 289.648 45.375 C 289.539 45.581,289.397 45.788,289.333 45.833 C 289.268 45.879,288.702 46.592,288.075 47.417 C 287.448 48.242,286.593 49.365,286.176 49.913 C 285.758 50.461,285.211 51.136,284.959 51.413 C 284.707 51.690,284.501 51.968,284.501 52.030 C 284.500 52.092,284.404 52.242,284.288 52.363 C 284.171 52.484,283.708 53.071,283.260 53.667 C 282.114 55.188,281.432 56.069,281.325 56.167 C 281.274 56.212,281.012 56.550,280.742 56.917 C 280.473 57.283,280.210 57.621,280.159 57.667 C 280.108 57.712,279.846 58.050,279.577 58.417 C 279.308 58.783,278.692 59.588,278.207 60.204 L 277.326 61.324 277.372 64.704 L 277.417 68.083 289.250 68.083 L 301.083 68.083 301.083 64.000 L 301.083 59.917 295.351 59.833 L 289.618 59.750 290.030 59.250 C 290.256 58.975,290.696 58.375,291.006 57.917 C 291.610 57.023,291.615 57.017,292.247 56.226 C 292.478 55.938,292.667 55.625,292.667 55.531 C 292.667 55.438,292.730 55.336,292.808 55.306 C 292.886 55.275,293.450 54.538,294.062 53.667 C 296.544 50.136,297.915 48.233,298.200 47.927 C 298.365 47.749,298.500 47.512,298.500 47.399 C 298.500 47.287,298.566 47.169,298.646 47.139 C 298.727 47.108,299.289 46.371,299.895 45.500 L 300.998 43.917 300.999 40.447 C 301.000 38.372,300.931 36.849,300.827 36.656 C 300.652 36.329,277.767 36.122,277.444 36.444 M300.628 40.375 L 300.673 44.001 299.295 45.931 C 298.537 46.993,297.392 48.598,296.750 49.497 C 294.236 53.020,292.744 55.094,292.552 55.333 C 292.084 55.915,289.511 59.597,289.466 59.750 C 289.434 59.858,291.450 59.946,295.167 60.000 L 300.917 60.083 300.917 64.000 L 300.917 67.917 289.208 67.959 L 277.500 68.002 277.500 64.767 L 277.500 61.531 279.083 59.474 C 279.954 58.342,281.435 56.416,282.375 55.193 C 283.314 53.970,284.537 52.395,285.091 51.693 C 285.646 50.991,286.840 49.442,287.745 48.250 C 288.650 47.058,289.566 45.871,289.779 45.612 C 290.574 44.646,290.746 44.675,283.875 44.627 L 277.583 44.583 277.538 40.837 C 277.514 38.777,277.530 36.995,277.575 36.878 C 277.641 36.707,279.931 36.673,289.120 36.707 L 300.583 36.750 300.628 40.375 M216.500 44.891 C 210.363 47.293,209.397 55.426,214.833 58.922 C 215.915 59.618,216.171 59.713,217.760 60.006 C 223.567 61.077,228.051 54.530,225.387 48.870 C 223.767 45.427,219.738 43.624,216.500 44.891 M319.833 44.897 C 312.877 47.317,312.835 57.367,319.771 59.772 C 320.717 60.099,323.744 60.156,324.048 59.852 C 324.150 59.750,324.359 59.667,324.512 59.667 C 326.121 59.667,329.608 55.464,329.305 53.890 C 329.268 53.702,329.156 53.871,329.008 54.335 C 328.193 56.900,325.834 59.500,324.322 59.500 C 324.156 59.500,323.973 59.575,323.917 59.667 C 323.859 59.760,323.057 59.833,322.083 59.833 C 321.110 59.833,320.308 59.760,320.250 59.667 C 320.193 59.575,320.013 59.500,319.850 59.500 C 317.156 59.500,314.222 54.471,314.927 51.060 C 316.585 43.032,326.752 42.569,329.054 50.417 C 329.240 51.049,329.303 51.141,329.316 50.800 C 329.332 50.371,329.251 50.106,328.727 48.892 C 328.072 47.373,325.996 45.415,324.604 45.002 C 324.226 44.890,323.744 44.731,323.534 44.649 C 322.832 44.376,320.974 44.500,319.833 44.897 M219.594 44.844 C 222.695 45.399,224.578 46.997,225.612 49.950 C 225.944 50.899,226.000 54.233,225.689 54.544 C 225.585 54.648,225.500 54.860,225.500 55.014 C 225.500 55.358,225.246 55.849,224.560 56.833 C 220.502 62.659,211.662 59.667,211.642 52.462 C 211.629 48.063,213.912 45.479,218.511 44.683 C 218.563 44.674,219.050 44.746,219.594 44.844 M329.385 52.417 C 329.386 52.967,329.417 53.172,329.454 52.872 C 329.491 52.572,329.490 52.122,329.452 51.872 C 329.414 51.622,329.384 51.867,329.385 52.417 " stroke="none" fill="#75b194" fill-rule="evenodd"></path></g></svg>