<svg id="svg" xmlns="http://www.w3.org/2000/svg" xmlns:xlink="http://www.w3.org/1999/xlink" width="400" height="108.92364305427783" viewBox="0, 0, 400,108.92364305427783"><g id="svgg"><path id="path0" d="M84.552 21.855 C 83.520 22.356,83.073 23.346,82.756 25.833 C 82.704 26.246,82.586 27.071,82.496 27.667 C 82.405 28.262,82.262 29.200,82.179 29.750 C 81.876 31.764,81.252 35.637,80.972 37.250 C 80.877 37.800,80.734 38.700,80.654 39.250 C 80.575 39.800,80.442 40.700,80.358 41.250 C 80.275 41.800,80.119 42.882,80.011 43.656 C 79.903 44.429,79.783 45.114,79.743 45.178 C 79.703 45.242,79.591 45.810,79.494 46.439 C 79.396 47.068,79.242 48.033,79.152 48.583 C 79.061 49.133,78.918 50.071,78.835 50.667 C 78.610 52.281,78.385 53.733,78.085 55.500 C 77.937 56.371,77.738 57.608,77.643 58.250 C 77.477 59.376,77.338 60.262,77.013 62.292 C 76.928 62.819,76.780 63.813,76.683 64.500 C 76.586 65.188,76.389 66.425,76.244 67.250 C 76.099 68.075,75.909 69.162,75.822 69.667 C 75.734 70.171,75.593 71.108,75.509 71.750 C 75.425 72.392,75.307 73.077,75.247 73.272 C 75.099 73.756,75.583 74.643,76.102 74.840 C 76.341 74.931,79.054 75.000,82.386 74.999 L 88.250 74.999 88.565 73.791 C 88.738 73.127,88.940 72.133,89.013 71.583 C 89.086 71.033,89.265 69.908,89.409 69.083 C 89.756 67.103,89.989 65.656,90.172 64.333 C 90.255 63.737,90.405 62.725,90.506 62.083 C 90.607 61.442,90.750 60.504,90.825 60.000 C 91.541 55.172,91.453 55.242,97.083 55.094 C 101.187 54.987,103.935 54.810,104.917 54.591 C 105.192 54.529,105.792 54.402,106.250 54.309 C 107.308 54.093,108.665 53.695,109.039 53.491 C 109.199 53.404,109.430 53.333,109.554 53.333 C 111.256 53.333,116.110 49.462,118.030 46.573 C 119.472 44.403,121.167 40.120,121.167 38.644 C 121.167 38.301,121.236 37.977,121.320 37.925 C 121.733 37.669,121.570 30.333,121.145 30.070 C 121.065 30.021,121.000 29.836,121.000 29.661 C 121.000 28.727,118.042 24.667,117.363 24.667 C 117.289 24.667,117.084 24.535,116.906 24.373 C 116.481 23.987,114.152 22.833,113.797 22.833 C 113.644 22.833,113.473 22.758,113.417 22.667 C 113.360 22.575,113.060 22.500,112.750 22.500 C 112.440 22.500,112.146 22.435,112.097 22.355 C 112.003 22.204,111.782 22.166,108.667 21.763 C 105.304 21.327,85.483 21.404,84.552 21.855 M153.505 35.368 C 152.913 35.768,152.749 36.144,152.502 37.667 C 152.421 38.171,152.233 39.333,152.084 40.250 C 151.526 43.696,151.438 44.267,151.018 47.208 C 150.875 48.210,150.469 50.671,150.159 52.417 C 149.945 53.623,149.846 54.261,149.655 55.667 C 149.562 56.354,149.418 57.292,149.335 57.750 C 149.253 58.208,149.099 59.146,148.993 59.833 C 148.888 60.521,148.733 61.458,148.650 61.917 C 148.566 62.375,148.417 63.313,148.319 64.000 C 148.220 64.688,148.071 65.662,147.986 66.167 C 147.163 71.095,147.077 72.400,147.555 72.704 C 147.833 72.881,154.734 72.863,155.197 72.684 C 156.159 72.313,156.354 71.925,156.672 69.750 C 156.752 69.200,156.937 68.037,157.083 67.167 C 157.353 65.558,157.590 64.088,157.822 62.583 C 158.156 60.414,158.583 60.169,162.031 60.161 C 164.932 60.155,169.353 59.713,170.250 59.338 C 170.433 59.262,171.108 58.989,171.750 58.732 C 173.932 57.858,176.315 55.924,177.194 54.315 C 177.347 54.036,177.579 53.682,177.710 53.528 C 177.841 53.375,178.071 52.934,178.220 52.549 C 178.369 52.163,178.635 51.526,178.811 51.132 C 178.986 50.739,179.213 50.060,179.315 49.625 C 179.417 49.190,179.593 48.477,179.706 48.042 C 179.990 46.951,179.991 41.925,179.708 41.642 C 179.594 41.527,179.500 41.260,179.500 41.048 C 179.500 40.699,179.226 40.046,178.991 39.833 C 178.941 39.787,178.735 39.480,178.534 39.149 C 177.396 37.276,174.658 35.776,171.500 35.297 C 170.904 35.207,166.739 35.100,162.244 35.059 L 154.071 34.986 153.505 35.368 M167.464 42.767 C 169.612 43.468,170.471 45.485,169.819 48.301 C 169.353 50.317,167.574 52.333,166.263 52.333 C 166.038 52.333,165.814 52.396,165.766 52.474 C 165.719 52.551,164.395 52.662,162.825 52.721 C 159.826 52.835,159.201 52.738,159.420 52.196 C 159.482 52.042,159.600 51.448,159.683 50.875 C 159.766 50.302,159.908 49.346,160.000 48.750 C 160.092 48.154,160.237 47.198,160.324 46.625 C 160.841 43.199,160.979 42.745,161.580 42.478 C 162.142 42.229,166.465 42.441,167.464 42.767 M190.500 47.358 C 190.179 47.449,189.617 47.599,189.250 47.692 C 186.743 48.325,182.880 50.980,181.711 52.875 C 181.555 53.127,181.369 53.333,181.297 53.333 C 181.225 53.333,181.167 53.421,181.167 53.529 C 181.167 53.636,181.064 53.842,180.938 53.987 C 180.727 54.228,179.971 55.660,179.522 56.667 C 178.704 58.499,178.246 61.768,178.494 64.000 C 178.691 65.767,178.857 66.334,179.686 68.083 C 179.904 68.542,180.176 69.016,180.291 69.137 C 180.406 69.258,180.500 69.424,180.500 69.506 C 180.500 69.847,182.614 71.674,183.569 72.159 C 186.524 73.659,190.919 73.829,193.832 72.555 C 194.154 72.414,194.604 72.216,194.833 72.114 C 195.272 71.919,197.024 70.831,197.167 70.664 C 197.213 70.611,197.504 70.390,197.814 70.173 L 198.378 69.779 198.259 71.044 C 198.086 72.887,198.053 72.873,202.393 72.804 C 206.774 72.735,206.672 72.812,207.183 69.167 C 207.267 68.571,207.407 67.633,207.495 67.083 C 207.647 66.134,207.822 64.995,208.162 62.750 C 208.245 62.200,208.437 61.038,208.588 60.167 C 208.739 59.296,208.937 58.096,209.029 57.500 C 209.120 56.904,209.266 55.967,209.353 55.417 C 209.439 54.867,209.576 53.967,209.656 53.417 C 209.737 52.867,209.887 51.892,209.989 51.250 C 210.578 47.564,210.757 47.770,206.872 47.691 C 202.118 47.596,201.667 47.751,201.667 49.482 C 201.667 50.450,201.426 50.458,200.540 49.519 C 198.798 47.676,193.442 46.523,190.500 47.358 M214.694 47.801 C 213.863 48.052,213.998 50.554,214.891 51.447 C 214.951 51.506,215.000 51.732,215.000 51.947 C 215.000 52.162,215.070 52.468,215.156 52.627 C 215.242 52.786,215.509 53.479,215.750 54.167 C 215.991 54.854,216.258 55.547,216.344 55.706 C 216.430 55.865,216.500 56.142,216.500 56.321 C 216.500 56.500,216.575 56.693,216.667 56.750 C 216.758 56.807,216.833 57.000,216.833 57.179 C 216.833 57.358,216.900 57.635,216.982 57.794 C 217.215 58.245,218.201 61.197,218.291 61.710 C 218.335 61.964,218.438 62.212,218.519 62.262 C 218.600 62.312,218.667 62.500,218.667 62.679 C 218.667 62.858,218.737 63.135,218.823 63.294 C 219.102 63.810,219.833 65.916,219.833 66.202 C 219.833 66.355,219.908 66.527,220.000 66.583 C 220.092 66.640,220.167 66.857,220.167 67.065 C 220.167 67.274,220.216 67.494,220.276 67.553 C 220.336 67.613,220.595 68.278,220.853 69.029 L 221.322 70.396 221.002 70.914 C 220.826 71.199,220.547 71.595,220.383 71.795 C 220.218 71.995,219.909 72.404,219.695 72.704 C 212.733 82.501,212.799 81.724,218.939 81.636 C 223.382 81.573,222.517 82.140,226.121 76.924 C 227.644 74.720,228.953 72.892,229.029 72.861 C 229.105 72.831,229.167 72.740,229.167 72.661 C 229.167 72.480,230.693 70.270,230.870 70.194 C 230.941 70.164,231.000 70.066,231.000 69.976 C 231.000 69.843,231.691 68.834,232.296 68.083 C 232.370 67.992,232.725 67.467,233.085 66.917 C 233.444 66.367,233.783 65.879,233.837 65.833 C 233.891 65.787,235.123 64.025,236.574 61.917 C 238.025 59.808,239.277 58.058,239.356 58.028 C 239.435 57.997,239.500 57.880,239.500 57.768 C 239.500 57.655,239.631 57.416,239.792 57.236 C 239.952 57.056,240.456 56.348,240.912 55.663 C 241.368 54.978,241.783 54.379,241.833 54.333 C 241.916 54.257,242.093 54.007,242.833 52.915 C 242.971 52.712,243.627 51.774,244.292 50.829 C 246.395 47.840,246.102 47.589,240.626 47.691 C 236.455 47.768,237.530 46.787,231.057 56.417 C 229.886 58.158,228.869 59.608,228.797 59.639 C 228.726 59.669,228.667 59.766,228.667 59.854 C 228.667 60.023,227.373 61.833,227.253 61.833 C 227.067 61.833,225.833 58.301,225.833 57.769 C 225.833 57.619,225.766 57.365,225.683 57.206 C 225.600 57.047,225.442 56.579,225.331 56.167 C 225.220 55.754,225.073 55.267,225.004 55.083 C 224.882 54.755,224.443 53.304,224.123 52.167 C 224.033 51.846,223.893 51.453,223.813 51.294 C 223.732 51.135,223.667 50.820,223.667 50.595 C 223.667 50.370,223.592 50.140,223.500 50.083 C 223.408 50.027,223.333 49.772,223.333 49.518 C 223.333 49.232,223.118 48.806,222.769 48.403 L 222.205 47.750 218.644 47.717 C 216.686 47.698,214.908 47.736,214.694 47.801 M195.937 53.928 C 202.291 54.876,201.701 64.125,195.140 66.410 C 194.336 66.690,191.191 66.767,190.706 66.518 C 190.547 66.437,190.126 66.231,189.770 66.060 C 185.217 63.877,186.712 56.240,192.083 54.240 C 192.568 54.060,194.717 53.694,194.937 53.755 C 195.040 53.783,195.490 53.861,195.937 53.928 " stroke="none" fill="#253a7f" fill-rule="evenodd"></path><path id="path1" d="M251.874 35.221 C 251.169 35.612,251.089 35.825,250.577 38.667 C 250.519 38.987,250.408 39.737,250.330 40.333 C 250.252 40.929,249.991 42.579,249.750 44.000 C 249.509 45.421,249.236 47.108,249.144 47.750 C 248.606 51.469,248.039 55.073,247.846 56.000 C 247.760 56.413,247.647 57.087,247.596 57.500 C 247.544 57.913,247.422 58.737,247.325 59.333 C 247.227 59.929,247.082 60.867,247.002 61.417 C 246.922 61.967,246.819 62.604,246.773 62.833 C 246.727 63.063,246.605 63.813,246.501 64.500 C 246.190 66.554,245.834 68.698,245.662 69.554 C 245.374 70.985,245.450 72.462,245.822 72.661 C 246.018 72.766,247.680 72.833,250.060 72.833 C 254.327 72.833,254.388 72.820,254.597 71.863 C 254.650 71.618,254.763 71.199,254.847 70.933 C 254.931 70.668,255.000 70.195,255.000 69.882 C 255.000 69.570,255.069 69.000,255.154 68.615 C 255.309 67.909,255.456 67.006,255.930 63.833 C 256.462 60.269,256.603 60.167,260.984 60.167 C 266.495 60.167,269.491 59.458,272.500 57.443 C 274.248 56.273,275.918 54.142,276.833 51.917 C 276.946 51.642,277.095 51.303,277.163 51.164 C 277.791 49.887,278.615 44.622,278.337 43.668 C 278.243 43.348,278.167 42.821,278.167 42.499 C 278.167 39.036,274.570 36.024,269.500 35.241 C 267.514 34.934,252.421 34.917,251.874 35.221 M315.848 35.436 C 315.657 35.679,315.500 36.024,315.500 36.201 C 315.500 36.379,315.310 37.700,315.079 39.137 C 314.847 40.574,314.580 42.275,314.486 42.917 C 314.392 43.558,314.247 44.458,314.163 44.917 C 314.079 45.375,313.930 46.275,313.832 46.917 C 313.733 47.558,313.546 48.721,313.415 49.500 C 313.284 50.279,313.141 51.179,313.097 51.500 C 313.052 51.821,312.973 52.346,312.921 52.667 C 312.869 52.987,312.749 53.775,312.653 54.417 C 312.557 55.058,312.412 55.996,312.329 56.500 C 312.247 57.004,312.103 57.904,312.008 58.500 C 311.191 63.667,311.008 64.835,310.922 65.417 C 310.497 68.316,310.174 70.309,310.013 71.024 C 309.632 72.720,309.960 72.863,314.085 72.801 L 317.530 72.750 317.909 72.308 C 318.154 72.024,318.359 71.458,318.485 70.725 C 318.592 70.097,318.755 69.133,318.847 68.583 C 318.940 68.033,319.081 67.208,319.162 66.750 C 319.242 66.292,319.507 64.604,319.750 63.000 C 319.993 61.396,320.256 59.746,320.334 59.333 C 320.412 58.921,320.559 57.983,320.662 57.250 C 320.764 56.517,320.919 55.542,321.006 55.083 C 321.158 54.283,321.797 50.228,322.333 46.667 C 322.409 46.163,322.555 45.225,322.657 44.583 C 322.760 43.942,322.912 42.967,322.996 42.417 C 323.079 41.867,323.267 40.704,323.412 39.833 C 323.957 36.569,324.009 35.980,323.788 35.519 L 323.579 35.083 319.887 35.039 L 316.196 34.994 315.848 35.436 M121.355 38.063 C 120.371 43.624,117.274 48.732,113.229 51.462 C 112.120 52.210,109.914 53.333,109.554 53.333 C 109.430 53.333,109.199 53.404,109.039 53.491 C 108.665 53.695,107.308 54.093,106.250 54.309 C 105.792 54.402,105.192 54.529,104.917 54.591 C 103.935 54.810,101.187 54.987,97.083 55.094 C 91.424 55.243,91.543 55.146,90.804 60.167 C 90.716 60.762,90.573 61.700,90.485 62.250 C 90.397 62.800,90.257 63.737,90.174 64.333 C 89.988 65.659,89.755 67.108,89.410 69.083 C 89.266 69.908,89.077 71.071,88.989 71.667 C 88.901 72.262,88.755 73.200,88.665 73.750 C 88.576 74.300,88.422 75.313,88.324 76.000 C 88.225 76.688,88.082 77.662,88.005 78.167 C 87.422 81.985,86.902 81.693,94.184 81.631 L 99.807 81.583 100.254 81.167 C 100.913 80.553,101.072 80.027,101.513 77.000 C 101.701 75.714,101.866 74.663,102.232 72.417 C 102.529 70.598,102.809 68.839,102.989 67.667 C 103.295 65.659,104.110 65.002,106.301 64.996 C 107.650 64.993,110.702 64.691,112.833 64.351 C 113.337 64.270,114.237 64.019,114.833 63.793 C 115.429 63.566,116.067 63.327,116.250 63.260 C 117.805 62.696,119.773 61.402,121.103 60.068 C 122.985 58.182,123.946 56.675,124.881 54.147 C 126.922 48.623,127.043 43.706,125.219 40.452 C 124.555 39.268,123.354 37.977,122.332 37.348 L 121.564 36.876 121.355 38.063 M264.147 42.507 C 266.237 42.769,268.000 43.847,268.000 44.861 C 268.000 45.019,268.075 45.193,268.167 45.250 C 268.377 45.380,268.385 47.224,268.178 47.905 C 268.093 48.186,267.937 48.717,267.831 49.083 C 267.391 50.620,266.023 51.894,264.264 52.405 C 262.676 52.867,257.834 52.781,257.831 52.292 C 257.827 51.857,258.611 46.759,258.843 45.706 C 258.930 45.315,259.000 44.773,259.000 44.501 C 259.000 42.487,260.218 42.015,264.147 42.507 M288.833 47.327 C 288.696 47.419,288.344 47.496,288.052 47.497 C 287.759 47.499,287.473 47.575,287.417 47.667 C 287.360 47.758,287.181 47.833,287.020 47.833 C 286.720 47.833,283.655 49.266,283.501 49.478 C 283.455 49.542,283.023 49.880,282.542 50.228 C 281.649 50.874,279.336 53.430,279.334 53.771 C 279.334 53.875,279.219 54.054,279.079 54.170 C 278.595 54.572,277.717 56.717,276.965 59.333 C 276.710 60.221,276.697 65.376,276.949 65.704 C 277.039 65.821,277.244 66.350,277.406 66.880 C 279.199 72.744,286.663 75.214,293.206 72.109 C 294.315 71.583,296.069 70.376,296.364 69.937 C 296.567 69.634,296.690 70.583,296.509 71.059 C 295.905 72.650,296.317 72.833,300.494 72.833 C 305.047 72.833,304.947 72.907,305.500 69.167 C 305.754 67.446,306.142 65.083,306.334 64.083 C 306.422 63.625,306.530 62.950,306.574 62.583 C 306.694 61.585,307.157 58.574,307.588 56.000 C 307.733 55.129,307.920 53.967,308.002 53.417 C 308.085 52.867,308.244 51.892,308.357 51.250 C 308.981 47.705,308.946 47.673,304.563 47.669 C 300.272 47.666,300.000 47.756,300.000 49.186 C 300.000 50.345,299.739 50.402,298.840 49.442 C 298.258 48.822,297.263 48.216,295.917 47.660 C 294.972 47.270,289.314 47.004,288.833 47.327 M295.727 54.400 C 300.042 56.308,299.343 63.654,294.636 65.867 C 291.240 67.463,287.201 66.604,286.003 64.030 C 285.888 63.785,285.728 63.453,285.647 63.294 C 285.334 62.679,285.476 59.769,285.866 58.814 C 286.778 56.576,288.672 54.683,290.417 54.263 C 292.530 53.754,294.376 53.802,295.727 54.400 " stroke="none" fill="#159cd4" fill-rule="evenodd"></path><path id="path2" d="M33.821 0.068 C 33.782 0.107,33.300 0.158,32.750 0.181 C 32.200 0.205,31.712 0.278,31.667 0.345 C 31.621 0.411,31.173 0.504,30.672 0.550 C 30.171 0.597,29.733 0.718,29.700 0.818 C 29.666 0.918,29.308 1.000,28.903 1.000 C 28.498 1.000,28.167 1.075,28.167 1.167 C 28.167 1.258,27.948 1.333,27.681 1.333 C 27.413 1.333,27.169 1.406,27.139 1.495 C 27.108 1.583,26.845 1.674,26.553 1.696 C 26.262 1.718,26.060 1.795,26.105 1.868 C 26.150 1.941,25.938 2.002,25.635 2.005 C 25.332 2.008,24.941 2.118,24.767 2.250 C 24.593 2.382,24.387 2.450,24.309 2.401 C 24.231 2.353,24.167 2.431,24.167 2.573 C 24.167 2.745,24.010 2.835,23.708 2.839 C 23.456 2.842,23.108 2.952,22.934 3.083 C 22.760 3.215,22.542 3.276,22.450 3.219 C 22.354 3.160,22.333 3.198,22.401 3.308 C 22.470 3.420,22.411 3.509,22.260 3.521 C 21.723 3.564,20.833 3.945,20.833 4.131 C 20.833 4.292,19.674 4.773,19.454 4.704 C 19.374 4.679,19.356 4.735,19.414 4.829 C 19.472 4.923,19.403 5.000,19.260 5.000 C 19.117 5.000,19.000 5.067,19.000 5.149 C 19.000 5.230,18.813 5.344,18.583 5.402 C 18.354 5.459,18.167 5.578,18.167 5.665 C 18.167 5.752,18.054 5.780,17.917 5.727 C 17.758 5.666,17.667 5.729,17.667 5.899 C 17.667 6.046,17.554 6.167,17.417 6.167 C 17.279 6.167,17.167 6.242,17.167 6.333 C 17.167 6.425,17.073 6.500,16.958 6.500 C 16.844 6.501,16.487 6.726,16.167 7.001 C 15.846 7.276,15.452 7.544,15.292 7.595 C 15.131 7.647,15.000 7.759,15.000 7.845 C 15.000 7.930,14.926 8.000,14.835 8.000 C 14.744 8.000,14.455 8.225,14.192 8.500 C 13.929 8.775,13.591 9.000,13.440 9.000 C 13.290 9.000,13.167 9.080,13.167 9.179 C 13.167 9.373,12.756 9.833,12.583 9.833 C 12.524 9.833,12.364 9.946,12.226 10.083 C 12.089 10.221,12.034 10.333,12.104 10.333 C 12.174 10.333,12.004 10.502,11.727 10.708 C 11.116 11.163,10.333 11.995,10.333 12.191 C 10.333 12.269,10.257 12.333,10.164 12.333 C 9.955 12.333,9.012 13.354,9.005 13.588 C 9.002 13.683,8.850 13.868,8.667 14.000 C 8.483 14.132,8.333 14.341,8.333 14.463 C 8.333 14.586,8.258 14.640,8.167 14.583 C 8.075 14.527,8.000 14.579,8.000 14.700 C 8.000 14.821,7.813 15.122,7.583 15.369 C 7.354 15.617,7.167 15.901,7.167 16.003 C 7.167 16.104,7.092 16.140,7.000 16.083 C 6.907 16.026,6.833 16.153,6.833 16.370 C 6.833 16.584,6.683 16.868,6.500 17.000 C 6.317 17.132,6.167 17.374,6.167 17.537 C 6.167 17.700,6.059 17.833,5.927 17.833 C 5.796 17.833,5.593 18.096,5.477 18.417 C 5.361 18.737,5.206 19.000,5.133 19.000 C 5.060 19.000,5.000 19.117,5.000 19.260 C 5.000 19.403,4.938 19.481,4.861 19.434 C 4.785 19.387,4.722 19.449,4.722 19.572 C 4.722 19.920,4.170 21.000,3.992 21.000 C 3.905 21.000,3.833 21.150,3.833 21.333 C 3.833 21.517,3.768 21.667,3.688 21.667 C 3.607 21.667,3.498 21.883,3.446 22.147 C 3.393 22.411,3.231 22.745,3.086 22.891 C 2.940 23.036,2.824 23.195,2.827 23.244 C 2.871 23.906,2.799 24.167,2.572 24.167 C 2.387 24.167,2.342 24.263,2.417 24.501 C 2.482 24.707,2.438 24.867,2.303 24.919 C 2.182 24.966,2.071 25.207,2.057 25.455 C 2.043 25.703,1.949 25.934,1.849 25.967 C 1.749 26.000,1.667 26.242,1.667 26.504 C 1.667 26.766,1.592 27.027,1.500 27.083 C 1.408 27.140,1.333 27.482,1.333 27.843 C 1.333 28.204,1.258 28.500,1.167 28.500 C 1.075 28.500,1.000 28.753,1.000 29.063 C 1.000 29.373,0.888 29.719,0.750 29.833 C 0.601 29.957,0.500 30.322,0.500 30.737 C 0.500 31.120,0.406 31.527,0.292 31.642 C -0.079 32.012,-0.005 76.595,0.366 76.846 C 0.444 76.898,0.515 77.236,0.524 77.596 C 0.533 77.956,0.644 78.416,0.770 78.619 C 0.897 78.822,1.000 79.216,1.000 79.494 C 1.000 79.772,1.075 80.000,1.167 80.000 C 1.258 80.000,1.333 80.285,1.333 80.633 C 1.333 80.982,1.408 81.341,1.499 81.432 C 1.590 81.523,1.681 81.796,1.701 82.037 C 1.721 82.278,1.796 82.439,1.869 82.395 C 1.941 82.350,2.000 82.506,2.000 82.740 C 2.000 83.382,2.004 83.395,2.288 83.708 C 2.433 83.869,2.484 84.002,2.401 84.005 C 2.318 84.008,2.374 84.105,2.525 84.220 C 2.676 84.335,2.826 84.651,2.858 84.923 C 2.890 85.194,3.048 85.562,3.208 85.740 C 3.369 85.917,3.500 86.187,3.500 86.339 C 3.500 86.682,3.980 87.667,4.148 87.667 C 4.216 87.667,4.374 87.929,4.500 88.250 C 4.626 88.571,4.790 88.833,4.864 88.833 C 4.939 88.833,5.000 88.951,5.000 89.095 C 5.000 89.239,5.113 89.470,5.252 89.609 C 5.390 89.747,5.460 89.929,5.408 90.013 C 5.356 90.098,5.393 90.167,5.490 90.167 C 5.587 90.167,5.667 90.279,5.667 90.417 C 5.667 90.554,5.779 90.667,5.917 90.667 C 6.054 90.667,6.167 90.800,6.167 90.963 C 6.167 91.126,6.317 91.368,6.500 91.500 C 6.683 91.632,6.833 91.916,6.833 92.130 C 6.833 92.347,6.907 92.474,7.000 92.417 C 7.092 92.360,7.167 92.418,7.167 92.545 C 7.167 92.673,7.354 92.877,7.583 93.000 C 7.849 93.142,8.000 93.367,8.000 93.621 C 8.000 93.844,8.073 93.974,8.167 93.917 C 8.258 93.860,8.333 93.893,8.333 93.990 C 8.333 94.087,8.633 94.475,9.000 94.853 C 9.367 95.231,9.667 95.596,9.667 95.664 C 9.667 95.828,12.675 98.833,12.839 98.833 C 12.909 98.833,13.349 99.208,13.817 99.667 C 14.285 100.125,14.783 100.500,14.923 100.500 C 15.062 100.500,15.407 100.763,15.689 101.083 C 15.971 101.404,16.327 101.667,16.480 101.667 C 16.634 101.667,16.868 101.817,17.000 102.000 C 17.132 102.183,17.374 102.333,17.537 102.333 C 17.700 102.333,17.833 102.450,17.833 102.593 C 17.833 102.736,17.908 102.807,18.000 102.750 C 18.092 102.693,18.167 102.725,18.167 102.820 C 18.167 102.916,18.354 103.041,18.583 103.098 C 18.812 103.156,19.000 103.270,19.000 103.351 C 19.000 103.433,19.150 103.500,19.333 103.500 C 19.517 103.500,19.667 103.575,19.667 103.667 C 19.667 103.758,19.779 103.833,19.917 103.833 C 20.054 103.833,20.167 103.908,20.167 104.000 C 20.167 104.092,20.309 104.167,20.482 104.167 C 20.656 104.167,20.843 104.284,20.898 104.427 C 20.953 104.571,21.065 104.646,21.147 104.596 C 21.229 104.545,21.388 104.615,21.502 104.752 C 21.615 104.888,21.923 105.000,22.187 105.000 C 22.451 105.000,22.667 105.075,22.667 105.167 C 22.667 105.258,22.817 105.333,23.000 105.333 C 23.183 105.333,23.333 105.408,23.333 105.500 C 23.333 105.592,23.521 105.667,23.750 105.667 C 23.979 105.667,24.167 105.742,24.167 105.833 C 24.167 105.925,24.434 106.000,24.760 106.000 C 25.116 106.000,25.311 106.067,25.249 106.168 C 25.192 106.260,25.282 106.378,25.448 106.430 C 25.614 106.482,25.880 106.594,26.039 106.679 C 26.199 106.764,26.475 106.833,26.655 106.833 C 26.834 106.833,27.027 106.908,27.083 107.000 C 27.140 107.092,27.524 107.167,27.936 107.167 C 28.394 107.167,28.646 107.232,28.583 107.333 C 28.520 107.435,28.776 107.500,29.240 107.500 C 29.658 107.500,30.000 107.575,30.000 107.667 C 30.000 107.758,30.337 107.833,30.750 107.833 C 31.266 107.833,31.500 107.903,31.500 108.057 C 31.500 108.219,31.812 108.291,32.621 108.317 C 33.271 108.338,33.794 108.437,33.865 108.552 C 34.084 108.906,366.333 108.838,366.333 108.484 C 366.333 108.401,366.861 108.333,367.505 108.333 C 368.393 108.333,368.700 108.273,368.773 108.083 C 368.834 107.924,369.091 107.833,369.484 107.833 C 369.823 107.833,370.171 107.762,370.258 107.676 C 370.345 107.589,370.731 107.499,371.115 107.477 C 371.499 107.454,371.776 107.375,371.730 107.301 C 371.684 107.227,371.956 107.167,372.333 107.167 C 372.748 107.167,372.979 107.101,372.917 107.000 C 372.855 106.901,373.054 106.833,373.407 106.833 C 373.733 106.833,374.000 106.758,374.000 106.667 C 374.000 106.575,374.225 106.500,374.500 106.500 C 374.833 106.500,375.000 106.417,375.000 106.250 C 375.000 106.077,375.174 106.000,375.569 106.000 C 375.883 106.000,376.165 105.922,376.197 105.826 C 376.229 105.730,376.419 105.639,376.620 105.624 C 376.821 105.609,376.950 105.561,376.907 105.518 C 376.797 105.408,377.804 105.000,378.186 105.000 C 378.359 105.000,378.500 104.925,378.500 104.833 C 378.500 104.742,378.615 104.667,378.755 104.667 C 378.896 104.667,379.054 104.554,379.106 104.417 C 379.159 104.279,379.386 104.167,379.611 104.167 C 379.841 104.167,379.975 104.094,379.917 104.000 C 379.825 103.852,380.176 103.752,380.554 103.818 C 380.630 103.831,380.644 103.765,380.586 103.671 C 380.528 103.577,380.597 103.500,380.740 103.500 C 380.883 103.500,381.000 103.425,381.000 103.333 C 381.000 103.242,381.115 103.167,381.256 103.167 C 381.560 103.167,382.308 102.711,382.686 102.296 C 382.834 102.133,383.032 102.000,383.125 102.000 C 383.219 102.000,383.705 101.663,384.206 101.250 C 384.707 100.838,385.187 100.500,385.272 100.500 C 385.357 100.500,385.535 100.350,385.667 100.167 C 385.799 99.983,386.040 99.833,386.203 99.833 C 386.367 99.833,386.500 99.734,386.500 99.611 C 386.500 99.489,386.686 99.290,386.914 99.168 C 387.142 99.046,387.372 98.809,387.425 98.640 C 387.479 98.471,387.613 98.333,387.724 98.333 C 387.836 98.333,388.035 98.183,388.167 98.000 C 388.299 97.817,388.503 97.667,388.620 97.667 C 388.737 97.667,388.833 97.589,388.833 97.494 C 388.833 97.400,389.077 97.076,389.375 96.776 C 389.673 96.475,390.066 96.028,390.248 95.781 C 390.430 95.535,390.674 95.333,390.790 95.333 C 390.905 95.333,391.000 95.215,391.000 95.069 C 391.000 94.924,391.257 94.556,391.571 94.251 C 391.885 93.946,392.097 93.653,392.043 93.599 C 391.989 93.544,392.034 93.500,392.143 93.500 C 392.252 93.500,392.414 93.311,392.502 93.079 C 392.590 92.848,392.775 92.615,392.914 92.561 C 393.053 92.508,393.167 92.360,393.167 92.232 C 393.167 92.104,393.242 92.000,393.333 92.000 C 393.425 92.000,393.500 91.850,393.500 91.667 C 393.500 91.476,393.611 91.333,393.760 91.333 C 393.903 91.333,393.973 91.258,393.917 91.167 C 393.860 91.075,393.882 91.000,393.965 91.000 C 394.048 91.000,394.256 90.681,394.428 90.292 C 394.600 89.902,394.874 89.462,395.037 89.314 C 395.200 89.166,395.333 88.892,395.333 88.707 C 395.333 88.521,395.454 88.323,395.601 88.266 C 395.753 88.208,395.827 88.057,395.773 87.915 C 395.715 87.764,395.773 87.667,395.922 87.667 C 396.073 87.667,396.167 87.504,396.167 87.240 C 396.167 86.998,396.239 86.858,396.333 86.917 C 396.425 86.973,396.500 86.880,396.500 86.710 C 396.500 86.329,396.870 85.503,397.042 85.501 C 397.110 85.501,397.167 85.270,397.167 84.988 C 397.167 84.707,397.277 84.366,397.412 84.231 C 397.547 84.096,397.750 83.670,397.862 83.284 C 397.975 82.899,398.133 82.537,398.214 82.481 C 398.295 82.425,398.355 82.332,398.348 82.273 C 398.282 81.783,398.362 81.332,398.500 81.417 C 398.599 81.478,398.667 81.283,398.667 80.936 C 398.667 80.616,398.742 80.307,398.833 80.250 C 398.925 80.193,399.000 79.851,399.000 79.490 C 399.000 79.076,399.077 78.833,399.208 78.833 C 399.342 78.833,399.434 78.523,399.465 77.964 C 399.491 77.486,399.573 77.055,399.647 77.006 C 400.008 76.766,400.069 31.828,399.708 31.708 C 399.577 31.664,399.500 31.314,399.500 30.754 C 399.500 30.121,399.429 29.842,399.250 29.773 C 399.093 29.713,399.000 29.458,399.000 29.089 C 399.000 28.765,398.925 28.500,398.833 28.500 C 398.742 28.500,398.667 28.158,398.667 27.740 C 398.667 27.276,398.602 27.020,398.500 27.083 C 398.405 27.142,398.333 27.001,398.333 26.758 C 398.333 26.522,398.268 26.199,398.189 26.039 C 397.977 25.615,397.638 24.616,397.623 24.375 C 397.617 24.260,397.511 24.167,397.389 24.167 C 397.263 24.167,397.167 23.986,397.167 23.750 C 397.167 23.521,397.092 23.333,397.000 23.333 C 396.908 23.333,396.833 23.108,396.833 22.833 C 396.833 22.558,396.758 22.333,396.667 22.333 C 396.575 22.333,396.500 22.141,396.500 21.907 C 396.500 21.665,396.428 21.525,396.333 21.583 C 396.242 21.640,396.167 21.575,396.167 21.440 C 396.167 21.135,395.629 20.169,395.458 20.168 C 395.390 20.167,395.333 20.054,395.333 19.917 C 395.333 19.779,395.258 19.667,395.167 19.667 C 395.075 19.667,395.000 19.517,395.000 19.333 C 395.000 19.150,394.931 19.000,394.846 19.000 C 394.762 19.000,394.606 18.738,394.500 18.417 C 394.394 18.096,394.238 17.833,394.154 17.833 C 394.069 17.833,394.000 17.731,394.000 17.607 C 394.000 17.482,393.813 17.239,393.583 17.067 C 393.348 16.891,393.167 16.585,393.167 16.367 C 393.167 16.152,393.093 16.026,393.000 16.083 C 392.908 16.140,392.833 16.087,392.833 15.967 C 392.833 15.846,392.683 15.653,392.500 15.539 C 392.317 15.424,392.167 15.232,392.167 15.112 C 392.167 14.991,391.829 14.541,391.417 14.110 C 391.004 13.680,390.667 13.254,390.667 13.164 C 390.667 13.074,390.554 13.000,390.417 13.000 C 390.279 13.000,390.167 12.895,390.167 12.766 C 390.167 12.490,387.615 9.833,387.349 9.833 C 387.249 9.833,386.757 9.421,386.257 8.917 C 385.757 8.413,385.207 8.000,385.035 8.000 C 384.864 8.000,384.623 7.813,384.501 7.585 C 384.379 7.357,384.066 7.076,383.806 6.961 C 383.546 6.846,383.333 6.695,383.333 6.626 C 383.333 6.557,383.221 6.500,383.083 6.500 C 382.946 6.500,382.833 6.425,382.833 6.333 C 382.833 6.242,382.724 6.167,382.591 6.167 C 382.458 6.167,382.161 5.979,381.932 5.750 C 381.703 5.521,381.399 5.333,381.258 5.333 C 381.116 5.333,381.000 5.258,381.000 5.167 C 381.000 5.075,380.850 5.000,380.667 5.000 C 380.483 5.000,380.333 4.925,380.333 4.833 C 380.333 4.742,380.178 4.667,379.988 4.667 C 379.639 4.667,379.167 4.311,379.167 4.047 C 379.167 3.969,378.999 3.892,378.794 3.876 C 378.589 3.861,378.395 3.770,378.364 3.674 C 378.332 3.578,378.087 3.500,377.819 3.500 C 377.552 3.500,377.333 3.425,377.333 3.333 C 377.333 3.242,377.183 3.167,377.000 3.167 C 376.817 3.167,376.667 3.092,376.667 3.000 C 376.667 2.908,376.479 2.833,376.250 2.833 C 375.991 2.833,375.833 2.739,375.833 2.583 C 375.833 2.417,375.667 2.333,375.333 2.333 C 375.058 2.333,374.833 2.258,374.833 2.167 C 374.833 2.075,374.646 2.000,374.417 2.000 C 374.188 2.000,374.000 1.925,374.000 1.833 C 374.000 1.742,373.779 1.667,373.510 1.667 C 373.240 1.667,372.973 1.592,372.917 1.500 C 372.860 1.408,372.518 1.333,372.157 1.333 C 371.796 1.333,371.500 1.258,371.500 1.167 C 371.500 1.075,371.162 1.000,370.750 1.000 C 370.244 1.000,370.000 0.929,370.000 0.783 C 370.000 0.645,369.743 0.550,369.298 0.524 C 368.912 0.501,368.488 0.393,368.356 0.283 C 368.125 0.091,34.012 -0.123,33.821 0.068 M109.917 21.490 C 110.558 21.606,111.214 21.769,111.373 21.851 C 111.532 21.933,111.884 22.000,112.155 22.000 C 112.425 22.000,112.693 22.075,112.750 22.167 C 112.807 22.258,113.037 22.333,113.262 22.333 C 113.487 22.333,113.801 22.397,113.961 22.475 C 114.120 22.553,114.868 22.909,115.622 23.267 C 116.377 23.624,116.996 23.973,116.997 24.042 C 116.999 24.110,117.094 24.168,117.208 24.170 C 117.655 24.176,120.833 27.782,120.833 28.283 C 120.833 28.368,120.972 28.733,121.140 29.094 C 121.800 30.504,122.057 32.227,121.947 34.518 L 121.845 36.658 122.560 37.151 C 123.638 37.893,125.025 39.480,125.565 40.592 C 125.829 41.137,126.111 41.714,126.190 41.873 C 126.269 42.032,126.333 42.336,126.333 42.548 C 126.333 42.760,126.412 43.012,126.508 43.108 C 126.731 43.331,126.616 48.754,126.363 49.917 C 126.263 50.375,126.112 51.087,126.027 51.500 C 125.233 55.350,122.407 59.870,119.611 61.762 C 116.446 63.904,112.924 64.914,107.833 65.141 C 103.551 65.332,103.687 65.190,102.814 70.333 C 102.620 71.479,102.401 72.867,102.329 73.417 C 102.257 73.967,102.108 74.942,102.000 75.583 C 101.892 76.225,101.740 77.200,101.662 77.750 C 101.056 82.063,101.170 82.000,93.948 82.000 L 88.526 82.000 88.013 81.569 C 87.446 81.091,87.319 79.989,87.657 78.461 C 88.109 76.414,88.192 75.619,87.970 75.478 C 87.849 75.401,85.211 75.337,82.109 75.336 C 74.381 75.332,74.573 75.462,75.317 70.750 C 75.404 70.200,75.553 69.225,75.648 68.583 C 75.743 67.942,75.942 66.742,76.090 65.917 C 76.238 65.092,76.428 63.948,76.513 63.375 C 76.597 62.802,76.739 61.865,76.827 61.292 C 76.915 60.719,77.061 59.762,77.151 59.167 C 77.548 56.531,77.679 55.734,77.754 55.493 C 77.798 55.352,77.915 54.677,78.015 53.993 C 78.114 53.309,78.267 52.300,78.354 51.750 C 78.441 51.200,78.581 50.262,78.667 49.667 C 78.752 49.071,78.894 48.133,78.982 47.583 C 79.070 47.033,79.217 46.058,79.309 45.417 C 79.485 44.188,79.749 42.726,80.010 41.539 C 80.096 41.148,80.167 40.507,80.167 40.114 C 80.167 39.721,80.234 39.329,80.315 39.242 C 80.397 39.155,80.508 38.633,80.562 38.083 C 80.716 36.523,81.111 33.943,81.747 30.333 C 81.804 30.012,81.922 29.262,82.010 28.667 C 82.098 28.071,82.238 27.133,82.321 26.583 C 82.403 26.033,82.544 25.091,82.632 24.489 C 82.874 22.845,83.462 21.888,84.518 21.420 C 85.276 21.083,108.024 21.146,109.917 21.490 M171.833 34.960 C 172.063 35.053,172.662 35.223,173.167 35.339 C 173.970 35.522,174.550 35.746,176.333 36.558 C 177.426 37.055,179.667 39.806,179.667 40.649 C 179.667 40.805,179.731 41.005,179.811 41.092 C 180.523 41.875,180.527 46.979,179.816 48.800 C 179.734 49.010,179.667 49.389,179.667 49.641 C 179.667 49.894,179.607 50.171,179.534 50.258 C 179.461 50.345,179.302 50.717,179.180 51.083 C 178.065 54.444,174.727 58.236,172.284 58.918 C 171.889 59.029,171.260 59.283,170.794 59.519 C 170.635 59.600,170.294 59.667,170.036 59.667 C 169.778 59.667,169.495 59.734,169.408 59.816 C 169.128 60.081,167.835 60.194,163.667 60.315 C 158.863 60.456,158.333 60.623,158.333 61.998 C 158.333 62.172,158.258 62.360,158.167 62.417 C 158.075 62.473,158.000 62.810,158.000 63.165 C 158.000 63.521,157.841 64.697,157.648 65.781 C 157.233 68.099,157.021 69.443,156.891 70.569 C 156.626 72.887,156.086 73.137,151.316 73.154 L 147.715 73.167 147.251 72.737 C 146.710 72.235,146.727 71.846,147.505 67.125 C 147.599 66.552,147.742 65.633,147.823 65.083 C 148.140 62.914,148.336 61.687,148.597 60.250 C 148.747 59.425,148.934 58.300,149.013 57.750 C 149.556 53.970,150.006 51.070,150.422 48.667 C 150.572 47.796,150.763 46.633,150.846 46.083 C 151.138 44.148,151.325 42.906,151.485 41.833 C 152.027 38.218,152.351 36.455,152.558 36.000 C 152.817 35.432,153.478 34.865,153.991 34.771 C 154.846 34.615,171.415 34.790,171.833 34.960 M271.284 35.290 C 273.971 36.013,277.167 38.078,277.167 39.092 C 277.167 39.151,277.319 39.412,277.504 39.672 C 278.500 41.071,278.974 44.612,278.490 47.033 C 278.003 49.474,277.478 51.278,276.987 52.206 C 276.902 52.365,276.833 52.573,276.833 52.667 C 276.833 52.869,275.640 54.725,275.458 54.806 C 275.390 54.836,275.333 54.951,275.333 55.061 C 275.333 56.103,269.786 59.667,268.163 59.667 C 267.901 59.667,267.645 59.734,267.594 59.816 C 267.430 60.082,266.158 60.193,262.000 60.306 C 257.002 60.441,256.802 60.515,256.468 62.333 C 256.194 63.823,255.984 65.104,255.837 66.167 C 255.755 66.762,255.615 67.700,255.524 68.250 C 255.434 68.800,255.275 69.813,255.171 70.500 C 254.767 73.174,254.782 73.167,249.914 73.167 C 245.943 73.167,245.547 73.085,245.174 72.185 C 245.061 71.911,245.014 71.612,245.071 71.521 C 245.127 71.429,245.242 70.844,245.327 70.219 C 245.411 69.594,245.601 68.408,245.748 67.583 C 245.895 66.758,246.090 65.596,246.182 65.000 C 246.564 62.511,246.687 61.699,246.824 60.750 C 247.075 59.021,247.295 57.636,247.580 56.000 C 247.865 54.363,248.050 53.197,248.324 51.333 C 248.411 50.737,248.563 49.762,248.661 49.167 C 248.759 48.571,248.904 47.547,248.983 46.892 C 249.062 46.237,249.169 45.632,249.221 45.547 C 249.273 45.463,249.403 44.762,249.510 43.989 C 249.617 43.216,249.770 42.171,249.850 41.667 C 250.157 39.734,250.363 38.383,250.486 37.500 C 250.657 36.274,250.919 35.659,251.464 35.207 L 251.917 34.832 260.917 34.877 C 269.597 34.921,269.965 34.936,271.284 35.290 M324.036 35.438 C 324.332 35.944,324.330 36.014,323.984 38.021 C 323.568 40.436,323.392 41.517,323.173 43.000 C 323.085 43.596,322.936 44.571,322.840 45.167 C 322.745 45.762,322.601 46.786,322.521 47.441 C 322.440 48.097,322.331 48.702,322.279 48.786 C 322.227 48.870,322.097 49.571,321.990 50.344 C 321.805 51.682,321.733 52.150,321.328 54.667 C 321.037 56.474,320.856 57.689,320.680 59.000 C 320.588 59.688,320.441 60.587,320.354 61.000 C 320.266 61.413,320.108 62.313,320.003 63.000 C 319.897 63.688,319.772 64.438,319.726 64.667 C 319.680 64.896,319.577 65.571,319.496 66.167 C 318.531 73.351,318.755 73.060,314.137 73.135 C 309.094 73.218,309.329 73.652,310.492 66.417 C 310.595 65.775,310.748 64.762,310.831 64.167 C 310.914 63.571,311.106 62.371,311.258 61.500 C 311.410 60.629,311.596 59.504,311.672 59.000 C 311.749 58.496,311.891 57.577,311.989 56.958 C 312.087 56.340,312.238 55.365,312.326 54.792 C 312.642 52.722,312.828 51.555,313.088 50.000 C 313.434 47.930,313.662 46.490,313.849 45.208 C 313.932 44.635,314.072 43.698,314.160 43.125 C 314.248 42.552,314.388 41.596,314.470 41.000 C 314.553 40.404,314.699 39.504,314.794 39.000 C 314.890 38.496,315.064 37.521,315.181 36.833 C 315.546 34.684,315.225 34.820,319.804 34.872 L 323.732 34.917 324.036 35.438 M161.585 42.894 C 161.228 43.156,160.924 44.622,160.181 49.667 C 160.093 50.262,159.969 51.148,159.905 51.634 L 159.789 52.517 162.270 52.449 C 166.563 52.330,167.919 51.774,168.924 49.720 C 170.323 46.860,169.590 43.524,167.469 43.096 C 165.164 42.632,162.089 42.526,161.585 42.894 M259.798 42.958 C 259.450 43.358,259.385 43.659,258.843 47.417 C 258.631 48.885,258.232 51.248,258.077 51.958 L 257.958 52.500 260.310 52.500 C 263.351 52.500,265.053 52.110,266.226 51.143 C 266.898 50.589,267.833 48.794,267.833 48.058 C 267.833 47.796,267.898 47.354,267.978 47.076 C 268.492 45.285,267.256 43.444,265.208 42.950 C 263.533 42.545,260.153 42.551,259.798 42.958 M195.167 47.000 C 195.946 47.083,196.846 47.198,197.167 47.256 C 198.091 47.423,200.033 48.464,200.623 49.109 L 201.163 49.699 201.331 49.255 C 201.424 49.011,201.500 48.710,201.500 48.586 C 201.500 47.483,202.063 47.333,206.202 47.333 L 209.753 47.333 210.210 47.757 C 210.726 48.236,210.781 48.757,210.488 50.417 C 210.265 51.683,210.028 53.127,209.825 54.458 C 209.738 55.031,209.594 55.969,209.505 56.542 C 209.416 57.115,209.271 58.108,209.183 58.750 C 209.095 59.392,208.900 60.592,208.750 61.417 C 208.403 63.328,208.188 64.637,207.997 66.000 C 207.913 66.596,207.772 67.533,207.684 68.083 C 207.595 68.633,207.458 69.571,207.380 70.167 C 207.022 72.899,206.560 73.166,202.197 73.166 C 198.195 73.167,197.849 73.031,197.839 71.458 C 197.832 70.516,197.830 70.516,196.945 71.218 C 196.318 71.715,195.238 72.284,193.453 73.060 C 193.106 73.210,192.615 73.333,192.361 73.333 C 192.107 73.333,191.821 73.412,191.725 73.508 C 191.490 73.743,186.647 73.624,185.696 73.360 C 183.693 72.803,180.167 70.401,180.167 69.592 C 180.167 69.484,180.035 69.251,179.875 69.073 C 179.586 68.753,179.434 68.466,178.953 67.333 C 177.475 63.855,177.727 59.926,179.711 55.500 C 179.978 54.904,180.377 54.178,180.598 53.886 C 180.819 53.594,181.000 53.314,181.000 53.263 C 181.000 52.115,186.241 48.188,188.667 47.518 C 189.079 47.404,189.647 47.241,189.928 47.155 C 190.210 47.070,190.810 46.993,191.262 46.983 C 191.714 46.974,192.271 46.910,192.500 46.840 C 192.729 46.770,193.104 46.744,193.333 46.781 C 193.563 46.819,194.387 46.917,195.167 47.000 M294.864 47.187 C 295.018 47.268,295.325 47.333,295.546 47.333 C 296.150 47.333,298.260 48.464,298.915 49.138 C 299.574 49.816,299.660 49.787,299.787 48.843 C 299.975 47.440,300.302 47.333,304.388 47.334 C 308.848 47.335,308.890 47.355,308.851 49.403 C 308.837 50.118,308.752 50.840,308.663 51.007 C 308.573 51.175,308.500 51.573,308.500 51.893 C 308.500 52.213,308.424 52.837,308.330 53.279 C 308.132 54.218,307.527 57.804,307.323 59.250 C 307.245 59.800,307.103 60.756,307.007 61.375 C 306.912 61.994,306.762 62.969,306.674 63.542 C 306.252 66.299,305.854 68.717,305.658 69.721 C 305.571 70.163,305.500 70.705,305.500 70.925 C 305.500 72.690,304.485 73.138,300.447 73.154 C 296.495 73.170,296.182 73.040,296.172 71.370 L 296.167 70.489 295.277 71.161 C 294.787 71.531,294.330 71.833,294.261 71.833 C 294.191 71.833,293.936 71.973,293.692 72.144 C 293.449 72.315,292.789 72.617,292.227 72.815 C 285.680 75.119,278.994 72.622,277.243 67.218 C 277.100 66.777,276.918 66.267,276.838 66.083 C 276.433 65.156,276.307 61.402,276.627 59.833 C 277.008 57.969,277.129 57.555,277.675 56.250 C 279.461 51.977,284.756 47.334,287.842 47.333 C 288.075 47.333,288.338 47.262,288.425 47.175 C 288.754 46.846,294.227 46.856,294.864 47.187 M222.304 47.593 C 222.876 47.879,223.500 48.649,223.500 49.070 C 223.500 49.217,223.568 49.468,223.650 49.627 C 223.733 49.786,223.892 50.254,224.003 50.667 C 224.114 51.079,224.265 51.567,224.340 51.750 C 224.414 51.933,224.599 52.533,224.751 53.083 C 224.903 53.633,225.096 54.214,225.181 54.373 C 225.265 54.532,225.333 54.846,225.333 55.071 C 225.333 55.296,225.408 55.527,225.500 55.583 C 225.592 55.640,225.667 55.870,225.667 56.095 C 225.667 56.320,225.735 56.635,225.818 56.794 C 225.902 56.953,226.161 57.721,226.393 58.500 C 227.373 61.782,227.133 61.643,228.413 59.667 C 228.859 58.979,229.269 58.379,229.324 58.333 C 229.380 58.288,229.724 57.782,230.088 57.210 C 230.452 56.638,230.806 56.169,230.875 56.168 C 230.944 56.167,231.000 56.092,231.000 56.000 C 231.000 55.844,232.119 54.180,232.345 54.000 C 232.403 53.954,232.480 53.831,232.517 53.726 C 232.553 53.621,233.408 52.333,234.417 50.865 C 236.960 47.161,236.632 47.333,241.143 47.333 L 244.719 47.333 245.276 47.758 C 246.159 48.432,245.624 50.106,243.967 51.854 C 243.848 51.980,243.644 52.290,243.514 52.542 C 243.383 52.794,243.215 53.000,243.139 53.000 C 243.062 53.000,243.000 53.071,243.000 53.159 C 243.000 53.298,241.577 55.450,241.341 55.667 C 241.230 55.768,241.243 55.751,237.676 60.917 C 236.093 63.208,234.731 65.108,234.649 65.139 C 234.567 65.169,234.500 65.268,234.500 65.359 C 234.500 65.449,233.994 66.238,233.375 67.111 C 232.756 67.985,232.070 68.973,231.850 69.308 C 231.630 69.643,231.386 69.942,231.308 69.972 C 231.230 70.003,231.167 70.122,231.167 70.238 C 231.167 70.354,231.017 70.584,230.833 70.750 C 230.650 70.916,230.500 71.118,230.500 71.200 C 230.500 71.281,230.426 71.438,230.336 71.549 C 229.563 72.497,229.333 72.822,229.333 72.969 C 229.333 73.062,229.275 73.164,229.204 73.194 C 229.072 73.251,228.502 74.055,225.538 78.360 C 222.782 82.363,223.140 82.167,218.580 82.167 C 212.941 82.167,212.799 81.828,216.337 76.833 C 216.564 76.512,216.791 76.212,216.841 76.167 C 216.891 76.121,217.561 75.183,218.329 74.083 C 219.098 72.983,219.788 72.058,219.863 72.028 C 219.939 71.997,220.000 71.872,220.000 71.750 C 220.000 71.628,220.059 71.503,220.131 71.472 C 220.832 71.175,220.988 70.126,220.480 69.127 C 220.400 68.968,220.333 68.691,220.333 68.512 C 220.333 68.333,220.258 68.140,220.167 68.083 C 220.075 68.027,220.000 67.775,220.000 67.523 C 220.000 67.272,219.935 66.995,219.857 66.908 C 219.778 66.821,219.575 66.337,219.406 65.833 C 219.238 65.329,219.040 64.845,218.966 64.758 C 218.893 64.671,218.833 64.390,218.833 64.133 C 218.833 63.877,218.758 63.667,218.667 63.667 C 218.575 63.667,218.500 63.454,218.500 63.194 C 218.500 62.935,218.449 62.671,218.387 62.609 C 218.283 62.505,217.992 61.719,217.266 59.583 C 217.111 59.125,216.920 58.600,216.843 58.417 C 216.766 58.233,216.588 57.708,216.447 57.250 C 216.007 55.822,215.132 53.264,214.979 52.961 C 214.899 52.801,214.833 52.525,214.833 52.345 C 214.833 52.166,214.758 51.973,214.667 51.917 C 214.575 51.860,214.498 51.649,214.495 51.448 C 214.492 51.248,214.379 50.938,214.245 50.760 C 214.110 50.582,214.000 50.268,214.000 50.061 C 214.000 49.855,213.925 49.640,213.833 49.583 C 213.471 49.359,213.649 48.167,214.108 47.742 C 214.672 47.219,221.311 47.098,222.304 47.593 M192.917 54.333 C 192.860 54.425,192.640 54.500,192.428 54.500 C 191.570 54.500,189.541 55.978,188.679 57.232 C 187.462 59.000,187.054 63.067,187.999 64.000 C 188.046 64.046,188.181 64.271,188.300 64.500 C 189.638 67.083,195.287 66.990,198.014 64.340 C 199.528 62.870,200.726 58.493,199.854 57.621 C 199.751 57.518,199.667 57.291,199.667 57.117 C 199.667 56.192,198.177 54.899,196.488 54.357 C 195.756 54.123,193.058 54.104,192.917 54.333 M291.083 54.333 C 291.027 54.425,290.834 54.500,290.655 54.500 C 289.522 54.500,287.341 56.370,286.540 58.030 C 285.699 59.770,285.293 62.582,285.833 62.917 C 285.925 62.973,286.000 63.177,286.000 63.369 C 286.000 63.729,286.637 64.680,287.241 65.224 C 288.474 66.333,290.844 66.784,292.750 66.272 C 293.848 65.978,295.333 65.330,295.333 65.146 C 295.333 65.066,295.416 65.000,295.516 65.000 C 295.888 65.000,297.333 63.186,297.774 62.167 C 298.525 60.428,298.537 57.618,297.797 56.583 C 296.473 54.732,295.317 54.173,292.802 54.169 C 291.902 54.168,291.141 54.240,291.083 54.333 " stroke="none" fill="#dbdbdb" fill-rule="evenodd"></path><path id="path3" d="M84.633 21.560 C 83.628 22.006,82.722 23.450,82.870 24.371 C 82.912 24.629,82.995 24.469,83.131 23.870 C 83.399 22.694,83.712 22.260,84.592 21.847 C 85.598 21.374,105.082 21.311,108.667 21.769 C 109.813 21.916,111.013 22.064,111.333 22.098 L 111.917 22.162 111.417 21.999 C 109.396 21.343,85.986 20.960,84.633 21.560 M112.083 22.333 C 112.140 22.425,112.426 22.493,112.718 22.483 C 113.226 22.468,113.231 22.461,112.833 22.333 C 112.235 22.142,111.965 22.142,112.083 22.333 M114.333 22.912 C 114.333 22.955,114.840 23.233,115.458 23.530 C 116.077 23.828,116.729 24.205,116.906 24.369 C 117.084 24.533,117.309 24.664,117.406 24.661 C 117.726 24.651,116.772 23.973,115.629 23.398 C 114.503 22.831,114.333 22.767,114.333 22.912 M117.667 24.735 C 117.667 24.811,117.985 25.183,118.375 25.562 C 119.595 26.747,121.000 28.941,121.000 29.661 C 121.000 29.836,121.065 30.021,121.145 30.070 C 121.513 30.297,121.724 34.706,121.435 36.125 C 121.353 36.530,121.353 36.833,121.437 36.833 C 122.150 36.831,121.783 30.889,120.948 28.908 C 120.369 27.536,117.667 24.099,117.667 24.735 M82.693 25.354 C 82.679 25.503,82.624 25.878,82.572 26.188 C 82.495 26.648,82.512 26.696,82.666 26.455 C 82.769 26.292,82.824 25.917,82.787 25.621 C 82.750 25.325,82.708 25.205,82.693 25.354 M82.274 27.889 C 82.200 28.424,82.178 28.900,82.226 28.948 C 82.358 29.080,82.535 27.948,82.468 27.401 C 82.425 27.053,82.370 27.191,82.274 27.889 M81.862 30.500 C 81.614 32.081,81.497 32.803,80.990 35.875 C 80.797 37.044,80.673 38.094,80.715 38.209 C 80.757 38.323,80.835 38.154,80.888 37.833 C 81.092 36.617,81.504 34.038,81.675 32.917 C 81.772 32.275,81.930 31.375,82.025 30.917 C 82.120 30.458,82.172 29.858,82.141 29.583 C 82.104 29.262,82.004 29.590,81.862 30.500 M153.553 35.102 C 152.894 35.427,152.472 36.272,152.313 37.583 C 152.246 38.133,152.075 39.258,151.932 40.083 C 151.789 40.908,151.678 41.733,151.685 41.917 C 151.705 42.473,151.932 41.398,152.249 39.250 C 152.923 34.679,151.983 35.104,161.637 34.997 L 169.417 34.910 161.750 34.876 C 155.077 34.845,154.015 34.875,153.553 35.102 M170.250 35.167 C 170.962 35.348,172.399 35.348,171.833 35.167 C 171.604 35.093,171.042 35.035,170.583 35.036 C 169.871 35.039,169.823 35.058,170.250 35.167 M172.667 35.486 C 172.804 35.564,173.172 35.683,173.484 35.750 C 175.271 36.132,177.691 37.761,178.534 39.149 C 178.735 39.480,178.941 39.787,178.991 39.833 C 179.226 40.046,179.500 40.699,179.500 41.048 C 179.500 41.260,179.594 41.527,179.708 41.642 C 179.983 41.916,179.990 46.948,179.718 48.000 C 179.611 48.413,179.435 49.125,179.327 49.583 C 179.219 50.042,178.986 50.739,178.811 51.132 C 178.635 51.526,178.369 52.163,178.220 52.549 C 178.071 52.934,177.841 53.375,177.710 53.528 C 177.579 53.682,177.347 54.036,177.194 54.315 C 176.315 55.924,173.932 57.858,171.750 58.732 C 171.108 58.989,170.433 59.262,170.250 59.338 C 169.353 59.713,164.932 60.155,162.031 60.161 C 160.461 60.165,159.338 60.240,159.114 60.356 C 158.339 60.759,157.824 61.652,157.848 62.550 C 157.860 63.008,157.891 62.965,158.067 62.250 C 158.517 60.420,158.628 60.379,163.333 60.285 C 167.359 60.204,169.651 59.878,171.286 59.154 C 172.770 58.496,172.915 58.419,174.000 57.722 C 177.452 55.505,179.454 51.684,180.165 45.958 C 180.349 44.476,180.138 41.788,179.810 41.425 C 179.731 41.338,179.667 41.122,179.667 40.945 C 179.667 39.212,176.564 36.487,173.488 35.520 C 172.755 35.290,172.288 35.270,172.667 35.486 M80.449 39.333 C 80.322 40.151,80.095 41.578,79.832 43.208 C 79.739 43.781,79.628 44.625,79.583 45.083 C 79.460 46.365,79.783 45.249,80.019 43.583 C 80.239 42.024,80.447 40.661,80.594 39.811 C 80.651 39.478,80.669 39.066,80.632 38.894 C 80.596 38.723,80.513 38.921,80.449 39.333 M151.433 43.136 C 151.359 43.623,151.339 44.062,151.389 44.111 C 151.520 44.242,151.707 43.112,151.631 42.647 C 151.590 42.393,151.519 42.569,151.433 43.136 M161.580 42.478 C 160.977 42.746,160.853 43.154,160.315 46.667 C 160.035 48.497,159.994 49.516,160.261 48.000 C 160.399 47.221,160.580 46.246,160.664 45.833 C 160.748 45.421,160.865 44.689,160.924 44.207 C 161.116 42.647,161.250 42.578,164.028 42.615 C 168.712 42.678,170.120 43.821,169.766 47.275 C 169.399 50.858,167.817 52.230,163.750 52.491 L 161.917 52.609 163.782 52.638 C 164.878 52.655,165.689 52.598,165.750 52.500 C 165.807 52.408,166.038 52.333,166.263 52.333 C 169.309 52.333,171.293 45.835,168.928 43.605 C 167.911 42.646,162.927 41.882,161.580 42.478 M151.032 45.750 C 150.912 46.575,150.747 47.625,150.666 48.083 C 150.245 50.452,150.134 51.287,150.199 51.587 C 150.239 51.768,150.365 51.242,150.480 50.417 C 150.595 49.592,150.759 48.699,150.845 48.433 C 150.930 48.168,151.000 47.619,151.000 47.214 C 151.000 46.809,151.079 46.330,151.176 46.150 C 151.272 45.970,151.328 45.468,151.301 45.036 C 151.255 44.335,151.226 44.412,151.032 45.750 M79.257 46.802 C 79.189 47.289,79.172 47.728,79.220 47.776 C 79.339 47.895,79.555 46.411,79.458 46.135 C 79.417 46.015,79.326 46.315,79.257 46.802 M192.375 47.124 C 192.994 47.156,194.006 47.156,194.625 47.124 C 195.244 47.092,194.737 47.065,193.500 47.065 C 192.262 47.065,191.756 47.092,192.375 47.124 M189.917 47.333 C 189.613 47.464,189.620 47.477,190.000 47.477 C 190.229 47.477,190.567 47.412,190.750 47.333 C 191.054 47.203,191.046 47.190,190.667 47.190 C 190.438 47.190,190.100 47.255,189.917 47.333 M196.000 47.333 C 196.137 47.422,196.475 47.489,196.750 47.481 C 197.240 47.467,197.242 47.464,196.833 47.333 C 196.196 47.129,195.684 47.129,196.000 47.333 M188.750 47.667 L 188.417 47.810 188.750 47.819 C 188.933 47.824,189.196 47.756,189.333 47.667 C 189.665 47.453,189.248 47.453,188.750 47.667 M198.500 48.100 C 199.345 48.495,200.006 48.954,200.540 49.519 C 201.415 50.446,201.676 50.449,201.647 49.532 C 201.636 49.172,201.594 49.055,201.546 49.250 C 201.371 49.962,201.156 50.014,200.694 49.453 C 200.033 48.651,198.081 47.481,197.451 47.509 C 197.340 47.514,197.813 47.780,198.500 48.100 M202.106 47.845 C 201.864 48.035,201.670 48.317,201.673 48.470 C 201.678 48.661,201.757 48.607,201.922 48.304 C 202.241 47.716,203.061 47.615,206.872 47.691 C 210.757 47.770,210.578 47.564,209.989 51.250 C 209.661 53.302,209.490 54.562,209.422 55.417 L 209.356 56.250 209.504 55.500 C 209.585 55.087,209.733 54.225,209.833 53.583 C 209.933 52.942,210.088 52.004,210.176 51.500 C 210.883 47.470,210.914 47.500,206.083 47.500 C 202.756 47.500,202.519 47.521,202.106 47.845 M214.272 47.845 C 214.031 48.035,213.836 48.317,213.840 48.470 C 213.845 48.660,213.925 48.606,214.090 48.302 C 214.418 47.698,215.070 47.616,218.978 47.690 C 220.714 47.723,222.048 47.695,221.942 47.628 C 221.425 47.299,214.726 47.489,214.272 47.845 M237.235 47.737 C 236.586 48.020,235.967 48.793,233.885 51.923 C 232.968 53.302,231.963 54.778,231.651 55.203 C 231.339 55.629,230.222 57.254,229.170 58.816 L 227.256 61.655 226.971 60.952 C 226.814 60.566,226.681 60.370,226.676 60.516 C 226.667 60.781,227.131 61.833,227.257 61.833 C 227.374 61.833,228.667 60.019,228.667 59.854 C 228.667 59.766,228.726 59.669,228.797 59.639 C 228.869 59.608,229.886 58.158,231.057 56.417 C 237.530 46.787,236.455 47.768,240.626 47.691 C 246.102 47.589,246.395 47.840,244.292 50.829 C 243.627 51.774,242.971 52.712,242.833 52.915 C 242.093 54.007,241.916 54.257,241.833 54.333 C 241.783 54.379,241.368 54.978,240.912 55.663 C 240.456 56.348,239.952 57.056,239.792 57.236 C 239.449 57.620,239.392 58.020,239.730 57.661 C 239.857 57.526,240.732 56.292,241.674 54.917 C 242.616 53.542,243.867 51.756,244.455 50.948 C 245.750 49.168,245.913 48.546,245.246 47.927 L 244.785 47.500 241.267 47.507 C 238.701 47.511,237.611 47.574,237.235 47.737 M186.583 48.559 C 181.120 51.402,177.113 58.903,178.290 64.083 C 178.407 64.600,178.441 64.261,178.441 62.583 C 178.442 60.455,178.864 58.140,179.522 56.667 C 179.971 55.660,180.727 54.228,180.938 53.987 C 181.064 53.842,181.167 53.636,181.167 53.529 C 181.167 53.421,181.225 53.333,181.297 53.333 C 181.369 53.333,181.555 53.127,181.711 52.875 C 182.551 51.514,184.637 49.811,186.907 48.633 C 187.737 48.203,188.304 47.854,188.167 47.858 C 188.029 47.862,187.317 48.177,186.583 48.559 M222.778 48.409 C 223.031 48.726,223.267 48.955,223.304 48.919 C 223.407 48.815,222.663 47.833,222.482 47.833 C 222.392 47.833,222.526 48.092,222.778 48.409 M79.024 48.500 C 79.008 48.729,78.954 49.104,78.903 49.333 C 78.823 49.692,78.836 49.709,78.999 49.455 C 79.102 49.292,79.157 48.917,79.120 48.621 C 79.068 48.203,79.047 48.176,79.024 48.500 M213.833 49.157 C 213.833 49.335,213.908 49.527,214.000 49.583 C 214.092 49.640,214.167 49.865,214.167 50.083 C 214.167 50.302,214.242 50.527,214.333 50.583 C 214.425 50.640,214.500 50.865,214.500 51.083 C 214.500 51.302,214.575 51.527,214.667 51.583 C 214.758 51.640,214.833 51.833,214.833 52.012 C 214.833 52.191,214.905 52.468,214.993 52.627 C 215.081 52.786,215.571 54.151,216.083 55.659 C 217.052 58.517,217.167 58.786,217.167 58.204 C 217.167 58.011,217.092 57.807,217.000 57.750 C 216.908 57.693,216.833 57.468,216.833 57.250 C 216.833 57.032,216.758 56.807,216.667 56.750 C 216.575 56.693,216.500 56.500,216.500 56.321 C 216.500 56.142,216.430 55.865,216.344 55.706 C 216.258 55.547,215.991 54.854,215.750 54.167 C 215.509 53.479,215.242 52.786,215.156 52.627 C 215.070 52.468,215.000 52.164,215.000 51.952 C 215.000 51.740,214.939 51.495,214.863 51.408 C 214.788 51.321,214.551 50.706,214.335 50.042 C 213.927 48.781,213.833 48.616,213.833 49.157 M223.342 49.615 C 223.337 49.816,223.408 50.027,223.500 50.083 C 223.592 50.140,223.667 50.370,223.667 50.595 C 223.667 50.820,223.734 51.135,223.817 51.294 C 223.900 51.453,224.059 51.921,224.170 52.333 C 224.465 53.422,224.815 54.295,224.825 53.966 C 224.829 53.810,224.765 53.510,224.682 53.300 C 224.599 53.089,224.368 52.354,224.170 51.667 C 223.667 49.925,223.353 49.146,223.342 49.615 M159.788 49.979 C 159.721 50.289,159.675 50.776,159.685 51.063 C 159.701 51.507,159.725 51.473,159.854 50.833 C 159.937 50.421,159.983 49.933,159.957 49.750 C 159.924 49.525,159.869 49.599,159.788 49.979 M78.692 50.367 C 78.678 50.706,78.597 51.344,78.511 51.783 C 78.425 52.223,78.275 53.071,78.177 53.667 C 77.441 58.144,77.315 59.026,77.376 59.288 C 77.454 59.619,77.515 59.311,77.915 56.583 C 78.063 55.575,78.251 54.375,78.333 53.917 C 78.751 51.585,78.861 50.705,78.792 50.250 C 78.722 49.788,78.715 49.797,78.692 50.367 M159.455 52.000 C 159.285 52.609,159.701 52.839,160.907 52.805 L 161.917 52.776 160.834 52.680 C 159.791 52.587,159.748 52.565,159.661 52.083 C 159.571 51.585,159.570 51.585,159.455 52.000 M150.027 52.188 C 150.012 52.336,149.958 52.711,149.906 53.021 C 149.828 53.481,149.845 53.530,149.999 53.288 C 150.103 53.126,150.157 52.751,150.120 52.455 C 150.083 52.159,150.041 52.039,150.027 52.188 M194.083 53.840 C 193.531 53.933,193.630 53.957,194.653 53.976 C 195.333 53.989,195.858 53.973,195.819 53.941 C 195.647 53.793,194.690 53.737,194.083 53.840 M149.359 56.362 C 148.981 58.837,148.876 59.477,148.507 61.569 C 148.412 62.112,148.340 62.749,148.349 62.986 C 148.365 63.422,148.677 61.887,149.006 59.750 C 149.104 59.108,149.253 58.208,149.335 57.750 C 149.670 55.893,149.866 54.380,149.810 54.102 C 149.777 53.940,149.574 54.957,149.359 56.362 M192.167 54.198 C 188.860 55.592,187.180 57.990,187.125 61.393 C 187.089 63.563,188.032 65.227,189.770 66.060 C 190.126 66.231,190.547 66.437,190.706 66.518 C 191.655 67.004,194.976 66.616,196.474 65.843 C 200.389 63.825,201.660 58.169,198.839 55.319 C 198.163 54.636,196.896 53.990,196.278 54.013 C 196.079 54.021,196.314 54.144,196.800 54.287 C 197.843 54.594,199.115 55.659,199.573 56.609 C 199.743 56.962,199.946 57.380,200.025 57.539 C 200.543 58.595,200.001 61.707,199.031 63.250 C 197.429 65.795,193.740 67.159,190.769 66.302 C 185.284 64.721,186.507 56.252,192.500 54.314 C 193.056 54.135,193.253 54.019,193.000 54.020 C 192.771 54.022,192.396 54.102,192.167 54.198 M224.833 54.586 C 224.833 54.724,224.901 54.968,224.984 55.127 C 225.066 55.286,225.224 55.754,225.333 56.167 C 225.443 56.579,225.600 57.047,225.683 57.206 C 225.766 57.365,225.833 57.612,225.833 57.755 C 225.833 58.185,226.551 60.265,226.624 60.046 C 226.661 59.934,226.534 59.371,226.342 58.796 C 225.956 57.639,225.852 57.304,225.338 55.542 C 224.997 54.372,224.833 54.062,224.833 54.586 M209.113 56.833 C 208.714 59.249,208.261 62.067,208.148 62.833 C 208.073 63.337,207.930 64.275,207.831 64.917 C 207.460 67.296,207.524 67.670,207.916 65.417 C 208.785 60.422,209.360 56.664,209.286 56.462 C 209.244 56.345,209.166 56.512,209.113 56.833 M236.667 61.777 C 235.246 63.850,234.007 65.630,233.913 65.732 C 233.819 65.833,233.447 66.367,233.087 66.917 C 232.726 67.467,232.370 67.992,232.296 68.083 C 231.691 68.834,231.000 69.843,231.000 69.976 C 231.000 70.066,230.941 70.164,230.870 70.194 C 230.693 70.270,229.167 72.480,229.167 72.661 C 229.167 72.740,229.105 72.831,229.029 72.861 C 228.953 72.892,227.644 74.720,226.121 76.924 C 222.517 82.140,223.382 81.573,218.939 81.636 C 212.799 81.724,212.733 82.501,219.695 72.704 C 219.909 72.404,220.218 71.995,220.383 71.795 C 220.547 71.595,220.826 71.199,221.002 70.914 L 221.322 70.396 220.853 69.029 C 220.595 68.278,220.336 67.613,220.276 67.553 C 220.216 67.494,220.167 67.274,220.167 67.065 C 220.167 66.857,220.092 66.640,220.000 66.583 C 219.908 66.527,219.833 66.361,219.833 66.216 C 219.833 65.862,219.139 63.972,219.044 64.067 C 218.978 64.133,219.463 65.699,219.825 66.583 C 219.900 66.767,220.224 67.708,220.545 68.675 L 221.129 70.434 217.638 75.306 C 212.872 81.958,212.877 81.999,218.481 82.000 C 222.840 82.000,222.924 81.961,224.917 79.010 C 226.554 76.587,234.550 65.090,234.662 65.000 C 234.719 64.954,235.767 63.454,236.992 61.667 C 238.217 59.879,239.292 58.323,239.380 58.208 C 239.469 58.094,239.475 58.002,239.395 58.003 C 239.315 58.005,238.088 59.703,236.667 61.777 M217.172 58.715 C 217.164 58.913,218.664 63.360,218.839 63.659 C 218.971 63.885,218.990 63.882,218.995 63.635 C 218.998 63.480,218.925 63.307,218.833 63.250 C 218.742 63.193,218.667 63.000,218.667 62.821 C 218.667 62.642,218.600 62.365,218.518 62.206 C 218.436 62.047,218.162 61.279,217.910 60.500 C 217.464 59.127,217.182 58.444,217.172 58.715 M76.867 62.000 C 76.207 66.165,76.140 66.566,75.985 67.282 C 75.830 67.998,75.777 69.112,75.904 68.985 C 75.943 68.946,76.134 67.864,76.328 66.582 C 76.523 65.299,76.753 63.930,76.841 63.539 C 76.928 63.148,77.000 62.562,77.000 62.237 C 77.000 61.911,77.079 61.497,77.176 61.316 C 77.273 61.135,77.329 60.671,77.301 60.285 C 77.264 59.777,77.144 60.250,76.867 62.000 M157.624 63.667 C 157.558 63.896,157.511 64.346,157.519 64.667 L 157.533 65.250 157.690 64.583 C 157.877 63.782,157.820 62.983,157.624 63.667 M148.100 64.302 C 148.026 64.789,148.006 65.228,148.055 65.278 C 148.186 65.408,148.373 64.279,148.298 63.813 C 148.257 63.560,148.186 63.736,148.100 64.302 M178.523 65.284 C 178.500 65.809,178.576 66.055,179.190 67.457 C 179.361 67.845,179.500 68.230,179.500 68.311 C 179.500 68.393,179.612 68.553,179.750 68.667 C 180.083 68.943,180.066 68.832,179.643 67.974 C 179.447 67.576,179.229 67.100,179.160 66.917 C 178.837 66.064,178.677 65.550,178.614 65.167 C 178.557 64.821,178.542 64.841,178.523 65.284 M157.330 65.431 C 157.329 65.515,157.213 66.296,157.073 67.167 C 156.933 68.037,156.752 69.200,156.672 69.750 C 156.354 71.925,156.159 72.313,155.197 72.684 C 154.680 72.884,147.817 72.871,147.500 72.669 C 147.211 72.486,147.213 69.869,147.503 69.328 C 147.593 69.160,147.657 68.661,147.646 68.219 L 147.625 67.417 147.487 68.167 C 147.411 68.579,147.272 69.466,147.177 70.137 C 147.083 70.808,146.964 71.423,146.914 71.504 C 146.731 71.801,147.306 72.820,147.714 72.923 C 147.936 72.978,149.774 73.000,151.798 72.970 L 155.479 72.917 155.969 72.447 C 156.464 71.972,156.562 71.645,156.991 69.042 C 157.424 66.422,157.539 65.483,157.441 65.385 C 157.382 65.326,157.332 65.347,157.330 65.431 M147.778 66.311 C 147.708 66.803,147.686 67.242,147.731 67.286 C 147.854 67.409,148.037 66.265,147.968 65.813 C 147.930 65.571,147.856 65.764,147.778 66.311 M207.287 68.167 C 207.223 68.396,207.178 68.846,207.187 69.167 C 207.203 69.728,207.209 69.721,207.353 69.000 C 207.521 68.157,207.470 67.510,207.287 68.167 M180.206 69.375 C 180.535 69.967,182.609 71.960,183.033 72.091 C 183.244 72.157,183.604 72.340,183.833 72.499 C 184.375 72.875,186.190 73.367,187.250 73.427 C 187.708 73.453,187.896 73.440,187.667 73.399 C 184.209 72.776,180.926 70.938,180.419 69.341 C 180.360 69.153,180.240 69.000,180.154 69.000 C 180.068 69.000,180.091 69.169,180.206 69.375 M75.693 69.438 C 75.679 69.632,75.627 70.045,75.579 70.354 C 75.499 70.869,75.506 70.882,75.670 70.506 C 75.769 70.280,75.820 69.867,75.785 69.589 C 75.746 69.290,75.709 69.228,75.693 69.438 M197.750 70.208 C 197.475 70.408,197.213 70.614,197.167 70.667 C 197.020 70.834,195.265 71.922,194.833 72.114 C 194.604 72.216,194.152 72.415,193.829 72.557 C 193.505 72.698,192.530 72.963,191.662 73.145 C 190.770 73.332,190.320 73.481,190.628 73.488 C 192.320 73.525,197.276 71.394,197.639 70.474 C 197.842 69.958,198.078 70.440,198.039 71.291 C 197.964 72.941,197.903 72.917,202.065 72.917 C 206.427 72.917,207.219 72.534,207.148 70.460 C 207.133 70.026,207.082 70.118,206.891 70.917 C 206.459 72.721,206.411 72.741,202.403 72.804 C 198.061 72.873,198.087 72.883,198.257 71.071 C 198.320 70.390,198.345 69.836,198.311 69.839 C 198.278 69.842,198.025 70.008,197.750 70.208 M75.362 71.417 C 75.344 71.692,75.291 72.217,75.244 72.583 C 75.169 73.164,75.181 73.197,75.337 72.840 C 75.435 72.614,75.488 72.089,75.454 71.673 C 75.416 71.202,75.381 71.105,75.362 71.417 M75.004 73.500 C 74.986 75.012,75.674 75.167,82.432 75.167 L 88.342 75.167 88.512 74.719 C 88.605 74.473,88.653 74.117,88.618 73.928 C 88.577 73.705,88.508 73.834,88.423 74.292 L 88.291 75.000 82.406 75.000 C 75.847 75.000,75.798 74.993,75.329 73.960 C 75.152 73.569,75.006 73.362,75.004 73.500 " stroke="none" fill="#7484a4" fill-rule="evenodd"></path><path id="path4" d="M84.518 21.425 C 83.516 21.860,82.677 23.188,82.670 24.350 C 82.668 24.680,82.586 25.180,82.488 25.462 C 82.390 25.743,82.334 26.223,82.363 26.528 C 82.399 26.896,82.491 26.577,82.636 25.583 C 83.011 23.022,83.452 22.075,84.485 21.611 C 84.793 21.472,88.136 21.392,96.167 21.331 L 107.417 21.245 96.250 21.213 C 86.732 21.185,85.000 21.216,84.518 21.425 M107.681 21.396 C 107.719 21.431,108.275 21.501,108.917 21.552 C 109.653 21.611,109.899 21.595,109.583 21.509 C 109.077 21.371,107.553 21.281,107.681 21.396 M110.347 21.726 C 110.532 21.884,111.507 21.980,111.415 21.831 C 111.359 21.741,111.081 21.667,110.796 21.667 C 110.511 21.667,110.309 21.693,110.347 21.726 M111.847 22.060 C 112.044 22.229,112.851 22.330,112.754 22.173 C 112.695 22.078,112.451 22.000,112.212 22.000 C 111.973 22.000,111.809 22.027,111.847 22.060 M113.750 22.602 C 114.117 22.741,114.891 23.077,115.471 23.349 C 116.051 23.620,116.488 23.782,116.442 23.708 C 116.397 23.634,115.885 23.360,115.305 23.100 C 114.725 22.839,114.120 22.560,113.961 22.480 C 113.801 22.399,113.539 22.337,113.377 22.342 C 113.216 22.347,113.383 22.464,113.750 22.602 M117.258 24.304 C 117.345 24.380,117.867 24.843,118.417 25.334 L 119.417 26.227 118.417 25.203 C 117.867 24.640,117.345 24.176,117.258 24.173 C 117.158 24.169,117.158 24.217,117.258 24.304 M120.296 27.583 C 120.474 27.858,120.661 28.196,120.713 28.333 C 120.797 28.556,120.808 28.556,120.819 28.333 C 120.826 28.196,120.638 27.858,120.402 27.583 L 119.972 27.083 120.296 27.583 M82.107 27.702 C 82.051 27.912,82.012 28.346,82.022 28.667 C 82.036 29.139,82.067 29.079,82.188 28.350 C 82.342 27.427,82.290 27.018,82.107 27.702 M81.771 29.923 C 81.713 30.072,81.674 30.394,81.683 30.639 C 81.697 30.996,81.730 30.956,81.853 30.433 C 82.009 29.766,81.956 29.439,81.771 29.923 M121.523 30.750 C 121.523 30.933,121.588 31.233,121.667 31.417 L 121.810 31.750 121.810 31.417 C 121.810 31.233,121.745 30.933,121.667 30.750 L 121.523 30.417 121.523 30.750 M81.424 32.258 C 81.360 32.683,81.342 33.065,81.384 33.106 C 81.426 33.148,81.512 32.834,81.576 32.409 C 81.640 31.984,81.658 31.602,81.616 31.560 C 81.574 31.519,81.488 31.832,81.424 32.258 M121.896 33.583 C 121.896 34.592,121.924 34.983,121.957 34.452 C 121.990 33.922,121.990 33.097,121.956 32.619 C 121.922 32.141,121.895 32.575,121.896 33.583 M81.113 34.083 C 80.850 35.828,80.835 36.596,81.091 35.250 C 81.231 34.517,81.321 33.767,81.292 33.583 C 81.263 33.400,81.182 33.625,81.113 34.083 M157.708 34.791 C 159.610 34.818,162.723 34.818,164.625 34.791 C 166.527 34.765,164.971 34.743,161.167 34.743 C 157.362 34.743,155.806 34.765,157.708 34.791 M153.260 35.089 C 152.844 35.403,152.998 35.401,153.606 35.084 C 153.869 34.947,153.971 34.837,153.833 34.840 C 153.696 34.842,153.438 34.954,153.260 35.089 M169.417 34.917 C 169.817 35.053,172.017 35.113,171.809 34.982 C 171.685 34.903,171.058 34.843,170.417 34.849 C 169.775 34.855,169.325 34.885,169.417 34.917 M251.464 35.207 C 250.919 35.659,250.657 36.274,250.486 37.500 C 250.363 38.383,250.157 39.734,249.850 41.667 C 249.770 42.171,249.617 43.216,249.510 43.989 C 249.403 44.762,249.273 45.463,249.221 45.547 C 249.169 45.632,249.062 46.237,248.983 46.892 C 248.904 47.547,248.759 48.571,248.661 49.167 C 248.563 49.762,248.411 50.737,248.324 51.333 C 248.050 53.197,247.865 54.363,247.580 56.000 C 247.295 57.636,247.075 59.021,246.824 60.750 C 246.687 61.699,246.564 62.511,246.182 65.000 C 246.090 65.596,245.895 66.758,245.748 67.583 C 245.601 68.408,245.411 69.594,245.327 70.219 C 245.242 70.844,245.127 71.429,245.071 71.521 C 245.014 71.612,245.061 71.911,245.174 72.185 C 245.547 73.085,245.943 73.167,249.914 73.167 C 254.782 73.167,254.767 73.174,255.171 70.500 C 255.275 69.813,255.434 68.800,255.524 68.250 C 255.615 67.700,255.755 66.762,255.837 66.167 C 256.669 60.120,256.312 60.460,262.000 60.306 C 266.158 60.193,267.430 60.082,267.594 59.816 C 267.645 59.734,267.901 59.667,268.163 59.667 C 269.786 59.667,275.333 56.103,275.333 55.061 C 275.333 54.951,275.390 54.836,275.458 54.806 C 275.640 54.725,276.833 52.869,276.833 52.667 C 276.833 52.573,276.902 52.365,276.987 52.206 C 277.478 51.278,278.003 49.474,278.490 47.033 C 278.974 44.612,278.500 41.071,277.504 39.672 C 277.319 39.412,277.167 39.151,277.167 39.092 C 277.167 38.512,275.041 36.758,273.451 36.026 C 271.142 34.963,270.744 34.927,260.917 34.877 L 251.917 34.832 251.464 35.207 M315.634 35.205 C 315.502 35.413,315.298 36.146,315.181 36.833 C 315.064 37.521,314.890 38.496,314.794 39.000 C 314.699 39.504,314.553 40.404,314.470 41.000 C 314.388 41.596,314.248 42.552,314.160 43.125 C 314.072 43.698,313.932 44.635,313.849 45.208 C 313.662 46.490,313.434 47.930,313.088 50.000 C 312.828 51.555,312.642 52.722,312.326 54.792 C 312.238 55.365,312.087 56.340,311.989 56.958 C 311.891 57.577,311.749 58.496,311.672 59.000 C 311.596 59.504,311.410 60.629,311.258 61.500 C 311.106 62.371,310.914 63.571,310.831 64.167 C 310.748 64.762,310.595 65.775,310.492 66.417 C 309.329 73.652,309.094 73.218,314.137 73.135 C 318.755 73.060,318.531 73.351,319.496 66.167 C 319.577 65.571,319.680 64.896,319.726 64.667 C 319.772 64.438,319.897 63.688,320.003 63.000 C 320.108 62.313,320.266 61.413,320.354 61.000 C 320.441 60.587,320.588 59.688,320.680 59.000 C 320.856 57.689,321.037 56.474,321.328 54.667 C 321.733 52.150,321.805 51.682,321.990 50.344 C 322.097 49.571,322.227 48.870,322.279 48.786 C 322.331 48.702,322.440 48.097,322.521 47.441 C 322.601 46.786,322.745 45.762,322.840 45.167 C 322.936 44.571,323.085 43.596,323.173 43.000 C 323.392 41.517,323.568 40.436,323.984 38.021 C 324.330 36.014,324.332 35.944,324.036 35.438 L 323.732 34.917 319.804 34.872 C 315.880 34.827,315.875 34.828,315.634 35.205 M269.500 35.241 C 274.570 36.024,278.167 39.036,278.167 42.499 C 278.167 42.821,278.243 43.348,278.337 43.668 C 278.615 44.622,277.791 49.887,277.163 51.164 C 277.095 51.303,276.946 51.642,276.833 51.917 C 275.918 54.142,274.248 56.273,272.500 57.443 C 269.491 59.458,266.495 60.167,260.984 60.167 C 256.603 60.167,256.462 60.269,255.930 63.833 C 255.456 67.006,255.309 67.909,255.154 68.615 C 255.069 69.000,255.000 69.570,255.000 69.882 C 255.000 70.195,254.931 70.668,254.847 70.933 C 254.763 71.199,254.650 71.618,254.597 71.863 C 254.388 72.820,254.327 72.833,250.060 72.833 C 247.680 72.833,246.018 72.766,245.822 72.661 C 245.450 72.462,245.374 70.985,245.662 69.554 C 245.834 68.698,246.190 66.554,246.501 64.500 C 246.605 63.813,246.727 63.063,246.773 62.833 C 246.819 62.604,246.922 61.967,247.002 61.417 C 247.082 60.867,247.227 59.929,247.325 59.333 C 247.422 58.737,247.544 57.913,247.596 57.500 C 247.647 57.087,247.760 56.413,247.846 56.000 C 248.039 55.073,248.606 51.469,249.144 47.750 C 249.236 47.108,249.509 45.421,249.750 44.000 C 249.991 42.579,250.252 40.929,250.330 40.333 C 250.408 39.737,250.519 38.987,250.577 38.667 C 251.089 35.825,251.169 35.612,251.874 35.221 C 252.421 34.917,267.514 34.934,269.500 35.241 M323.788 35.519 C 324.009 35.980,323.957 36.569,323.412 39.833 C 323.267 40.704,323.079 41.867,322.996 42.417 C 322.912 42.967,322.760 43.942,322.657 44.583 C 322.555 45.225,322.409 46.163,322.333 46.667 C 321.797 50.228,321.158 54.283,321.006 55.083 C 320.919 55.542,320.764 56.517,320.662 57.250 C 320.559 57.983,320.412 58.921,320.334 59.333 C 320.256 59.746,319.993 61.396,319.750 63.000 C 319.507 64.604,319.242 66.292,319.162 66.750 C 319.081 67.208,318.940 68.033,318.847 68.583 C 318.755 69.133,318.592 70.097,318.485 70.725 C 318.359 71.458,318.154 72.024,317.909 72.308 L 317.530 72.750 314.085 72.801 C 309.960 72.863,309.632 72.720,310.013 71.024 C 310.174 70.309,310.497 68.316,310.922 65.417 C 311.008 64.835,311.191 63.667,312.008 58.500 C 312.103 57.904,312.247 57.004,312.329 56.500 C 312.412 55.996,312.557 55.058,312.653 54.417 C 312.749 53.775,312.869 52.987,312.921 52.667 C 312.973 52.346,313.052 51.821,313.097 51.500 C 313.141 51.179,313.284 50.279,313.415 49.500 C 313.546 48.721,313.733 47.558,313.832 46.917 C 313.930 46.275,314.079 45.375,314.163 44.917 C 314.247 44.458,314.392 43.558,314.486 42.917 C 314.580 42.275,314.847 40.574,315.079 39.137 C 315.310 37.700,315.500 36.379,315.500 36.201 C 315.500 36.024,315.657 35.679,315.848 35.436 L 316.196 34.994 319.887 35.039 L 323.579 35.083 323.788 35.519 M173.333 35.492 C 173.471 35.585,173.727 35.663,173.903 35.664 C 174.329 35.668,174.196 35.572,173.583 35.435 C 173.218 35.353,173.151 35.369,173.333 35.492 M121.646 36.000 C 121.509 36.783,121.582 36.918,122.390 37.393 C 123.807 38.226,125.486 40.441,125.946 42.083 C 126.763 45.002,126.726 47.240,125.795 51.167 C 124.870 55.066,123.499 57.667,121.103 60.068 C 119.773 61.402,117.805 62.696,116.250 63.260 C 116.067 63.327,115.429 63.566,114.833 63.793 C 114.237 64.019,113.337 64.270,112.833 64.351 C 110.702 64.691,107.650 64.993,106.301 64.996 C 104.110 65.002,103.295 65.659,102.989 67.667 C 102.809 68.839,102.529 70.598,102.232 72.417 C 101.866 74.663,101.701 75.714,101.513 77.000 C 101.072 80.027,100.913 80.553,100.254 81.167 L 99.807 81.583 94.184 81.631 C 86.887 81.693,87.421 82.001,88.017 78.083 C 88.101 77.533,88.215 76.652,88.271 76.125 L 88.373 75.167 82.448 75.167 C 76.065 75.167,75.849 75.140,75.334 74.296 C 75.151 73.996,75.001 73.867,75.001 74.010 C 75.000 74.355,75.596 74.981,76.110 75.177 C 76.337 75.263,79.048 75.334,82.136 75.336 C 85.224 75.337,87.849 75.401,87.970 75.478 C 88.192 75.619,88.109 76.414,87.657 78.461 C 87.319 79.989,87.446 81.091,88.013 81.569 L 88.526 82.000 93.948 82.000 C 101.170 82.000,101.056 82.063,101.662 77.750 C 101.740 77.200,101.892 76.225,102.000 75.583 C 102.108 74.942,102.257 73.967,102.329 73.417 C 102.401 72.867,102.620 71.479,102.814 70.333 C 103.687 65.190,103.551 65.332,107.833 65.141 C 112.343 64.940,114.541 64.431,117.583 62.882 C 121.882 60.695,124.997 56.495,126.027 51.500 C 126.112 51.087,126.263 50.375,126.363 49.917 C 126.616 48.754,126.731 43.331,126.508 43.108 C 126.412 43.012,126.333 42.760,126.333 42.548 C 126.333 42.336,126.269 42.032,126.190 41.873 C 126.111 41.714,125.829 41.137,125.565 40.592 C 125.025 39.482,123.639 37.893,122.564 37.154 C 121.971 36.745,121.845 36.561,121.801 36.041 L 121.748 35.417 121.646 36.000 M176.436 36.825 C 177.313 37.329,178.512 38.554,178.946 39.390 C 179.081 39.651,179.231 39.824,179.280 39.775 C 179.646 39.410,176.533 36.330,175.803 36.335 C 175.682 36.336,175.967 36.556,176.436 36.825 M80.607 37.202 C 80.551 37.412,80.513 37.846,80.523 38.167 C 80.537 38.612,80.573 38.533,80.674 37.834 C 80.814 36.871,80.780 36.555,80.607 37.202 M152.015 38.522 C 151.893 39.222,151.833 39.897,151.883 40.022 C 151.933 40.148,151.980 40.039,151.987 39.782 C 151.994 39.525,152.082 38.989,152.182 38.591 C 152.282 38.193,152.336 37.728,152.301 37.559 C 152.265 37.389,152.137 37.823,152.015 38.522 M80.292 39.263 C 80.223 39.332,80.171 39.620,80.177 39.903 C 80.188 40.405,80.191 40.408,80.350 40.010 C 80.529 39.563,80.490 39.063,80.292 39.263 M151.612 40.815 C 151.550 41.123,151.509 41.609,151.519 41.896 C 151.533 42.255,151.586 42.135,151.689 41.510 C 151.855 40.509,151.790 39.924,151.612 40.815 M79.907 41.741 C 79.845 42.075,79.831 42.386,79.877 42.432 C 79.922 42.478,80.011 42.242,80.074 41.907 C 80.137 41.573,80.151 41.262,80.105 41.216 C 80.059 41.170,79.970 41.406,79.907 41.741 M180.112 42.750 C 180.165 43.300,180.237 43.781,180.271 43.819 C 180.392 43.954,180.298 42.578,180.158 42.167 C 180.066 41.897,180.050 42.102,180.112 42.750 M259.885 42.532 C 259.466 42.735,259.000 43.772,259.000 44.501 C 259.000 44.773,258.930 45.315,258.843 45.706 C 258.611 46.759,257.827 51.857,257.831 52.292 C 257.834 52.781,262.676 52.867,264.264 52.405 C 266.023 51.894,267.391 50.620,267.831 49.083 C 267.937 48.717,268.093 48.186,268.178 47.905 C 268.385 47.224,268.377 45.380,268.167 45.250 C 268.075 45.193,268.000 45.019,268.000 44.861 C 268.000 44.394,267.063 43.400,266.272 43.028 C 265.006 42.433,260.771 42.104,259.885 42.532 M162.625 42.622 C 163.015 42.657,163.652 42.657,164.042 42.622 C 164.431 42.587,164.112 42.558,163.333 42.558 C 162.554 42.558,162.235 42.587,162.625 42.622 M151.271 42.923 C 151.213 43.072,151.175 43.469,151.186 43.805 C 151.204 44.368,151.217 44.351,151.344 43.589 C 151.487 42.738,151.454 42.445,151.271 42.923 M161.260 43.045 C 161.123 43.253,160.973 43.872,160.925 44.420 L 160.837 45.417 161.056 44.270 C 161.196 43.529,161.384 43.042,161.585 42.895 C 161.757 42.769,161.809 42.667,161.702 42.667 C 161.595 42.667,161.396 42.837,161.260 43.045 M166.000 42.843 C 166.504 42.914,167.142 43.018,167.417 43.076 C 167.777 43.151,167.731 43.109,167.250 42.926 C 166.883 42.786,166.246 42.682,165.833 42.694 L 165.083 42.716 166.000 42.843 M265.208 42.950 C 267.256 43.444,268.492 45.285,267.978 47.076 C 267.898 47.354,267.833 47.796,267.833 48.058 C 267.833 48.794,266.898 50.589,266.226 51.143 C 265.053 52.110,263.351 52.500,260.310 52.500 L 257.958 52.500 258.077 51.958 C 258.232 51.248,258.631 48.885,258.843 47.417 C 259.581 42.305,259.337 42.667,262.044 42.667 C 263.346 42.667,264.442 42.765,265.208 42.950 M79.521 44.087 C 79.401 44.639,79.337 45.314,79.377 45.587 C 79.437 45.996,79.454 45.964,79.475 45.400 C 79.489 45.024,79.581 44.484,79.680 44.199 C 79.780 43.915,79.833 43.547,79.799 43.383 C 79.765 43.218,79.640 43.535,79.521 44.087 M168.695 43.861 C 170.650 45.813,169.625 50.349,166.917 51.732 C 166.458 51.967,166.200 52.160,166.342 52.162 C 166.485 52.165,166.936 51.954,167.346 51.695 C 170.152 49.915,170.742 44.912,168.329 43.352 C 168.102 43.205,168.267 43.434,168.695 43.861 M150.948 45.171 C 150.888 45.398,150.844 45.771,150.852 46.000 C 150.863 46.299,150.910 46.232,151.020 45.761 C 151.190 45.039,151.125 44.510,150.948 45.171 M180.106 46.221 C 180.031 46.847,180.009 47.398,180.056 47.445 C 180.183 47.572,180.371 46.139,180.301 45.574 C 180.263 45.260,180.192 45.494,180.106 46.221 M160.592 45.970 C 160.524 46.275,160.509 46.565,160.559 46.615 C 160.685 46.740,160.883 45.898,160.791 45.632 C 160.750 45.514,160.661 45.666,160.592 45.970 M79.107 46.535 C 79.051 46.745,79.013 47.217,79.023 47.583 C 79.038 48.158,79.061 48.113,79.185 47.262 C 79.332 46.250,79.290 45.852,79.107 46.535 M192.500 46.846 C 192.229 46.925,192.514 46.973,193.319 46.983 C 193.999 46.993,194.524 46.972,194.486 46.939 C 194.330 46.801,192.888 46.734,192.500 46.846 M289.750 46.952 C 289.108 46.988,288.512 47.088,288.425 47.175 C 288.338 47.262,288.075 47.333,287.842 47.333 C 284.756 47.334,279.461 51.977,277.675 56.250 C 277.129 57.555,277.008 57.969,276.627 59.833 C 276.307 61.402,276.433 65.156,276.838 66.083 C 276.918 66.267,277.100 66.777,277.243 67.218 C 278.994 72.622,285.680 75.119,292.227 72.815 C 292.789 72.617,293.449 72.315,293.692 72.144 C 293.936 71.973,294.191 71.833,294.261 71.833 C 294.330 71.833,294.787 71.531,295.277 71.161 L 296.167 70.489 296.172 71.370 C 296.182 73.040,296.495 73.170,300.447 73.154 C 304.485 73.138,305.500 72.690,305.500 70.925 C 305.500 70.705,305.571 70.163,305.658 69.721 C 305.854 68.717,306.252 66.299,306.674 63.542 C 306.762 62.969,306.912 61.994,307.007 61.375 C 307.103 60.756,307.245 59.800,307.323 59.250 C 307.527 57.804,308.132 54.218,308.330 53.279 C 308.424 52.837,308.500 52.213,308.500 51.893 C 308.500 51.573,308.573 51.175,308.663 51.007 C 308.752 50.840,308.837 50.118,308.851 49.403 C 308.890 47.355,308.848 47.335,304.388 47.334 C 300.302 47.333,299.975 47.440,299.787 48.843 C 299.660 49.787,299.574 49.816,298.915 49.138 C 298.260 48.464,296.150 47.333,295.546 47.333 C 295.325 47.333,295.018 47.268,294.864 47.187 C 294.521 47.009,291.349 46.863,289.750 46.952 M150.574 47.574 C 150.511 47.909,150.497 48.220,150.543 48.266 C 150.589 48.311,150.678 48.075,150.741 47.741 C 150.803 47.406,150.817 47.095,150.771 47.049 C 150.726 47.003,150.637 47.240,150.574 47.574 M190.009 47.158 C 189.853 47.257,190.029 47.277,190.509 47.216 C 190.916 47.163,191.281 47.094,191.319 47.060 C 191.476 46.924,190.231 47.017,190.009 47.158 M195.681 47.059 C 195.719 47.092,196.012 47.167,196.333 47.226 C 196.744 47.301,196.843 47.284,196.667 47.169 C 196.441 47.021,195.515 46.918,195.681 47.059 M295.000 47.409 C 295.669 47.539,295.892 47.625,297.205 48.258 C 297.731 48.511,298.466 49.044,298.840 49.442 C 299.739 50.402,300.000 50.345,300.000 49.186 C 300.000 47.756,300.272 47.666,304.563 47.669 C 308.946 47.673,308.981 47.705,308.357 51.250 C 308.244 51.892,308.085 52.867,308.002 53.417 C 307.920 53.967,307.733 55.129,307.588 56.000 C 307.157 58.574,306.694 61.585,306.574 62.583 C 306.530 62.950,306.422 63.625,306.334 64.083 C 306.142 65.083,305.754 67.446,305.500 69.167 C 304.947 72.907,305.047 72.833,300.494 72.833 C 296.317 72.833,295.905 72.650,296.509 71.059 C 296.690 70.583,296.567 69.634,296.364 69.937 C 296.069 70.376,294.315 71.583,293.206 72.109 C 286.663 75.214,279.199 72.744,277.406 66.880 C 277.244 66.350,277.039 65.821,276.949 65.704 C 276.697 65.376,276.710 60.221,276.965 59.333 C 277.717 56.717,278.595 54.572,279.079 54.170 C 279.219 54.054,279.334 53.875,279.334 53.771 C 279.336 53.430,281.649 50.874,282.542 50.228 C 283.023 49.880,283.455 49.542,283.501 49.478 C 283.655 49.266,286.720 47.833,287.020 47.833 C 287.181 47.833,287.360 47.758,287.417 47.667 C 287.473 47.575,287.759 47.499,288.052 47.497 C 288.344 47.496,288.696 47.419,288.833 47.327 C 289.102 47.147,293.983 47.212,295.000 47.409 M188.292 47.598 C 187.458 47.900,186.618 48.341,186.707 48.430 C 186.747 48.469,187.035 48.370,187.348 48.209 C 187.661 48.048,188.329 47.792,188.833 47.639 C 189.344 47.484,189.565 47.363,189.333 47.366 C 189.104 47.370,188.635 47.474,188.292 47.598 M197.667 47.563 C 199.314 48.171,201.000 49.348,201.000 49.891 C 201.000 50.356,201.501 49.521,201.595 48.900 C 201.796 47.557,201.978 47.500,206.083 47.500 C 210.299 47.500,210.439 47.549,210.544 49.047 L 210.605 49.917 210.636 49.048 C 210.663 48.295,210.606 48.124,210.210 47.757 L 209.753 47.333 206.202 47.333 C 202.063 47.333,201.500 47.483,201.500 48.586 C 201.500 48.710,201.424 49.011,201.331 49.255 L 201.163 49.699 200.623 49.111 C 200.036 48.472,197.971 47.329,197.423 47.341 C 197.197 47.346,197.279 47.420,197.667 47.563 M214.108 47.742 C 213.649 48.167,213.471 49.359,213.833 49.583 C 213.925 49.640,214.000 49.855,214.000 50.061 C 214.000 50.442,214.485 51.249,214.495 50.885 C 214.498 50.776,214.425 50.640,214.333 50.583 C 214.242 50.527,214.167 50.302,214.167 50.083 C 214.167 49.865,214.092 49.640,214.000 49.583 C 213.634 49.357,213.815 48.205,214.272 47.845 C 214.685 47.521,214.924 47.500,218.169 47.500 C 222.390 47.500,223.024 47.694,223.378 49.090 C 223.454 49.388,223.463 49.389,223.481 49.109 C 223.508 48.666,222.910 47.896,222.304 47.593 C 221.311 47.098,214.672 47.219,214.108 47.742 M236.907 47.761 C 236.544 47.996,236.074 48.465,235.862 48.803 C 235.496 49.385,235.509 49.380,236.104 48.686 C 237.071 47.560,237.334 47.500,241.304 47.500 L 244.785 47.500 245.246 47.927 C 245.631 48.284,245.691 48.450,245.613 48.931 C 245.558 49.272,245.584 49.468,245.677 49.411 C 246.074 49.165,245.837 48.186,245.276 47.758 L 244.719 47.333 241.143 47.333 C 237.586 47.333,237.563 47.336,236.907 47.761 M160.356 47.750 C 160.341 47.933,160.287 48.271,160.236 48.500 C 160.156 48.860,160.170 48.876,160.333 48.621 C 160.436 48.458,160.490 48.120,160.452 47.871 C 160.407 47.575,160.374 47.533,160.356 47.750 M179.762 48.429 C 179.701 48.673,179.688 48.910,179.734 48.956 C 179.780 49.002,179.867 48.839,179.929 48.595 C 179.990 48.351,180.003 48.114,179.957 48.068 C 179.911 48.022,179.823 48.184,179.762 48.429 M78.787 48.555 C 78.721 48.723,78.673 49.098,78.682 49.389 L 78.697 49.917 78.857 49.358 C 79.046 48.702,78.988 48.043,78.787 48.555 M150.277 49.333 C 150.210 49.837,150.082 50.700,149.994 51.250 C 149.712 53.001,149.659 54.004,149.923 52.583 C 150.414 49.942,150.538 49.071,150.470 48.746 C 150.431 48.565,150.345 48.829,150.277 49.333 M184.708 49.510 C 184.227 49.880,183.833 50.225,183.833 50.278 C 183.833 50.331,183.927 50.300,184.042 50.210 C 184.156 50.119,184.612 49.773,185.054 49.439 C 185.497 49.106,185.797 48.835,185.721 48.836 C 185.645 48.838,185.190 49.141,184.708 49.510 M160.028 49.688 C 160.013 49.928,159.960 50.378,159.912 50.688 C 159.832 51.203,159.839 51.215,160.003 50.839 C 160.102 50.613,160.154 50.163,160.119 49.839 C 160.074 49.413,160.048 49.371,160.028 49.688 M179.523 49.528 C 179.510 49.681,179.451 49.943,179.392 50.111 C 179.309 50.347,179.331 50.374,179.490 50.228 C 179.603 50.124,179.661 49.861,179.620 49.644 C 179.579 49.427,179.535 49.375,179.523 49.528 M233.916 51.598 C 233.123 52.752,232.507 53.729,232.547 53.769 C 232.587 53.809,233.131 53.071,233.756 52.129 C 234.381 51.187,235.034 50.210,235.208 49.958 C 235.381 49.706,235.486 49.500,235.440 49.500 C 235.395 49.500,234.709 50.444,233.916 51.598 M244.523 50.833 C 244.055 51.475,243.727 52.000,243.794 51.999 C 243.862 51.999,244.277 51.474,244.717 50.832 C 245.753 49.325,245.624 49.325,244.523 50.833 M210.250 50.833 C 210.186 51.212,210.171 51.560,210.217 51.606 C 210.263 51.652,210.353 51.379,210.417 51.000 C 210.481 50.621,210.496 50.273,210.450 50.228 C 210.404 50.182,210.314 50.454,210.250 50.833 M182.653 51.292 C 182.156 51.819,181.643 52.400,181.514 52.583 C 181.294 52.895,181.740 52.451,183.146 50.958 C 183.470 50.615,183.695 50.333,183.646 50.333 C 183.597 50.333,183.150 50.765,182.653 51.292 M78.447 50.897 C 78.385 51.060,78.341 51.432,78.350 51.722 C 78.366 52.236,78.371 52.233,78.520 51.595 C 78.686 50.890,78.635 50.408,78.447 50.897 M178.829 51.619 C 178.620 52.149,178.385 52.655,178.307 52.742 C 178.112 52.961,178.123 53.279,178.319 53.075 C 178.515 52.871,179.352 50.797,179.272 50.716 C 179.238 50.682,179.039 51.089,178.829 51.619 M159.708 52.042 L 159.750 52.583 160.917 52.597 L 162.083 52.610 160.968 52.548 C 159.884 52.487,159.851 52.472,159.760 51.993 C 159.670 51.519,159.668 51.521,159.708 52.042 M164.833 52.333 C 164.505 52.545,165.090 52.545,165.583 52.333 C 165.889 52.202,165.882 52.189,165.500 52.181 C 165.271 52.176,164.971 52.244,164.833 52.333 M209.939 52.725 C 209.869 53.078,209.851 53.406,209.898 53.453 C 210.024 53.580,210.207 52.744,210.131 52.388 C 210.092 52.204,210.015 52.338,209.939 52.725 M243.269 52.578 C 243.117 52.810,243.051 53.000,243.123 53.000 C 243.285 53.000,243.716 52.327,243.617 52.229 C 243.578 52.189,243.421 52.346,243.269 52.578 M224.510 52.655 C 224.500 52.900,224.717 53.642,225.099 54.667 C 225.218 54.987,225.320 55.118,225.325 54.956 C 225.329 54.794,225.265 54.532,225.181 54.373 C 225.098 54.214,224.915 53.708,224.775 53.250 C 224.635 52.792,224.516 52.524,224.510 52.655 M78.074 53.241 C 78.011 53.575,77.997 53.886,78.043 53.932 C 78.089 53.978,78.178 53.742,78.241 53.407 C 78.303 53.073,78.317 52.762,78.271 52.716 C 78.226 52.670,78.137 52.906,78.074 53.241 M242.014 54.413 C 241.537 55.102,241.207 55.664,241.282 55.660 C 241.443 55.653,243.038 53.316,242.945 53.223 C 242.910 53.187,242.491 53.723,242.014 54.413 M177.503 54.200 C 176.515 55.829,174.281 57.798,172.500 58.608 C 172.271 58.712,171.821 58.916,171.500 59.061 C 171.179 59.207,171.043 59.327,171.198 59.330 C 171.354 59.332,171.521 59.268,171.570 59.188 C 171.619 59.108,171.868 59.001,172.123 58.950 C 172.834 58.808,175.155 57.225,176.053 56.271 C 176.945 55.322,178.240 53.518,178.118 53.395 C 178.074 53.352,177.798 53.714,177.503 54.200 M215.167 53.431 C 215.169 53.624,216.149 56.371,216.255 56.477 C 216.403 56.625,216.333 56.375,215.812 54.897 C 215.295 53.429,215.166 53.136,215.167 53.431 M180.330 54.283 C 180.057 54.713,179.834 55.144,179.835 55.241 C 179.836 55.338,180.030 55.079,180.266 54.667 C 180.501 54.255,180.772 53.824,180.867 53.709 C 180.963 53.594,180.992 53.500,180.933 53.500 C 180.874 53.500,180.603 53.852,180.330 54.283 M291.667 54.001 C 290.228 54.273,289.911 54.387,289.000 54.960 C 287.484 55.914,286.610 56.989,285.866 58.814 C 285.476 59.769,285.334 62.679,285.647 63.294 C 285.728 63.453,285.888 63.785,286.003 64.030 C 287.525 67.298,293.313 67.606,296.409 64.584 C 301.160 59.945,297.962 52.810,291.667 54.001 M193.958 54.122 C 194.348 54.157,194.985 54.157,195.375 54.122 C 195.765 54.087,195.446 54.058,194.667 54.058 C 193.887 54.058,193.569 54.087,193.958 54.122 M231.862 54.604 C 231.648 54.933,231.551 55.155,231.645 55.096 C 231.909 54.934,232.541 54.000,232.386 54.002 C 232.311 54.003,232.075 54.274,231.862 54.604 M149.454 54.500 C 149.390 54.729,149.345 55.179,149.354 55.500 C 149.369 56.061,149.376 56.054,149.520 55.333 C 149.688 54.491,149.637 53.843,149.454 54.500 M192.417 54.333 C 192.095 54.471,192.096 54.477,192.448 54.488 C 192.649 54.495,192.860 54.425,192.917 54.333 C 193.039 54.136,192.875 54.136,192.417 54.333 M196.333 54.333 C 196.471 54.422,196.733 54.491,196.917 54.486 L 197.250 54.477 196.917 54.333 C 196.418 54.119,196.002 54.119,196.333 54.333 M295.000 54.384 C 296.249 54.837,296.934 55.376,297.797 56.583 C 298.537 57.618,298.525 60.428,297.774 62.167 C 297.333 63.186,295.888 65.000,295.516 65.000 C 295.416 65.000,295.333 65.066,295.333 65.146 C 295.333 65.330,293.848 65.978,292.750 66.272 C 290.844 66.784,288.474 66.333,287.241 65.224 C 286.637 64.680,286.000 63.729,286.000 63.369 C 286.000 63.177,285.925 62.973,285.833 62.917 C 285.293 62.582,285.699 59.770,286.540 58.030 C 287.341 56.370,289.522 54.500,290.655 54.500 C 290.834 54.500,291.027 54.425,291.083 54.333 C 291.232 54.093,294.308 54.132,295.000 54.384 M209.605 54.892 C 209.536 55.245,209.517 55.573,209.564 55.620 C 209.691 55.746,209.874 54.910,209.798 54.555 C 209.758 54.371,209.682 54.505,209.605 54.892 M191.000 54.911 C 190.588 55.128,189.912 55.664,189.500 56.101 L 188.750 56.896 189.658 56.101 C 190.157 55.664,190.851 55.161,191.200 54.983 C 191.548 54.805,191.833 54.624,191.833 54.580 C 191.833 54.470,191.843 54.466,191.000 54.911 M197.564 54.718 C 197.737 54.827,198.112 55.093,198.397 55.307 C 198.738 55.564,198.692 55.492,198.264 55.099 C 197.905 54.770,197.530 54.504,197.431 54.510 C 197.331 54.515,197.391 54.609,197.564 54.718 M77.700 55.703 C 77.590 56.300,77.507 56.967,77.515 57.186 C 77.523 57.404,77.637 56.988,77.769 56.261 C 77.900 55.534,77.983 54.866,77.954 54.778 C 77.924 54.689,77.810 55.106,77.700 55.703 M225.345 55.615 C 225.383 56.048,225.643 56.415,225.655 56.052 C 225.661 55.851,225.592 55.640,225.500 55.583 C 225.408 55.527,225.339 55.541,225.345 55.615 M239.912 57.458 C 238.247 59.832,238.136 60.000,238.226 60.000 C 238.271 60.000,238.895 59.159,239.612 58.131 C 241.094 56.009,241.209 55.833,241.118 55.833 C 241.082 55.833,240.539 56.565,239.912 57.458 M209.359 56.583 C 209.342 56.858,209.287 57.271,209.236 57.500 C 209.157 57.858,209.170 57.875,209.332 57.622 C 209.435 57.460,209.490 57.048,209.455 56.705 C 209.398 56.168,209.385 56.152,209.359 56.583 M230.403 56.710 C 230.213 57.007,229.923 57.456,229.759 57.708 C 229.170 58.615,229.670 58.144,230.333 57.167 C 230.707 56.617,230.953 56.168,230.881 56.169 C 230.809 56.170,230.594 56.414,230.403 56.710 M149.104 56.756 C 149.047 56.905,149.008 57.227,149.017 57.472 C 149.030 57.830,149.063 57.790,149.186 57.267 C 149.342 56.600,149.290 56.272,149.104 56.756 M199.680 57.115 C 199.673 57.316,199.742 57.527,199.833 57.583 C 199.925 57.640,200.010 57.926,200.023 58.218 C 200.041 58.651,200.059 58.676,200.121 58.350 C 200.162 58.130,200.120 57.793,200.027 57.600 C 199.934 57.408,199.821 57.137,199.775 57.000 C 199.723 56.842,199.688 56.884,199.680 57.115 M77.272 58.182 C 77.214 58.471,77.176 58.943,77.187 59.229 C 77.199 59.539,77.266 59.350,77.351 58.762 C 77.505 57.710,77.448 57.299,77.272 58.182 M216.667 57.939 C 216.667 58.119,216.730 58.338,216.807 58.425 C 216.884 58.512,217.074 58.996,217.228 59.500 C 217.382 60.004,217.588 60.529,217.686 60.667 C 217.830 60.868,217.843 60.851,217.753 60.583 C 217.691 60.400,217.452 59.688,217.220 59.000 C 216.758 57.625,216.667 57.450,216.667 57.939 M226.005 57.833 C 226.005 57.971,226.078 58.196,226.167 58.333 C 226.310 58.556,226.328 58.556,226.328 58.333 C 226.328 58.196,226.256 57.971,226.167 57.833 C 226.023 57.611,226.005 57.611,226.005 57.833 M178.340 59.590 C 177.850 61.655,178.004 65.122,178.648 66.500 L 178.843 66.917 178.740 66.500 C 178.167 64.178,178.093 61.082,178.568 59.281 C 178.732 58.656,178.833 58.111,178.793 58.071 C 178.752 58.030,178.549 58.714,178.340 59.590 M187.870 58.453 C 187.426 59.631,187.334 60.142,187.336 61.400 C 187.338 62.725,187.587 63.820,187.972 64.205 C 188.120 64.354,188.167 64.352,188.167 64.200 C 188.167 64.090,188.110 64.000,188.041 64.000 C 187.475 64.000,187.324 60.585,187.823 59.071 C 188.153 58.073,188.188 57.610,187.870 58.453 M208.856 59.724 C 208.733 60.529,208.663 61.218,208.700 61.256 C 208.808 61.363,209.209 58.924,209.141 58.574 C 209.108 58.402,208.980 58.920,208.856 59.724 M228.519 59.503 C 228.116 60.144,227.648 60.830,227.477 61.027 C 227.306 61.223,227.167 61.458,227.167 61.548 C 227.167 61.756,227.555 61.250,228.644 59.625 C 229.121 58.915,229.452 58.334,229.380 58.335 C 229.309 58.336,228.921 58.861,228.519 59.503 M148.741 59.241 C 148.678 59.575,148.664 59.886,148.710 59.932 C 148.756 59.978,148.845 59.742,148.907 59.407 C 148.970 59.073,148.984 58.762,148.938 58.716 C 148.892 58.670,148.803 58.906,148.741 59.241 M168.833 59.833 L 168.417 59.967 168.865 59.983 C 169.112 59.993,169.360 59.925,169.417 59.833 C 169.534 59.644,169.425 59.644,168.833 59.833 M226.681 59.917 C 226.682 60.262,227.131 61.379,227.151 61.083 C 227.157 60.992,227.054 60.617,226.921 60.250 C 226.789 59.883,226.681 59.733,226.681 59.917 M76.937 60.256 C 76.880 60.405,76.842 60.765,76.852 61.055 C 76.868 61.515,76.889 61.488,77.015 60.844 C 77.164 60.085,77.122 59.774,76.937 60.256 M166.750 60.167 L 165.917 60.281 166.750 60.305 C 167.208 60.318,167.696 60.256,167.833 60.167 C 168.123 59.979,168.116 59.979,166.750 60.167 M200.019 60.181 C 199.974 60.803,199.265 62.623,198.810 63.283 C 198.539 63.678,198.378 64.000,198.452 64.000 C 198.858 64.000,200.266 60.786,200.114 60.206 C 200.053 59.971,200.035 59.966,200.019 60.181 M148.355 61.606 C 148.229 62.443,148.167 63.230,148.216 63.356 C 148.266 63.481,148.313 63.343,148.320 63.050 C 148.327 62.756,148.414 62.141,148.512 61.681 C 148.611 61.222,148.667 60.675,148.637 60.465 C 148.608 60.255,148.480 60.768,148.355 61.606 M236.736 62.042 C 234.926 64.676,234.748 64.949,235.034 64.667 C 235.364 64.340,238.214 60.167,238.107 60.167 C 238.062 60.167,237.445 61.010,236.736 62.042 M159.000 60.597 C 158.743 60.740,158.682 60.829,158.842 60.831 C 158.984 60.832,159.171 60.766,159.258 60.683 C 159.345 60.600,159.567 60.496,159.750 60.452 L 160.083 60.372 159.750 60.369 C 159.567 60.367,159.229 60.470,159.000 60.597 M158.362 61.292 C 158.102 61.799,157.970 62.538,158.160 62.421 C 158.255 62.362,158.333 62.163,158.333 61.979 C 158.333 61.795,158.411 61.500,158.506 61.322 C 158.601 61.145,158.641 61.000,158.595 61.000 C 158.549 61.000,158.444 61.131,158.362 61.292 M208.424 62.258 C 208.360 62.683,208.346 63.068,208.392 63.114 C 208.437 63.160,208.527 62.849,208.591 62.424 C 208.655 61.999,208.669 61.614,208.623 61.568 C 208.578 61.522,208.488 61.832,208.424 62.258 M76.604 62.423 C 76.547 62.572,76.508 62.894,76.517 63.139 C 76.530 63.496,76.563 63.456,76.686 62.933 C 76.842 62.266,76.790 61.939,76.604 62.423 M157.856 63.388 C 157.844 63.647,157.681 64.726,157.494 65.785 C 157.307 66.844,157.188 67.743,157.228 67.784 C 157.381 67.937,158.048 63.797,157.951 63.293 C 157.890 62.978,157.875 62.993,157.856 63.388 M147.940 64.035 C 147.884 64.245,147.846 64.679,147.855 65.000 C 147.869 65.472,147.901 65.412,148.022 64.683 C 148.175 63.760,148.123 63.351,147.940 64.035 M208.189 63.917 C 208.174 64.100,208.120 64.438,208.070 64.667 C 207.990 65.026,208.003 65.043,208.166 64.787 C 208.270 64.625,208.324 64.287,208.286 64.037 C 208.241 63.741,208.207 63.699,208.189 63.917 M218.841 64.175 C 218.837 64.409,218.895 64.671,218.971 64.758 C 219.047 64.845,219.209 65.236,219.331 65.626 C 219.454 66.016,219.584 66.305,219.620 66.269 C 219.657 66.232,219.498 65.651,219.267 64.976 C 219.014 64.235,218.845 63.918,218.841 64.175 M76.281 64.564 C 76.218 64.727,76.173 65.061,76.182 65.305 C 76.196 65.720,76.208 65.712,76.357 65.193 C 76.530 64.591,76.468 64.076,76.281 64.564 M197.120 65.031 C 196.866 65.216,196.304 65.543,195.871 65.758 C 195.438 65.973,195.173 66.153,195.283 66.158 C 195.456 66.165,196.264 65.749,197.421 65.054 C 197.600 64.946,197.710 64.821,197.665 64.776 C 197.620 64.731,197.375 64.845,197.120 65.031 M188.667 65.067 C 188.667 65.256,190.194 66.184,190.381 66.108 C 190.529 66.049,190.524 66.023,190.363 66.013 C 190.242 66.006,189.811 65.771,189.405 65.492 C 188.999 65.213,188.667 65.021,188.667 65.067 M233.164 67.110 C 232.492 68.088,232.026 68.837,232.128 68.774 C 232.390 68.612,234.548 65.492,234.459 65.404 C 234.419 65.364,233.836 66.131,233.164 67.110 M207.861 65.938 C 207.846 66.132,207.791 66.545,207.739 66.854 C 207.662 67.314,207.679 67.363,207.832 67.122 C 207.935 66.960,207.990 66.548,207.955 66.205 C 207.919 65.863,207.877 65.743,207.861 65.938 M75.857 67.177 C 75.735 67.867,75.669 68.615,75.711 68.840 C 75.766 69.132,75.794 69.067,75.811 68.615 C 75.823 68.266,75.915 67.655,76.015 67.257 C 76.116 66.860,76.171 66.397,76.139 66.229 C 76.106 66.061,75.980 66.487,75.857 67.177 M147.604 66.256 C 147.547 66.405,147.508 66.765,147.518 67.055 C 147.534 67.515,147.555 67.488,147.682 66.844 C 147.830 66.085,147.789 65.774,147.604 66.256 M190.917 66.333 C 191.415 66.547,191.831 66.547,191.500 66.333 C 191.362 66.244,191.100 66.176,190.917 66.181 L 190.583 66.190 190.917 66.333 M194.000 66.333 C 193.670 66.439,193.653 66.467,193.917 66.467 C 194.100 66.467,194.438 66.407,194.667 66.333 C 194.997 66.228,195.014 66.200,194.750 66.200 C 194.567 66.200,194.229 66.260,194.000 66.333 M207.445 68.478 C 207.374 68.970,207.353 69.409,207.398 69.453 C 207.520 69.576,207.704 68.432,207.634 67.980 C 207.597 67.738,207.523 67.931,207.445 68.478 M147.281 68.230 C 147.218 68.394,147.173 68.727,147.182 68.972 C 147.196 69.386,147.208 69.379,147.357 68.860 C 147.530 68.258,147.468 67.743,147.281 68.230 M220.345 68.615 C 220.339 68.816,220.408 69.027,220.500 69.083 C 220.697 69.205,220.697 69.042,220.500 68.583 C 220.362 68.262,220.356 68.263,220.345 68.615 M179.506 68.625 C 179.503 68.740,179.562 68.833,179.639 68.833 C 179.715 68.833,179.879 69.040,180.004 69.292 C 180.240 69.766,181.820 71.500,182.017 71.500 C 182.078 71.500,181.726 71.106,181.233 70.625 C 180.741 70.144,180.337 69.675,180.335 69.583 C 180.330 69.330,179.513 68.386,179.506 68.625 M157.020 68.833 C 157.007 68.971,156.954 69.271,156.903 69.500 C 156.823 69.860,156.836 69.876,156.999 69.620 C 157.104 69.457,157.156 69.157,157.117 68.954 C 157.078 68.750,157.034 68.696,157.020 68.833 M231.500 69.500 C 231.304 69.775,231.208 70.000,231.286 70.000 C 231.364 70.000,231.561 69.775,231.723 69.500 C 231.886 69.225,231.982 69.000,231.937 69.000 C 231.893 69.000,231.696 69.225,231.500 69.500 M75.454 69.667 C 75.390 69.896,75.344 70.308,75.352 70.583 C 75.366 71.039,75.381 71.024,75.522 70.421 C 75.698 69.669,75.638 69.005,75.454 69.667 M220.682 69.583 C 220.676 69.767,220.740 70.025,220.824 70.157 C 220.971 70.390,220.519 71.244,220.096 71.533 C 220.003 71.596,219.973 71.695,220.030 71.753 C 220.356 72.078,221.116 70.410,220.905 69.833 C 220.767 69.454,220.688 69.367,220.682 69.583 M207.196 70.293 C 207.101 72.613,206.508 72.917,202.074 72.917 C 200.126 72.917,198.618 72.972,198.724 73.039 C 199.168 73.322,205.387 73.181,206.000 72.875 C 206.769 72.490,207.378 71.265,207.288 70.279 L 207.225 69.583 207.196 70.293 M146.933 70.683 C 146.872 71.065,146.855 71.410,146.895 71.450 C 146.934 71.490,147.019 71.212,147.083 70.833 C 147.147 70.454,147.165 70.109,147.122 70.067 C 147.079 70.024,146.994 70.301,146.933 70.683 M230.176 71.454 C 229.697 72.167,229.500 72.525,229.740 72.250 C 230.404 71.487,230.500 71.357,230.500 71.226 C 230.500 71.159,230.663 70.932,230.862 70.720 C 231.061 70.508,231.184 70.295,231.135 70.247 C 231.087 70.198,230.655 70.742,230.176 71.454 M197.800 71.292 C 197.863 72.069,198.333 73.343,198.333 72.737 C 198.333 72.643,198.251 72.484,198.150 72.384 C 198.045 72.279,197.992 71.802,198.025 71.267 C 198.062 70.672,198.018 70.333,197.903 70.333 C 197.785 70.333,197.750 70.668,197.800 71.292 M156.689 70.861 C 156.677 71.014,156.618 71.277,156.559 71.445 C 156.476 71.680,156.498 71.707,156.656 71.561 C 156.769 71.457,156.828 71.194,156.787 70.978 C 156.746 70.761,156.702 70.708,156.689 70.861 M196.344 71.429 C 195.227 72.197,195.111 72.336,195.933 71.924 C 196.387 71.696,197.682 70.673,197.500 70.686 C 197.454 70.689,196.934 71.024,196.344 71.429 M75.121 71.833 C 75.057 72.063,75.012 72.512,75.021 72.833 C 75.036 73.394,75.042 73.388,75.186 72.667 C 75.354 71.824,75.303 71.176,75.121 71.833 M146.846 72.010 C 146.839 72.153,146.950 72.415,147.093 72.593 C 147.348 72.911,147.349 72.911,147.198 72.583 C 147.114 72.400,147.003 72.137,146.952 72.000 C 146.872 71.784,146.858 71.785,146.846 72.010 M156.000 72.417 C 155.785 72.646,155.688 72.833,155.785 72.833 C 155.882 72.833,156.085 72.646,156.235 72.417 C 156.385 72.188,156.482 72.000,156.450 72.000 C 156.418 72.000,156.215 72.188,156.000 72.417 M218.417 73.946 C 217.683 75.011,217.008 75.967,216.917 76.071 C 216.493 76.549,214.465 79.500,214.559 79.500 C 214.606 79.500,215.673 78.056,216.931 76.292 C 218.189 74.527,219.403 72.840,219.629 72.542 C 219.855 72.244,219.974 72.002,219.895 72.005 C 219.815 72.008,219.150 72.881,218.417 73.946 M147.609 73.042 C 147.705 73.197,154.809 73.186,155.203 73.030 C 155.360 72.968,153.699 72.917,151.511 72.917 C 149.323 72.917,147.567 72.973,147.609 73.042 M184.681 72.985 C 185.467 73.483,191.281 73.952,191.683 73.550 C 191.757 73.477,190.602 73.414,189.117 73.410 C 187.632 73.407,186.154 73.325,185.833 73.228 C 184.555 72.841,184.404 72.810,184.681 72.985 M192.667 73.092 C 192.015 73.278,191.982 73.307,192.417 73.314 C 192.692 73.318,193.104 73.214,193.333 73.083 C 193.828 72.800,193.677 72.802,192.667 73.092 M228.879 73.282 C 228.701 73.539,228.050 74.481,227.432 75.375 C 226.814 76.269,226.347 77.000,226.394 77.000 C 226.441 77.000,227.061 76.156,227.772 75.125 C 228.483 74.094,229.142 73.198,229.236 73.134 C 229.330 73.070,229.361 72.972,229.305 72.916 C 229.249 72.860,229.057 73.025,228.879 73.282 M225.969 77.458 C 225.832 77.619,225.300 78.387,224.788 79.167 C 222.968 81.933,222.819 82.000,218.481 82.000 C 214.803 81.999,214.317 81.859,214.149 80.750 L 214.047 80.083 214.024 80.696 C 213.974 81.981,214.548 82.167,218.580 82.167 C 223.044 82.167,222.862 82.256,225.116 78.973 C 226.265 77.301,226.576 76.748,225.969 77.458 " stroke="none" fill="#8baecb" fill-rule="evenodd"></path></g></svg>