<svg id="svg" version="1.1" xmlns="http://www.w3.org/2000/svg" xmlns:xlink="http://www.w3.org/1999/xlink" width="400" height="108.8865096359743" viewBox="0, 0, 400,108.8865096359743"><g id="svgg"><path id="path0" d="M63.930 24.760 C 63.702 24.989,63.491 33.169,63.708 33.372 C 63.731 33.393,69.975 33.456,77.583 33.511 C 85.192 33.566,91.679 33.665,92.000 33.731 C 95.596 34.476,97.868 36.600,98.899 40.181 C 99.368 41.814,98.847 44.651,97.882 45.709 C 97.695 45.915,97.354 46.383,97.126 46.750 C 95.697 49.041,93.900 49.513,86.083 49.649 C 82.875 49.704,80.156 49.811,80.042 49.885 C 79.884 49.987,79.834 51.039,79.837 54.218 L 79.840 58.417 80.994 60.083 C 82.861 62.780,83.636 63.870,84.251 64.667 C 84.570 65.079,85.181 65.942,85.610 66.583 C 86.039 67.225,86.559 67.938,86.767 68.167 C 87.153 68.592,87.946 69.705,89.559 72.083 C 90.057 72.817,90.652 73.592,90.883 73.806 C 91.113 74.020,91.703 74.838,92.193 75.624 C 92.682 76.409,93.312 77.322,93.592 77.651 C 93.872 77.981,94.381 78.662,94.723 79.167 C 95.065 79.671,95.677 80.533,96.083 81.083 C 96.489 81.633,97.007 82.355,97.233 82.688 C 98.172 84.066,97.807 84.000,104.495 84.000 C 107.767 84.000,110.493 83.951,110.553 83.891 C 110.687 83.758,110.107 82.762,109.502 82.083 C 109.256 81.808,108.703 81.058,108.273 80.417 C 107.843 79.775,107.082 78.688,106.584 78.000 C 106.085 77.313,105.548 76.563,105.391 76.333 C 105.235 76.104,104.908 75.692,104.665 75.417 C 104.423 75.142,103.973 74.504,103.666 74.000 C 103.359 73.496,102.939 72.896,102.732 72.667 C 102.344 72.239,101.524 71.086,99.942 68.750 C 99.446 68.017,98.872 67.267,98.667 67.083 C 98.462 66.900,97.738 65.925,97.057 64.917 C 95.242 62.228,94.349 60.959,94.008 60.583 C 92.769 59.218,93.129 58.753,95.750 58.342 C 101.113 57.502,106.750 52.359,108.459 46.750 C 108.655 46.108,108.931 45.194,109.074 44.719 C 109.427 43.543,109.433 39.603,109.084 38.522 C 108.947 38.098,108.671 37.188,108.472 36.500 C 106.749 30.554,101.260 25.659,95.333 24.781 C 93.253 24.473,64.237 24.454,63.930 24.760 M250.077 24.708 C 250.033 24.823,250.017 38.192,250.041 54.417 L 250.083 83.917 254.989 83.961 C 258.802 83.995,259.924 83.958,260.028 83.794 C 260.182 83.552,260.219 25.163,260.066 24.764 C 259.930 24.412,250.210 24.358,250.077 24.708 M315.427 28.430 C 315.063 28.794,315.118 75.426,315.483 76.667 C 316.311 79.476,318.070 81.692,320.412 82.877 C 322.721 84.045,324.111 84.226,330.833 84.239 L 336.250 84.250 336.295 80.021 C 336.326 77.040,336.283 75.724,336.149 75.562 C 335.998 75.380,335.162 75.333,332.056 75.333 C 327.316 75.333,326.447 75.015,325.592 72.964 C 325.285 72.229,325.195 50.553,325.495 49.763 L 325.657 49.338 330.953 49.294 L 336.250 49.250 336.250 44.833 L 336.250 40.417 330.972 40.333 C 328.069 40.287,325.632 40.188,325.555 40.111 C 325.479 40.035,325.395 37.362,325.369 34.171 L 325.321 28.369 324.952 28.270 C 324.021 28.021,315.697 28.160,315.427 28.430 M63.945 39.469 C 63.688 39.753,63.667 41.446,63.667 61.440 L 63.667 83.104 64.137 83.555 L 64.607 84.005 69.345 83.961 L 74.083 83.917 74.083 61.583 L 74.083 39.250 69.153 39.206 C 64.542 39.165,64.205 39.182,63.945 39.469 M128.667 40.163 C 128.529 40.254,128.093 40.329,127.698 40.331 C 127.303 40.332,126.066 40.641,124.948 41.017 C 122.717 41.769,122.481 41.874,121.222 42.691 C 120.749 42.999,120.036 43.438,119.639 43.667 C 115.653 45.966,111.890 52.233,111.132 57.833 C 109.656 68.749,113.897 78.104,122.044 81.900 C 124.305 82.954,124.881 83.186,125.649 83.351 C 126.071 83.442,126.717 83.594,127.083 83.688 C 131.897 84.932,139.582 84.229,143.656 82.172 C 145.972 81.003,149.318 78.117,150.368 76.381 C 150.670 75.882,151.089 75.209,151.300 74.885 C 151.660 74.330,151.915 73.751,152.681 71.752 C 153.127 70.590,153.107 69.866,152.625 69.748 C 151.693 69.520,143.122 69.745,142.998 70.000 C 141.564 72.943,140.620 74.009,138.583 74.983 C 136.626 75.919,136.024 76.043,133.083 76.114 L 130.417 76.179 128.798 75.609 C 126.466 74.790,124.700 73.469,123.373 71.552 C 122.600 70.436,121.667 67.384,121.667 65.976 C 121.667 64.250,119.911 64.423,137.901 64.373 L 153.662 64.328 153.738 63.956 C 153.781 63.751,153.868 63.321,153.932 63.000 C 154.071 62.304,154.068 59.157,153.927 57.750 C 153.838 56.861,153.694 56.242,153.151 54.405 C 153.068 54.123,153.000 53.769,153.000 53.618 C 153.000 53.357,152.855 52.996,151.881 50.833 C 150.904 48.663,148.415 45.689,146.186 44.028 C 144.496 42.769,143.523 42.191,142.395 41.774 C 142.040 41.643,141.300 41.367,140.750 41.161 C 138.588 40.351,137.048 40.144,132.583 40.064 C 130.328 40.024,128.820 40.062,128.667 40.163 M217.667 40.163 C 217.529 40.254,217.084 40.329,216.678 40.331 C 216.273 40.332,215.710 40.403,215.428 40.489 C 215.147 40.574,214.579 40.736,214.167 40.848 C 212.652 41.258,210.223 42.328,209.055 43.098 C 208.581 43.411,208.127 43.667,208.046 43.667 C 207.965 43.667,207.640 43.936,207.324 44.264 C 207.008 44.593,206.532 44.976,206.265 45.115 C 204.301 46.143,201.335 50.657,200.261 54.250 C 200.015 55.075,199.743 55.980,199.657 56.262 C 199.570 56.543,199.500 56.965,199.500 57.199 C 199.500 57.433,199.387 57.944,199.250 58.333 C 199.062 58.867,199.000 59.815,199.000 62.167 C 199.000 64.518,199.062 65.467,199.250 66.000 C 199.387 66.390,199.500 66.900,199.500 67.134 C 199.500 67.368,199.570 67.790,199.657 68.072 C 199.743 68.353,200.015 69.258,200.261 70.083 C 201.497 74.220,204.578 78.410,207.889 80.458 C 208.149 80.619,208.855 81.069,209.458 81.460 C 210.061 81.850,210.907 82.275,211.339 82.403 C 211.771 82.531,212.340 82.747,212.604 82.884 C 212.867 83.020,213.608 83.255,214.250 83.407 C 214.892 83.558,215.567 83.725,215.750 83.777 C 218.025 84.421,224.692 84.372,227.667 83.690 C 233.282 82.400,239.328 77.791,241.471 73.167 C 242.196 71.602,242.752 70.193,242.986 69.333 C 243.098 68.921,243.259 68.353,243.345 68.072 C 243.430 67.790,243.500 67.180,243.500 66.717 C 243.500 66.253,243.612 65.605,243.750 65.276 C 243.937 64.829,244.000 64.006,244.000 62.026 C 244.000 60.096,243.932 59.183,243.750 58.667 C 243.612 58.277,243.500 57.692,243.500 57.366 C 243.500 57.040,243.430 56.543,243.345 56.262 C 243.259 55.980,243.098 55.413,242.986 55.000 C 242.404 52.856,240.668 49.379,239.542 48.102 C 239.244 47.765,239.000 47.413,239.000 47.320 C 239.000 46.965,237.358 45.413,236.083 44.564 C 235.350 44.075,234.426 43.447,234.031 43.168 C 232.119 41.818,229.312 40.772,226.333 40.301 C 224.832 40.064,217.983 39.955,217.667 40.163 M155.595 40.595 C 155.267 40.923,155.258 41.797,155.575 42.433 C 155.708 42.699,156.126 43.779,156.505 44.833 C 156.884 45.887,157.534 47.688,157.949 48.833 C 158.364 49.979,159.023 51.817,159.412 52.917 C 159.802 54.017,160.362 55.479,160.658 56.167 C 160.954 56.854,161.261 57.717,161.340 58.083 C 161.419 58.450,161.754 59.387,162.084 60.167 C 162.414 60.946,162.974 62.408,163.327 63.417 C 164.165 65.805,165.247 68.785,165.506 69.417 C 165.619 69.692,165.993 70.704,166.336 71.667 C 166.680 72.629,167.314 74.392,167.746 75.583 C 168.178 76.775,168.980 79.062,169.528 80.665 C 170.077 82.268,170.604 83.675,170.700 83.790 C 170.834 83.952,172.265 84.000,176.929 84.000 L 182.984 84.000 183.340 83.208 C 183.535 82.773,183.959 81.629,184.283 80.667 C 184.606 79.704,184.951 78.767,185.048 78.583 C 185.146 78.400,185.554 77.313,185.955 76.167 C 186.904 73.459,187.995 70.443,188.668 68.667 C 188.963 67.887,189.527 66.336,189.920 65.218 C 190.313 64.100,190.696 63.088,190.770 62.968 C 190.844 62.848,191.218 61.850,191.601 60.750 C 192.512 58.136,193.564 55.212,193.821 54.583 C 193.933 54.308,194.254 53.408,194.533 52.583 C 194.812 51.758,195.120 50.933,195.217 50.750 C 195.313 50.567,195.708 49.517,196.093 48.417 C 196.937 46.008,198.202 42.502,198.559 41.583 C 199.084 40.235,199.474 40.333,193.604 40.333 C 189.440 40.333,188.336 40.379,188.189 40.556 C 188.087 40.679,187.172 43.285,186.156 46.348 C 185.139 49.411,184.186 52.179,184.039 52.500 C 183.892 52.821,182.892 55.671,181.818 58.833 C 176.482 74.539,177.111 73.706,175.093 67.743 C 173.311 62.479,173.308 62.470,173.060 61.869 C 172.935 61.568,172.833 61.181,172.833 61.008 C 172.833 60.835,172.729 60.481,172.602 60.222 C 172.475 59.962,172.280 59.487,172.169 59.167 C 171.398 56.936,170.926 55.656,170.651 55.051 C 170.476 54.666,170.333 54.215,170.333 54.048 C 170.333 53.882,170.175 53.334,169.981 52.831 C 169.787 52.328,169.521 51.579,169.390 51.167 C 169.259 50.754,168.996 49.967,168.807 49.417 C 168.617 48.867,167.875 46.694,167.158 44.589 C 166.392 42.341,165.733 40.672,165.562 40.547 C 165.085 40.198,155.948 40.243,155.595 40.595 M267.409 40.542 C 267.263 40.924,267.464 67.036,267.626 68.667 C 267.713 69.537,267.871 70.550,267.979 70.917 C 268.208 71.700,268.402 72.435,268.683 73.583 C 269.831 78.274,274.190 82.512,279.083 83.695 C 283.465 84.755,289.859 84.304,292.417 82.754 C 292.783 82.532,293.421 82.167,293.833 81.943 C 294.246 81.719,294.733 81.369,294.917 81.165 C 295.100 80.961,295.587 80.563,296.000 80.280 C 296.412 79.997,296.849 79.669,296.970 79.550 C 297.609 78.923,298.159 79.453,298.349 80.877 C 298.637 83.041,298.784 83.700,299.014 83.847 C 299.144 83.930,301.125 83.980,303.417 83.957 L 307.583 83.917 307.583 62.167 L 307.583 40.417 302.583 40.417 L 297.583 40.417 297.487 53.083 C 297.390 65.809,297.349 66.667,296.757 68.298 C 295.255 72.435,292.520 75.017,289.250 75.384 C 283.366 76.044,280.143 74.302,278.595 69.626 C 278.466 69.236,278.262 68.617,278.141 68.250 C 277.971 67.731,277.903 64.580,277.836 54.000 L 277.750 40.417 272.621 40.373 C 268.570 40.338,267.474 40.373,267.409 40.542 M135.083 48.134 C 136.434 48.316,137.895 48.836,138.693 49.420 C 138.999 49.645,139.632 50.087,140.099 50.402 C 142.126 51.774,144.012 56.303,142.896 57.119 C 142.518 57.396,123.002 57.436,122.489 57.161 C 121.772 56.777,122.236 54.516,123.387 52.786 C 124.222 51.532,126.987 49.002,127.526 48.998 C 127.649 48.997,128.151 48.810,128.642 48.582 C 129.184 48.329,129.837 48.166,130.308 48.164 C 130.735 48.163,131.196 48.086,131.333 47.993 C 131.598 47.815,133.143 47.873,135.083 48.134 M224.667 48.829 C 228.641 49.934,232.222 53.852,233.051 58.000 C 233.281 59.150,233.282 65.160,233.052 66.167 C 232.066 70.489,229.053 74.069,225.557 75.072 C 225.022 75.226,224.353 75.423,224.072 75.509 C 222.092 76.118,217.517 75.468,215.500 74.291 C 214.009 73.421,211.773 70.883,210.856 69.023 C 210.421 68.139,210.289 67.752,209.847 66.064 C 209.626 65.223,209.606 58.972,209.822 58.262 C 209.907 57.980,210.071 57.413,210.186 57.000 C 210.852 54.602,213.608 51.005,215.583 49.955 C 218.097 48.618,222.118 48.120,224.667 48.829 " stroke="none" fill="#1f2026" fill-rule="evenodd"></path><path id="path1" d="M34.833 0.252 C 34.146 0.366,33.021 0.547,32.333 0.655 C 31.646 0.763,30.896 0.913,30.667 0.990 C 30.438 1.066,29.912 1.223,29.500 1.339 C 27.082 2.018,24.996 2.802,22.500 3.969 C 20.912 4.711,17.302 6.893,16.594 7.539 C 16.416 7.701,16.215 7.833,16.147 7.833 C 16.079 7.833,15.925 7.929,15.804 8.045 C 15.682 8.162,15.208 8.553,14.750 8.916 C 13.653 9.783,10.113 13.316,9.071 14.583 C 5.430 19.012,2.931 23.833,1.339 29.500 C 1.223 29.912,1.066 30.438,0.990 30.667 C 0.913 30.896,0.762 31.646,0.653 32.333 C 0.544 33.021,0.379 33.996,0.287 34.500 C -0.016 36.157,-0.058 71.886,0.240 73.811 C 0.377 74.694,0.571 75.942,0.670 76.583 C 0.770 77.225,0.914 77.938,0.990 78.167 C 1.066 78.396,1.223 78.921,1.339 79.333 C 3.766 87.972,9.629 96.541,16.167 101.003 C 16.487 101.221,16.787 101.445,16.833 101.499 C 17.469 102.247,24.752 106.167,25.506 106.167 C 25.597 106.167,25.801 106.237,25.961 106.323 C 26.275 106.492,28.296 107.162,29.500 107.497 C 29.912 107.612,30.438 107.768,30.667 107.844 C 30.896 107.920,31.646 108.071,32.333 108.181 C 33.021 108.290,33.996 108.456,34.500 108.550 C 36.138 108.856,363.029 108.895,365.000 108.589 C 365.871 108.454,367.108 108.262,367.750 108.163 C 368.392 108.063,369.104 107.920,369.333 107.844 C 369.563 107.768,370.087 107.611,370.500 107.495 C 372.918 106.815,375.004 106.032,377.500 104.865 C 378.900 104.211,382.916 101.815,383.167 101.485 C 383.212 101.425,383.479 101.235,383.758 101.063 C 385.085 100.246,389.285 96.257,390.931 94.250 C 394.582 89.799,397.070 84.998,398.661 79.333 C 398.777 78.921,398.934 78.396,399.010 78.167 C 399.087 77.938,399.238 77.188,399.347 76.500 C 399.456 75.813,399.621 74.837,399.713 74.333 C 400.016 72.676,400.058 36.947,399.760 35.022 C 399.623 34.139,399.429 32.892,399.330 32.250 C 399.230 31.608,399.086 30.896,399.010 30.667 C 398.934 30.438,398.777 29.912,398.661 29.500 C 396.234 20.861,390.371 12.292,383.833 7.831 C 383.512 7.612,383.212 7.389,383.167 7.335 C 382.531 6.587,375.248 2.667,374.494 2.667 C 374.403 2.667,374.199 2.597,374.039 2.511 C 373.725 2.342,371.704 1.671,370.500 1.336 C 370.087 1.222,369.563 1.066,369.333 0.990 C 369.104 0.913,368.354 0.762,367.667 0.653 C 366.979 0.544,366.004 0.377,365.500 0.283 C 364.048 0.012,36.474 -0.019,34.833 0.252 M95.333 24.291 C 97.306 24.601,100.902 26.029,101.488 26.736 C 101.609 26.881,101.792 27.000,101.895 27.000 C 101.999 27.000,102.301 27.188,102.568 27.417 C 102.834 27.646,103.122 27.833,103.209 27.833 C 103.441 27.833,105.663 30.016,105.923 30.500 C 106.046 30.729,106.339 31.135,106.574 31.402 C 107.441 32.386,108.862 35.726,109.472 38.211 C 109.704 39.157,109.733 44.173,109.511 44.905 C 109.426 45.186,109.269 45.754,109.162 46.167 C 109.055 46.579,108.900 47.047,108.817 47.206 C 108.734 47.365,108.667 47.616,108.667 47.763 C 108.667 49.248,104.571 54.434,102.000 56.204 C 100.289 57.382,96.854 58.827,95.756 58.831 C 95.181 58.834,93.833 59.314,93.833 59.517 C 93.833 59.593,94.044 59.901,94.302 60.203 C 94.560 60.504,95.125 61.275,95.558 61.917 C 95.991 62.558,96.605 63.421,96.922 63.833 C 97.239 64.246,97.576 64.733,97.670 64.917 C 97.927 65.416,98.626 66.353,99.162 66.917 C 99.423 67.192,99.775 67.648,99.943 67.931 C 100.547 68.945,101.129 69.755,101.478 70.067 C 101.674 70.242,101.836 70.467,101.840 70.567 C 101.844 70.668,102.179 71.162,102.586 71.667 C 102.992 72.171,103.471 72.851,103.650 73.178 C 103.829 73.505,104.094 73.870,104.238 73.990 C 104.382 74.110,104.500 74.288,104.500 74.386 C 104.500 74.485,104.683 74.757,104.906 74.991 C 105.130 75.225,105.486 75.656,105.698 75.948 C 106.887 77.587,107.500 78.498,107.500 78.625 C 107.500 78.704,107.763 79.022,108.083 79.333 C 108.404 79.644,108.667 79.985,108.667 80.090 C 108.667 80.196,108.817 80.417,109.000 80.583 C 109.183 80.749,109.333 80.974,109.333 81.083 C 109.333 81.192,109.492 81.425,109.685 81.599 C 110.163 82.031,111.167 83.561,111.167 83.859 C 111.167 84.475,110.915 84.500,104.588 84.500 L 98.409 84.500 97.784 83.985 C 97.441 83.702,97.039 83.233,96.890 82.943 C 96.742 82.654,96.388 82.139,96.102 81.800 C 95.394 80.959,94.913 80.321,94.210 79.290 C 93.883 78.810,93.420 78.184,93.182 77.900 C 92.945 77.615,92.600 77.130,92.417 76.822 C 92.233 76.514,91.971 76.101,91.833 75.906 C 91.696 75.710,91.436 75.332,91.256 75.067 C 91.076 74.801,90.607 74.219,90.214 73.774 C 89.821 73.328,89.500 72.860,89.500 72.732 C 89.500 72.604,89.438 72.500,89.361 72.500 C 89.285 72.500,89.119 72.294,88.991 72.042 C 88.863 71.790,88.532 71.306,88.255 70.967 C 87.373 69.891,87.000 69.368,87.000 69.211 C 87.000 69.127,86.805 68.876,86.567 68.654 C 86.330 68.432,86.022 68.032,85.883 67.766 C 85.745 67.499,85.489 67.129,85.316 66.943 C 85.142 66.756,85.000 66.528,85.000 66.436 C 85.000 66.344,84.817 66.077,84.594 65.842 C 84.154 65.382,83.842 64.962,82.418 62.917 C 81.908 62.183,81.230 61.246,80.912 60.833 C 80.595 60.421,80.267 59.930,80.185 59.743 C 80.102 59.556,79.914 59.303,79.767 59.181 C 79.365 58.847,79.362 49.589,79.764 49.434 C 79.909 49.379,82.499 49.333,85.519 49.333 C 90.023 49.333,91.118 49.288,91.609 49.083 C 91.938 48.946,92.462 48.833,92.774 48.833 C 93.525 48.833,95.843 47.658,96.352 47.020 C 98.808 43.938,99.246 41.276,97.773 38.382 C 97.450 37.748,94.906 35.000,94.642 35.000 C 94.607 35.000,94.168 34.850,93.667 34.667 C 93.165 34.483,92.477 34.333,92.137 34.333 C 91.798 34.333,91.473 34.258,91.417 34.167 C 91.349 34.058,86.544 34.000,77.545 34.000 C 64.967 34.000,63.750 33.976,63.471 33.724 C 63.191 33.471,63.167 33.103,63.167 29.164 L 63.167 24.879 63.608 24.438 L 64.049 23.997 79.149 24.059 C 88.273 24.096,94.679 24.188,95.333 24.291 M260.407 24.370 C 260.640 24.702,260.667 27.812,260.667 54.250 C 260.667 80.688,260.640 83.798,260.407 84.130 C 260.054 84.634,250.353 84.720,249.805 84.224 C 249.354 83.816,249.325 24.803,249.776 24.305 C 250.250 23.781,260.037 23.842,260.407 24.370 M325.644 28.056 C 325.770 28.207,325.843 30.120,325.873 34.014 L 325.917 39.750 331.073 39.794 C 335.578 39.833,336.267 39.873,336.531 40.112 C 336.973 40.511,336.997 49.156,336.558 49.521 C 336.343 49.700,335.152 49.768,331.100 49.833 L 325.917 49.917 325.874 61.139 C 325.824 74.109,325.725 73.258,327.419 74.407 L 328.047 74.833 332.070 74.833 C 335.441 74.833,336.152 74.875,336.463 75.093 C 336.959 75.440,337.054 84.089,336.567 84.576 C 336.331 84.812,335.673 84.834,330.775 84.775 C 323.947 84.691,322.739 84.534,320.453 83.431 C 318.064 82.278,315.641 79.363,315.107 77.000 C 314.855 75.883,314.770 28.361,315.019 28.060 C 315.293 27.730,325.370 27.726,325.644 28.056 M74.362 38.942 C 74.812 39.350,74.841 83.698,74.391 84.195 C 74.136 84.477,73.753 84.500,69.288 84.500 L 64.461 84.500 63.814 83.853 L 63.167 83.206 63.167 61.423 L 63.167 39.641 63.654 39.154 L 64.141 38.667 69.099 38.667 C 73.479 38.667,74.093 38.699,74.362 38.942 M137.333 39.801 C 139.113 40.083,140.574 40.490,141.917 41.079 C 142.283 41.240,142.921 41.520,143.333 41.701 C 144.010 41.999,145.211 42.764,146.833 43.930 C 148.335 45.010,151.333 48.387,151.333 48.998 C 151.333 49.091,151.394 49.167,151.468 49.167 C 151.633 49.167,152.666 51.062,152.667 51.366 C 152.668 51.485,152.855 51.952,153.084 52.403 C 153.313 52.854,153.500 53.394,153.500 53.604 C 153.500 53.813,153.566 54.157,153.648 54.367 C 153.903 55.031,154.315 57.060,154.314 57.649 C 154.313 57.959,154.397 58.418,154.501 58.668 C 154.871 59.562,154.467 63.970,153.955 64.625 C 153.827 64.789,150.469 64.833,138.167 64.833 C 120.431 64.833,122.091 64.674,122.213 66.368 C 122.332 68.012,122.556 68.739,123.641 70.986 C 126.608 77.133,138.880 77.311,141.893 71.250 C 142.121 70.792,142.360 70.205,142.425 69.946 C 142.606 69.222,143.002 69.166,147.969 69.169 C 153.207 69.172,153.385 69.206,153.469 70.214 C 153.518 70.809,153.075 72.333,152.571 73.298 C 152.442 73.546,152.335 73.872,152.334 74.021 C 152.334 74.170,152.223 74.384,152.087 74.497 C 151.952 74.609,151.645 75.103,151.404 75.594 C 151.164 76.084,150.863 76.573,150.734 76.680 C 150.605 76.787,150.500 76.957,150.500 77.059 C 150.500 77.301,147.479 80.333,147.237 80.333 C 147.135 80.333,146.910 80.490,146.737 80.681 C 145.675 81.855,142.260 83.494,139.417 84.196 C 136.507 84.914,130.200 84.921,127.083 84.208 C 124.715 83.667,120.687 82.044,120.172 81.423 C 120.055 81.282,119.875 81.167,119.771 81.166 C 119.668 81.166,119.365 80.979,119.099 80.750 C 118.833 80.521,118.543 80.333,118.456 80.333 C 118.202 80.333,115.846 77.986,115.281 77.170 C 114.997 76.760,114.671 76.310,114.555 76.170 C 112.924 74.202,110.948 69.368,110.568 66.417 C 110.269 64.090,110.481 57.762,110.909 56.250 C 112.375 51.068,113.604 48.747,116.409 45.861 C 117.848 44.381,119.730 42.833,120.092 42.833 C 120.152 42.833,120.537 42.607,120.948 42.330 C 122.534 41.259,126.384 39.836,127.705 39.831 C 128.097 39.829,128.529 39.754,128.667 39.663 C 128.983 39.455,135.832 39.564,137.333 39.801 M226.333 39.801 C 229.573 40.314,232.144 41.326,234.806 43.137 C 235.572 43.657,236.352 44.170,236.539 44.277 C 237.032 44.557,239.500 47.042,239.500 47.259 C 239.500 47.359,239.695 47.624,239.933 47.846 C 240.171 48.068,240.519 48.550,240.707 48.917 C 240.895 49.283,241.213 49.808,241.414 50.083 C 241.803 50.617,242.156 51.338,242.554 52.417 C 242.689 52.783,242.968 53.496,243.174 54.000 C 243.942 55.879,244.209 57.946,244.206 62.000 C 244.204 65.454,243.948 68.289,243.546 69.333 C 243.161 70.329,242.819 71.224,242.493 72.083 C 240.974 76.083,236.963 80.210,232.500 82.367 C 230.521 83.324,228.191 84.172,227.552 84.169 C 227.351 84.168,227.140 84.242,227.083 84.333 C 227.027 84.425,226.539 84.500,226.000 84.500 C 225.461 84.500,224.973 84.575,224.917 84.667 C 224.854 84.769,223.529 84.833,221.500 84.833 C 219.471 84.833,218.146 84.769,218.083 84.667 C 218.027 84.575,217.571 84.500,217.071 84.500 C 216.571 84.500,216.032 84.434,215.873 84.353 C 215.560 84.194,214.223 83.840,213.420 83.702 C 213.146 83.656,212.675 83.479,212.373 83.309 C 212.071 83.139,211.710 83.000,211.573 83.000 C 211.252 83.000,209.915 82.323,208.951 81.672 C 208.539 81.394,208.119 81.167,208.018 81.167 C 207.917 81.167,207.544 80.904,207.189 80.583 C 206.833 80.262,206.479 80.000,206.400 80.000 C 206.186 80.000,203.500 77.287,203.500 77.071 C 203.500 76.969,203.342 76.742,203.148 76.567 C 202.293 75.795,200.497 72.505,199.927 70.667 C 199.771 70.162,199.578 69.600,199.499 69.417 C 199.421 69.233,199.310 68.821,199.254 68.500 C 199.198 68.179,199.069 67.504,198.968 67.000 C 198.718 65.751,198.711 58.503,198.959 57.333 C 199.066 56.829,199.221 56.079,199.305 55.667 C 200.238 51.049,204.480 45.049,208.250 43.016 C 208.617 42.818,209.258 42.444,209.676 42.185 C 210.475 41.690,211.597 41.230,213.667 40.549 C 215.687 39.885,215.904 39.833,216.678 39.831 C 217.084 39.829,217.529 39.754,217.667 39.663 C 217.983 39.455,224.832 39.564,226.333 39.801 M165.676 40.005 C 166.147 40.257,166.373 40.781,167.583 44.436 C 168.186 46.259,168.783 47.975,168.910 48.250 C 169.268 49.024,169.662 50.219,169.664 50.537 C 169.666 50.695,169.847 51.220,170.067 51.704 C 170.466 52.581,170.571 52.897,170.829 54.000 C 170.904 54.321,171.134 54.996,171.339 55.500 C 171.863 56.780,171.935 56.984,172.167 57.833 C 172.280 58.246,172.413 58.696,172.463 58.833 C 172.512 58.971,172.540 59.167,172.524 59.269 C 172.509 59.371,172.609 59.671,172.747 59.935 C 172.885 60.200,172.998 60.560,172.999 60.734 C 173.000 60.909,173.188 61.298,173.417 61.598 C 173.646 61.899,173.833 62.339,173.833 62.578 C 173.833 62.816,174.021 63.381,174.250 63.833 C 174.479 64.286,174.667 64.804,174.667 64.985 C 174.667 65.166,174.742 65.360,174.833 65.417 C 174.925 65.473,175.000 65.666,175.000 65.845 C 175.000 66.025,175.070 66.301,175.155 66.461 C 175.240 66.620,175.510 67.387,175.756 68.167 C 176.001 68.946,176.269 69.714,176.351 69.873 C 176.433 70.032,176.500 70.316,176.500 70.503 C 176.500 70.912,176.977 71.140,177.172 70.825 C 177.248 70.702,177.733 69.322,178.250 67.759 C 178.768 66.196,179.296 64.692,179.424 64.417 C 179.552 64.142,180.514 61.367,181.561 58.250 C 182.609 55.133,183.706 51.946,184.000 51.167 C 184.294 50.387,184.571 49.600,184.615 49.417 C 184.659 49.233,184.754 48.933,184.827 48.750 C 185.048 48.194,186.029 45.273,186.114 44.917 C 186.158 44.733,186.254 44.433,186.327 44.250 C 186.400 44.067,186.667 43.279,186.922 42.500 C 187.877 39.578,187.221 39.839,193.613 39.836 C 199.319 39.833,199.718 39.889,199.409 40.646 C 199.348 40.795,199.239 41.114,199.167 41.355 C 199.094 41.596,198.918 42.046,198.775 42.355 C 198.632 42.664,198.253 43.706,197.933 44.671 C 197.614 45.636,197.236 46.648,197.094 46.921 C 196.952 47.194,196.835 47.511,196.834 47.627 C 196.834 47.743,196.766 47.968,196.683 48.127 C 196.600 48.286,196.437 48.754,196.320 49.167 C 196.202 49.579,195.946 50.254,195.750 50.667 C 195.554 51.079,195.296 51.754,195.177 52.167 C 194.930 53.022,194.891 53.138,194.492 54.167 C 194.141 55.072,192.945 58.374,192.017 61.000 C 191.644 62.054,191.226 63.116,191.087 63.359 C 190.947 63.602,190.833 63.954,190.833 64.141 C 190.833 64.328,190.758 64.527,190.667 64.583 C 190.575 64.640,190.500 64.818,190.500 64.978 C 190.500 65.139,190.304 65.753,190.065 66.343 C 189.519 67.691,188.660 70.020,187.795 72.500 C 187.427 73.554,187.023 74.565,186.897 74.745 C 186.770 74.926,186.667 75.208,186.667 75.373 C 186.667 75.537,186.599 75.801,186.516 75.961 C 186.434 76.120,186.270 76.587,186.153 77.000 C 186.036 77.412,185.766 78.104,185.553 78.536 C 185.341 78.968,185.167 79.470,185.167 79.651 C 185.167 79.832,185.092 80.027,185.000 80.083 C 184.908 80.140,184.833 80.324,184.833 80.493 C 184.833 80.661,184.602 81.350,184.320 82.024 C 184.038 82.698,183.765 83.400,183.713 83.583 C 183.448 84.526,183.641 84.500,176.983 84.500 C 169.564 84.500,170.420 84.883,169.164 81.000 C 168.675 79.487,168.222 78.175,168.157 78.083 C 168.092 77.992,167.762 77.092,167.424 76.083 C 167.086 75.075,166.673 73.950,166.507 73.583 C 166.341 73.217,166.106 72.579,165.985 72.167 C 165.863 71.754,165.583 70.967,165.362 70.417 C 164.972 69.448,164.194 67.292,162.927 63.667 C 162.590 62.704,162.169 61.599,161.991 61.210 C 161.812 60.822,161.667 60.425,161.667 60.330 C 161.667 60.234,161.479 59.786,161.250 59.333 C 161.021 58.881,160.833 58.323,160.833 58.094 C 160.833 57.865,160.683 57.410,160.500 57.083 C 160.317 56.757,160.166 56.398,160.166 56.287 C 160.165 56.175,160.048 55.860,159.906 55.588 C 159.764 55.315,159.386 54.303,159.067 53.338 C 158.747 52.373,158.377 51.348,158.244 51.061 C 158.112 50.774,157.781 49.858,157.509 49.026 C 157.237 48.194,156.861 47.196,156.674 46.809 C 156.487 46.421,156.333 46.005,156.333 45.883 C 156.333 45.762,156.267 45.532,156.187 45.373 C 156.106 45.214,155.907 44.671,155.745 44.167 C 155.583 43.663,155.311 42.972,155.141 42.632 C 154.699 41.744,154.738 40.818,155.242 40.274 L 155.651 39.833 160.503 39.833 C 163.512 39.833,165.477 39.899,165.676 40.005 M278.071 40.095 C 278.305 40.329,278.333 41.793,278.333 53.708 C 278.333 61.374,278.399 67.278,278.487 67.572 C 278.571 67.853,278.768 68.533,278.924 69.083 C 279.927 72.624,282.290 74.821,285.105 74.831 C 285.483 74.832,286.072 74.950,286.414 75.093 C 286.977 75.328,287.108 75.328,287.797 75.093 C 288.216 74.950,288.952 74.833,289.433 74.833 C 292.370 74.833,296.651 69.881,296.664 66.468 C 296.666 66.130,296.742 65.807,296.833 65.750 C 296.942 65.683,297.000 61.267,297.000 53.045 C 297.000 41.553,297.024 40.416,297.276 40.138 C 297.678 39.693,307.373 39.667,307.862 40.109 C 308.312 40.517,308.341 83.698,307.891 84.195 C 307.637 84.475,307.270 84.500,303.330 84.500 L 299.045 84.500 298.622 84.076 C 298.333 83.788,298.169 83.402,298.106 82.868 C 297.741 79.737,297.708 79.643,297.129 80.061 C 296.921 80.212,296.563 80.463,296.333 80.618 C 296.104 80.773,295.564 81.223,295.132 81.617 C 294.701 82.011,294.268 82.333,294.171 82.333 C 294.074 82.333,293.602 82.592,293.122 82.908 C 291.142 84.213,288.785 84.706,284.500 84.711 C 281.820 84.714,280.955 84.633,279.083 84.204 C 277.328 83.802,274.852 82.656,274.179 81.934 C 273.957 81.695,273.686 81.500,273.577 81.500 C 272.328 81.500,268.017 74.871,268.002 72.928 C 268.000 72.619,267.897 72.224,267.468 70.875 C 266.877 69.019,266.545 40.761,267.107 40.140 C 267.501 39.705,277.639 39.663,278.071 40.095 M131.445 48.444 C 131.372 48.517,130.847 48.626,130.281 48.684 C 129.298 48.786,128.078 49.228,126.854 49.928 C 126.246 50.275,124.170 52.217,124.162 52.445 C 124.159 52.521,123.938 52.873,123.670 53.227 C 123.053 54.043,122.386 56.115,122.620 56.487 C 122.833 56.824,142.207 56.979,142.606 56.648 C 143.100 56.238,141.957 52.738,141.171 52.253 C 141.066 52.188,140.912 51.957,140.830 51.740 C 140.747 51.523,140.394 51.166,140.046 50.946 C 139.697 50.725,139.307 50.419,139.180 50.265 C 138.949 49.988,137.545 49.281,136.583 48.958 C 135.499 48.594,131.677 48.212,131.445 48.444 M218.256 49.427 C 217.709 49.651,217.168 49.833,217.054 49.833 C 215.153 49.833,210.518 55.449,210.502 57.771 C 210.501 57.966,210.387 58.395,210.250 58.724 C 210.061 59.177,210.000 60.016,210.000 62.167 C 210.000 64.318,210.061 65.157,210.250 65.609 C 210.387 65.938,210.501 66.367,210.502 66.562 C 210.508 67.321,211.559 69.732,212.070 70.156 C 212.215 70.276,212.333 70.460,212.333 70.566 C 212.333 70.889,215.208 73.613,215.927 73.971 C 218.487 75.246,221.860 75.725,223.833 75.096 C 224.246 74.964,224.921 74.763,225.333 74.648 C 227.022 74.179,230.667 71.389,230.667 70.566 C 230.667 70.460,230.783 70.278,230.925 70.160 C 231.211 69.923,231.681 68.942,232.000 67.917 C 232.114 67.550,232.273 67.120,232.354 66.961 C 232.434 66.801,232.501 66.501,232.503 66.294 C 232.504 66.086,232.613 65.617,232.745 65.250 C 233.090 64.294,233.093 59.879,232.750 59.058 C 232.612 58.729,232.500 58.173,232.500 57.823 C 232.500 57.473,232.436 57.147,232.358 57.098 C 232.280 57.050,232.088 56.604,231.931 56.107 C 231.073 53.379,227.551 50.061,224.728 49.323 C 223.121 48.903,219.392 48.963,218.256 49.427 " stroke="none" fill="#dbdbdb" fill-rule="evenodd"></path><path id="path2" d="M63.608 24.438 L 63.167 24.879 63.167 29.164 C 63.167 33.103,63.191 33.471,63.471 33.724 C 63.750 33.976,64.967 34.000,77.545 34.000 C 86.544 34.000,91.349 34.058,91.417 34.167 C 91.473 34.258,91.798 34.333,92.137 34.333 C 92.477 34.333,93.165 34.483,93.667 34.667 C 94.168 34.850,94.607 35.000,94.642 35.000 C 94.906 35.000,97.450 37.748,97.773 38.382 C 99.246 41.276,98.808 43.938,96.352 47.020 C 95.843 47.658,93.525 48.833,92.774 48.833 C 92.462 48.833,91.938 48.946,91.609 49.083 C 91.118 49.288,90.023 49.333,85.519 49.333 C 82.499 49.333,79.909 49.379,79.764 49.434 C 79.362 49.589,79.365 58.847,79.767 59.181 C 79.914 59.303,80.102 59.556,80.185 59.743 C 80.267 59.930,80.595 60.421,80.912 60.833 C 81.230 61.246,81.908 62.183,82.418 62.917 C 83.842 64.962,84.154 65.382,84.594 65.842 C 84.817 66.077,85.000 66.344,85.000 66.436 C 85.000 66.528,85.142 66.756,85.316 66.943 C 85.489 67.129,85.745 67.499,85.883 67.766 C 86.022 68.032,86.330 68.432,86.567 68.654 C 86.805 68.876,87.000 69.127,87.000 69.211 C 87.000 69.368,87.373 69.891,88.255 70.967 C 88.532 71.306,88.863 71.790,88.991 72.042 C 89.119 72.294,89.285 72.500,89.361 72.500 C 89.438 72.500,89.500 72.604,89.500 72.732 C 89.500 72.860,89.821 73.328,90.214 73.774 C 90.607 74.219,91.076 74.801,91.256 75.067 C 91.436 75.332,91.696 75.710,91.833 75.906 C 91.971 76.101,92.233 76.514,92.417 76.822 C 92.600 77.130,92.945 77.615,93.182 77.900 C 93.420 78.184,93.883 78.810,94.210 79.290 C 94.913 80.321,95.394 80.959,96.102 81.800 C 96.388 82.139,96.742 82.654,96.890 82.943 C 97.039 83.233,97.441 83.702,97.784 83.985 L 98.409 84.500 104.588 84.500 C 110.915 84.500,111.167 84.475,111.167 83.859 C 111.167 83.561,110.163 82.031,109.685 81.599 C 109.492 81.425,109.333 81.192,109.333 81.083 C 109.333 80.974,109.183 80.749,109.000 80.583 C 108.817 80.417,108.667 80.196,108.667 80.090 C 108.667 79.985,108.404 79.644,108.083 79.333 C 107.763 79.022,107.500 78.704,107.500 78.625 C 107.500 78.498,106.887 77.587,105.698 75.948 C 105.486 75.656,105.130 75.225,104.906 74.991 C 104.683 74.757,104.500 74.485,104.500 74.386 C 104.500 74.288,104.382 74.110,104.238 73.990 C 104.094 73.870,103.829 73.505,103.650 73.178 C 103.471 72.851,102.992 72.171,102.586 71.667 C 102.179 71.162,101.844 70.668,101.840 70.567 C 101.836 70.467,101.674 70.242,101.478 70.067 C 101.129 69.755,100.547 68.945,99.943 67.931 C 99.775 67.648,99.423 67.192,99.162 66.917 C 98.626 66.353,97.927 65.416,97.670 64.917 C 97.576 64.733,97.239 64.246,96.922 63.833 C 96.605 63.421,95.991 62.558,95.558 61.917 C 95.125 61.275,94.560 60.504,94.302 60.203 C 94.044 59.901,93.833 59.593,93.833 59.517 C 93.833 59.314,95.181 58.834,95.756 58.831 C 96.854 58.827,100.289 57.382,102.000 56.204 C 104.571 54.434,108.667 49.248,108.667 47.763 C 108.667 47.616,108.734 47.365,108.817 47.206 C 108.900 47.047,109.055 46.579,109.162 46.167 C 109.269 45.754,109.426 45.186,109.511 44.905 C 109.733 44.173,109.704 39.157,109.472 38.211 C 108.862 35.726,107.441 32.386,106.574 31.402 C 106.339 31.135,106.046 30.729,105.923 30.500 C 105.663 30.016,103.441 27.833,103.209 27.833 C 103.122 27.833,102.834 27.646,102.568 27.417 C 102.301 27.188,101.999 27.000,101.895 27.000 C 101.792 27.000,101.609 26.881,101.488 26.736 C 100.902 26.029,97.306 24.601,95.333 24.291 C 94.679 24.188,88.273 24.096,79.149 24.059 L 64.049 23.997 63.608 24.438 M249.776 24.305 C 249.325 24.803,249.354 83.816,249.805 84.224 C 250.353 84.720,260.054 84.634,260.407 84.130 C 260.640 83.798,260.667 80.688,260.667 54.250 C 260.667 27.812,260.640 24.702,260.407 24.370 C 260.037 23.842,250.250 23.781,249.776 24.305 M94.391 24.417 C 94.720 24.554,95.297 24.667,95.674 24.667 C 96.992 24.667,100.455 26.103,102.083 27.326 C 102.450 27.601,102.900 27.895,103.083 27.979 C 103.417 28.131,105.301 30.089,106.261 31.282 C 107.246 32.505,109.167 36.985,109.167 38.058 C 109.167 38.290,109.242 38.527,109.333 38.583 C 109.546 38.715,109.557 44.037,109.346 44.738 C 107.763 50.003,107.413 50.636,104.446 53.625 C 103.149 54.931,102.002 56.000,101.898 56.000 C 101.793 56.000,101.609 56.119,101.488 56.264 C 100.948 56.916,97.389 58.369,95.583 58.677 C 93.715 58.994,93.667 59.014,93.667 59.435 C 93.667 59.654,93.917 60.114,94.222 60.458 C 94.528 60.802,94.828 61.196,94.889 61.333 C 94.950 61.471,95.261 61.921,95.581 62.333 C 95.900 62.746,96.717 63.908,97.396 64.917 C 98.075 65.925,98.797 66.900,99.001 67.083 C 99.204 67.267,99.640 67.829,99.969 68.333 C 100.299 68.837,100.804 69.550,101.092 69.917 C 101.380 70.283,101.664 70.696,101.724 70.833 C 101.784 70.971,102.094 71.421,102.412 71.833 C 102.730 72.246,103.334 73.071,103.755 73.667 C 104.175 74.262,104.783 75.125,105.106 75.583 C 105.429 76.042,105.848 76.583,106.037 76.785 C 106.225 76.988,106.463 77.296,106.565 77.470 C 106.754 77.793,106.892 77.990,108.745 80.583 C 110.751 83.392,111.026 83.823,110.920 83.995 C 110.850 84.108,108.654 84.167,104.510 84.167 L 98.205 84.167 97.644 83.507 C 96.266 81.886,94.672 79.701,92.108 75.917 C 91.425 74.908,90.663 73.896,90.415 73.667 C 90.167 73.438,89.897 73.100,89.815 72.917 C 89.733 72.733,89.405 72.246,89.088 71.833 C 88.557 71.144,87.979 70.329,85.898 67.333 C 85.484 66.737,84.971 66.063,84.758 65.833 C 84.545 65.604,84.258 65.191,84.119 64.916 C 83.981 64.641,83.701 64.266,83.498 64.083 C 83.295 63.900,83.062 63.600,82.980 63.417 C 82.899 63.233,82.572 62.746,82.254 62.333 C 81.936 61.921,81.223 60.920,80.669 60.110 L 79.661 58.637 79.706 54.110 L 79.750 49.583 85.667 49.484 C 93.273 49.357,95.361 48.876,96.649 46.957 C 96.888 46.600,97.286 46.065,97.533 45.767 C 98.967 44.041,99.164 40.585,97.962 38.250 C 97.621 37.588,95.078 34.833,94.808 34.833 C 94.774 34.833,94.335 34.683,93.833 34.500 C 93.332 34.317,92.719 34.167,92.472 34.167 C 92.224 34.167,91.811 34.073,91.553 33.958 C 91.195 33.799,87.820 33.730,77.333 33.667 L 63.583 33.583 63.583 29.088 L 63.583 24.593 64.000 24.382 C 64.675 24.041,93.570 24.074,94.391 24.417 M260.053 24.375 C 260.317 24.570,260.333 26.511,260.293 54.333 L 260.250 84.083 255.063 84.127 L 249.876 84.171 249.771 83.648 C 249.636 82.971,249.634 25.539,249.769 24.863 C 249.825 24.581,249.994 24.318,250.144 24.278 C 250.862 24.087,259.780 24.174,260.053 24.375 M315.019 28.060 C 314.770 28.361,314.855 75.883,315.107 77.000 C 315.641 79.363,318.064 82.278,320.453 83.431 C 322.739 84.534,323.947 84.691,330.775 84.775 C 335.673 84.834,336.331 84.812,336.567 84.576 C 337.054 84.089,336.959 75.440,336.463 75.093 C 336.152 74.875,335.441 74.833,332.070 74.833 L 328.047 74.833 327.419 74.407 C 325.725 73.258,325.824 74.109,325.874 61.139 L 325.917 49.917 331.100 49.833 C 335.152 49.768,336.343 49.700,336.558 49.521 C 336.997 49.156,336.973 40.511,336.531 40.112 C 336.267 39.873,335.578 39.833,331.073 39.794 L 325.917 39.750 325.873 34.014 C 325.843 30.120,325.770 28.207,325.644 28.056 C 325.370 27.726,315.293 27.730,315.019 28.060 M325.477 28.223 C 325.603 28.374,325.676 30.287,325.706 34.181 L 325.750 39.917 331.083 40.008 C 334.017 40.059,336.437 40.115,336.461 40.133 C 336.485 40.152,336.485 42.248,336.461 44.792 L 336.417 49.417 331.250 49.500 C 328.408 49.546,325.990 49.644,325.875 49.718 C 325.519 49.948,325.578 72.340,325.936 73.050 C 326.877 74.916,327.331 75.068,332.250 75.167 L 336.417 75.250 336.461 79.822 C 336.496 83.368,336.458 84.424,336.294 84.528 C 335.997 84.716,325.709 84.701,325.354 84.511 C 325.195 84.426,324.543 84.272,323.907 84.170 C 323.271 84.068,322.500 83.942,322.195 83.889 C 319.454 83.418,316.083 80.023,315.273 76.917 C 315.016 75.933,314.932 28.533,315.186 28.227 C 315.460 27.897,325.204 27.893,325.477 28.223 M63.654 39.154 L 63.167 39.641 63.167 61.423 L 63.167 83.206 63.814 83.853 L 64.461 84.500 69.288 84.500 C 73.753 84.500,74.136 84.477,74.391 84.195 C 74.841 83.698,74.812 39.350,74.362 38.942 C 74.093 38.699,73.479 38.667,69.099 38.667 L 64.141 38.667 63.654 39.154 M74.395 39.375 C 74.527 39.867,74.531 83.560,74.399 83.903 C 74.310 84.135,73.704 84.167,69.308 84.167 L 64.318 84.167 63.909 83.758 L 63.500 83.348 63.500 61.374 C 63.500 44.505,63.546 39.354,63.700 39.200 C 63.847 39.053,65.277 39.000,69.097 39.000 L 74.294 39.000 74.395 39.375 M128.667 39.663 C 128.529 39.754,128.097 39.829,127.705 39.831 C 126.384 39.836,122.534 41.259,120.948 42.330 C 120.537 42.607,120.152 42.833,120.092 42.833 C 119.456 42.833,115.312 46.723,114.232 48.333 C 113.463 49.480,111.933 52.767,111.517 54.167 C 110.493 57.610,110.469 57.797,110.464 62.333 C 110.460 66.565,110.478 66.698,111.520 70.167 C 112.084 72.041,113.570 74.982,114.555 76.170 C 114.671 76.310,114.997 76.760,115.281 77.170 C 115.846 77.986,118.202 80.333,118.456 80.333 C 118.543 80.333,118.833 80.521,119.099 80.750 C 119.365 80.979,119.668 81.166,119.771 81.166 C 119.875 81.167,120.055 81.282,120.172 81.423 C 120.582 81.917,123.148 83.033,125.750 83.847 C 129.093 84.894,135.887 85.067,139.417 84.196 C 142.260 83.494,145.675 81.855,146.737 80.681 C 146.910 80.490,147.135 80.333,147.237 80.333 C 147.479 80.333,150.500 77.301,150.500 77.059 C 150.500 76.957,150.605 76.787,150.734 76.680 C 150.863 76.573,151.164 76.084,151.404 75.594 C 151.645 75.103,151.952 74.609,152.087 74.497 C 152.223 74.384,152.334 74.170,152.334 74.021 C 152.335 73.872,152.442 73.546,152.571 73.298 C 153.075 72.333,153.518 70.809,153.469 70.214 C 153.385 69.206,153.207 69.172,147.969 69.169 C 143.002 69.166,142.606 69.222,142.425 69.946 C 140.659 77.023,126.921 77.784,123.641 70.986 C 122.556 68.739,122.332 68.012,122.213 66.368 C 122.091 64.674,120.431 64.833,138.167 64.833 C 150.469 64.833,153.827 64.789,153.955 64.625 C 154.467 63.970,154.871 59.562,154.501 58.668 C 154.397 58.418,154.313 57.959,154.314 57.649 C 154.315 57.060,153.903 55.031,153.648 54.367 C 153.566 54.157,153.500 53.813,153.500 53.604 C 153.500 53.394,153.313 52.854,153.084 52.403 C 152.855 51.952,152.668 51.485,152.667 51.366 C 152.666 51.062,151.633 49.167,151.468 49.167 C 151.394 49.167,151.333 49.091,151.333 48.998 C 151.333 48.387,148.335 45.010,146.833 43.930 C 145.211 42.764,144.010 41.999,143.333 41.701 C 142.921 41.520,142.283 41.240,141.917 41.079 C 140.574 40.490,139.113 40.083,137.333 39.801 C 135.832 39.564,128.983 39.455,128.667 39.663 M217.667 39.663 C 217.529 39.754,217.084 39.829,216.678 39.831 C 215.904 39.833,215.687 39.885,213.667 40.549 C 211.597 41.230,210.475 41.690,209.676 42.185 C 209.258 42.444,208.617 42.818,208.250 43.016 C 204.480 45.049,200.238 51.049,199.305 55.667 C 199.221 56.079,199.066 56.829,198.959 57.333 C 198.711 58.503,198.718 65.751,198.968 67.000 C 199.069 67.504,199.198 68.179,199.254 68.500 C 199.310 68.821,199.421 69.233,199.499 69.417 C 199.578 69.600,199.771 70.162,199.927 70.667 C 200.497 72.505,202.293 75.795,203.148 76.567 C 203.342 76.742,203.500 76.969,203.500 77.071 C 203.500 77.287,206.186 80.000,206.400 80.000 C 206.479 80.000,206.833 80.262,207.189 80.583 C 207.544 80.904,207.917 81.167,208.018 81.167 C 208.119 81.167,208.539 81.394,208.951 81.672 C 209.915 82.323,211.252 83.000,211.573 83.000 C 211.710 83.000,212.071 83.139,212.373 83.309 C 212.675 83.479,213.146 83.656,213.420 83.702 C 214.223 83.840,215.560 84.194,215.873 84.353 C 216.032 84.434,216.571 84.500,217.071 84.500 C 217.571 84.500,218.027 84.575,218.083 84.667 C 218.146 84.769,219.471 84.833,221.500 84.833 C 223.529 84.833,224.854 84.769,224.917 84.667 C 224.973 84.575,225.461 84.500,226.000 84.500 C 226.539 84.500,227.027 84.425,227.083 84.333 C 227.140 84.242,227.351 84.168,227.552 84.169 C 228.191 84.172,230.521 83.324,232.500 82.367 C 236.963 80.210,240.974 76.083,242.493 72.083 C 242.819 71.224,243.161 70.329,243.546 69.333 C 243.948 68.289,244.204 65.454,244.206 62.000 C 244.209 57.946,243.942 55.879,243.174 54.000 C 242.968 53.496,242.689 52.783,242.554 52.417 C 242.156 51.338,241.803 50.617,241.414 50.083 C 241.213 49.808,240.895 49.283,240.707 48.917 C 240.519 48.550,240.171 48.068,239.933 47.846 C 239.695 47.624,239.500 47.359,239.500 47.259 C 239.500 47.042,237.032 44.557,236.539 44.277 C 236.352 44.170,235.572 43.657,234.806 43.137 C 232.144 41.326,229.573 40.314,226.333 39.801 C 224.832 39.564,217.983 39.455,217.667 39.663 M136.917 39.904 C 138.195 40.065,140.518 40.746,142.267 41.473 C 144.201 42.278,145.579 43.092,146.237 43.819 C 146.410 44.010,146.638 44.167,146.744 44.167 C 147.120 44.167,151.000 48.384,151.000 48.792 C 151.000 48.878,151.135 49.071,151.301 49.221 C 151.573 49.467,151.806 49.928,152.862 52.316 C 153.165 53.001,153.408 53.905,153.605 55.083 C 153.652 55.358,153.756 55.733,153.838 55.917 C 154.373 57.114,154.309 64.036,153.759 64.492 C 153.620 64.608,148.370 64.679,137.817 64.707 L 122.083 64.750 122.101 66.167 C 122.141 69.523,123.502 72.039,126.513 74.325 C 128.071 75.509,135.371 76.550,135.917 75.667 C 135.973 75.575,136.242 75.500,136.514 75.500 C 138.515 75.500,141.925 72.369,142.733 69.789 C 142.818 69.515,143.176 69.498,147.950 69.539 L 153.075 69.583 153.235 70.036 C 153.391 70.482,153.267 70.944,152.290 73.554 C 151.486 75.702,149.036 78.888,147.250 80.108 C 146.792 80.421,146.117 80.902,145.750 81.176 C 144.214 82.325,141.335 83.544,139.167 83.964 C 138.662 84.061,137.837 84.233,137.333 84.346 C 136.113 84.618,130.447 84.739,130.005 84.503 C 129.823 84.405,129.165 84.253,128.545 84.166 C 127.924 84.078,127.079 83.927,126.667 83.829 C 126.254 83.731,125.654 83.592,125.333 83.519 C 125.013 83.447,124.398 83.225,123.967 83.027 C 123.537 82.829,123.108 82.667,123.014 82.667 C 121.675 82.667,116.869 78.961,115.000 76.487 C 113.333 74.280,111.333 69.992,111.333 68.623 C 111.333 68.383,111.258 68.140,111.167 68.083 C 111.075 68.027,111.000 67.619,111.000 67.178 C 111.000 66.736,110.888 66.056,110.750 65.667 C 110.568 65.152,110.500 64.240,110.500 62.333 C 110.500 60.426,110.568 59.515,110.750 59.000 C 110.888 58.610,111.000 57.912,111.000 57.449 C 111.000 56.986,111.070 56.377,111.157 56.095 C 111.243 55.814,111.519 54.908,111.770 54.083 C 112.980 50.108,116.238 45.543,119.250 43.599 C 120.331 42.902,121.943 41.946,122.610 41.608 C 123.643 41.083,127.188 40.000,127.879 39.997 C 128.267 39.996,128.696 39.921,128.833 39.830 C 129.096 39.656,135.400 39.714,136.917 39.904 M226.083 39.955 C 232.231 40.944,237.791 44.465,240.502 49.089 C 240.732 49.481,241.032 49.941,241.169 50.110 C 241.567 50.603,241.844 51.151,242.286 52.320 C 242.514 52.923,242.814 53.717,242.953 54.083 C 243.796 56.312,244.042 58.106,244.039 62.000 C 244.036 66.503,243.687 68.719,242.584 71.250 C 242.424 71.617,242.098 72.367,241.860 72.917 C 240.936 75.046,237.322 79.227,235.044 80.801 C 234.327 81.296,230.517 83.167,230.225 83.167 C 230.099 83.167,229.865 83.234,229.706 83.317 C 229.547 83.400,229.079 83.555,228.667 83.662 C 228.254 83.769,227.686 83.926,227.405 84.011 C 227.123 84.097,226.666 84.167,226.390 84.167 C 226.113 84.167,225.518 84.278,225.068 84.415 C 224.083 84.714,218.957 84.769,218.220 84.489 C 217.963 84.391,217.301 84.245,216.751 84.166 C 216.200 84.086,215.412 83.937,215.000 83.834 C 214.588 83.732,213.950 83.585,213.583 83.508 C 210.577 82.873,205.311 79.442,203.723 77.083 C 203.415 76.625,202.905 75.912,202.591 75.500 C 201.781 74.435,200.471 71.677,199.938 69.917 C 199.689 69.092,199.413 68.186,199.326 67.905 C 199.238 67.623,199.167 67.132,199.167 66.813 C 199.167 66.494,199.089 66.156,198.994 66.061 C 198.804 65.871,198.865 58.685,199.066 57.667 C 200.341 51.184,203.658 46.008,208.251 43.331 C 208.646 43.101,209.107 42.798,209.276 42.658 C 209.709 42.299,212.757 40.985,213.833 40.694 C 214.154 40.607,214.802 40.415,215.272 40.268 C 215.743 40.121,216.456 39.999,216.856 39.997 C 217.256 39.996,217.696 39.921,217.833 39.830 C 218.141 39.626,224.655 39.725,226.083 39.955 M155.242 40.274 C 154.738 40.818,154.699 41.744,155.141 42.632 C 155.311 42.972,155.583 43.663,155.745 44.167 C 155.907 44.671,156.106 45.214,156.187 45.373 C 156.267 45.532,156.333 45.762,156.333 45.883 C 156.333 46.005,156.487 46.421,156.674 46.809 C 156.861 47.196,157.237 48.194,157.509 49.026 C 157.781 49.858,158.112 50.774,158.244 51.061 C 158.377 51.348,158.747 52.373,159.067 53.338 C 159.386 54.303,159.764 55.315,159.906 55.588 C 160.048 55.860,160.165 56.175,160.166 56.287 C 160.166 56.398,160.317 56.757,160.500 57.083 C 160.683 57.410,160.833 57.865,160.833 58.094 C 160.833 58.323,161.021 58.881,161.250 59.333 C 161.479 59.786,161.667 60.234,161.667 60.330 C 161.667 60.425,161.812 60.822,161.991 61.210 C 162.169 61.599,162.590 62.704,162.927 63.667 C 164.194 67.292,164.972 69.448,165.362 70.417 C 165.583 70.967,165.863 71.754,165.985 72.167 C 166.106 72.579,166.341 73.217,166.507 73.583 C 166.673 73.950,167.086 75.075,167.424 76.083 C 167.762 77.092,168.092 77.992,168.157 78.083 C 168.222 78.175,168.675 79.487,169.164 81.000 C 170.420 84.883,169.564 84.500,176.983 84.500 C 183.641 84.500,183.448 84.526,183.713 83.583 C 183.765 83.400,184.038 82.698,184.320 82.024 C 184.602 81.350,184.833 80.661,184.833 80.493 C 184.833 80.324,184.908 80.140,185.000 80.083 C 185.092 80.027,185.167 79.832,185.167 79.651 C 185.167 79.470,185.341 78.968,185.553 78.536 C 185.766 78.104,186.036 77.412,186.153 77.000 C 186.270 76.587,186.434 76.120,186.516 75.961 C 186.599 75.801,186.667 75.537,186.667 75.373 C 186.667 75.208,186.770 74.926,186.897 74.745 C 187.023 74.565,187.427 73.554,187.795 72.500 C 188.660 70.020,189.519 67.691,190.065 66.343 C 190.304 65.753,190.500 65.139,190.500 64.978 C 190.500 64.818,190.575 64.640,190.667 64.583 C 190.758 64.527,190.833 64.328,190.833 64.141 C 190.833 63.954,190.947 63.602,191.087 63.359 C 191.226 63.116,191.644 62.054,192.017 61.000 C 192.945 58.374,194.141 55.072,194.492 54.167 C 194.891 53.138,194.930 53.022,195.177 52.167 C 195.296 51.754,195.554 51.079,195.750 50.667 C 195.946 50.254,196.202 49.579,196.320 49.167 C 196.437 48.754,196.600 48.286,196.683 48.127 C 196.766 47.968,196.834 47.743,196.834 47.627 C 196.835 47.511,196.952 47.194,197.094 46.921 C 197.236 46.648,197.614 45.636,197.933 44.671 C 198.253 43.706,198.632 42.664,198.775 42.355 C 198.918 42.046,199.094 41.596,199.167 41.355 C 199.239 41.114,199.348 40.795,199.409 40.646 C 199.718 39.889,199.319 39.833,193.613 39.836 C 187.221 39.839,187.877 39.578,186.922 42.500 C 186.667 43.279,186.400 44.067,186.327 44.250 C 186.254 44.433,186.158 44.733,186.114 44.917 C 186.029 45.273,185.048 48.194,184.827 48.750 C 184.754 48.933,184.659 49.233,184.615 49.417 C 184.571 49.600,184.294 50.387,184.000 51.167 C 183.706 51.946,182.609 55.133,181.561 58.250 C 180.514 61.367,179.552 64.142,179.424 64.417 C 179.296 64.692,178.768 66.196,178.250 67.759 C 177.733 69.322,177.248 70.702,177.172 70.825 C 176.977 71.140,176.500 70.912,176.500 70.503 C 176.500 70.316,176.433 70.032,176.351 69.873 C 176.269 69.714,176.001 68.946,175.756 68.167 C 175.510 67.387,175.240 66.620,175.155 66.461 C 175.070 66.301,175.000 66.025,175.000 65.845 C 175.000 65.666,174.925 65.473,174.833 65.417 C 174.742 65.360,174.667 65.166,174.667 64.985 C 174.667 64.804,174.479 64.286,174.250 63.833 C 174.021 63.381,173.833 62.816,173.833 62.578 C 173.833 62.339,173.653 61.906,173.432 61.614 C 173.211 61.322,172.996 60.896,172.954 60.667 C 172.882 60.269,172.878 60.267,172.856 60.634 C 172.844 60.845,173.021 61.294,173.250 61.631 C 173.479 61.968,173.667 62.455,173.667 62.712 C 173.667 62.969,173.805 63.458,173.974 63.798 C 174.143 64.138,174.490 65.054,174.744 65.833 C 174.999 66.612,175.264 67.400,175.333 67.583 C 175.403 67.767,175.667 68.554,175.922 69.333 C 176.898 72.323,176.951 72.291,178.485 67.805 C 179.028 66.216,180.234 62.704,181.166 60.000 C 182.098 57.296,182.923 54.858,183.000 54.583 C 183.291 53.539,183.466 53.053,183.781 52.412 C 183.960 52.048,184.204 51.413,184.322 51.000 C 184.441 50.587,184.598 50.100,184.672 49.917 C 184.745 49.733,185.084 48.721,185.425 47.667 C 185.765 46.612,186.103 45.600,186.175 45.417 C 186.246 45.233,186.583 44.221,186.923 43.167 C 188.045 39.684,187.385 40.005,193.417 40.005 C 199.771 40.004,199.416 39.906,198.850 41.516 C 197.795 44.512,197.151 46.246,196.925 46.700 C 196.783 46.985,196.666 47.300,196.664 47.401 C 196.663 47.501,196.394 48.296,196.066 49.167 C 195.738 50.038,195.145 51.650,194.749 52.750 C 194.352 53.850,193.690 55.688,193.276 56.833 C 192.862 57.979,192.232 59.742,191.875 60.750 C 191.519 61.758,191.109 62.846,190.964 63.167 C 190.819 63.487,190.473 64.425,190.197 65.250 C 189.920 66.075,189.602 66.975,189.489 67.250 C 189.250 67.831,188.566 69.684,187.674 72.167 C 187.328 73.129,186.954 74.142,186.843 74.417 C 186.617 74.978,185.876 77.029,185.670 77.667 C 185.596 77.896,185.442 78.308,185.329 78.583 C 185.215 78.858,184.826 79.908,184.465 80.917 C 184.104 81.925,183.693 83.069,183.551 83.458 L 183.294 84.167 177.001 84.167 C 171.554 84.167,170.679 84.132,170.496 83.912 C 170.379 83.771,169.852 82.402,169.323 80.870 C 168.310 77.931,167.076 74.479,166.538 73.083 C 166.102 71.950,166.070 71.857,165.823 71.000 C 165.704 70.587,165.446 69.912,165.250 69.500 C 165.054 69.087,164.798 68.412,164.680 68.000 C 164.563 67.587,164.400 67.120,164.317 66.961 C 164.234 66.801,164.167 66.555,164.167 66.412 C 164.167 66.270,164.013 65.853,163.826 65.485 C 163.638 65.117,163.261 64.127,162.987 63.283 C 162.714 62.440,162.342 61.432,162.162 61.043 C 161.981 60.655,161.833 60.258,161.833 60.162 C 161.833 60.066,161.683 59.693,161.500 59.333 C 161.317 58.974,161.167 58.524,161.167 58.334 C 161.167 58.144,160.979 57.619,160.750 57.167 C 160.521 56.714,160.333 56.241,160.333 56.114 C 160.333 55.988,160.217 55.652,160.075 55.367 C 159.933 55.082,159.514 54.002,159.144 52.966 C 158.773 51.931,158.131 50.146,157.716 49.000 C 157.302 47.854,156.642 46.017,156.251 44.917 C 155.860 43.817,155.407 42.599,155.245 42.210 C 154.883 41.340,155.057 40.524,155.672 40.213 C 156.195 39.948,165.021 39.910,165.507 40.170 C 166.031 40.451,166.137 40.725,169.078 49.417 C 169.326 50.150,169.605 50.975,169.699 51.250 C 169.792 51.525,170.053 52.313,170.279 53.000 C 170.504 53.688,170.769 54.475,170.867 54.750 C 170.965 55.025,171.343 56.131,171.706 57.208 C 172.070 58.285,172.435 59.167,172.518 59.167 C 172.609 59.167,172.608 59.049,172.518 58.875 C 172.434 58.715,172.275 58.246,172.164 57.833 C 171.936 56.988,171.866 56.789,171.339 55.500 C 171.134 54.996,170.904 54.321,170.829 54.000 C 170.571 52.897,170.466 52.581,170.067 51.704 C 169.847 51.220,169.666 50.695,169.664 50.537 C 169.662 50.219,169.268 49.024,168.910 48.250 C 168.783 47.975,168.186 46.259,167.583 44.436 C 165.890 39.323,166.675 39.833,160.503 39.833 L 155.651 39.833 155.242 40.274 M267.107 40.140 C 266.545 40.761,266.877 69.019,267.468 70.875 C 267.897 72.224,268.000 72.619,268.002 72.928 C 268.017 74.871,272.328 81.500,273.577 81.500 C 273.686 81.500,273.957 81.695,274.179 81.934 C 274.852 82.656,277.328 83.802,279.083 84.204 C 280.955 84.633,281.820 84.714,284.500 84.711 C 288.785 84.706,291.142 84.213,293.122 82.908 C 293.602 82.592,294.074 82.333,294.171 82.333 C 294.268 82.333,294.701 82.011,295.132 81.617 C 295.564 81.223,296.104 80.773,296.333 80.618 C 296.563 80.463,296.921 80.212,297.129 80.061 C 297.708 79.643,297.741 79.737,298.106 82.868 C 298.169 83.402,298.333 83.788,298.622 84.076 L 299.045 84.500 303.330 84.500 C 307.270 84.500,307.637 84.475,307.891 84.195 C 308.341 83.698,308.312 40.517,307.862 40.109 C 307.373 39.667,297.678 39.693,297.276 40.138 C 297.024 40.416,297.000 41.553,297.000 53.045 C 297.000 61.267,296.942 65.683,296.833 65.750 C 296.742 65.807,296.666 66.130,296.664 66.468 C 296.651 69.881,292.370 74.833,289.433 74.833 C 288.952 74.833,288.216 74.950,287.797 75.093 C 287.108 75.328,286.977 75.328,286.414 75.093 C 286.072 74.950,285.483 74.832,285.105 74.831 C 282.290 74.821,279.927 72.624,278.924 69.083 C 278.768 68.533,278.571 67.853,278.487 67.572 C 278.399 67.278,278.333 61.374,278.333 53.708 C 278.333 41.793,278.305 40.329,278.071 40.095 C 277.639 39.663,267.501 39.705,267.107 40.140 M277.945 40.222 C 278.021 40.299,278.129 46.486,278.186 53.972 C 278.284 66.977,278.347 68.886,278.684 69.094 C 278.766 69.145,278.833 69.334,278.833 69.514 C 278.833 70.109,280.019 72.236,280.808 73.055 C 283.908 76.276,290.579 76.105,293.859 72.722 C 295.126 71.415,296.824 68.039,296.831 66.813 C 296.832 66.572,296.946 66.056,297.083 65.667 C 297.297 65.061,297.333 63.165,297.333 52.652 C 297.333 40.655,297.341 40.341,297.656 40.173 C 298.002 39.987,306.794 39.927,307.459 40.105 L 307.835 40.206 307.792 62.145 L 307.750 84.083 303.314 84.128 C 297.975 84.181,298.454 84.487,298.030 80.752 C 297.896 79.570,297.606 79.407,296.818 80.071 C 296.537 80.307,296.235 80.500,296.147 80.500 C 296.058 80.500,295.633 80.828,295.201 81.228 C 294.770 81.629,294.175 82.079,293.880 82.230 C 293.584 82.381,293.077 82.684,292.752 82.905 C 292.057 83.376,289.626 84.167,288.871 84.167 C 288.582 84.167,288.003 84.283,287.585 84.425 C 286.699 84.725,282.227 84.693,281.083 84.378 C 280.717 84.276,279.967 84.103,279.417 83.991 C 276.582 83.417,274.810 82.473,272.388 80.250 C 270.765 78.761,268.814 75.407,268.315 73.250 C 268.209 72.792,268.062 72.267,267.989 72.083 C 267.431 70.685,267.303 67.577,267.232 53.721 C 267.166 40.910,267.178 40.188,267.456 40.112 C 267.965 39.973,277.799 40.077,277.945 40.222 M131.356 48.257 C 131.047 48.390,130.463 48.500,130.058 48.500 C 129.649 48.500,129.029 48.649,128.667 48.833 C 128.307 49.017,127.924 49.167,127.816 49.167 C 127.181 49.167,124.809 51.281,123.513 53.003 C 123.052 53.615,122.334 55.546,122.337 56.167 C 122.340 57.041,121.881 57.006,132.761 56.960 L 142.917 56.917 142.967 56.054 C 143.039 54.798,141.526 51.887,140.320 50.965 C 140.046 50.755,139.580 50.387,139.286 50.147 C 138.197 49.261,136.335 48.506,135.229 48.502 C 134.850 48.501,134.271 48.387,133.942 48.250 C 133.192 47.936,132.087 47.939,131.356 48.257 M135.000 48.635 C 136.602 48.864,138.694 49.681,139.180 50.265 C 139.307 50.419,139.697 50.725,140.046 50.946 C 140.394 51.166,140.747 51.523,140.830 51.740 C 140.912 51.957,141.066 52.188,141.171 52.253 C 141.957 52.738,143.100 56.238,142.606 56.648 C 142.207 56.979,122.833 56.824,122.620 56.487 C 122.386 56.115,123.053 54.043,123.670 53.227 C 123.938 52.873,124.159 52.521,124.162 52.445 C 124.197 51.410,128.299 48.889,130.281 48.684 C 130.847 48.626,131.372 48.517,131.445 48.444 C 131.591 48.298,133.282 48.389,135.000 48.635 M217.828 49.325 C 214.130 50.699,211.508 53.450,210.432 57.083 C 210.269 57.633,210.068 58.314,209.985 58.595 C 209.788 59.262,209.788 65.074,209.985 65.738 C 210.799 68.479,210.974 68.893,211.928 70.333 C 214.533 74.265,219.839 76.517,223.738 75.346 C 224.020 75.262,224.700 75.065,225.250 74.910 C 226.866 74.452,227.839 73.876,229.139 72.609 C 230.609 71.176,232.000 69.185,232.000 68.514 C 232.000 68.360,232.060 68.162,232.132 68.075 C 232.253 67.931,232.453 67.314,232.996 65.417 C 233.454 63.818,233.043 58.154,232.358 56.611 C 232.161 56.168,232.000 55.707,232.000 55.586 C 232.000 55.466,231.737 54.977,231.417 54.500 C 231.096 54.023,230.833 53.583,230.833 53.521 C 230.833 53.110,227.788 50.466,226.667 49.905 C 224.311 48.726,220.169 48.454,217.828 49.325 M224.728 49.323 C 227.551 50.061,231.073 53.379,231.931 56.107 C 232.088 56.604,232.280 57.050,232.358 57.098 C 232.436 57.147,232.500 57.473,232.500 57.823 C 232.500 58.173,232.612 58.729,232.750 59.058 C 233.093 59.879,233.090 64.294,232.745 65.250 C 232.613 65.617,232.504 66.086,232.503 66.294 C 232.501 66.501,232.434 66.801,232.354 66.961 C 232.273 67.120,232.114 67.550,232.000 67.917 C 231.681 68.942,231.211 69.923,230.925 70.160 C 230.783 70.278,230.667 70.460,230.667 70.566 C 230.667 71.389,227.022 74.179,225.333 74.648 C 224.921 74.763,224.246 74.964,223.833 75.096 C 221.860 75.725,218.487 75.246,215.927 73.971 C 215.208 73.613,212.333 70.889,212.333 70.566 C 212.333 70.460,212.215 70.276,212.070 70.156 C 211.559 69.732,210.508 67.321,210.502 66.562 C 210.501 66.367,210.387 65.938,210.250 65.609 C 210.061 65.157,210.000 64.318,210.000 62.167 C 210.000 60.016,210.061 59.177,210.250 58.724 C 210.387 58.395,210.501 57.966,210.502 57.771 C 210.518 55.449,215.153 49.833,217.054 49.833 C 217.168 49.833,217.709 49.651,218.256 49.427 C 219.392 48.963,223.121 48.903,224.728 49.323 " stroke="none" fill="#8e9091" fill-rule="evenodd"></path><path id="path3" d="M63.775 24.640 C 63.525 24.916,63.499 25.416,63.539 29.266 L 63.583 33.583 77.417 33.680 C 91.653 33.779,92.180 33.805,93.996 34.488 C 95.668 35.118,98.500 38.330,98.500 39.596 C 98.500 39.796,98.612 40.229,98.750 40.558 C 99.238 41.725,98.575 44.654,97.528 45.955 C 94.955 49.152,94.310 49.346,85.929 49.442 C 82.044 49.486,80.034 49.569,79.887 49.691 C 79.715 49.834,79.667 50.820,79.669 54.229 L 79.671 58.583 80.665 60.000 C 81.212 60.779,82.073 62.031,82.578 62.781 C 83.084 63.532,83.576 64.194,83.672 64.253 C 83.768 64.313,84.034 64.636,84.262 64.972 C 84.491 65.308,85.160 66.258,85.749 67.083 C 86.338 67.908,87.099 68.996,87.439 69.500 C 87.779 70.004,88.256 70.642,88.500 70.917 C 88.743 71.192,89.193 71.829,89.499 72.333 C 89.806 72.837,90.331 73.550,90.667 73.917 C 91.185 74.482,92.119 75.781,92.750 76.811 C 92.842 76.961,93.143 77.383,93.420 77.750 C 93.697 78.117,94.143 78.754,94.411 79.167 C 94.680 79.579,95.067 80.104,95.273 80.333 C 95.659 80.764,96.056 81.300,97.081 82.777 C 98.102 84.245,97.674 84.167,104.661 84.167 C 111.700 84.167,111.303 84.271,110.199 82.716 C 109.861 82.239,109.289 81.414,108.930 80.883 C 108.570 80.351,108.077 79.692,107.834 79.417 C 107.590 79.142,107.140 78.504,106.833 78.000 C 106.527 77.496,106.077 76.858,105.835 76.583 C 105.592 76.308,105.266 75.896,105.109 75.667 C 104.953 75.438,104.341 74.575,103.749 73.750 C 103.157 72.925,102.334 71.748,101.920 71.135 C 101.507 70.523,101.093 69.974,101.000 69.917 C 100.907 69.859,100.431 69.198,99.941 68.448 C 99.452 67.697,98.925 66.978,98.769 66.849 C 98.614 66.720,98.065 65.970,97.549 65.182 C 97.033 64.395,96.411 63.525,96.167 63.250 C 95.924 62.975,95.473 62.337,95.167 61.833 C 94.860 61.329,94.399 60.690,94.143 60.414 C 93.222 59.420,94.062 58.516,95.919 58.502 C 96.466 58.498,98.703 57.737,99.809 57.179 C 104.034 55.046,107.366 51.088,108.728 46.583 C 108.978 45.758,109.254 44.853,109.341 44.572 C 109.550 43.898,109.546 39.251,109.336 38.595 C 109.246 38.314,108.953 37.366,108.686 36.489 C 106.814 30.340,101.436 25.498,95.500 24.615 C 93.167 24.268,64.090 24.291,63.775 24.640 M249.911 24.539 C 249.867 24.655,249.850 38.100,249.874 54.417 L 249.917 84.083 255.083 84.083 L 260.250 84.083 260.250 54.250 L 260.250 24.417 255.121 24.373 C 251.107 24.338,249.974 24.374,249.911 24.539 M95.333 24.781 C 101.260 25.659,106.749 30.554,108.472 36.500 C 108.671 37.188,108.947 38.098,109.084 38.522 C 109.433 39.603,109.427 43.543,109.074 44.719 C 108.931 45.194,108.655 46.108,108.459 46.750 C 107.217 50.828,103.707 54.966,99.837 56.915 C 98.394 57.642,96.906 58.161,95.750 58.342 C 93.129 58.753,92.769 59.218,94.008 60.583 C 94.349 60.959,95.242 62.228,97.057 64.917 C 97.738 65.925,98.462 66.900,98.667 67.083 C 98.872 67.267,99.446 68.017,99.942 68.750 C 101.524 71.086,102.344 72.239,102.732 72.667 C 102.939 72.896,103.359 73.496,103.666 74.000 C 103.973 74.504,104.423 75.142,104.665 75.417 C 104.908 75.692,105.235 76.104,105.391 76.333 C 105.548 76.563,106.085 77.313,106.584 78.000 C 107.082 78.688,107.843 79.775,108.273 80.417 C 108.703 81.058,109.256 81.808,109.502 82.083 C 110.107 82.762,110.687 83.758,110.553 83.891 C 110.493 83.951,107.767 84.000,104.495 84.000 C 97.807 84.000,98.172 84.066,97.233 82.688 C 97.007 82.355,96.489 81.633,96.083 81.083 C 95.677 80.533,95.065 79.671,94.723 79.167 C 94.381 78.662,93.872 77.981,93.592 77.651 C 93.312 77.322,92.682 76.409,92.193 75.624 C 91.703 74.838,91.113 74.020,90.883 73.806 C 90.652 73.592,90.057 72.817,89.559 72.083 C 87.946 69.705,87.153 68.592,86.767 68.167 C 86.559 67.938,86.039 67.225,85.610 66.583 C 85.181 65.942,84.570 65.079,84.251 64.667 C 83.636 63.870,82.861 62.780,80.994 60.083 L 79.840 58.417 79.837 54.218 C 79.834 51.039,79.884 49.987,80.042 49.885 C 80.156 49.811,82.875 49.704,86.083 49.649 C 93.900 49.513,95.697 49.041,97.126 46.750 C 97.354 46.383,97.695 45.915,97.882 45.709 C 98.847 44.651,99.368 41.814,98.899 40.181 C 97.868 36.600,95.596 34.476,92.000 33.731 C 91.679 33.665,85.192 33.566,77.583 33.511 C 69.975 33.456,63.731 33.393,63.708 33.372 C 63.491 33.169,63.702 24.989,63.930 24.760 C 64.237 24.454,93.253 24.473,95.333 24.781 M260.066 24.764 C 260.219 25.163,260.182 83.552,260.028 83.794 C 259.924 83.958,258.802 83.995,254.989 83.961 L 250.083 83.917 250.041 54.417 C 250.017 38.192,250.033 24.823,250.077 24.708 C 250.210 24.358,259.930 24.412,260.066 24.764 M315.261 28.263 C 314.851 28.673,314.957 75.644,315.371 76.954 C 315.962 78.827,316.607 79.875,318.033 81.276 C 320.818 84.012,322.265 84.365,330.833 84.396 L 336.417 84.417 336.461 79.928 C 336.496 76.448,336.458 75.410,336.294 75.306 C 336.178 75.232,334.277 75.171,332.070 75.169 L 328.057 75.167 327.275 74.649 C 326.827 74.352,326.299 73.800,326.038 73.357 L 325.583 72.583 325.541 61.833 C 325.518 55.921,325.558 50.746,325.629 50.333 L 325.759 49.583 331.088 49.500 L 336.417 49.417 336.417 44.833 L 336.417 40.250 331.139 40.167 C 328.236 40.121,325.798 40.021,325.722 39.944 C 325.646 39.868,325.577 37.217,325.568 34.054 C 325.556 29.296,325.513 28.277,325.318 28.154 C 324.860 27.864,315.559 27.964,315.261 28.263 M324.952 28.270 L 325.321 28.369 325.369 34.171 C 325.395 37.362,325.479 40.035,325.555 40.111 C 325.632 40.188,328.069 40.287,330.972 40.333 L 336.250 40.417 336.250 44.833 L 336.250 49.250 330.953 49.294 L 325.657 49.338 325.495 49.763 C 325.195 50.553,325.285 72.229,325.592 72.964 C 326.447 75.015,327.316 75.333,332.056 75.333 C 335.162 75.333,335.998 75.380,336.149 75.562 C 336.283 75.724,336.326 77.040,336.295 80.021 L 336.250 84.250 330.833 84.239 C 324.111 84.226,322.721 84.045,320.412 82.877 C 318.070 81.692,316.311 79.476,315.483 76.667 C 315.118 75.426,315.063 28.794,315.427 28.430 C 315.697 28.160,324.021 28.021,324.952 28.270 M63.778 39.302 C 63.521 39.586,63.500 41.293,63.500 61.440 L 63.500 83.271 63.970 83.721 L 64.440 84.172 69.345 84.128 L 74.250 84.083 74.250 61.583 L 74.250 39.083 69.153 39.039 C 64.381 38.998,64.038 39.015,63.778 39.302 M74.083 61.583 L 74.083 83.917 69.345 83.961 L 64.607 84.005 64.137 83.555 L 63.667 83.104 63.667 61.440 C 63.667 41.446,63.688 39.753,63.945 39.469 C 64.205 39.182,64.542 39.165,69.153 39.206 L 74.083 39.250 74.083 61.583 M128.689 39.923 C 128.381 40.057,127.818 40.167,127.439 40.168 C 126.347 40.171,122.257 41.676,121.167 42.476 C 120.938 42.645,120.263 43.066,119.667 43.414 C 117.270 44.810,114.738 47.702,113.161 50.844 C 112.441 52.280,112.089 53.231,111.157 56.262 C 111.071 56.543,111.000 57.222,111.000 57.770 C 111.000 58.318,110.922 58.845,110.826 58.940 C 110.611 59.155,110.721 65.263,110.969 66.833 C 111.444 69.850,112.860 73.469,114.327 75.417 C 114.604 75.783,115.086 76.458,115.400 76.917 C 116.648 78.740,119.680 81.116,122.178 82.227 C 122.767 82.490,123.580 82.850,123.982 83.028 C 124.667 83.331,125.572 83.574,126.750 83.772 C 127.025 83.818,127.400 83.922,127.583 84.003 C 128.788 84.536,138.337 84.517,138.908 83.982 C 138.995 83.900,139.253 83.833,139.480 83.833 C 142.712 83.833,149.371 79.063,151.190 75.445 C 151.382 75.063,151.629 74.637,151.739 74.500 C 151.931 74.261,152.154 73.742,152.850 71.919 C 153.305 70.725,153.280 69.701,152.792 69.581 C 151.856 69.353,142.955 69.578,142.829 69.833 C 142.760 69.971,142.529 70.496,142.314 71.000 C 139.322 78.020,125.619 77.468,122.937 70.219 C 121.880 67.360,121.692 66.415,121.938 65.188 L 122.042 64.667 137.739 64.667 C 150.043 64.667,153.494 64.622,153.704 64.458 C 154.143 64.117,154.537 59.300,154.184 58.593 C 154.090 58.404,153.985 57.762,153.951 57.167 C 153.916 56.571,153.754 55.633,153.591 55.083 C 153.428 54.533,153.239 53.821,153.171 53.500 C 152.958 52.490,151.889 50.177,151.056 48.922 C 150.704 48.393,150.328 47.800,150.219 47.604 C 150.000 47.210,147.167 44.467,146.363 43.870 C 144.729 42.656,143.623 42.028,142.167 41.487 C 141.754 41.333,141.005 41.048,140.502 40.854 C 139.999 40.659,139.385 40.500,139.137 40.500 C 138.889 40.500,138.640 40.425,138.583 40.333 C 138.527 40.242,138.119 40.167,137.678 40.167 C 137.236 40.167,136.556 40.054,136.167 39.917 C 135.170 39.565,129.503 39.570,128.689 39.923 M217.833 39.917 C 217.512 40.040,216.918 40.147,216.512 40.154 C 216.106 40.161,215.543 40.237,215.262 40.323 C 214.980 40.409,214.375 40.591,213.917 40.728 C 212.332 41.201,210.034 42.197,209.250 42.750 C 208.975 42.944,208.487 43.225,208.167 43.374 C 207.846 43.524,207.287 43.950,206.925 44.323 C 206.562 44.695,206.181 45.000,206.078 45.000 C 205.726 45.000,202.667 48.405,202.667 48.798 C 202.667 48.886,202.543 49.062,202.392 49.187 C 202.084 49.443,200.333 52.921,200.333 53.277 C 200.333 53.402,200.266 53.635,200.183 53.794 C 200.100 53.953,199.945 54.421,199.838 54.833 C 199.731 55.246,199.574 55.814,199.489 56.095 C 199.403 56.377,199.333 56.810,199.333 57.059 C 199.333 57.307,199.221 57.780,199.083 58.109 C 198.889 58.574,198.833 59.459,198.833 62.083 C 198.833 64.657,198.893 65.626,199.083 66.167 C 199.221 66.556,199.333 67.067,199.333 67.301 C 199.333 67.535,199.404 67.957,199.490 68.238 C 199.576 68.520,199.851 69.425,200.100 70.250 C 200.753 72.409,201.812 74.443,203.361 76.518 C 204.033 77.417,206.216 79.667,206.417 79.667 C 206.522 79.667,206.790 79.862,207.013 80.100 C 207.235 80.338,207.765 80.710,208.191 80.927 C 208.618 81.144,209.293 81.541,209.691 81.809 C 210.090 82.077,210.777 82.417,211.217 82.565 C 211.657 82.714,212.310 82.985,212.668 83.167 C 213.027 83.350,213.544 83.500,213.817 83.500 C 214.090 83.500,214.355 83.567,214.406 83.649 C 214.456 83.731,214.817 83.845,215.207 83.903 C 215.597 83.961,216.404 84.091,217.000 84.192 C 218.386 84.427,224.582 84.430,226.000 84.197 C 227.886 83.887,228.242 83.814,228.583 83.667 C 228.767 83.588,229.329 83.395,229.833 83.238 C 230.820 82.931,234.390 81.198,235.235 80.616 C 237.739 78.892,242.167 73.462,242.167 72.117 C 242.167 72.041,242.340 71.590,242.552 71.114 C 242.764 70.639,243.032 69.912,243.147 69.500 C 243.262 69.087,243.426 68.520,243.511 68.238 C 243.597 67.957,243.667 67.335,243.667 66.858 C 243.667 66.380,243.779 65.720,243.917 65.391 C 244.105 64.940,244.167 64.105,244.167 62.001 C 244.167 59.945,244.101 59.022,243.917 58.500 C 243.779 58.110,243.667 57.525,243.667 57.199 C 243.667 56.873,243.597 56.377,243.511 56.095 C 243.426 55.814,243.266 55.246,243.157 54.833 C 243.047 54.421,242.779 53.688,242.562 53.204 C 242.345 52.720,242.167 52.248,242.167 52.155 C 242.167 51.924,241.513 50.643,241.231 50.321 C 241.104 50.176,240.827 49.715,240.615 49.296 C 238.996 46.098,233.935 42.203,229.750 40.935 C 228.925 40.684,228.020 40.409,227.738 40.323 C 227.457 40.237,226.910 40.167,226.524 40.167 C 226.138 40.167,225.553 40.054,225.224 39.917 C 224.417 39.579,218.709 39.579,217.833 39.917 M137.333 40.301 C 138.849 40.541,139.597 40.729,140.750 41.161 C 141.300 41.367,142.040 41.643,142.395 41.774 C 143.277 42.099,143.940 42.453,144.873 43.095 C 148.104 45.318,150.677 48.158,151.881 50.833 C 152.855 52.996,153.000 53.357,153.000 53.618 C 153.000 53.769,153.068 54.123,153.151 54.405 C 153.694 56.242,153.838 56.861,153.927 57.750 C 154.068 59.157,154.071 62.304,153.932 63.000 C 153.868 63.321,153.781 63.751,153.738 63.956 L 153.662 64.328 137.901 64.373 C 119.911 64.423,121.667 64.250,121.667 65.976 C 121.667 67.384,122.600 70.436,123.373 71.552 C 124.700 73.469,126.466 74.790,128.798 75.609 L 130.417 76.179 133.083 76.114 C 136.024 76.043,136.626 75.919,138.583 74.983 C 140.620 74.009,141.564 72.943,142.998 70.000 C 143.122 69.745,151.693 69.520,152.625 69.748 C 153.107 69.866,153.127 70.590,152.681 71.752 C 151.915 73.751,151.660 74.330,151.300 74.885 C 151.089 75.209,150.670 75.882,150.368 76.381 C 149.318 78.117,145.972 81.003,143.656 82.172 C 139.582 84.229,131.897 84.932,127.083 83.688 C 126.717 83.594,126.071 83.442,125.649 83.351 C 124.881 83.186,124.305 82.954,122.044 81.900 C 116.874 79.492,112.978 74.522,111.471 68.417 C 110.755 65.519,110.758 58.930,111.475 55.833 C 112.558 51.160,116.290 45.599,119.639 43.667 C 120.036 43.438,120.749 42.999,121.222 42.691 C 122.481 41.874,122.717 41.769,124.948 41.017 C 126.066 40.641,127.303 40.332,127.698 40.331 C 128.093 40.329,128.529 40.254,128.667 40.163 C 128.983 39.955,135.832 40.064,137.333 40.301 M226.333 40.301 C 229.312 40.772,232.119 41.818,234.031 43.168 C 234.426 43.447,235.350 44.075,236.083 44.564 C 237.358 45.413,239.000 46.965,239.000 47.320 C 239.000 47.413,239.244 47.765,239.542 48.102 C 240.668 49.379,242.404 52.856,242.986 55.000 C 243.098 55.413,243.259 55.980,243.345 56.262 C 243.430 56.543,243.500 57.040,243.500 57.366 C 243.500 57.692,243.612 58.277,243.750 58.667 C 243.932 59.183,244.000 60.096,244.000 62.026 C 244.000 64.006,243.937 64.829,243.750 65.276 C 243.612 65.605,243.500 66.253,243.500 66.717 C 243.500 67.180,243.430 67.790,243.345 68.072 C 243.259 68.353,243.098 68.921,242.986 69.333 C 241.566 74.567,237.687 79.231,232.652 81.758 C 227.853 84.168,220.310 85.068,215.750 83.777 C 215.567 83.725,214.892 83.558,214.250 83.407 C 213.608 83.255,212.867 83.020,212.604 82.884 C 212.340 82.747,211.771 82.531,211.339 82.403 C 210.907 82.275,210.061 81.850,209.458 81.460 C 208.855 81.069,208.149 80.619,207.889 80.458 C 206.155 79.386,204.040 77.245,202.562 75.068 C 201.795 73.938,200.711 71.590,200.261 70.083 C 200.015 69.258,199.743 68.353,199.657 68.072 C 199.570 67.790,199.500 67.368,199.500 67.134 C 199.500 66.900,199.387 66.390,199.250 66.000 C 199.062 65.467,199.000 64.518,199.000 62.167 C 199.000 59.815,199.062 58.867,199.250 58.333 C 199.387 57.944,199.500 57.433,199.500 57.199 C 199.500 56.965,199.570 56.543,199.657 56.262 C 199.743 55.980,200.015 55.075,200.261 54.250 C 201.335 50.657,204.301 46.143,206.265 45.115 C 206.532 44.976,207.008 44.593,207.324 44.264 C 207.640 43.936,207.965 43.667,208.046 43.667 C 208.127 43.667,208.581 43.411,209.055 43.098 C 210.223 42.328,212.652 41.258,214.167 40.848 C 214.579 40.736,215.147 40.574,215.428 40.489 C 215.710 40.403,216.273 40.332,216.678 40.331 C 217.084 40.329,217.529 40.254,217.667 40.163 C 217.983 39.955,224.832 40.064,226.333 40.301 M155.442 40.471 C 155.090 40.861,155.090 41.780,155.443 42.605 C 155.595 42.960,156.014 44.075,156.373 45.083 C 156.732 46.092,157.366 47.854,157.782 49.000 C 158.198 50.146,158.746 51.669,159.001 52.384 C 159.255 53.100,159.509 53.731,159.565 53.787 C 159.621 53.843,159.667 54.027,159.667 54.197 C 159.667 54.366,159.742 54.635,159.834 54.794 C 160.178 55.388,161.039 57.601,161.113 58.083 C 161.155 58.358,161.324 58.883,161.488 59.250 C 162.010 60.420,162.503 61.709,163.017 63.250 C 163.293 64.075,163.664 65.038,163.842 65.391 C 164.021 65.743,164.168 66.118,164.169 66.224 C 164.170 66.330,164.440 67.129,164.768 68.000 C 165.095 68.871,165.700 70.521,166.111 71.667 C 166.522 72.813,167.184 74.650,167.583 75.750 C 168.364 77.907,169.569 81.261,169.708 81.667 C 169.755 81.804,169.890 82.254,170.007 82.667 C 170.124 83.079,170.322 83.585,170.447 83.792 L 170.674 84.167 176.926 84.167 C 182.729 84.167,183.184 84.146,183.280 83.875 C 183.336 83.715,183.515 83.283,183.676 82.917 C 183.838 82.550,184.211 81.537,184.505 80.667 C 184.800 79.796,185.182 78.788,185.354 78.427 C 185.526 78.066,185.667 77.639,185.667 77.479 C 185.667 77.318,185.742 77.140,185.833 77.083 C 185.925 77.027,186.000 76.849,186.000 76.688 C 186.000 76.528,186.197 75.914,186.437 75.323 C 186.677 74.733,187.193 73.350,187.583 72.250 C 187.973 71.150,188.533 69.612,188.827 68.833 C 189.121 68.054,189.661 66.560,190.026 65.512 C 190.391 64.464,190.835 63.324,191.012 62.977 C 191.189 62.630,191.333 62.198,191.333 62.016 C 191.333 61.835,191.408 61.640,191.500 61.583 C 191.592 61.527,191.667 61.349,191.667 61.188 C 191.667 61.028,191.864 60.414,192.104 59.823 C 192.516 58.813,193.086 57.248,194.618 52.917 C 194.975 51.908,195.383 50.821,195.525 50.500 C 195.667 50.179,195.992 49.279,196.248 48.500 C 196.503 47.721,196.852 46.805,197.023 46.465 C 197.194 46.125,197.333 45.706,197.333 45.534 C 197.333 45.363,197.379 45.176,197.435 45.121 C 197.491 45.065,197.743 44.433,197.995 43.718 C 198.247 43.002,198.615 42.004,198.811 41.500 C 199.365 40.082,199.697 40.167,193.592 40.167 L 188.174 40.167 187.938 40.542 C 187.808 40.748,187.651 41.104,187.590 41.333 C 187.529 41.563,187.417 41.900,187.340 42.083 C 187.264 42.267,186.473 44.629,185.583 47.333 C 184.693 50.038,183.871 52.438,183.755 52.667 C 183.515 53.143,182.855 55.005,182.662 55.750 C 182.591 56.025,182.254 57.038,181.913 58.000 C 181.572 58.962,181.234 59.975,181.163 60.250 C 180.984 60.940,179.858 64.139,179.580 64.750 C 179.455 65.025,178.923 66.551,178.398 68.141 C 177.006 72.359,176.850 72.426,175.828 69.250 C 175.621 68.608,175.282 67.596,175.073 67.000 C 174.865 66.404,174.603 65.617,174.492 65.250 C 174.381 64.883,174.150 64.295,173.978 63.943 C 173.807 63.590,173.665 63.140,173.663 62.943 C 173.659 62.516,173.033 61.078,172.907 61.205 C 172.858 61.253,172.924 61.545,173.053 61.854 C 173.308 62.470,173.307 62.465,175.093 67.743 C 177.111 73.706,176.482 74.539,181.818 58.833 C 182.892 55.671,183.892 52.821,184.039 52.500 C 184.186 52.179,185.139 49.411,186.156 46.348 C 187.172 43.285,188.087 40.679,188.189 40.556 C 188.336 40.379,189.440 40.333,193.604 40.333 C 199.474 40.333,199.084 40.235,198.559 41.583 C 198.202 42.502,196.937 46.008,196.093 48.417 C 195.708 49.517,195.313 50.567,195.217 50.750 C 195.120 50.933,194.812 51.758,194.533 52.583 C 194.254 53.408,193.933 54.308,193.821 54.583 C 193.564 55.212,192.512 58.136,191.601 60.750 C 191.218 61.850,190.844 62.848,190.770 62.968 C 190.696 63.088,190.313 64.100,189.920 65.218 C 189.527 66.336,188.963 67.887,188.668 68.667 C 187.995 70.443,186.904 73.459,185.955 76.167 C 185.554 77.313,185.146 78.400,185.048 78.583 C 184.951 78.767,184.606 79.704,184.283 80.667 C 183.959 81.629,183.535 82.773,183.340 83.208 L 182.984 84.000 176.929 84.000 C 172.265 84.000,170.834 83.952,170.700 83.790 C 170.604 83.675,170.077 82.268,169.528 80.665 C 168.980 79.062,168.178 76.775,167.746 75.583 C 167.314 74.392,166.680 72.629,166.336 71.667 C 165.993 70.704,165.619 69.692,165.506 69.417 C 165.247 68.785,164.165 65.805,163.327 63.417 C 162.974 62.408,162.414 60.946,162.084 60.167 C 161.754 59.387,161.419 58.450,161.340 58.083 C 161.261 57.717,160.954 56.854,160.658 56.167 C 160.362 55.479,159.802 54.017,159.412 52.917 C 159.023 51.817,158.364 49.979,157.949 48.833 C 157.534 47.688,156.884 45.887,156.505 44.833 C 156.126 43.779,155.708 42.699,155.575 42.433 C 155.258 41.797,155.267 40.923,155.595 40.595 C 155.948 40.243,165.085 40.198,165.562 40.547 C 165.733 40.672,166.392 42.341,167.158 44.589 C 167.875 46.694,168.617 48.867,168.807 49.417 C 168.996 49.967,169.259 50.754,169.390 51.167 C 169.521 51.579,169.787 52.328,169.981 52.831 C 170.175 53.334,170.334 53.896,170.334 54.081 C 170.335 54.266,170.446 54.629,170.581 54.889 C 170.717 55.148,171.062 56.048,171.349 56.889 C 171.636 57.729,171.938 58.529,172.021 58.667 C 172.264 59.071,172.021 58.166,171.499 56.720 C 170.994 55.322,170.711 54.497,170.196 52.917 C 170.016 52.367,169.791 51.692,169.696 51.417 C 169.601 51.142,169.322 50.317,169.076 49.583 C 166.704 42.488,165.977 40.546,165.600 40.294 C 165.141 39.988,155.732 40.152,155.442 40.471 M267.280 40.275 C 267.091 40.464,267.144 67.133,267.333 67.250 C 267.425 67.307,267.500 67.962,267.500 68.706 C 267.500 69.451,267.568 70.290,267.651 70.572 C 267.810 71.107,268.166 72.395,268.507 73.667 C 269.277 76.537,271.299 79.374,274.266 81.750 C 278.294 84.975,288.174 85.433,293.132 82.624 C 293.818 82.235,294.726 81.613,295.148 81.242 C 295.571 80.870,296.104 80.440,296.333 80.285 C 296.563 80.129,296.919 79.880,297.125 79.731 C 297.654 79.348,297.998 79.672,298.007 80.562 C 298.011 80.940,298.123 81.550,298.255 81.917 C 298.387 82.283,298.496 82.815,298.497 83.099 C 298.503 84.150,298.636 84.177,303.433 84.128 L 307.750 84.083 307.750 62.167 L 307.750 40.250 302.583 40.250 L 297.417 40.250 297.320 52.917 C 297.224 65.505,297.176 66.550,296.618 68.088 C 295.129 72.193,292.347 74.852,289.167 75.211 C 283.368 75.865,279.912 73.874,278.676 69.167 C 278.568 68.754,278.390 68.192,278.282 67.917 C 278.137 67.552,278.061 63.749,278.000 53.833 L 277.917 40.250 272.655 40.206 C 269.761 40.182,267.342 40.213,267.280 40.275 M277.836 54.000 C 277.903 64.580,277.971 67.731,278.141 68.250 C 278.262 68.617,278.466 69.236,278.595 69.626 C 280.143 74.302,283.366 76.044,289.250 75.384 C 292.520 75.017,295.255 72.435,296.757 68.298 C 297.349 66.667,297.390 65.809,297.487 53.083 L 297.583 40.417 302.583 40.417 L 307.583 40.417 307.583 62.167 L 307.583 83.917 303.417 83.957 C 301.125 83.980,299.144 83.930,299.014 83.847 C 298.784 83.700,298.637 83.041,298.349 80.877 C 298.159 79.453,297.609 78.923,296.970 79.550 C 296.849 79.669,296.412 79.997,296.000 80.280 C 295.587 80.563,295.100 80.961,294.917 81.165 C 294.733 81.369,294.246 81.719,293.833 81.943 C 293.421 82.167,292.783 82.532,292.417 82.754 C 290.660 83.819,288.553 84.206,284.500 84.211 C 281.301 84.214,279.955 84.030,277.583 83.265 C 273.698 82.012,269.675 77.636,268.683 73.583 C 268.402 72.435,268.208 71.700,267.979 70.917 C 267.871 70.550,267.713 69.537,267.626 68.667 C 267.464 67.036,267.263 40.924,267.409 40.542 C 267.474 40.373,268.570 40.338,272.621 40.373 L 277.750 40.417 277.836 54.000 M131.333 47.993 C 131.196 48.086,130.735 48.163,130.308 48.164 C 129.837 48.166,129.184 48.329,128.642 48.582 C 128.151 48.810,127.649 48.997,127.526 48.998 C 126.987 49.002,124.222 51.532,123.387 52.786 C 122.236 54.516,121.772 56.777,122.489 57.161 C 123.002 57.436,142.518 57.396,142.896 57.119 C 144.012 56.303,142.126 51.774,140.099 50.402 C 139.632 50.087,138.999 49.645,138.693 49.420 C 137.895 48.836,136.434 48.316,135.083 48.134 C 133.143 47.873,131.598 47.815,131.333 47.993 M135.000 48.304 C 136.678 48.555,138.502 49.315,139.364 50.123 C 139.611 50.353,139.981 50.626,140.187 50.729 C 141.238 51.255,143.044 54.694,142.968 56.025 L 142.917 56.917 132.667 56.917 L 122.417 56.917 122.362 56.344 C 122.167 54.290,125.958 49.167,127.674 49.167 C 127.756 49.167,128.233 48.979,128.734 48.750 C 129.299 48.492,129.951 48.332,130.448 48.331 C 130.889 48.329,131.362 48.252,131.500 48.160 C 131.767 47.980,133.234 48.040,135.000 48.304 M217.833 49.056 C 214.172 50.314,211.180 53.422,210.186 57.000 C 210.071 57.413,209.907 57.980,209.822 58.262 C 209.606 58.972,209.626 65.223,209.847 66.064 C 210.289 67.752,210.421 68.139,210.856 69.023 C 211.773 70.883,214.009 73.421,215.500 74.291 C 217.517 75.468,222.092 76.118,224.072 75.509 C 224.353 75.423,225.022 75.226,225.557 75.072 C 228.484 74.232,231.334 71.330,232.501 68.000 C 233.641 64.749,233.563 58.730,232.343 55.839 C 229.894 50.033,223.580 47.082,217.833 49.056 M224.917 49.113 C 227.146 49.670,230.830 52.834,231.772 55.000 C 232.496 56.666,232.726 57.344,232.791 58.000 C 232.832 58.413,232.933 58.821,233.016 58.908 C 233.226 59.129,233.211 65.286,233.000 65.417 C 232.908 65.473,232.831 65.721,232.829 65.968 C 232.798 68.951,228.025 74.832,225.635 74.833 C 225.480 74.833,225.312 74.900,225.261 74.982 C 224.866 75.621,219.021 75.622,217.794 74.984 C 217.635 74.901,217.410 74.833,217.294 74.833 C 215.311 74.832,211.248 70.343,210.355 67.167 C 210.239 66.754,210.074 66.186,209.989 65.905 C 209.903 65.623,209.833 63.941,209.833 62.167 C 209.833 60.392,209.903 58.710,209.989 58.428 C 210.074 58.147,210.236 57.579,210.348 57.167 C 211.008 54.736,213.821 51.096,215.833 50.069 C 218.106 48.910,222.326 48.465,224.917 49.113 M172.338 59.605 C 172.474 60.205,172.833 60.766,172.833 60.377 C 172.833 60.272,172.758 60.140,172.667 60.083 C 172.575 60.027,172.500 59.802,172.500 59.583 C 172.500 59.365,172.433 59.145,172.351 59.094 C 172.265 59.041,172.259 59.256,172.338 59.605 " stroke="none" fill="#747475" fill-rule="evenodd"></path><path id="path4" d="M71.708 24.292 C 75.810 24.316,82.523 24.316,86.625 24.292 C 90.727 24.267,87.371 24.246,79.167 24.246 C 70.962 24.246,67.606 24.267,71.708 24.292 M252.719 24.291 C 254.076 24.319,256.251 24.319,257.552 24.291 C 258.853 24.263,257.742 24.240,255.083 24.240 C 252.425 24.240,251.361 24.263,252.719 24.291 M249.748 54.250 C 249.748 70.383,249.768 76.959,249.792 68.862 C 249.816 60.765,249.816 47.565,249.792 39.528 C 249.768 31.492,249.748 38.117,249.748 54.250 M325.572 34.833 C 325.572 36.987,325.595 37.869,325.624 36.792 C 325.653 35.715,325.653 33.952,325.624 32.875 C 325.595 31.798,325.572 32.679,325.572 34.833 M92.042 34.115 C 92.202 34.157,92.465 34.157,92.625 34.115 C 92.785 34.073,92.654 34.039,92.333 34.039 C 92.013 34.039,91.881 34.073,92.042 34.115 M74.414 61.667 C 74.414 73.904,74.434 78.910,74.458 72.792 C 74.483 66.673,74.483 56.660,74.458 50.542 C 74.434 44.423,74.414 49.429,74.414 61.667 M127.211 40.120 C 127.464 40.158,127.839 40.157,128.044 40.117 C 128.249 40.078,128.042 40.046,127.583 40.048 C 127.125 40.049,126.957 40.081,127.211 40.120 M137.044 40.120 C 137.297 40.158,137.672 40.157,137.877 40.117 C 138.082 40.078,137.875 40.046,137.417 40.048 C 136.958 40.049,136.791 40.081,137.044 40.120 M158.292 40.125 C 159.598 40.153,161.735 40.153,163.042 40.125 C 164.348 40.096,163.279 40.073,160.667 40.073 C 158.054 40.073,156.985 40.096,158.292 40.125 M190.875 40.125 C 192.319 40.152,194.681 40.152,196.125 40.125 C 197.569 40.097,196.387 40.074,193.500 40.074 C 190.612 40.074,189.431 40.097,190.875 40.125 M216.211 40.120 C 216.464 40.158,216.839 40.157,217.044 40.117 C 217.249 40.078,217.042 40.046,216.583 40.048 C 216.125 40.049,215.957 40.081,216.211 40.120 M225.958 40.118 C 226.165 40.157,226.502 40.157,226.708 40.118 C 226.915 40.078,226.746 40.045,226.333 40.045 C 225.921 40.045,225.752 40.078,225.958 40.118 M270.135 40.125 C 271.539 40.153,273.789 40.153,275.135 40.125 C 276.482 40.097,275.333 40.074,272.583 40.074 C 269.833 40.074,268.732 40.097,270.135 40.125 M300.219 40.125 C 301.576 40.153,303.751 40.153,305.052 40.125 C 306.353 40.096,305.242 40.073,302.583 40.074 C 299.925 40.074,298.861 40.097,300.219 40.125 M328.458 40.125 C 329.856 40.153,332.144 40.153,333.542 40.125 C 334.940 40.097,333.796 40.074,331.000 40.074 C 328.204 40.074,327.060 40.097,328.458 40.125 M278.079 53.833 C 278.079 61.212,278.100 64.231,278.125 60.542 C 278.150 56.852,278.150 50.815,278.125 47.125 C 278.100 43.435,278.079 46.454,278.079 53.833 M98.883 41.833 C 98.883 42.337,98.915 42.544,98.953 42.292 C 98.991 42.040,98.991 41.627,98.953 41.375 C 98.915 41.123,98.883 41.329,98.883 41.833 M238.000 45.917 C 238.591 46.512,239.111 47.000,239.157 47.000 C 239.203 47.000,238.757 46.512,238.167 45.917 C 237.576 45.321,237.055 44.833,237.010 44.833 C 236.964 44.833,237.409 45.321,238.000 45.917 M204.495 46.292 L 203.417 47.417 204.542 46.338 C 205.160 45.745,205.667 45.239,205.667 45.213 C 205.667 45.090,205.497 45.247,204.495 46.292 M129.877 48.453 C 130.131 48.491,130.506 48.490,130.711 48.451 C 130.916 48.411,130.708 48.380,130.250 48.381 C 129.792 48.382,129.624 48.415,129.877 48.453 M134.711 48.453 C 134.964 48.491,135.339 48.490,135.544 48.451 C 135.749 48.411,135.542 48.380,135.083 48.381 C 134.625 48.382,134.457 48.415,134.711 48.453 M124.994 51.125 L 124.083 52.083 125.042 51.172 C 125.569 50.671,126.000 50.240,126.000 50.214 C 126.000 50.090,125.841 50.235,124.994 51.125 M325.577 60.333 C 325.577 65.054,325.599 66.985,325.625 64.625 C 325.651 62.265,325.651 58.402,325.625 56.042 C 325.599 53.681,325.577 55.612,325.577 60.333 M199.205 57.167 C 199.205 57.487,199.240 57.619,199.282 57.458 C 199.323 57.298,199.323 57.035,199.282 56.875 C 199.240 56.715,199.205 56.846,199.205 57.167 M243.712 57.333 C 243.712 57.746,243.745 57.915,243.784 57.708 C 243.824 57.502,243.824 57.165,243.784 56.958 C 243.745 56.752,243.712 56.921,243.712 57.333 M95.542 58.615 C 95.702 58.657,95.965 58.657,96.125 58.615 C 96.285 58.573,96.154 58.539,95.833 58.539 C 95.513 58.539,95.381 58.573,95.542 58.615 M110.569 62.333 C 110.569 63.938,110.594 64.594,110.624 63.792 C 110.655 62.990,110.655 61.677,110.624 60.875 C 110.594 60.073,110.569 60.729,110.569 62.333 M121.883 66.167 C 121.883 66.671,121.915 66.877,121.953 66.625 C 121.991 66.373,121.991 65.960,121.953 65.708 C 121.915 65.456,121.883 65.662,121.883 66.167 M243.718 66.750 C 243.719 67.300,243.750 67.505,243.787 67.205 C 243.825 66.906,243.824 66.456,243.786 66.205 C 243.748 65.955,243.717 66.200,243.718 66.750 M296.872 66.667 C 296.872 66.987,296.906 67.119,296.948 66.958 C 296.990 66.798,296.990 66.535,296.948 66.375 C 296.906 66.215,296.872 66.346,296.872 66.667 M199.205 67.167 C 199.205 67.487,199.240 67.619,199.282 67.458 C 199.323 67.298,199.323 67.035,199.282 66.875 C 199.240 66.715,199.205 66.846,199.205 67.167 M153.205 70.500 C 153.205 70.821,153.240 70.952,153.282 70.792 C 153.323 70.631,153.323 70.369,153.282 70.208 C 153.240 70.048,153.205 70.179,153.205 70.500 M140.579 73.208 L 139.417 74.417 140.625 73.254 C 141.290 72.615,141.833 72.072,141.833 72.046 C 141.833 71.924,141.658 72.086,140.579 73.208 M280.750 73.167 C 281.201 73.625,281.608 74.000,281.654 74.000 C 281.700 74.000,281.368 73.625,280.917 73.167 C 280.465 72.708,280.058 72.333,280.013 72.333 C 279.967 72.333,280.299 72.708,280.750 73.167 M131.542 75.957 C 132.252 75.988,133.415 75.988,134.125 75.957 C 134.835 75.926,134.254 75.900,132.833 75.900 C 131.412 75.900,130.831 75.926,131.542 75.957 M148.746 78.708 L 147.583 79.917 148.792 78.754 C 149.456 78.115,150.000 77.572,150.000 77.546 C 150.000 77.424,149.825 77.586,148.746 78.708 M204.917 78.500 C 205.461 79.050,205.944 79.500,205.990 79.500 C 206.035 79.500,205.628 79.050,205.083 78.500 C 204.539 77.950,204.056 77.500,204.010 77.500 C 203.965 77.500,204.372 77.950,204.917 78.500 M272.083 80.000 C 272.720 80.642,273.279 81.167,273.324 81.167 C 273.370 81.167,272.887 80.642,272.250 80.000 C 271.613 79.358,271.055 78.833,271.009 78.833 C 270.963 78.833,271.447 79.358,272.083 80.000 M317.917 81.333 C 318.646 82.067,319.280 82.667,319.326 82.667 C 319.371 82.667,318.812 82.067,318.083 81.333 C 317.354 80.600,316.720 80.000,316.674 80.000 C 316.629 80.000,317.188 80.600,317.917 81.333 M298.372 82.833 C 298.372 83.154,298.406 83.285,298.448 83.125 C 298.490 82.965,298.490 82.702,298.448 82.542 C 298.406 82.381,298.372 82.512,298.372 82.833 M131.717 84.624 C 132.616 84.654,134.041 84.654,134.884 84.624 C 135.727 84.594,134.992 84.569,133.250 84.569 C 131.508 84.570,130.818 84.594,131.717 84.624 M219.958 84.624 C 220.806 84.654,222.194 84.654,223.042 84.624 C 223.890 84.594,223.196 84.569,221.500 84.569 C 219.804 84.569,219.110 84.594,219.958 84.624 M283.125 84.624 C 283.881 84.655,285.119 84.655,285.875 84.624 C 286.631 84.593,286.012 84.568,284.500 84.568 C 282.987 84.568,282.369 84.593,283.125 84.624 M328.125 84.625 C 329.615 84.652,332.052 84.652,333.542 84.625 C 335.031 84.597,333.813 84.574,330.833 84.574 C 327.854 84.574,326.635 84.597,328.125 84.625 " stroke="none" fill="#777c7c" fill-rule="evenodd"></path></g></svg>