<svg version="1.1" id="Layer_1" xmlns="http://www.w3.org/2000/svg" xmlns:xlink="http://www.w3.org/1999/xlink" x="0px" y="0px"
	 width="100%" viewBox="0 0 3736 1127" enable-background="new 0 0 3736 1127" xml:space="preserve">
<path fill="#D8D8D8" opacity="1.000000" stroke="none" 
	d="
M2.000000,736.000000 
	C2.000000,733.222229 2.000000,730.444397 2.570487,727.130615 
	C2.760651,725.729797 2.380329,724.864868 2.000003,724.000000 
	C2.000000,619.291565 2.000000,514.583069 2.569904,408.540527 
	C3.910301,402.648956 4.680794,398.091522 5.549910,392.912201 
	C5.625458,391.032135 5.602384,389.773956 5.834185,388.135620 
	C6.265017,387.138855 6.214363,386.541412 6.115726,385.146606 
	C9.221575,360.920135 14.528240,338.092957 21.824865,315.626587 
	C38.838802,263.240601 66.296051,217.028046 103.600807,176.730270 
	C136.027954,141.701462 173.917099,113.914436 217.108414,93.354279 
	C265.532593,70.303146 316.385040,57.381054 370.073395,57.375809 
	C1370.512085,57.278107 2370.950928,57.303905 3371.389648,57.304726 
	C3411.299561,57.304760 3449.923584,64.588326 3487.549316,77.674576 
	C3550.853271,99.691887 3604.426025,136.186188 3648.317383,186.664017 
	C3683.686523,227.341003 3709.292969,273.621124 3724.266357,325.497314 
	C3728.392822,339.793884 3731.025146,354.521851 3734.335205,369.053650 
	C3734.783447,371.020752 3734.486572,373.865692 3738.000000,372.000000 
	C3738.000000,375.428711 3738.000000,378.857422 3737.341797,382.950256 
	C3737.122314,385.076233 3737.561035,386.538147 3738.000000,388.000031 
	C3738.000000,511.375122 3738.000000,634.750244 3737.382324,758.344238 
	C3735.958740,759.877625 3734.769043,761.094055 3734.404541,762.521240 
	C3729.652588,781.123352 3726.033203,800.082336 3720.159668,818.317322 
	C3703.714111,869.375732 3676.538574,914.421509 3640.237061,953.794495 
	C3606.483887,990.403198 3566.860352,1019.215332 3521.571289,1040.065063 
	C3473.859375,1062.030029 3423.831787,1074.061157 3371.188232,1074.063232 
	C2371.200195,1074.101807 1371.212036,1074.103516 371.223877,1073.974609 
	C356.976990,1073.972778 342.596771,1073.140747 328.505188,1071.118408 
	C236.742554,1057.948608 159.472763,1017.180420 97.750847,947.832214 
	C44.414776,887.905945 13.834548,817.738220 5.180264,737.386108 
	C4.341651,735.676208 3.888839,732.817383 2.000000,736.000000 
M1430.777954,731.925110 
	C1432.145142,726.811401 1434.176514,721.767944 1434.726196,716.567810 
	C1435.579956,708.491150 1433.515747,706.497131 1425.262329,706.432678 
	C1406.933105,706.289490 1388.602051,706.378601 1370.271729,706.377014 
	C1361.939819,706.376282 1353.602905,706.560730 1345.277588,706.327209 
	C1339.819214,706.174133 1336.971191,708.150085 1335.197754,713.630188 
	C1331.889282,723.853333 1325.987549,732.479431 1318.193604,740.229126 
	C1300.474487,757.847839 1279.255371,766.004761 1254.625366,766.259949 
	C1248.293823,766.325562 1241.954346,766.088013 1235.630127,766.313782 
	C1226.899292,766.625427 1218.627808,765.232117 1210.180176,762.674316 
	C1192.834473,757.422424 1178.112793,748.521667 1165.854614,735.258423 
	C1158.029785,726.792114 1152.896240,716.764099 1149.493896,705.998718 
	C1146.528687,696.616638 1143.570801,686.927063 1142.855347,677.208069 
	C1141.667480,661.074036 1142.425903,661.006409 1158.258545,661.005737 
	C1247.577271,661.001587 1336.896118,661.005615 1426.214844,660.995056 
	C1429.544922,660.994690 1432.971436,661.323730 1436.168701,660.638794 
	C1438.083252,660.228638 1440.797119,658.402283 1441.160645,656.769287 
	C1442.948730,648.735352 1444.773315,640.597229 1445.286987,632.414429 
	C1446.499023,613.105347 1442.266479,594.328735 1438.924805,575.435364 
	C1436.358643,560.926025 1431.644287,547.162415 1425.770996,533.893555 
	C1418.625244,517.749756 1408.854492,503.009705 1396.411865,490.344116 
	C1388.288574,482.075195 1379.421509,474.605347 1370.546631,467.091614 
	C1354.847534,453.800415 1336.781372,445.772827 1318.043579,439.267273 
	C1296.427612,431.762482 1273.900879,427.664429 1250.766479,428.130798 
	C1239.772705,428.352417 1228.730713,427.586823 1217.784058,428.338470 
	C1207.270752,429.060394 1196.436890,429.836212 1186.481934,432.948456 
	C1167.872070,438.766479 1149.265991,444.422394 1132.368408,455.336548 
	C1118.864868,464.058533 1105.659790,472.620148 1094.737061,484.476868 
	C1088.650146,491.084167 1081.076660,496.687592 1076.386108,504.136871 
	C1067.551270,518.167786 1059.159668,532.718689 1052.734009,547.959961 
	C1045.823486,564.351196 1039.638428,581.361450 1039.962280,599.750183 
	C1039.991211,601.393677 1040.027954,603.277649 1039.305420,604.653076 
	C1035.696289,611.523071 1036.168945,618.913574 1036.499512,626.188660 
	C1037.279541,643.362549 1035.295410,660.468872 1039.343994,677.780518 
	C1042.029663,689.264587 1043.683838,701.119202 1047.102539,712.520752 
	C1054.962402,738.734436 1068.944946,761.676697 1086.258301,782.496765 
	C1101.105591,800.351257 1119.882935,813.514709 1140.635376,823.878357 
	C1154.629761,830.867004 1169.179321,836.458618 1184.373413,839.998657 
	C1197.536011,843.065247 1210.868652,846.622314 1224.254028,847.254761 
	C1251.385620,848.536621 1278.516235,848.321777 1305.249146,841.161072 
	C1325.301025,835.789978 1344.788696,829.735840 1361.744873,817.322937 
	C1367.083374,813.414856 1372.406616,809.484619 1377.793945,805.644653 
	C1389.255493,797.474976 1399.061646,787.700439 1407.191162,776.180908 
	C1416.609985,762.834167 1423.940430,748.395203 1430.777954,731.925110 
M2174.201904,449.074005 
	C2146.326660,435.613983 2116.816162,428.972443 2085.960938,428.220551 
	C2073.973877,427.928406 2061.935791,427.585144 2049.990479,428.350983 
	C2039.147949,429.046143 2028.176270,430.326233 2017.669067,432.969086 
	C2005.528931,436.022614 1993.865112,440.940948 1981.940186,444.885315 
	C1963.699097,450.918976 1947.726196,460.726074 1933.490601,473.514923 
	C1932.259399,474.621155 1930.778564,475.449890 1929.548584,476.557312 
	C1921.424805,483.871674 1911.937988,490.182800 1905.524292,498.781738 
	C1891.210327,517.972595 1878.790283,538.540466 1871.907227,561.800659 
	C1865.228149,584.371338 1859.279541,607.066101 1860.618408,631.030762 
	C1861.230835,641.991455 1860.687378,653.014771 1860.754272,664.009155 
	C1860.770386,666.658264 1860.808716,669.377441 1861.387695,671.939941 
	C1863.349731,680.623230 1865.170776,689.369263 1867.765747,697.871460 
	C1871.531860,710.210632 1875.276733,722.627686 1880.216797,734.518799 
	C1886.218262,748.964722 1895.437134,761.531921 1904.500122,774.350098 
	C1915.373779,789.729797 1929.211914,801.410339 1944.312622,811.364624 
	C1956.626831,819.481934 1969.477783,827.141296 1983.905518,832.088196 
	C1999.959351,837.592712 2015.993408,842.252319 2032.850586,844.082031 
	C2035.144653,844.331055 2037.387817,845.018860 2039.668335,845.427185 
	C2043.874268,846.180298 2048.123779,847.646606 2052.296631,847.465454 
	C2071.782959,846.619568 2091.439941,850.139648 2110.773682,844.268677 
	C2119.544678,841.605164 2129.073486,841.525696 2137.987793,839.225830 
	C2156.791748,834.374146 2173.980957,825.471741 2190.996094,816.368408 
	C2196.821045,813.251892 2203.060303,810.088623 2207.544678,805.437317 
	C2222.277588,790.155762 2239.424561,777.158203 2251.129639,758.962952 
	C2263.295654,740.051453 2271.076172,719.443054 2277.194092,697.943970 
	C2279.608887,689.457214 2278.592773,680.542175 2281.019775,672.520935 
	C2284.223145,661.932983 2283.061279,651.460754 2283.832520,640.929993 
	C2285.153320,622.896118 2282.910645,605.072876 2279.675049,587.539612 
	C2275.932617,567.260315 2268.148926,548.098083 2258.779053,529.696472 
	C2256.684814,525.583191 2253.951660,521.763000 2251.246094,517.999634 
	C2244.109863,508.073090 2237.532227,497.625916 2229.450195,488.524109 
	C2214.469971,471.653412 2194.384766,461.452423 2174.201904,449.074005 
M817.000000,283.869385 
	C759.336121,283.869385 701.672180,283.868225 644.008301,283.870483 
	C632.008789,283.870941 620.006409,283.724487 608.010803,283.944580 
	C599.343079,284.103577 596.336182,286.880737 596.261841,295.276978 
	C596.060974,317.940887 596.086426,340.608459 596.250000,363.272949 
	C596.302795,370.579529 597.700073,371.638123 605.268188,371.994019 
	C607.596558,372.103516 609.933899,372.026733 612.267090,372.026733 
	C673.931274,372.026978 735.598267,371.688354 797.258118,372.205139 
	C819.411987,372.390808 841.607483,369.845581 863.804871,375.214996 
	C877.689697,378.573700 890.882751,381.537262 900.599670,392.861298 
	C902.764038,395.383606 905.200928,397.691162 907.653809,399.943573 
	C921.317505,412.490662 926.493164,429.073914 926.844238,446.546173 
	C927.303345,469.394409 915.511719,487.464905 899.798889,503.143036 
	C899.335022,503.605774 898.731934,503.939636 898.165649,504.287781 
	C881.991821,514.230835 864.300049,519.462524 845.429810,519.721191 
	C816.103149,520.123108 786.766785,519.764160 757.435059,519.874390 
	C748.640259,519.907410 747.586792,520.944092 747.534790,529.726990 
	C747.398682,552.725220 747.326904,575.727051 747.651611,598.721497 
	C747.703796,602.416992 749.216675,606.551514 751.279663,609.673340 
	C757.669861,619.343262 764.719543,628.574585 771.384399,638.066528 
	C778.428833,648.099243 785.171631,658.346252 792.323181,668.300598 
	C802.372498,682.288147 812.704346,696.072388 822.850952,709.990601 
	C824.998169,712.935974 826.689514,716.219727 828.896790,719.114380 
	C837.729797,730.698120 846.979431,741.975586 855.515930,753.770935 
	C865.810852,767.996155 875.439575,782.701477 885.541504,797.069031 
	C894.113220,809.260254 902.817566,821.363586 911.715881,833.317688 
	C916.852417,840.218323 922.979919,844.425598 932.688965,844.230042 
	C964.341492,843.592468 996.015015,844.034424 1027.680176,843.934692 
	C1031.444214,843.922852 1035.206055,843.130676 1040.180664,842.561523 
	C1038.661987,839.122192 1038.081177,836.922974 1036.851929,835.181519 
	C1032.457642,828.956787 1027.702393,822.985840 1023.341614,816.738831 
	C1014.043579,803.418945 1005.143311,789.815918 995.647644,776.640625 
	C982.088989,757.827820 968.123047,739.308899 954.382263,720.626770 
	C952.222900,717.690918 950.494873,714.433594 948.290344,711.535767 
	C939.468506,699.939819 930.252625,688.633118 921.711487,676.836487 
	C907.917603,657.784790 894.481079,638.472595 881.061951,619.153381 
	C879.325806,616.653992 878.591492,613.458740 877.098633,609.879883 
	C883.686951,607.940002 888.933472,605.715576 894.389587,604.909363 
	C915.158142,601.840759 933.708557,593.614868 951.501221,582.739685 
	C963.141296,575.625061 971.193909,564.913086 981.266296,556.295044 
	C995.256958,544.324524 1005.712891,529.835571 1012.020569,512.721191 
	C1017.394592,498.140198 1023.951721,483.307556 1025.440552,468.140167 
	C1027.796143,444.142700 1027.535034,419.794678 1018.928345,396.283600 
	C1011.432129,375.805969 1001.992981,356.533112 988.241150,339.638062 
	C975.902466,324.479187 959.972900,313.532837 943.096130,304.019928 
	C917.951965,289.846832 890.729004,283.760101 861.998230,283.841766 
	C847.665527,283.882538 833.332764,283.861969 817.000000,283.869385 
M2600.930908,473.001892 
	C2600.928955,463.003845 2600.994141,453.005219 2600.906250,443.007904 
	C2600.813965,432.520782 2600.160645,431.908691 2589.328369,431.816162 
	C2580.996826,431.745026 2572.664062,431.797272 2564.332031,431.798218 
	C2545.668213,431.800293 2527.003418,431.709991 2508.340576,431.849884 
	C2499.674316,431.914856 2498.697266,433.077148 2498.437256,441.732727 
	C2498.357178,444.396637 2498.417480,447.064911 2498.417480,449.731171 
	C2498.416992,518.721008 2498.356201,587.710938 2498.477539,656.700500 
	C2498.497314,667.921204 2496.774658,679.357544 2501.574463,690.217102 
	C2502.329834,691.925964 2501.949219,694.165222 2501.979736,696.160950 
	C2502.112549,704.774902 2502.747803,713.145386 2504.726807,721.749634 
	C2508.998779,740.322449 2514.809326,758.058228 2523.575684,775.028015 
	C2536.097900,799.268738 2555.455566,816.218689 2578.586914,829.630005 
	C2590.854248,836.742432 2604.428711,840.107300 2617.941406,843.310608 
	C2627.846680,845.658630 2638.165283,847.276367 2648.313232,847.350220 
	C2663.811768,847.463013 2679.330078,848.945068 2694.882812,844.599915 
	C2701.955811,842.623840 2709.783203,842.225891 2717.145508,840.138733 
	C2732.436768,835.803711 2745.473389,827.259949 2758.284912,818.383179 
	C2765.076416,813.677490 2771.140137,807.934631 2777.763672,802.968384 
	C2782.411133,799.483521 2785.986816,801.075806 2786.939453,806.856873 
	C2788.332764,815.313110 2789.700684,823.784119 2790.684082,832.294434 
	C2791.739258,841.422058 2793.907227,843.822266 2803.320557,843.929016 
	C2817.649902,844.091370 2831.982422,843.987244 2846.313477,843.984558 
	C2854.645508,843.982971 2862.984619,844.162781 2871.307373,843.877808 
	C2877.619629,843.661560 2878.660400,842.358276 2879.165771,836.052246 
	C2879.271973,834.726868 2879.208252,833.387207 2879.208252,832.054138 
	C2879.207275,702.406616 2879.215820,572.759033 2879.182617,443.111511 
	C2879.179932,432.557312 2878.444092,431.855072 2867.688232,431.825592 
	C2842.358887,431.756226 2817.029053,431.799530 2791.699463,431.806213 
	C2790.034180,431.806641 2788.365479,431.831543 2786.704102,431.933899 
	C2782.786133,432.175323 2780.552490,434.226807 2780.359131,438.202515 
	C2780.229980,440.863434 2780.258301,443.533173 2780.258301,446.198975 
	C2780.255127,513.522400 2779.964600,580.848145 2780.515869,648.167114 
	C2780.621094,661.008179 2778.996338,673.639404 2775.665771,685.434753 
	C2769.992920,705.526855 2761.940674,725.085205 2745.474609,739.604065 
	C2732.722656,750.847839 2718.940918,758.346985 2701.177002,759.686340 
	C2690.324707,760.504578 2680.064697,761.028870 2669.165771,759.502563 
	C2650.242920,756.852844 2633.624512,750.514099 2621.589355,735.465454 
	C2616.691895,729.341675 2613.289307,721.759460 2610.357666,714.383362 
	C2604.965576,700.818604 2600.807373,686.936096 2600.850098,671.971924 
	C2601.038086,606.315491 2600.930176,540.658203 2600.930908,473.001892 
M1669.000000,843.993774 
	C1681.996338,843.986755 1694.992798,843.987854 1707.989136,843.967407 
	C1711.394043,843.962036 1714.734375,843.834045 1716.251953,839.889893 
	C1718.754395,833.385498 1721.493774,826.967407 1723.831421,820.405396 
	C1731.406982,799.139221 1738.578003,777.725342 1746.404907,756.553284 
	C1755.958374,730.711609 1766.251221,705.143127 1775.796875,679.298767 
	C1786.261475,650.966553 1796.266357,622.464111 1806.408813,594.013550 
	C1808.863281,587.128418 1810.896240,580.090759 1813.428101,573.235962 
	C1819.982788,555.489868 1826.765381,537.828125 1833.349365,520.092712 
	C1842.129761,496.440582 1850.865723,472.771576 1859.483276,449.059875 
	C1861.246216,444.208862 1862.402100,439.137238 1864.208740,432.883453 
	C1859.658691,432.430298 1856.481689,431.847412 1853.302979,431.839050 
	C1825.644775,431.766266 1797.986206,431.763550 1770.327759,431.813171 
	C1760.186157,431.831360 1758.570801,433.202209 1755.289062,442.773926 
	C1742.577148,479.852936 1729.719727,516.882202 1717.067383,553.981506 
	C1699.056763,606.792725 1681.181641,659.650146 1663.240112,712.484985 
	C1661.766602,716.824280 1660.639648,721.432556 1654.595947,724.091919 
	C1652.963989,721.258057 1650.927979,718.756226 1649.967529,715.893494 
	C1641.318359,690.117432 1633.661377,663.970581 1623.953613,638.605896 
	C1619.973633,628.207031 1616.176880,617.724487 1612.341675,607.265320 
	C1607.429688,593.869507 1602.373779,580.516235 1597.899170,566.973083 
	C1592.715698,551.283813 1588.285767,535.346436 1583.165894,519.635071 
	C1579.670410,508.908966 1575.416138,498.432587 1571.748779,487.759460 
	C1566.890381,473.619537 1562.339600,459.374176 1557.532349,445.216278 
	C1553.588989,433.602875 1551.020508,431.823608 1538.666138,431.802032 
	C1519.005249,431.767639 1499.344482,431.787842 1479.683594,431.793335 
	C1474.018799,431.794952 1468.341431,431.595032 1462.692139,431.900299 
	C1455.401245,432.294250 1452.344971,435.255280 1452.348877,442.515594 
	C1452.350952,446.370789 1453.445679,450.318939 1454.595459,454.056519 
	C1456.055298,458.802124 1458.155884,463.346436 1459.828857,468.031616 
	C1462.731567,476.160828 1465.382446,484.381775 1468.381470,492.474396 
	C1474.609009,509.279572 1481.870483,525.758423 1487.097168,542.863342 
	C1493.789795,564.766418 1503.661133,585.422974 1510.364746,607.359070 
	C1517.232422,629.832947 1527.333618,651.303223 1535.614014,673.364929 
	C1545.295410,699.159668 1554.689209,725.065125 1563.929932,751.021545 
	C1573.506348,777.920898 1582.783813,804.927002 1592.123535,831.910095 
	C1596.266357,843.879028 1596.193970,843.952209 1609.017212,843.979248 
	C1628.344727,844.020020 1647.672363,843.992432 1669.000000,843.993774 
M2945.878418,453.000000 
	C2945.878418,548.302490 2945.857422,643.604919 2945.903809,738.907410 
	C2945.909912,751.484375 2945.342041,763.988281 2948.961670,776.462219 
	C2952.171387,787.523865 2956.471191,798.121643 2963.582520,806.718201 
	C2974.170410,819.517822 2986.074707,831.421692 3002.460938,837.095886 
	C3008.698486,839.255859 3014.979736,841.489685 3021.420654,842.815735 
	C3031.095703,844.807434 3040.905762,847.160400 3050.699951,847.365662 
	C3079.344971,847.965942 3108.010498,847.642212 3136.667480,847.543518 
	C3145.833496,847.511963 3146.869141,846.433533 3146.916260,837.002869 
	C3147.027588,814.677307 3147.018066,792.350586 3146.924561,770.024841 
	C3146.883545,760.174255 3145.894775,759.217224 3135.933105,759.170593 
	C3116.273193,759.078552 3096.562744,758.277954 3076.968506,759.416687 
	C3061.785400,760.299194 3044.337891,742.701111 3044.520264,726.849182 
	C3045.266846,661.878845 3044.810303,596.894836 3044.848877,531.915894 
	C3044.855469,520.764771 3045.631348,520.014954 3056.807129,519.988953 
	C3082.798828,519.928528 3108.790283,519.999146 3134.781982,519.950317 
	C3146.184814,519.928894 3146.894531,519.278870 3146.933838,508.273956 
	C3147.011719,486.614594 3147.016602,464.954498 3146.927979,443.295197 
	C3146.884521,432.611115 3146.127930,431.858643 3135.567383,431.828217 
	C3110.242432,431.755188 3084.916992,431.805267 3059.591797,431.791718 
	C3056.927490,431.790314 3054.258789,431.774719 3051.599854,431.627197 
	C3047.181885,431.382141 3045.018799,428.881195 3044.903076,424.542389 
	C3044.832031,421.878113 3044.822998,419.211578 3044.822510,416.546082 
	C3044.818848,388.555145 3044.840820,360.564178 3044.817139,332.573242 
	C3044.805908,319.284271 3044.471191,318.936157 3031.550293,318.919800 
	C3007.224854,318.888977 2982.899414,318.911499 2958.573975,318.913422 
	C2957.241211,318.913544 2955.904785,318.868561 2954.575928,318.946045 
	C2947.226318,319.374817 2946.254395,320.378540 2945.912354,328.040466 
	C2945.808350,330.368683 2945.879639,332.704926 2945.879395,335.037506 
	C2945.878418,373.691681 2945.878418,412.345825 2945.878418,453.000000 
M2435.340088,507.000092 
	C2435.342041,436.684540 2435.355957,366.368988 2435.334229,296.053436 
	C2435.330322,284.210327 2434.743896,283.629700 2422.897217,283.605255 
	C2398.236816,283.554413 2373.576172,283.578674 2348.915771,283.574341 
	C2347.582764,283.574097 2346.246094,283.532349 2344.917725,283.615906 
	C2337.945557,284.054474 2336.781738,285.131378 2336.375488,291.817749 
	C2336.214355,294.474548 2336.321045,297.148132 2336.321045,299.814087 
	C2336.319580,362.798218 2336.320557,425.782349 2336.320557,488.766479 
	C2336.320557,602.737793 2336.315430,716.709045 2336.326416,830.680359 
	C2336.327881,843.806763 2336.527588,844.138916 2349.697266,844.216064 
	C2373.357178,844.354675 2397.018555,844.334229 2420.678955,844.245972 
	C2435.343994,844.191284 2435.360107,844.076904 2435.359619,828.919495 
	C2435.356445,722.279724 2435.346924,615.639893 2435.340088,507.000092 
M698.676331,475.000610 
	C698.674072,460.674713 698.760010,446.348053 698.639038,432.023132 
	C698.555725,422.151947 697.519653,421.091248 687.710388,421.059235 
	C662.057312,420.975494 636.403564,420.983063 610.750427,421.062439 
	C598.693115,421.099762 596.187866,423.632965 596.184692,435.841919 
	C596.151001,565.774658 596.146240,695.707336 596.173340,825.640076 
	C596.176208,839.256714 601.072876,843.952087 615.060059,843.981262 
	C637.714905,844.028503 660.369934,843.999512 683.024841,843.991577 
	C698.672852,843.986084 698.678040,843.977661 698.678040,827.819031 
	C698.678223,710.879578 698.676086,593.940125 698.676331,475.000610 
z"/>
<path fill="#010000" opacity="1.000000" stroke="none" 
	d="
M5.145174,738.007874 
	C13.834548,817.738220 44.414776,887.905945 97.750847,947.832214 
	C159.472763,1017.180420 236.742554,1057.948608 328.505188,1071.118408 
	C342.596771,1073.140747 356.976990,1073.972778 371.223877,1073.974609 
	C1371.212036,1074.103516 2371.200195,1074.101807 3371.188232,1074.063232 
	C3423.831787,1074.061157 3473.859375,1062.030029 3521.571289,1040.065063 
	C3566.860352,1019.215332 3606.483887,990.403198 3640.237061,953.794495 
	C3676.538574,914.421509 3703.714111,869.375732 3720.159668,818.317322 
	C3726.033203,800.082336 3729.652588,781.123352 3734.404541,762.521240 
	C3734.769043,761.094055 3735.958740,759.877625 3737.382324,759.281616 
	C3738.000000,883.309326 3738.000000,1006.618652 3738.000000,1129.899536 
	C2492.666748,1129.899536 1247.333374,1129.899536 2.000000,1129.899536 
	C2.000000,999.824280 2.000000,869.849426 2.786236,738.962402 
	C4.096706,738.036011 4.620940,738.021912 5.145174,738.007874 
z"/>
<path fill="#010303" opacity="1.000000" stroke="none" 
	d="
M3738.000000,371.062683 
	C3734.486572,373.865692 3734.783447,371.020752 3734.335205,369.053650 
	C3731.025146,354.521851 3728.392822,339.793884 3724.266357,325.497314 
	C3709.292969,273.621124 3683.686523,227.341003 3648.317383,186.664017 
	C3604.426025,136.186188 3550.853271,99.691887 3487.549316,77.674576 
	C3449.923584,64.588326 3411.299561,57.304760 3371.389648,57.304726 
	C2370.950928,57.303905 1370.512085,57.278107 370.073395,57.375809 
	C316.385040,57.381054 265.532593,70.303146 217.108414,93.354279 
	C173.917099,113.914436 136.027954,141.701462 103.600807,176.730270 
	C66.296051,217.028046 38.838802,263.240601 21.824865,315.626587 
	C14.528240,338.092957 9.221575,360.920135 5.766772,385.498962 
	C4.941873,387.359406 5.055247,387.975372 5.579311,388.515747 
	C5.602384,389.773956 5.625458,391.032135 4.926047,393.252502 
	C3.469044,394.809814 2.734525,395.404907 2.000003,396.000000 
	C2.000000,264.692169 2.000000,133.384308 2.000000,2.099143 
	C1247.333374,2.099143 2492.666748,2.099143 3738.000000,2.099143 
	C3738.000000,124.840645 3738.000000,247.483002 3738.000000,371.062683 
z"/>
<path fill="#4E5454" opacity="1.000000" stroke="none" 
	d="
M2.000003,396.856934 
	C2.734525,395.404907 3.469044,394.809814 4.827425,393.874390 
	C4.680794,398.091522 3.910301,402.648956 2.569904,407.603210 
	C2.000000,404.571289 2.000000,401.142578 2.000003,396.856934 
z"/>
<path fill="#010303" opacity="1.000000" stroke="none" 
	d="
M3738.000000,387.333374 
	C3737.561035,386.538147 3737.122314,385.076233 3737.341797,383.807190 
	C3738.000000,384.888885 3738.000000,385.777802 3738.000000,387.333374 
z"/>
<path fill="#494242" opacity="1.000000" stroke="none" 
	d="
M5.180264,737.386108 
	C4.620940,738.021912 4.096706,738.036011 2.786236,738.025085 
	C2.000000,738.000000 2.000000,737.000000 2.000000,736.500000 
	C3.888839,732.817383 4.341651,735.676208 5.180264,737.386108 
z"/>
<path fill="#494242" opacity="1.000000" stroke="none" 
	d="
M2.000003,724.500000 
	C2.380329,724.864868 2.760651,725.729797 2.570487,726.297363 
	C2.000000,726.000000 2.000000,725.000000 2.000003,724.500000 
z"/>
<path fill="#1E2225" opacity="1.000000" stroke="none" 
	d="
M1430.506104,732.653809 
	C1423.940430,748.395203 1416.609985,762.834167 1407.191162,776.180908 
	C1399.061646,787.700439 1389.255493,797.474976 1377.793945,805.644653 
	C1372.406616,809.484619 1367.083374,813.414856 1361.744873,817.322937 
	C1344.788696,829.735840 1325.301025,835.789978 1305.249146,841.161072 
	C1278.516235,848.321777 1251.385620,848.536621 1224.254028,847.254761 
	C1210.868652,846.622314 1197.536011,843.065247 1184.373413,839.998657 
	C1169.179321,836.458618 1154.629761,830.867004 1140.635376,823.878357 
	C1119.882935,813.514709 1101.105591,800.351257 1086.258301,782.496765 
	C1068.944946,761.676697 1054.962402,738.734436 1047.102539,712.520752 
	C1043.683838,701.119202 1042.029663,689.264587 1039.343994,677.780518 
	C1035.295410,660.468872 1037.279541,643.362549 1036.499512,626.188660 
	C1036.168945,618.913574 1035.696289,611.523071 1039.305420,604.653076 
	C1040.027954,603.277649 1039.991211,601.393677 1039.962280,599.750183 
	C1039.638428,581.361450 1045.823486,564.351196 1052.734009,547.959961 
	C1059.159668,532.718689 1067.551270,518.167786 1076.386108,504.136871 
	C1081.076660,496.687592 1088.650146,491.084167 1094.737061,484.476868 
	C1105.659790,472.620148 1118.864868,464.058533 1132.368408,455.336548 
	C1149.265991,444.422394 1167.872070,438.766479 1186.481934,432.948456 
	C1196.436890,429.836212 1207.270752,429.060394 1217.784058,428.338470 
	C1228.730713,427.586823 1239.772705,428.352417 1250.766479,428.130798 
	C1273.900879,427.664429 1296.427612,431.762482 1318.043579,439.267273 
	C1336.781372,445.772827 1354.847534,453.800415 1370.546631,467.091614 
	C1379.421509,474.605347 1388.288574,482.075195 1396.411865,490.344116 
	C1408.854492,503.009705 1418.625244,517.749756 1425.770996,533.893555 
	C1431.644287,547.162415 1436.358643,560.926025 1438.924805,575.435364 
	C1442.266479,594.328735 1446.499023,613.105347 1445.286987,632.414429 
	C1444.773315,640.597229 1442.948730,648.735352 1441.160645,656.769287 
	C1440.797119,658.402283 1438.083252,660.228638 1436.168701,660.638794 
	C1432.971436,661.323730 1429.544922,660.994690 1426.214844,660.995056 
	C1336.896118,661.005615 1247.577271,661.001587 1158.258545,661.005737 
	C1142.425903,661.006409 1141.667480,661.074036 1142.855347,677.208069 
	C1143.570801,686.927063 1146.528687,696.616638 1149.493896,705.998718 
	C1152.896240,716.764099 1158.029785,726.792114 1165.854614,735.258423 
	C1178.112793,748.521667 1192.834473,757.422424 1210.180176,762.674316 
	C1218.627808,765.232117 1226.899292,766.625427 1235.630127,766.313782 
	C1241.954346,766.088013 1248.293823,766.325562 1254.625366,766.259949 
	C1279.255371,766.004761 1300.474487,757.847839 1318.193604,740.229126 
	C1325.987549,732.479431 1331.889282,723.853333 1335.197754,713.630188 
	C1336.971191,708.150085 1339.819214,706.174133 1345.277588,706.327209 
	C1353.602905,706.560730 1361.939819,706.376282 1370.271729,706.377014 
	C1388.602051,706.378601 1406.933105,706.289490 1425.262329,706.432678 
	C1433.515747,706.497131 1435.579956,708.491150 1434.726196,716.567810 
	C1434.176514,721.767944 1432.145142,726.811401 1430.506104,732.653809 
M1150.974365,562.365540 
	C1149.685425,566.138794 1148.341919,569.894470 1147.117554,573.688599 
	C1143.068359,586.235596 1145.899902,590.262695 1158.886963,590.267883 
	C1214.843872,590.290466 1270.800659,590.290894 1326.757568,590.265869 
	C1339.073364,590.260376 1340.635254,588.516968 1339.623535,576.368774 
	C1339.513428,575.046753 1339.599609,573.566162 1339.030151,572.446167 
	C1330.840088,556.337891 1325.539185,538.178040 1308.123169,528.544189 
	C1306.987183,527.915771 1306.135986,526.784790 1305.119019,525.927185 
	C1293.342651,515.995789 1279.888062,510.225372 1264.403076,509.358582 
	C1261.773804,509.211395 1259.173218,508.555054 1256.558594,508.139954 
	C1251.687012,507.366577 1246.768555,505.764069 1241.953979,506.030365 
	C1235.428589,506.391327 1228.906982,509.463562 1222.519043,509.085602 
	C1211.062866,508.407776 1201.404297,513.698059 1192.458496,518.467102 
	C1174.608765,527.982910 1161.281128,542.991577 1150.974365,562.365540 
z"/>
<path fill="#1E2225" opacity="1.000000" stroke="none" 
	d="
M2174.871582,449.391754 
	C2194.384766,461.452423 2214.469971,471.653412 2229.450195,488.524109 
	C2237.532227,497.625916 2244.109863,508.073090 2251.246094,517.999634 
	C2253.951660,521.763000 2256.684814,525.583191 2258.779053,529.696472 
	C2268.148926,548.098083 2275.932617,567.260315 2279.675049,587.539612 
	C2282.910645,605.072876 2285.153320,622.896118 2283.832520,640.929993 
	C2283.061279,651.460754 2284.223145,661.932983 2281.019775,672.520935 
	C2278.592773,680.542175 2279.608887,689.457214 2277.194092,697.943970 
	C2271.076172,719.443054 2263.295654,740.051453 2251.129639,758.962952 
	C2239.424561,777.158203 2222.277588,790.155762 2207.544678,805.437317 
	C2203.060303,810.088623 2196.821045,813.251892 2190.996094,816.368408 
	C2173.980957,825.471741 2156.791748,834.374146 2137.987793,839.225830 
	C2129.073486,841.525696 2119.544678,841.605164 2110.773682,844.268677 
	C2091.439941,850.139648 2071.782959,846.619568 2052.296631,847.465454 
	C2048.123779,847.646606 2043.874268,846.180298 2039.668335,845.427185 
	C2037.387817,845.018860 2035.144653,844.331055 2032.850586,844.082031 
	C2015.993408,842.252319 1999.959351,837.592712 1983.905518,832.088196 
	C1969.477783,827.141296 1956.626831,819.481934 1944.312622,811.364624 
	C1929.211914,801.410339 1915.373779,789.729797 1904.500122,774.350098 
	C1895.437134,761.531921 1886.218262,748.964722 1880.216797,734.518799 
	C1875.276733,722.627686 1871.531860,710.210632 1867.765747,697.871460 
	C1865.170776,689.369263 1863.349731,680.623230 1861.387695,671.939941 
	C1860.808716,669.377441 1860.770386,666.658264 1860.754272,664.009155 
	C1860.687378,653.014771 1861.230835,641.991455 1860.618408,631.030762 
	C1859.279541,607.066101 1865.228149,584.371338 1871.907227,561.800659 
	C1878.790283,538.540466 1891.210327,517.972595 1905.524292,498.781738 
	C1911.937988,490.182800 1921.424805,483.871674 1929.548584,476.557312 
	C1930.778564,475.449890 1932.259399,474.621155 1933.490601,473.514923 
	C1947.726196,460.726074 1963.699097,450.918976 1981.940186,444.885315 
	C1993.865112,440.940948 2005.528931,436.022614 2017.669067,432.969086 
	C2028.176270,430.326233 2039.147949,429.046143 2049.990479,428.350983 
	C2061.935791,427.585144 2073.973877,427.928406 2085.960938,428.220551 
	C2116.816162,428.972443 2146.326660,435.613983 2174.871582,449.391754 
M2071.004395,762.722290 
	C2080.634521,762.775513 2089.994629,761.610474 2099.572266,759.827332 
	C2126.522217,754.809875 2144.122559,737.479004 2160.132080,717.432678 
	C2167.754395,707.887817 2171.883789,696.708984 2174.915039,685.036560 
	C2176.408691,679.285034 2178.479980,673.652588 2179.562988,667.831055 
	C2183.177979,648.395264 2182.128418,628.839844 2180.188721,609.330017 
	C2179.636475,603.775391 2179.339355,597.756531 2176.964844,592.911621 
	C2171.727783,582.226990 2169.230469,570.416321 2161.604248,560.636658 
	C2145.166504,539.557007 2127.524658,520.887268 2099.594482,515.564880 
	C2079.731689,511.779938 2060.018555,510.711945 2040.640869,516.997498 
	C2030.906616,520.155029 2020.133545,523.141724 2012.623779,529.503479 
	C1996.223389,543.396973 1979.422852,557.777405 1972.330078,579.331787 
	C1968.720581,590.300598 1964.673706,601.507507 1963.664429,612.859253 
	C1962.194702,629.389771 1963.265503,646.148132 1963.315918,662.809204 
	C1963.321899,664.789978 1963.505249,666.822510 1963.973511,668.741394 
	C1968.239258,686.226013 1972.794800,703.813232 1984.853149,717.736145 
	C1994.160767,728.482910 2003.572021,739.983215 2015.240723,747.636108 
	C2031.054565,758.007568 2049.261963,764.311829 2071.004395,762.722290 
z"/>
<path fill="#1E2225" opacity="1.000000" stroke="none" 
	d="
M818.000000,283.869263 
	C833.332764,283.861969 847.665527,283.882538 861.998230,283.841766 
	C890.729004,283.760101 917.951965,289.846832 943.096130,304.019928 
	C959.972900,313.532837 975.902466,324.479187 988.241150,339.638062 
	C1001.992981,356.533112 1011.432129,375.805969 1018.928345,396.283600 
	C1027.535034,419.794678 1027.796143,444.142700 1025.440552,468.140167 
	C1023.951721,483.307556 1017.394592,498.140198 1012.020569,512.721191 
	C1005.712891,529.835571 995.256958,544.324524 981.266296,556.295044 
	C971.193909,564.913086 963.141296,575.625061 951.501221,582.739685 
	C933.708557,593.614868 915.158142,601.840759 894.389587,604.909363 
	C888.933472,605.715576 883.686951,607.940002 877.098633,609.879883 
	C878.591492,613.458740 879.325806,616.653992 881.061951,619.153381 
	C894.481079,638.472595 907.917603,657.784790 921.711487,676.836487 
	C930.252625,688.633118 939.468506,699.939819 948.290344,711.535767 
	C950.494873,714.433594 952.222900,717.690918 954.382263,720.626770 
	C968.123047,739.308899 982.088989,757.827820 995.647644,776.640625 
	C1005.143311,789.815918 1014.043579,803.418945 1023.341614,816.738831 
	C1027.702393,822.985840 1032.457642,828.956787 1036.851929,835.181519 
	C1038.081177,836.922974 1038.661987,839.122192 1040.180664,842.561523 
	C1035.206055,843.130676 1031.444214,843.922852 1027.680176,843.934692 
	C996.015015,844.034424 964.341492,843.592468 932.688965,844.230042 
	C922.979919,844.425598 916.852417,840.218323 911.715881,833.317688 
	C902.817566,821.363586 894.113220,809.260254 885.541504,797.069031 
	C875.439575,782.701477 865.810852,767.996155 855.515930,753.770935 
	C846.979431,741.975586 837.729797,730.698120 828.896790,719.114380 
	C826.689514,716.219727 824.998169,712.935974 822.850952,709.990601 
	C812.704346,696.072388 802.372498,682.288147 792.323181,668.300598 
	C785.171631,658.346252 778.428833,648.099243 771.384399,638.066528 
	C764.719543,628.574585 757.669861,619.343262 751.279663,609.673340 
	C749.216675,606.551514 747.703796,602.416992 747.651611,598.721497 
	C747.326904,575.727051 747.398682,552.725220 747.534790,529.726990 
	C747.586792,520.944092 748.640259,519.907410 757.435059,519.874390 
	C786.766785,519.764160 816.103149,520.123108 845.429810,519.721191 
	C864.300049,519.462524 881.991821,514.230835 898.165649,504.287781 
	C898.731934,503.939636 899.335022,503.605774 899.798889,503.143036 
	C915.511719,487.464905 927.303345,469.394409 926.844238,446.546173 
	C926.493164,429.073914 921.317505,412.490662 907.653809,399.943573 
	C905.200928,397.691162 902.764038,395.383606 900.599670,392.861298 
	C890.882751,381.537262 877.689697,378.573700 863.804871,375.214996 
	C841.607483,369.845581 819.411987,372.390808 797.258118,372.205139 
	C735.598267,371.688354 673.931274,372.026978 612.267090,372.026733 
	C609.933899,372.026733 607.596558,372.103516 605.268188,371.994019 
	C597.700073,371.638123 596.302795,370.579529 596.250000,363.272949 
	C596.086426,340.608459 596.060974,317.940887 596.261841,295.276978 
	C596.336182,286.880737 599.343079,284.103577 608.010803,283.944580 
	C620.006409,283.724487 632.008789,283.870941 644.008301,283.870483 
	C701.672180,283.868225 759.336121,283.869385 818.000000,283.869263 
z"/>
<path fill="#1D2124" opacity="1.000000" stroke="none" 
	d="
M2600.930176,474.001587 
	C2600.930176,540.658203 2601.038086,606.315491 2600.850098,671.971924 
	C2600.807373,686.936096 2604.965576,700.818604 2610.357666,714.383362 
	C2613.289307,721.759460 2616.691895,729.341675 2621.589355,735.465454 
	C2633.624512,750.514099 2650.242920,756.852844 2669.165771,759.502563 
	C2680.064697,761.028870 2690.324707,760.504578 2701.177002,759.686340 
	C2718.940918,758.346985 2732.722656,750.847839 2745.474609,739.604065 
	C2761.940674,725.085205 2769.992920,705.526855 2775.665771,685.434753 
	C2778.996338,673.639404 2780.621094,661.008179 2780.515869,648.167114 
	C2779.964600,580.848145 2780.255127,513.522400 2780.258301,446.198975 
	C2780.258301,443.533173 2780.229980,440.863434 2780.359131,438.202515 
	C2780.552490,434.226807 2782.786133,432.175323 2786.704102,431.933899 
	C2788.365479,431.831543 2790.034180,431.806641 2791.699463,431.806213 
	C2817.029053,431.799530 2842.358887,431.756226 2867.688232,431.825592 
	C2878.444092,431.855072 2879.179932,432.557312 2879.182617,443.111511 
	C2879.215820,572.759033 2879.207275,702.406616 2879.208252,832.054138 
	C2879.208252,833.387207 2879.271973,834.726868 2879.165771,836.052246 
	C2878.660400,842.358276 2877.619629,843.661560 2871.307373,843.877808 
	C2862.984619,844.162781 2854.645508,843.982971 2846.313477,843.984558 
	C2831.982422,843.987244 2817.649902,844.091370 2803.320557,843.929016 
	C2793.907227,843.822266 2791.739258,841.422058 2790.684082,832.294434 
	C2789.700684,823.784119 2788.332764,815.313110 2786.939453,806.856873 
	C2785.986816,801.075806 2782.411133,799.483521 2777.763672,802.968384 
	C2771.140137,807.934631 2765.076416,813.677490 2758.284912,818.383179 
	C2745.473389,827.259949 2732.436768,835.803711 2717.145508,840.138733 
	C2709.783203,842.225891 2701.955811,842.623840 2694.882812,844.599915 
	C2679.330078,848.945068 2663.811768,847.463013 2648.313232,847.350220 
	C2638.165283,847.276367 2627.846680,845.658630 2617.941406,843.310608 
	C2604.428711,840.107300 2590.854248,836.742432 2578.586914,829.630005 
	C2555.455566,816.218689 2536.097900,799.268738 2523.575684,775.028015 
	C2514.809326,758.058228 2508.998779,740.322449 2504.726807,721.749634 
	C2502.747803,713.145386 2502.112549,704.774902 2501.979736,696.160950 
	C2501.949219,694.165222 2502.329834,691.925964 2501.574463,690.217102 
	C2496.774658,679.357544 2498.497314,667.921204 2498.477539,656.700500 
	C2498.356201,587.710938 2498.416992,518.721008 2498.417480,449.731171 
	C2498.417480,447.064911 2498.357178,444.396637 2498.437256,441.732727 
	C2498.697266,433.077148 2499.674316,431.914856 2508.340576,431.849884 
	C2527.003418,431.709991 2545.668213,431.800293 2564.332031,431.798218 
	C2572.664062,431.797272 2580.996826,431.745026 2589.328369,431.816162 
	C2600.160645,431.908691 2600.813965,432.520782 2600.906250,443.007904 
	C2600.994141,453.005219 2600.928955,463.003845 2600.930176,474.001587 
z"/>
<path fill="#1E2225" opacity="1.000000" stroke="none" 
	d="
M1668.000000,843.993774 
	C1647.672363,843.992432 1628.344727,844.020020 1609.017212,843.979248 
	C1596.193970,843.952209 1596.266357,843.879028 1592.123535,831.910095 
	C1582.783813,804.927002 1573.506348,777.920898 1563.929932,751.021545 
	C1554.689209,725.065125 1545.295410,699.159668 1535.614014,673.364929 
	C1527.333618,651.303223 1517.232422,629.832947 1510.364746,607.359070 
	C1503.661133,585.422974 1493.789795,564.766418 1487.097168,542.863342 
	C1481.870483,525.758423 1474.609009,509.279572 1468.381470,492.474396 
	C1465.382446,484.381775 1462.731567,476.160828 1459.828857,468.031616 
	C1458.155884,463.346436 1456.055298,458.802124 1454.595459,454.056519 
	C1453.445679,450.318939 1452.350952,446.370789 1452.348877,442.515594 
	C1452.344971,435.255280 1455.401245,432.294250 1462.692139,431.900299 
	C1468.341431,431.595032 1474.018799,431.794952 1479.683594,431.793335 
	C1499.344482,431.787842 1519.005249,431.767639 1538.666138,431.802032 
	C1551.020508,431.823608 1553.588989,433.602875 1557.532349,445.216278 
	C1562.339600,459.374176 1566.890381,473.619537 1571.748779,487.759460 
	C1575.416138,498.432587 1579.670410,508.908966 1583.165894,519.635071 
	C1588.285767,535.346436 1592.715698,551.283813 1597.899170,566.973083 
	C1602.373779,580.516235 1607.429688,593.869507 1612.341675,607.265320 
	C1616.176880,617.724487 1619.973633,628.207031 1623.953613,638.605896 
	C1633.661377,663.970581 1641.318359,690.117432 1649.967529,715.893494 
	C1650.927979,718.756226 1652.963989,721.258057 1654.595947,724.091919 
	C1660.639648,721.432556 1661.766602,716.824280 1663.240112,712.484985 
	C1681.181641,659.650146 1699.056763,606.792725 1717.067383,553.981506 
	C1729.719727,516.882202 1742.577148,479.852936 1755.289062,442.773926 
	C1758.570801,433.202209 1760.186157,431.831360 1770.327759,431.813171 
	C1797.986206,431.763550 1825.644775,431.766266 1853.302979,431.839050 
	C1856.481689,431.847412 1859.658691,432.430298 1864.208740,432.883453 
	C1862.402100,439.137238 1861.246216,444.208862 1859.483276,449.059875 
	C1850.865723,472.771576 1842.129761,496.440582 1833.349365,520.092712 
	C1826.765381,537.828125 1819.982788,555.489868 1813.428101,573.235962 
	C1810.896240,580.090759 1808.863281,587.128418 1806.408813,594.013550 
	C1796.266357,622.464111 1786.261475,650.966553 1775.796875,679.298767 
	C1766.251221,705.143127 1755.958374,730.711609 1746.404907,756.553284 
	C1738.578003,777.725342 1731.406982,799.139221 1723.831421,820.405396 
	C1721.493774,826.967407 1718.754395,833.385498 1716.251953,839.889893 
	C1714.734375,843.834045 1711.394043,843.962036 1707.989136,843.967407 
	C1694.992798,843.987854 1681.996338,843.986755 1668.000000,843.993774 
z"/>
<path fill="#1D2124" opacity="1.000000" stroke="none" 
	d="
M2945.878418,452.000000 
	C2945.878418,412.345825 2945.878418,373.691681 2945.879395,335.037506 
	C2945.879639,332.704926 2945.808350,330.368683 2945.912354,328.040466 
	C2946.254395,320.378540 2947.226318,319.374817 2954.575928,318.946045 
	C2955.904785,318.868561 2957.241211,318.913544 2958.573975,318.913422 
	C2982.899414,318.911499 3007.224854,318.888977 3031.550293,318.919800 
	C3044.471191,318.936157 3044.805908,319.284271 3044.817139,332.573242 
	C3044.840820,360.564178 3044.818848,388.555145 3044.822510,416.546082 
	C3044.822998,419.211578 3044.832031,421.878113 3044.903076,424.542389 
	C3045.018799,428.881195 3047.181885,431.382141 3051.599854,431.627197 
	C3054.258789,431.774719 3056.927490,431.790314 3059.591797,431.791718 
	C3084.916992,431.805267 3110.242432,431.755188 3135.567383,431.828217 
	C3146.127930,431.858643 3146.884521,432.611115 3146.927979,443.295197 
	C3147.016602,464.954498 3147.011719,486.614594 3146.933838,508.273956 
	C3146.894531,519.278870 3146.184814,519.928894 3134.781982,519.950317 
	C3108.790283,519.999146 3082.798828,519.928528 3056.807129,519.988953 
	C3045.631348,520.014954 3044.855469,520.764771 3044.848877,531.915894 
	C3044.810303,596.894836 3045.266846,661.878845 3044.520264,726.849182 
	C3044.337891,742.701111 3061.785400,760.299194 3076.968506,759.416687 
	C3096.562744,758.277954 3116.273193,759.078552 3135.933105,759.170593 
	C3145.894775,759.217224 3146.883545,760.174255 3146.924561,770.024841 
	C3147.018066,792.350586 3147.027588,814.677307 3146.916260,837.002869 
	C3146.869141,846.433533 3145.833496,847.511963 3136.667480,847.543518 
	C3108.010498,847.642212 3079.344971,847.965942 3050.699951,847.365662 
	C3040.905762,847.160400 3031.095703,844.807434 3021.420654,842.815735 
	C3014.979736,841.489685 3008.698486,839.255859 3002.460938,837.095886 
	C2986.074707,831.421692 2974.170410,819.517822 2963.582520,806.718201 
	C2956.471191,798.121643 2952.171387,787.523865 2948.961670,776.462219 
	C2945.342041,763.988281 2945.909912,751.484375 2945.903809,738.907410 
	C2945.857422,643.604919 2945.878418,548.302490 2945.878418,452.000000 
z"/>
<path fill="#1F2326" opacity="1.000000" stroke="none" 
	d="
M2435.339844,508.000122 
	C2435.346924,615.639893 2435.356445,722.279724 2435.359619,828.919495 
	C2435.360107,844.076904 2435.343994,844.191284 2420.678955,844.245972 
	C2397.018555,844.334229 2373.357178,844.354675 2349.697266,844.216064 
	C2336.527588,844.138916 2336.327881,843.806763 2336.326416,830.680359 
	C2336.315430,716.709045 2336.320557,602.737793 2336.320557,488.766479 
	C2336.320557,425.782349 2336.319580,362.798218 2336.321045,299.814087 
	C2336.321045,297.148132 2336.214355,294.474548 2336.375488,291.817749 
	C2336.781738,285.131378 2337.945557,284.054474 2344.917725,283.615906 
	C2346.246094,283.532349 2347.582764,283.574097 2348.915771,283.574341 
	C2373.576172,283.578674 2398.236816,283.554413 2422.897217,283.605255 
	C2434.743896,283.629700 2435.330322,284.210327 2435.334229,296.053436 
	C2435.355957,366.368988 2435.342041,436.684540 2435.339844,508.000122 
z"/>
<path fill="#1E2225" opacity="1.000000" stroke="none" 
	d="
M698.675537,476.000641 
	C698.676086,593.940125 698.678223,710.879578 698.678040,827.819031 
	C698.678040,843.977661 698.672852,843.986084 683.024841,843.991577 
	C660.369934,843.999512 637.714905,844.028503 615.060059,843.981262 
	C601.072876,843.952087 596.176208,839.256714 596.173340,825.640076 
	C596.146240,695.707336 596.151001,565.774658 596.184692,435.841919 
	C596.187866,423.632965 598.693115,421.099762 610.750427,421.062439 
	C636.403564,420.983063 662.057312,420.975494 687.710388,421.059235 
	C697.519653,421.091248 698.555725,422.151947 698.639038,432.023132 
	C698.760010,446.348053 698.674072,460.674713 698.675537,476.000641 
z"/>
<path fill="#4E5454" opacity="1.000000" stroke="none" 
	d="
M5.834185,388.135620 
	C5.055247,387.975372 4.941873,387.359406 5.588143,386.315521 
	C6.214363,386.541412 6.265017,387.138855 5.834185,388.135620 
z"/>
<path fill="#D2D3D3" opacity="1.000000" stroke="none" 
	d="
M1151.326782,561.687744 
	C1161.281128,542.991577 1174.608765,527.982910 1192.458496,518.467102 
	C1201.404297,513.698059 1211.062866,508.407776 1222.519043,509.085602 
	C1228.906982,509.463562 1235.428589,506.391327 1241.953979,506.030365 
	C1246.768555,505.764069 1251.687012,507.366577 1256.558594,508.139954 
	C1259.173218,508.555054 1261.773804,509.211395 1264.403076,509.358582 
	C1279.888062,510.225372 1293.342651,515.995789 1305.119019,525.927185 
	C1306.135986,526.784790 1306.987183,527.915771 1308.123169,528.544189 
	C1325.539185,538.178040 1330.840088,556.337891 1339.030151,572.446167 
	C1339.599609,573.566162 1339.513428,575.046753 1339.623535,576.368774 
	C1340.635254,588.516968 1339.073364,590.260376 1326.757568,590.265869 
	C1270.800659,590.290894 1214.843872,590.290466 1158.886963,590.267883 
	C1145.899902,590.262695 1143.068359,586.235596 1147.117554,573.688599 
	C1148.341919,569.894470 1149.685425,566.138794 1151.326782,561.687744 
z"/>
<path fill="#D6D6D6" opacity="1.000000" stroke="none" 
	d="
M2070.024414,762.722778 
	C2049.261963,764.311829 2031.054565,758.007568 2015.240723,747.636108 
	C2003.572021,739.983215 1994.160767,728.482910 1984.853149,717.736145 
	C1972.794800,703.813232 1968.239258,686.226013 1963.973511,668.741394 
	C1963.505249,666.822510 1963.321899,664.789978 1963.315918,662.809204 
	C1963.265503,646.148132 1962.194702,629.389771 1963.664429,612.859253 
	C1964.673706,601.507507 1968.720581,590.300598 1972.330078,579.331787 
	C1979.422852,557.777405 1996.223389,543.396973 2012.623779,529.503479 
	C2020.133545,523.141724 2030.906616,520.155029 2040.640869,516.997498 
	C2060.018555,510.711945 2079.731689,511.779938 2099.594482,515.564880 
	C2127.524658,520.887268 2145.166504,539.557007 2161.604248,560.636658 
	C2169.230469,570.416321 2171.727783,582.226990 2176.964844,592.911621 
	C2179.339355,597.756531 2179.636475,603.775391 2180.188721,609.330017 
	C2182.128418,628.839844 2183.177979,648.395264 2179.562988,667.831055 
	C2178.479980,673.652588 2176.408691,679.285034 2174.915039,685.036560 
	C2171.883789,696.708984 2167.754395,707.887817 2160.132080,717.432678 
	C2144.122559,737.479004 2126.522217,754.809875 2099.572266,759.827332 
	C2089.994629,761.610474 2080.634521,762.775513 2070.024414,762.722778 
z"/>
</svg>