<svg id="svg" xmlns="http://www.w3.org/2000/svg" xmlns:xlink="http://www.w3.org/1999/xlink" width="400" height="108.92364305427783" viewBox="0, 0, 400,108.92364305427783"><g id="svgg"><path id="path0" d="M32.917 0.181 C 30.939 0.437,29.922 0.651,29.864 0.824 C 29.832 0.921,29.516 1.000,29.163 1.000 C 28.809 1.000,28.473 1.075,28.417 1.167 C 28.360 1.258,28.130 1.333,27.905 1.333 C 27.680 1.333,27.365 1.401,27.206 1.483 C 27.047 1.565,26.362 1.806,25.684 2.019 C 25.006 2.232,24.355 2.502,24.238 2.620 C 24.120 2.737,23.873 2.833,23.688 2.833 C 23.504 2.833,23.307 2.908,23.250 3.000 C 23.193 3.092,23.046 3.167,22.923 3.167 C 22.800 3.167,22.234 3.429,21.667 3.750 C 21.099 4.071,20.529 4.333,20.401 4.333 C 20.272 4.333,20.167 4.408,20.167 4.500 C 20.167 4.592,20.017 4.667,19.833 4.667 C 19.650 4.667,19.500 4.742,19.500 4.833 C 19.500 4.925,19.387 5.000,19.250 5.000 C 19.112 5.000,18.999 5.056,18.998 5.125 C 18.997 5.194,18.700 5.392,18.337 5.566 C 17.974 5.739,17.528 6.021,17.346 6.191 C 17.163 6.361,16.973 6.500,16.924 6.500 C 16.795 6.500,14.761 8.059,14.694 8.208 C 14.664 8.277,14.567 8.333,14.479 8.333 C 14.390 8.333,14.139 8.502,13.919 8.708 C 13.699 8.915,13.176 9.383,12.756 9.750 C 11.829 10.559,10.648 11.743,9.750 12.762 C 9.383 13.179,8.915 13.699,8.708 13.919 C 8.502 14.139,8.333 14.380,8.333 14.456 C 8.333 14.531,8.183 14.701,8.000 14.833 C 7.817 14.965,7.665 15.151,7.664 15.245 C 7.662 15.339,7.475 15.593,7.247 15.809 C 7.020 16.025,6.833 16.327,6.833 16.481 C 6.833 16.634,6.683 16.868,6.500 17.000 C 6.317 17.132,6.167 17.332,6.167 17.445 C 6.167 17.557,5.979 17.852,5.750 18.099 C 5.521 18.346,5.333 18.650,5.333 18.774 C 5.333 18.898,5.258 19.000,5.167 19.000 C 5.075 19.000,5.000 19.112,5.000 19.250 C 5.000 19.387,4.925 19.500,4.833 19.500 C 4.742 19.500,4.667 19.650,4.667 19.833 C 4.667 20.017,4.592 20.167,4.500 20.167 C 4.408 20.167,4.333 20.312,4.333 20.490 C 4.333 20.668,4.256 20.862,4.160 20.920 C 3.948 21.052,3.167 22.646,3.167 22.948 C 3.167 23.068,3.092 23.167,3.000 23.167 C 2.908 23.167,2.833 23.385,2.833 23.653 C 2.833 23.920,2.754 24.165,2.658 24.197 C 2.561 24.230,2.460 24.367,2.433 24.503 C 2.406 24.639,2.298 24.961,2.192 25.219 C 2.087 25.477,2.000 25.792,2.000 25.918 C 2.000 26.044,1.925 26.193,1.833 26.250 C 1.742 26.307,1.667 26.532,1.667 26.750 C 1.667 26.968,1.592 27.193,1.500 27.250 C 1.408 27.307,1.333 27.607,1.333 27.917 C 1.333 28.227,1.258 28.527,1.167 28.583 C 1.075 28.640,1.000 28.892,1.000 29.143 C 1.000 29.394,0.929 29.671,0.842 29.758 C 0.645 29.955,0.363 31.449,0.152 33.417 C -0.105 35.794,0.027 76.427,0.292 76.692 C 0.406 76.806,0.500 77.166,0.501 77.492 C 0.502 77.817,0.614 78.298,0.751 78.561 C 0.888 78.823,1.000 79.255,1.000 79.519 C 1.000 79.784,1.075 80.000,1.167 80.000 C 1.258 80.000,1.333 80.226,1.333 80.502 C 1.333 80.779,1.401 81.135,1.483 81.294 C 1.565 81.453,1.806 82.138,2.019 82.816 C 2.232 83.494,2.502 84.145,2.620 84.262 C 2.737 84.380,2.833 84.669,2.833 84.905 C 2.833 85.140,2.908 85.333,3.000 85.333 C 3.092 85.333,3.167 85.420,3.167 85.525 C 3.167 85.783,4.005 87.483,4.188 87.596 C 4.268 87.646,4.333 87.832,4.333 88.010 C 4.333 88.188,4.408 88.333,4.500 88.333 C 4.592 88.333,4.667 88.446,4.667 88.583 C 4.667 88.721,4.742 88.833,4.833 88.833 C 4.925 88.833,5.000 88.983,5.000 89.167 C 5.000 89.350,5.061 89.500,5.136 89.500 C 5.210 89.500,5.397 89.763,5.550 90.083 C 5.703 90.404,5.904 90.667,5.997 90.667 C 6.090 90.667,6.167 90.800,6.167 90.963 C 6.167 91.126,6.317 91.368,6.500 91.500 C 6.683 91.632,6.836 91.855,6.839 91.995 C 6.845 92.298,7.576 93.167,7.825 93.167 C 7.921 93.167,8.000 93.285,8.000 93.429 C 8.000 93.573,8.094 93.790,8.208 93.912 C 8.323 94.033,8.642 94.405,8.917 94.737 C 10.160 96.240,11.670 97.821,12.591 98.583 C 12.923 98.858,13.545 99.401,13.972 99.790 C 14.400 100.178,14.881 100.497,15.042 100.498 C 15.202 100.499,15.333 100.579,15.333 100.675 C 15.333 100.924,16.202 101.655,16.505 101.661 C 16.645 101.664,16.868 101.817,17.000 102.000 C 17.132 102.183,17.340 102.333,17.461 102.333 C 17.583 102.333,17.856 102.521,18.069 102.750 C 18.281 102.979,18.578 103.167,18.727 103.167 C 18.877 103.167,19.000 103.242,19.000 103.333 C 19.000 103.425,19.150 103.500,19.333 103.500 C 19.517 103.500,19.667 103.561,19.667 103.636 C 19.667 103.710,19.929 103.874,20.250 104.000 C 20.571 104.126,20.833 104.282,20.833 104.346 C 20.833 104.411,21.021 104.511,21.250 104.568 C 21.479 104.626,21.667 104.747,21.667 104.837 C 21.667 104.926,21.892 105.000,22.167 105.000 C 22.442 105.000,22.667 105.075,22.667 105.167 C 22.667 105.258,22.817 105.333,23.000 105.333 C 23.183 105.333,23.333 105.408,23.333 105.500 C 23.333 105.592,23.521 105.667,23.750 105.667 C 23.979 105.667,24.167 105.742,24.167 105.833 C 24.167 105.925,24.429 106.000,24.750 106.000 C 25.157 106.000,25.333 106.075,25.333 106.250 C 25.333 106.404,25.490 106.500,25.740 106.500 C 25.964 106.500,26.193 106.575,26.250 106.667 C 26.307 106.758,26.536 106.833,26.760 106.833 C 26.984 106.833,27.167 106.908,27.167 107.000 C 27.167 107.092,27.462 107.167,27.823 107.167 C 28.185 107.167,28.527 107.242,28.583 107.333 C 28.640 107.425,28.982 107.500,29.343 107.500 C 29.704 107.500,30.000 107.575,30.000 107.667 C 30.000 107.758,30.331 107.833,30.736 107.833 C 31.165 107.833,31.500 107.918,31.540 108.035 C 31.634 108.318,33.287 108.487,37.750 108.673 C 44.000 108.933,365.929 108.805,366.192 108.542 C 366.309 108.425,366.809 108.333,367.335 108.333 C 367.899 108.333,368.398 108.236,368.593 108.089 C 368.771 107.954,369.193 107.842,369.532 107.839 C 369.870 107.836,370.193 107.758,370.250 107.667 C 370.307 107.575,370.644 107.500,371.000 107.500 C 371.356 107.500,371.693 107.425,371.750 107.333 C 371.807 107.242,372.069 107.167,372.333 107.167 C 372.598 107.167,372.860 107.092,372.917 107.000 C 372.973 106.908,373.166 106.833,373.345 106.833 C 373.672 106.833,373.777 106.794,374.805 106.278 C 375.111 106.125,375.500 106.000,375.670 106.000 C 375.841 106.000,376.027 105.925,376.083 105.833 C 376.140 105.742,376.332 105.667,376.510 105.667 C 376.688 105.667,376.833 105.604,376.833 105.527 C 376.833 105.450,377.152 105.286,377.542 105.164 C 377.931 105.041,378.368 104.842,378.513 104.720 C 378.658 104.599,378.864 104.500,378.971 104.500 C 379.079 104.500,379.167 104.425,379.167 104.333 C 379.167 104.242,379.317 104.167,379.500 104.167 C 379.683 104.167,379.833 104.092,379.833 104.000 C 379.833 103.908,379.969 103.833,380.135 103.833 C 380.301 103.833,380.598 103.683,380.795 103.500 C 380.992 103.317,381.268 103.167,381.410 103.167 C 381.551 103.167,381.667 103.097,381.667 103.011 C 381.667 102.926,381.803 102.812,381.971 102.759 C 382.138 102.706,382.419 102.532,382.596 102.373 C 382.772 102.214,383.112 101.983,383.350 101.860 C 383.588 101.738,383.976 101.475,384.211 101.277 C 384.447 101.079,384.815 100.789,385.028 100.633 C 385.720 100.127,386.546 99.429,387.107 98.875 C 387.409 98.577,387.702 98.333,387.758 98.333 C 387.887 98.333,389.749 96.412,390.417 95.590 C 390.692 95.251,391.067 94.810,391.250 94.609 C 391.782 94.026,393.500 91.724,393.500 91.594 C 393.500 91.529,393.594 91.372,393.708 91.244 C 394.203 90.692,394.333 90.504,394.333 90.340 C 394.333 90.245,394.408 90.167,394.500 90.167 C 394.592 90.167,394.667 90.017,394.667 89.833 C 394.667 89.650,394.723 89.500,394.793 89.500 C 394.862 89.500,395.025 89.256,395.154 88.958 C 395.284 88.660,395.441 88.379,395.503 88.333 C 395.711 88.180,396.500 86.658,396.500 86.411 C 396.500 86.277,396.575 86.167,396.667 86.167 C 396.758 86.167,396.833 85.984,396.833 85.760 C 396.833 85.536,396.908 85.307,397.000 85.250 C 397.092 85.193,397.167 84.964,397.167 84.740 C 397.167 84.516,397.240 84.333,397.330 84.333 C 397.420 84.333,397.541 84.146,397.598 83.917 C 397.656 83.687,397.770 83.500,397.851 83.500 C 397.933 83.500,398.000 83.279,398.000 83.010 C 398.000 82.740,398.075 82.473,398.167 82.417 C 398.258 82.360,398.333 82.093,398.333 81.823 C 398.333 81.554,398.408 81.333,398.500 81.333 C 398.592 81.333,398.667 81.071,398.667 80.750 C 398.667 80.429,398.742 80.167,398.833 80.167 C 398.925 80.167,399.000 79.873,399.000 79.514 C 399.000 79.155,399.088 78.832,399.196 78.796 C 399.384 78.733,399.493 78.179,399.828 75.583 C 400.024 74.070,400.026 34.449,399.830 32.917 C 399.562 30.817,399.395 29.995,399.196 29.796 C 399.088 29.688,399.000 29.353,399.000 29.050 C 399.000 28.748,398.925 28.500,398.833 28.500 C 398.742 28.500,398.667 28.200,398.667 27.833 C 398.667 27.467,398.592 27.167,398.500 27.167 C 398.408 27.167,398.333 26.904,398.333 26.583 C 398.333 26.262,398.258 26.000,398.167 26.000 C 398.075 26.000,398.000 25.813,398.000 25.583 C 398.000 25.354,397.925 25.167,397.833 25.167 C 397.742 25.167,397.667 25.022,397.667 24.845 C 397.667 24.668,397.554 24.411,397.417 24.274 C 397.279 24.136,397.167 23.868,397.167 23.679 C 397.167 23.489,397.092 23.333,397.000 23.333 C 396.908 23.333,396.833 23.108,396.833 22.833 C 396.833 22.558,396.758 22.333,396.667 22.333 C 396.575 22.333,396.500 22.230,396.500 22.104 C 396.500 21.831,395.658 20.274,395.467 20.194 C 395.393 20.164,395.333 20.033,395.333 19.903 C 395.333 19.773,395.258 19.667,395.167 19.667 C 395.075 19.667,395.000 19.517,395.000 19.333 C 395.000 19.150,394.925 19.000,394.833 19.000 C 394.742 19.000,394.667 18.850,394.667 18.667 C 394.667 18.483,394.608 18.333,394.536 18.333 C 394.464 18.333,394.263 18.090,394.089 17.792 C 393.916 17.494,393.637 17.129,393.470 16.980 C 393.303 16.832,393.167 16.603,393.167 16.471 C 393.167 16.340,392.905 15.936,392.584 15.574 C 391.755 14.637,391.667 14.526,391.667 14.414 C 391.667 14.359,391.329 13.981,390.917 13.575 C 390.504 13.168,390.167 12.760,390.167 12.668 C 390.167 12.575,390.092 12.500,390.000 12.500 C 389.908 12.500,389.833 12.425,389.833 12.333 C 389.833 12.116,387.884 10.167,387.667 10.167 C 387.575 10.167,387.500 10.092,387.500 10.000 C 387.500 9.908,387.430 9.833,387.345 9.833 C 387.259 9.833,386.763 9.421,386.243 8.917 C 385.722 8.413,385.155 8.000,384.981 8.000 C 384.808 8.000,384.667 7.915,384.667 7.811 C 384.667 7.560,384.056 7.042,383.380 6.722 C 383.079 6.579,382.833 6.396,382.833 6.314 C 382.833 6.233,382.725 6.167,382.592 6.167 C 382.459 6.167,382.148 5.979,381.901 5.750 C 381.654 5.521,381.350 5.333,381.226 5.333 C 381.102 5.333,381.000 5.258,381.000 5.167 C 381.000 5.075,380.850 5.000,380.667 5.000 C 380.483 5.000,380.333 4.925,380.333 4.833 C 380.333 4.742,380.173 4.667,379.978 4.667 C 379.782 4.667,379.501 4.528,379.353 4.358 C 379.002 3.957,378.109 3.500,377.675 3.500 C 377.487 3.500,377.333 3.425,377.333 3.333 C 377.333 3.242,377.183 3.167,377.000 3.167 C 376.817 3.167,376.667 3.092,376.667 3.000 C 376.667 2.908,376.479 2.833,376.250 2.833 C 376.021 2.833,375.833 2.764,375.833 2.680 C 375.833 2.596,375.609 2.477,375.335 2.417 C 375.061 2.357,374.794 2.238,374.742 2.154 C 374.690 2.069,374.468 2.000,374.250 2.000 C 374.032 2.000,373.807 1.925,373.750 1.833 C 373.693 1.742,373.468 1.667,373.250 1.667 C 373.032 1.667,372.807 1.592,372.750 1.500 C 372.693 1.408,372.389 1.333,372.073 1.333 C 371.758 1.333,371.500 1.258,371.500 1.167 C 371.500 1.075,371.169 1.000,370.764 1.000 C 370.359 1.000,370.002 0.923,369.971 0.830 C 369.907 0.637,368.686 0.380,366.833 0.167 C 365.277 -0.011,34.295 0.002,32.917 0.181 M203.667 6.915 C 204.721 7.051,205.733 7.197,205.917 7.239 C 206.100 7.282,206.775 7.440,207.417 7.590 C 215.246 9.419,223.022 15.008,226.887 21.583 C 227.264 22.225,227.615 22.787,227.666 22.833 C 227.834 22.982,229.284 26.057,229.631 27.000 C 229.816 27.504,230.081 28.220,230.219 28.590 C 234.555 40.231,229.758 56.349,219.816 63.543 C 219.413 63.834,219.046 64.113,219.000 64.162 C 218.237 64.983,212.224 68.333,211.515 68.333 C 211.421 68.333,211.061 68.456,210.714 68.606 C 209.719 69.037,209.445 69.136,209.000 69.224 C 208.771 69.269,207.983 69.462,207.250 69.653 C 199.759 71.601,189.876 70.104,183.538 66.060 C 183.055 65.752,182.624 65.500,182.580 65.500 C 182.537 65.500,182.107 65.219,181.625 64.875 C 176.934 61.526,173.104 56.995,170.920 52.213 C 170.594 51.500,170.266 50.804,170.191 50.667 C 170.075 50.454,169.143 47.537,168.673 45.917 C 168.535 45.443,168.407 44.666,168.006 41.885 C 167.590 38.999,168.002 33.661,168.885 30.500 C 170.818 23.576,174.955 17.365,180.350 13.286 C 182.916 11.346,185.958 9.648,188.333 8.830 C 188.929 8.625,189.540 8.393,189.691 8.315 C 190.322 7.989,194.038 7.146,195.583 6.978 C 196.500 6.879,197.281 6.768,197.319 6.732 C 197.495 6.566,201.949 6.695,203.667 6.915 M206.833 19.511 C 204.676 19.786,202.903 20.328,200.833 21.344 C 194.798 24.308,189.785 32.078,190.196 37.833 L 190.250 38.583 192.000 38.625 C 194.194 38.678,194.154 38.708,194.321 36.902 C 194.563 34.276,195.828 31.120,197.387 29.250 C 197.770 28.792,198.195 28.278,198.333 28.109 C 200.109 25.928,204.537 23.682,207.583 23.418 C 209.695 23.234,209.518 23.435,209.464 21.287 L 209.417 19.417 208.667 19.395 C 208.254 19.383,207.429 19.435,206.833 19.511 M209.297 21.272 L 209.345 22.960 208.381 23.071 C 205.521 23.398,203.870 23.953,201.200 25.485 C 200.582 25.839,198.168 27.825,198.164 27.982 C 198.163 28.038,197.802 28.476,197.362 28.957 C 196.902 29.460,196.224 30.519,195.763 31.457 C 195.323 32.351,194.903 33.204,194.829 33.350 C 194.625 33.756,194.204 35.635,194.086 36.667 C 193.881 38.457,194.033 38.333,192.044 38.333 L 190.291 38.333 190.389 37.542 C 190.721 34.846,191.099 33.012,191.381 32.730 C 191.446 32.665,191.500 32.473,191.500 32.303 C 191.500 32.134,191.568 31.865,191.652 31.706 C 191.736 31.547,191.999 31.004,192.237 30.500 C 192.744 29.428,193.655 27.787,193.810 27.667 C 193.870 27.621,194.138 27.283,194.405 26.917 C 195.487 25.437,198.397 22.863,199.850 22.102 C 200.070 21.987,200.400 21.810,200.583 21.708 C 200.907 21.529,201.807 21.124,203.000 20.620 C 203.321 20.484,204.033 20.283,204.583 20.173 C 205.133 20.063,205.883 19.905,206.250 19.821 C 207.027 19.645,208.040 19.541,208.750 19.566 L 209.250 19.583 209.297 21.272 M205.722 38.626 C 205.616 38.695,205.476 39.314,205.413 40.001 C 205.175 42.565,203.910 45.851,202.500 47.567 C 202.179 47.957,201.767 48.480,201.583 48.729 C 201.168 49.293,199.040 51.056,198.206 51.527 C 195.738 52.919,194.171 53.450,191.847 53.683 C 190.081 53.859,190.146 53.770,190.202 55.931 C 190.247 57.617,190.274 57.751,190.583 57.766 C 190.837 57.779,190.847 57.766,190.625 57.713 C 190.371 57.652,190.333 57.424,190.333 55.923 C 190.333 53.952,190.231 54.073,192.025 53.916 C 192.699 53.857,193.438 53.745,193.667 53.668 C 193.896 53.590,194.533 53.393,195.083 53.230 C 198.738 52.145,202.371 48.947,204.147 45.250 C 205.000 43.474,205.396 42.188,205.585 40.583 C 205.639 40.125,205.726 39.504,205.778 39.203 L 205.873 38.655 207.561 38.703 L 209.250 38.750 209.354 39.583 L 209.458 40.417 209.437 39.500 L 209.417 38.583 207.667 38.541 C 206.704 38.518,205.829 38.556,205.722 38.626 M209.101 41.025 C 209.054 41.332,208.979 41.808,208.936 42.083 C 208.644 43.942,207.467 46.981,206.473 48.447 C 206.213 48.830,206.000 49.224,206.000 49.322 C 206.000 49.420,205.944 49.501,205.875 49.501 C 205.806 49.502,205.563 49.782,205.333 50.123 C 204.874 50.807,202.823 52.918,202.167 53.382 C 201.044 54.175,199.021 55.500,198.931 55.500 C 198.875 55.500,198.474 55.657,198.040 55.850 C 196.109 56.705,194.595 57.142,192.417 57.472 C 191.561 57.602,191.513 57.626,192.083 57.639 C 192.674 57.653,193.836 57.451,195.667 57.017 C 200.145 55.954,205.488 51.440,207.521 47.000 C 208.267 45.371,208.296 45.302,208.510 44.583 C 208.620 44.217,208.767 43.761,208.838 43.571 C 209.041 43.024,209.391 40.668,209.284 40.562 C 209.231 40.509,209.149 40.717,209.101 41.025 M215.500 89.937 C 217.346 90.529,217.955 91.323,217.190 92.141 C 216.744 92.619,216.000 92.863,216.000 92.531 C 216.000 91.932,213.422 91.328,212.234 91.648 C 208.580 92.633,208.445 98.079,212.042 99.417 C 213.892 100.106,216.160 99.049,216.589 97.299 L 216.699 96.847 215.308 96.799 L 213.917 96.750 213.867 95.897 C 213.806 94.847,213.827 94.839,216.469 94.836 C 219.202 94.832,219.435 95.118,218.652 97.506 C 217.772 100.186,215.958 101.500,213.137 101.500 C 212.431 101.500,211.807 101.425,211.750 101.333 C 211.693 101.242,211.503 101.167,211.328 101.167 C 209.396 101.167,207.440 98.319,207.435 95.500 C 207.431 92.642,208.602 90.925,211.250 89.908 C 212.298 89.505,214.194 89.518,215.500 89.937 M115.333 90.226 C 116.608 90.887,116.613 90.897,116.108 91.660 C 115.596 92.433,115.541 92.446,114.689 92.012 C 113.352 91.329,111.209 91.363,110.437 92.079 C 109.365 93.073,110.349 94.486,112.123 94.497 C 115.805 94.522,117.900 97.574,115.917 100.023 C 114.727 101.492,111.290 101.988,109.294 100.980 C 109.135 100.899,108.907 100.833,108.788 100.833 C 108.668 100.833,108.319 100.623,108.011 100.366 L 107.452 99.899 107.915 99.200 C 108.448 98.393,108.461 98.390,109.215 98.835 C 111.649 100.271,115.258 99.497,114.513 97.699 C 114.260 97.088,113.946 96.945,112.079 96.591 C 109.017 96.012,107.835 95.093,107.834 93.290 C 107.833 91.778,108.508 90.843,110.250 89.945 C 111.167 89.472,114.205 89.640,115.333 90.226 M131.135 89.810 C 131.280 89.902,131.336 90.225,131.302 90.766 L 131.250 91.583 129.458 91.631 L 127.667 91.678 127.667 96.419 L 127.667 101.160 127.273 101.259 C 127.057 101.313,126.625 101.334,126.315 101.304 L 125.750 101.250 125.660 96.500 C 125.611 93.888,125.554 91.731,125.535 91.708 C 125.516 91.685,124.765 91.667,123.867 91.667 C 122.054 91.667,121.833 91.565,121.833 90.729 C 121.833 89.680,121.895 89.666,126.637 89.669 C 128.991 89.671,131.015 89.734,131.135 89.810 M141.844 89.839 C 142.022 89.934,142.167 90.088,142.167 90.181 C 142.167 90.273,142.317 90.660,142.500 91.039 C 142.683 91.419,142.833 91.850,142.833 91.998 C 142.833 92.146,142.896 92.338,142.973 92.425 C 143.050 92.512,143.212 92.846,143.333 93.167 C 143.453 93.487,143.728 94.146,143.943 94.630 C 144.158 95.114,144.333 95.584,144.333 95.674 C 144.333 95.764,144.402 95.968,144.487 96.127 C 144.571 96.286,144.989 97.317,145.415 98.417 C 145.841 99.517,146.252 100.536,146.329 100.682 C 146.582 101.160,146.269 101.355,145.335 101.301 C 144.758 101.268,144.406 101.163,144.323 101.000 C 144.038 100.445,143.614 99.411,143.507 99.010 L 143.393 98.583 140.753 98.583 L 138.113 98.583 137.679 99.799 C 137.179 101.199,137.036 101.327,135.958 101.331 C 134.914 101.334,134.959 101.027,136.517 97.543 C 136.691 97.155,136.833 96.780,136.832 96.710 C 136.831 96.592,138.088 93.410,138.605 92.225 C 138.730 91.936,138.833 91.641,138.833 91.569 C 138.833 91.336,139.555 89.920,139.739 89.794 C 140.006 89.611,141.476 89.642,141.844 89.839 M158.083 89.889 C 162.171 90.712,162.202 95.583,158.125 96.413 C 157.485 96.543,157.534 96.698,158.663 98.079 C 161.252 101.247,161.283 101.333,159.845 101.333 C 158.693 101.333,158.778 101.400,157.129 99.201 C 154.477 95.664,154.334 95.639,154.331 98.708 C 154.328 101.328,154.310 101.370,153.234 101.302 L 152.417 101.250 152.373 95.668 C 152.349 92.598,152.365 89.991,152.409 89.876 C 152.516 89.599,156.689 89.608,158.083 89.889 M169.384 89.875 C 169.633 90.060,169.669 90.600,169.707 94.750 L 169.750 99.417 172.833 99.500 L 175.917 99.583 175.971 100.062 C 176.001 100.325,175.981 100.720,175.926 100.940 L 175.825 101.339 171.788 101.295 L 167.750 101.250 167.706 95.595 C 167.672 91.181,167.708 89.910,167.873 89.805 C 168.194 89.601,169.069 89.641,169.384 89.875 M183.583 95.500 L 183.583 101.250 182.766 101.302 C 181.635 101.374,181.672 101.565,181.669 95.614 C 181.666 89.552,181.652 89.625,182.802 89.700 L 183.583 89.750 183.583 95.500 M192.495 89.830 C 192.663 89.921,193.087 90.389,193.437 90.872 C 193.786 91.355,194.113 91.787,194.162 91.833 C 194.211 91.879,194.475 92.217,194.748 92.583 C 195.021 92.950,195.358 93.388,195.497 93.556 C 196.018 94.185,196.279 94.517,197.404 95.982 C 198.039 96.808,198.620 97.445,198.696 97.399 C 198.771 97.352,198.833 95.683,198.833 93.690 C 198.833 89.708,198.844 89.665,199.825 89.669 C 200.886 89.674,200.842 89.405,200.794 95.595 L 200.750 101.250 199.954 101.301 C 199.293 101.343,199.102 101.287,198.826 100.968 C 198.365 100.434,194.065 94.888,193.525 94.131 C 192.847 93.181,192.833 93.245,192.833 97.330 L 192.833 101.160 192.440 101.259 C 192.223 101.313,191.792 101.334,191.481 101.304 L 190.917 101.250 190.873 95.595 C 190.838 91.181,190.875 89.910,191.039 89.805 C 191.332 89.620,192.127 89.634,192.495 89.830 M239.385 89.852 C 242.626 90.353,243.915 92.969,241.868 94.893 L 241.362 95.368 241.939 95.876 C 243.372 97.134,243.390 99.336,241.976 100.361 C 240.845 101.181,240.686 101.211,237.302 101.231 L 234.083 101.250 234.039 95.668 C 234.015 92.598,234.032 89.991,234.076 89.876 C 234.180 89.605,237.687 89.590,239.385 89.852 M255.155 90.106 C 255.345 90.347,255.500 90.648,255.500 90.774 C 255.500 90.900,255.642 91.322,255.816 91.710 C 255.989 92.099,256.406 93.129,256.742 94.000 C 257.472 95.891,257.519 96.009,258.209 97.667 C 258.342 97.987,258.619 98.700,258.825 99.250 C 259.031 99.800,259.276 100.412,259.369 100.609 C 259.624 101.147,259.401 101.333,258.502 101.333 C 257.672 101.333,257.167 101.044,257.167 100.569 C 257.167 100.437,257.101 100.199,257.020 100.039 C 256.940 99.880,256.753 99.467,256.604 99.121 L 256.335 98.491 253.810 98.537 C 251.090 98.587,251.268 98.524,250.833 99.583 C 250.720 99.858,250.562 100.214,250.481 100.373 C 250.400 100.532,250.333 100.768,250.333 100.897 C 250.333 101.355,248.453 101.553,248.284 101.113 C 248.210 100.920,249.258 98.127,250.185 96.043 C 250.358 95.655,250.500 95.289,250.500 95.230 C 250.500 94.885,252.573 90.047,252.795 89.875 C 253.317 89.470,254.766 89.612,255.155 90.106 M269.366 92.667 C 270.623 94.271,271.770 95.733,271.916 95.917 C 272.062 96.100,272.309 96.427,272.465 96.644 C 273.386 97.917,273.322 98.121,273.328 93.895 C 273.334 89.560,273.319 89.611,274.529 89.698 L 275.250 89.750 275.250 95.500 L 275.250 101.250 274.475 101.300 C 273.729 101.348,272.670 100.653,272.667 100.113 C 272.667 100.037,272.043 99.197,271.281 98.245 C 270.519 97.294,269.713 96.274,269.489 95.978 C 268.416 94.556,267.757 93.739,267.595 93.631 C 267.471 93.548,267.391 94.690,267.333 97.381 L 267.250 101.250 266.685 101.304 C 266.375 101.334,265.943 101.313,265.727 101.259 L 265.333 101.160 265.333 95.511 C 265.333 89.306,265.267 89.662,266.416 89.718 C 267.070 89.749,267.122 89.802,269.366 92.667 M284.236 89.768 C 284.459 89.853,284.500 90.227,284.500 92.184 L 284.500 94.500 284.992 94.500 C 285.533 94.500,285.686 94.368,287.333 92.490 C 289.721 89.767,289.846 89.666,290.851 89.669 C 292.553 89.674,292.617 89.570,287.642 94.922 L 287.172 95.427 288.891 97.255 C 293.032 101.659,292.848 101.333,291.197 101.333 L 290.060 101.333 287.764 98.917 C 285.846 96.897,285.390 96.500,284.989 96.500 L 284.509 96.500 284.463 98.875 L 284.417 101.250 283.500 101.250 L 282.583 101.250 282.539 95.686 C 282.508 91.720,282.550 90.057,282.685 89.895 C 282.879 89.660,283.767 89.588,284.236 89.768 M154.333 93.184 L 154.333 94.702 156.316 94.643 C 158.631 94.573,159.000 94.392,159.000 93.321 C 159.000 91.973,158.440 91.667,155.980 91.667 L 154.333 91.667 154.333 93.184 M236.000 93.083 L 236.000 94.500 237.796 94.500 C 240.040 94.500,240.665 94.191,240.659 93.083 C 240.653 92.019,239.907 91.667,237.659 91.667 L 236.000 91.667 236.000 93.083 M140.091 93.625 C 139.755 94.519,139.410 95.380,139.324 95.539 C 138.870 96.375,139.056 96.500,140.750 96.500 C 142.444 96.500,142.616 96.385,142.186 95.539 C 141.982 95.137,141.767 94.610,141.237 93.208 C 140.682 91.739,140.818 91.690,140.091 93.625 M252.954 94.129 C 251.916 96.696,251.853 96.521,253.792 96.464 C 255.549 96.413,255.596 96.378,255.174 95.417 C 255.093 95.233,254.820 94.521,254.568 93.833 C 253.860 91.908,253.852 91.909,252.954 94.129 M236.000 98.023 L 236.000 99.546 237.932 99.461 C 240.097 99.366,240.626 99.140,240.896 98.197 C 241.248 96.969,240.399 96.500,237.822 96.500 L 236.000 96.500 236.000 98.023 " stroke="none" fill="#dbdbdb" fill-rule="evenodd"></path><path id="path1" d="M196.250 6.921 C 191.512 7.468,187.019 8.989,183.372 11.281 C 182.889 11.585,182.450 11.833,182.398 11.833 C 182.103 11.833,178.922 14.429,177.529 15.807 C 174.350 18.951,171.398 23.313,170.178 26.667 C 170.062 26.988,169.906 27.400,169.833 27.583 C 168.729 30.351,167.833 35.173,167.833 38.353 C 167.833 42.019,168.654 46.629,169.833 49.583 C 169.906 49.767,170.063 50.179,170.182 50.500 C 173.553 59.617,182.687 67.439,192.583 69.683 C 198.856 71.105,204.938 70.692,211.333 68.410 C 212.442 68.015,215.123 66.701,216.128 66.060 C 216.611 65.752,217.046 65.500,217.095 65.500 C 217.433 65.500,220.753 62.768,222.348 61.176 C 225.748 57.786,227.995 54.389,229.591 50.229 C 229.833 49.599,230.090 48.933,230.163 48.750 C 230.236 48.567,230.373 48.117,230.468 47.750 C 230.563 47.383,230.732 46.746,230.845 46.333 C 232.008 42.068,232.105 35.582,231.063 31.741 C 230.915 31.196,230.738 30.488,230.669 30.167 C 230.237 28.157,228.668 24.476,227.383 22.457 C 226.989 21.837,226.664 21.274,226.660 21.207 C 226.653 21.085,226.423 20.763,225.052 18.960 C 224.080 17.682,220.786 14.389,219.583 13.494 C 219.033 13.085,218.487 12.659,218.370 12.548 C 217.961 12.162,214.906 10.435,213.250 9.653 C 207.999 7.175,202.168 6.238,196.250 6.921 M209.464 21.287 C 209.518 23.435,209.695 23.234,207.583 23.418 C 204.537 23.682,200.109 25.928,198.333 28.109 C 198.195 28.278,197.770 28.792,197.387 29.250 C 195.828 31.120,194.563 34.276,194.321 36.902 C 194.154 38.708,194.194 38.678,192.000 38.625 L 190.250 38.583 190.196 37.833 C 190.130 36.898,190.578 34.359,191.101 32.712 C 192.829 27.267,196.937 22.882,202.417 20.634 C 204.254 19.880,206.951 19.345,208.667 19.395 L 209.417 19.417 209.464 21.287 M209.470 39.140 C 209.526 39.726,209.066 42.960,208.841 43.564 C 208.768 43.758,208.620 44.217,208.510 44.583 C 208.296 45.302,208.267 45.371,207.521 47.000 C 205.593 51.210,200.684 55.509,196.333 56.797 C 196.012 56.892,195.487 57.047,195.167 57.142 C 194.259 57.409,192.696 57.641,191.417 57.698 L 190.250 57.750 190.202 55.931 C 190.146 53.770,190.081 53.859,191.847 53.683 C 194.171 53.450,195.738 52.919,198.206 51.527 C 199.040 51.056,201.168 49.293,201.583 48.729 C 201.767 48.480,202.179 47.957,202.500 47.567 C 203.910 45.851,205.175 42.565,205.413 40.001 C 205.554 38.469,205.522 38.490,207.667 38.541 L 209.417 38.583 209.470 39.140 " stroke="none" fill="#733de9" fill-rule="evenodd"></path><path id="path2" d="M212.417 89.668 C 210.378 89.941,208.705 91.135,207.825 92.943 C 206.387 95.899,208.631 101.167,211.328 101.167 C 211.503 101.167,211.693 101.242,211.750 101.333 C 211.807 101.425,212.431 101.500,213.137 101.500 C 215.958 101.500,217.772 100.186,218.652 97.506 C 219.435 95.118,219.202 94.832,216.469 94.836 C 213.827 94.839,213.806 94.847,213.867 95.897 L 213.917 96.750 215.308 96.799 L 216.699 96.847 216.589 97.299 C 216.160 99.049,213.892 100.106,212.042 99.417 C 208.445 98.079,208.580 92.633,212.234 91.648 C 213.422 91.328,216.000 91.932,216.000 92.531 C 216.000 92.863,216.744 92.619,217.190 92.141 C 217.804 91.485,217.755 91.218,216.916 90.638 C 215.718 89.810,214.046 89.450,212.417 89.668 M110.250 89.945 C 108.508 90.843,107.833 91.778,107.834 93.290 C 107.835 95.093,109.017 96.012,112.079 96.591 C 113.946 96.945,114.260 97.088,114.513 97.699 C 115.258 99.497,111.649 100.271,109.215 98.835 C 108.461 98.390,108.448 98.393,107.915 99.200 L 107.452 99.899 108.011 100.366 C 108.319 100.623,108.668 100.833,108.788 100.833 C 108.907 100.833,109.135 100.899,109.294 100.980 C 111.290 101.988,114.727 101.492,115.917 100.023 C 117.900 97.574,115.805 94.522,112.123 94.497 C 110.349 94.486,109.365 93.073,110.437 92.079 C 111.209 91.363,113.352 91.329,114.689 92.012 C 115.541 92.446,115.596 92.433,116.108 91.660 C 116.613 90.897,116.608 90.887,115.333 90.226 C 114.205 89.640,111.167 89.472,110.250 89.945 M122.095 89.929 C 121.786 90.238,121.748 91.181,122.033 91.467 C 122.162 91.595,122.819 91.667,123.867 91.667 C 124.765 91.667,125.516 91.685,125.535 91.708 C 125.554 91.731,125.611 93.888,125.660 96.500 L 125.750 101.250 126.315 101.304 C 126.625 101.334,127.057 101.313,127.273 101.259 L 127.667 101.160 127.667 96.419 L 127.667 91.678 129.458 91.631 L 131.250 91.583 131.302 90.766 C 131.336 90.225,131.280 89.902,131.135 89.810 C 130.692 89.529,122.386 89.638,122.095 89.929 M139.739 89.794 C 139.555 89.920,138.833 91.336,138.833 91.569 C 138.833 91.641,138.730 91.936,138.605 92.225 C 138.088 93.410,136.831 96.592,136.832 96.710 C 136.833 96.780,136.691 97.155,136.517 97.543 C 134.959 101.027,134.914 101.334,135.958 101.331 C 137.036 101.327,137.179 101.199,137.679 99.799 L 138.113 98.583 140.753 98.583 L 143.393 98.583 143.507 99.010 C 143.614 99.411,144.038 100.445,144.323 101.000 C 144.406 101.163,144.758 101.268,145.335 101.301 C 146.269 101.355,146.582 101.160,146.329 100.682 C 146.252 100.536,145.841 99.517,145.415 98.417 C 144.989 97.317,144.571 96.286,144.487 96.127 C 144.402 95.968,144.333 95.764,144.333 95.674 C 144.333 95.584,144.158 95.114,143.943 94.630 C 143.728 94.146,143.453 93.487,143.333 93.167 C 143.212 92.846,143.050 92.512,142.973 92.425 C 142.896 92.338,142.833 92.146,142.833 91.998 C 142.833 91.850,142.683 91.419,142.500 91.039 C 142.317 90.660,142.167 90.273,142.167 90.181 C 142.167 89.754,140.242 89.448,139.739 89.794 M152.409 89.876 C 152.365 89.991,152.349 92.598,152.373 95.668 L 152.417 101.250 153.234 101.302 C 154.310 101.370,154.328 101.328,154.331 98.708 C 154.334 95.639,154.477 95.664,157.129 99.201 C 158.778 101.400,158.693 101.333,159.845 101.333 C 161.283 101.333,161.252 101.247,158.663 98.079 C 157.534 96.698,157.485 96.543,158.125 96.413 C 161.296 95.767,162.261 91.810,159.598 90.369 C 158.420 89.731,152.617 89.334,152.409 89.876 M167.873 89.805 C 167.708 89.910,167.672 91.181,167.706 95.595 L 167.750 101.250 171.788 101.295 L 175.825 101.339 175.926 100.940 C 175.981 100.720,176.001 100.325,175.971 100.062 L 175.917 99.583 172.833 99.500 L 169.750 99.417 169.707 94.750 C 169.669 90.600,169.633 90.060,169.384 89.875 C 169.069 89.641,168.194 89.601,167.873 89.805 M181.844 89.980 C 181.631 90.378,181.599 100.803,181.810 101.135 C 181.902 101.280,182.225 101.336,182.766 101.302 L 183.583 101.250 183.583 95.500 L 183.583 89.750 182.802 89.700 C 182.163 89.658,181.989 89.709,181.844 89.980 M191.039 89.805 C 190.875 89.910,190.838 91.181,190.873 95.595 L 190.917 101.250 191.481 101.304 C 191.792 101.334,192.223 101.313,192.440 101.259 L 192.833 101.160 192.833 97.330 C 192.833 93.245,192.847 93.181,193.525 94.131 C 194.065 94.888,198.365 100.434,198.826 100.968 C 199.102 101.287,199.293 101.343,199.954 101.301 L 200.750 101.250 200.794 95.595 C 200.842 89.405,200.886 89.674,199.825 89.669 C 198.844 89.665,198.833 89.708,198.833 93.690 C 198.833 95.683,198.771 97.352,198.696 97.399 C 198.620 97.445,198.039 96.808,197.404 95.982 C 196.279 94.517,196.018 94.185,195.497 93.556 C 195.358 93.388,195.021 92.950,194.748 92.583 C 194.475 92.217,194.211 91.879,194.162 91.833 C 194.113 91.787,193.786 91.355,193.437 90.872 C 192.602 89.720,191.762 89.347,191.039 89.805 M234.076 89.876 C 234.032 89.991,234.015 92.598,234.039 95.668 L 234.083 101.250 237.302 101.231 C 240.686 101.211,240.845 101.181,241.976 100.361 C 243.390 99.336,243.372 97.134,241.939 95.876 L 241.362 95.368 241.868 94.893 C 243.915 92.969,242.626 90.353,239.385 89.852 C 237.687 89.590,234.180 89.605,234.076 89.876 M252.795 89.875 C 252.573 90.047,250.500 94.885,250.500 95.230 C 250.500 95.289,250.358 95.655,250.185 96.043 C 249.258 98.127,248.210 100.920,248.284 101.113 C 248.453 101.553,250.333 101.355,250.333 100.897 C 250.333 100.768,250.400 100.532,250.481 100.373 C 250.562 100.214,250.720 99.858,250.833 99.583 C 251.268 98.524,251.090 98.587,253.810 98.537 L 256.335 98.491 256.604 99.121 C 256.753 99.467,256.940 99.880,257.020 100.039 C 257.101 100.199,257.167 100.437,257.167 100.569 C 257.167 101.044,257.672 101.333,258.502 101.333 C 259.401 101.333,259.624 101.147,259.369 100.609 C 259.276 100.412,259.031 99.800,258.825 99.250 C 258.619 98.700,258.342 97.987,258.209 97.667 C 257.519 96.009,257.472 95.891,256.742 94.000 C 256.406 93.129,255.989 92.099,255.816 91.710 C 255.642 91.322,255.500 90.900,255.500 90.774 C 255.500 89.872,253.609 89.243,252.795 89.875 M265.542 89.773 C 265.381 89.841,265.333 91.149,265.333 95.511 L 265.333 101.160 265.727 101.259 C 265.943 101.313,266.375 101.334,266.685 101.304 L 267.250 101.250 267.333 97.381 C 267.391 94.690,267.471 93.548,267.595 93.631 C 267.757 93.739,268.416 94.556,269.489 95.978 C 269.713 96.274,270.519 97.294,271.281 98.245 C 272.043 99.197,272.667 100.037,272.667 100.113 C 272.670 100.653,273.729 101.348,274.475 101.300 L 275.250 101.250 275.250 95.500 L 275.250 89.750 274.529 89.698 C 273.319 89.611,273.334 89.560,273.328 93.895 C 273.322 98.121,273.386 97.917,272.465 96.644 C 272.309 96.427,272.062 96.100,271.916 95.917 C 271.770 95.733,270.623 94.271,269.366 92.667 C 266.961 89.596,266.602 89.325,265.542 89.773 M282.685 89.895 C 282.550 90.057,282.508 91.720,282.539 95.686 L 282.583 101.250 283.500 101.250 L 284.417 101.250 284.463 98.875 L 284.509 96.500 284.989 96.500 C 285.390 96.500,285.846 96.897,287.764 98.917 L 290.060 101.333 291.197 101.333 C 292.590 101.333,292.612 101.225,291.467 100.000 C 290.995 99.496,289.836 98.261,288.891 97.255 L 287.172 95.427 287.642 94.922 C 292.617 89.570,292.553 89.674,290.851 89.669 C 289.846 89.666,289.721 89.767,287.333 92.490 C 285.686 94.368,285.533 94.500,284.992 94.500 L 284.500 94.500 284.500 92.184 C 284.500 89.638,284.512 89.667,283.423 89.667 C 283.121 89.667,282.789 89.769,282.685 89.895 M158.209 91.910 C 158.867 92.185,159.000 92.422,159.000 93.321 C 159.000 94.392,158.631 94.573,156.316 94.643 L 154.333 94.702 154.333 93.184 L 154.333 91.667 155.980 91.667 C 157.047 91.667,157.831 91.752,158.209 91.910 M239.784 91.873 C 240.413 92.152,240.656 92.487,240.659 93.083 C 240.665 94.191,240.040 94.500,237.796 94.500 L 236.000 94.500 236.000 93.083 L 236.000 91.667 237.659 91.667 C 238.615 91.667,239.515 91.754,239.784 91.873 M141.237 93.208 C 141.767 94.610,141.982 95.137,142.186 95.539 C 142.616 96.385,142.444 96.500,140.750 96.500 C 139.056 96.500,138.870 96.375,139.324 95.539 C 139.410 95.380,139.755 94.519,140.091 93.625 C 140.818 91.690,140.682 91.739,141.237 93.208 M254.568 93.833 C 254.820 94.521,255.093 95.233,255.174 95.417 C 255.596 96.378,255.549 96.413,253.792 96.464 C 251.853 96.521,251.916 96.696,252.954 94.129 C 253.852 91.909,253.860 91.908,254.568 93.833 M240.064 96.659 C 240.715 96.907,241.075 97.572,240.896 98.197 C 240.626 99.140,240.097 99.366,237.932 99.461 L 236.000 99.546 236.000 98.023 L 236.000 96.500 237.822 96.500 C 238.825 96.500,239.833 96.572,240.064 96.659 " stroke="none" fill="#8a9296" fill-rule="evenodd"></path><path id="path3" d="M207.583 19.609 C 207.217 19.643,206.617 19.738,206.250 19.821 C 205.883 19.905,205.133 20.063,204.583 20.173 C 204.033 20.283,203.321 20.484,203.000 20.620 C 201.807 21.124,200.907 21.529,200.583 21.708 C 200.400 21.810,200.070 21.987,199.850 22.102 C 198.397 22.863,195.487 25.437,194.405 26.917 C 194.138 27.283,193.870 27.621,193.810 27.667 C 193.655 27.787,192.744 29.428,192.237 30.500 C 191.999 31.004,191.736 31.547,191.652 31.706 C 191.568 31.865,191.500 32.134,191.500 32.303 C 191.500 32.473,191.446 32.665,191.381 32.730 C 191.099 33.012,190.721 34.846,190.389 37.542 L 190.291 38.333 192.044 38.333 C 194.033 38.333,193.881 38.457,194.086 36.667 C 194.204 35.635,194.625 33.756,194.829 33.350 C 194.903 33.204,195.323 32.351,195.763 31.457 C 196.224 30.519,196.902 29.460,197.362 28.957 C 197.802 28.476,198.163 28.038,198.164 27.982 C 198.168 27.825,200.582 25.839,201.200 25.485 C 203.870 23.953,205.521 23.398,208.381 23.071 L 209.345 22.960 209.297 21.272 L 209.250 19.583 208.750 19.566 C 208.475 19.557,207.950 19.576,207.583 19.609 M205.778 39.203 C 205.726 39.504,205.639 40.125,205.585 40.583 C 204.927 46.178,200.376 51.658,195.083 53.230 C 194.533 53.393,193.896 53.590,193.667 53.668 C 193.438 53.745,192.699 53.857,192.025 53.916 C 190.230 54.073,190.333 53.950,190.333 55.934 C 190.333 57.941,190.117 57.793,192.515 57.428 C 194.876 57.070,196.033 56.739,198.040 55.850 C 198.474 55.657,198.875 55.500,198.931 55.500 C 199.021 55.500,201.044 54.175,202.167 53.382 C 202.823 52.918,204.874 50.807,205.333 50.123 C 205.563 49.782,205.806 49.502,205.875 49.501 C 205.944 49.501,206.000 49.420,206.000 49.322 C 206.000 49.224,206.213 48.830,206.473 48.447 C 207.924 46.309,209.170 42.341,209.229 39.667 L 209.250 38.750 207.561 38.703 L 205.873 38.655 205.778 39.203 " stroke="none" fill="#fbfbfc" fill-rule="evenodd"></path></g></svg>